<svg width="20" height="11" viewBox="0 0 20 11" fill="none" xmlns="http://www.w3.org/2000/svg">
<path d="M8.616 7.9H4.066L3.198 10H0.874L5.242 0.199999H7.482L11.864 10H9.484L8.616 7.9ZM7.902 6.178L6.348 2.426L4.794 6.178H7.902ZM15.7648 2.356C16.9314 2.356 17.8274 2.636 18.4528 3.196C19.0781 3.74667 19.3908 4.582 19.3908 5.702V10H17.3468V9.062C16.9361 9.762 16.1708 10.112 15.0508 10.112C14.4721 10.112 13.9681 10.014 13.5388 9.818C13.1188 9.622 12.7968 9.35133 12.5728 9.006C12.3488 8.66067 12.2368 8.26867 12.2368 7.83C12.2368 7.13 12.4981 6.57933 13.0208 6.178C13.5528 5.77667 14.3694 5.576 15.4708 5.576H17.2068C17.2068 5.1 17.0621 4.736 16.7728 4.484C16.4834 4.22267 16.0494 4.092 15.4708 4.092C15.0694 4.092 14.6728 4.15733 14.2808 4.288C13.8981 4.40933 13.5714 4.57733 13.3008 4.792L12.5168 3.266C12.9274 2.97667 13.4174 2.75267 13.9868 2.594C14.5654 2.43533 15.1581 2.356 15.7648 2.356ZM15.5968 8.642C15.9701 8.642 16.3014 8.558 16.5908 8.39C16.8801 8.21267 17.0854 7.956 17.2068 7.62V6.85H15.7088C14.8128 6.85 14.3648 7.144 14.3648 7.732C14.3648 8.012 14.4721 8.236 14.6868 8.404C14.9108 8.56267 15.2141 8.642 15.5968 8.642Z" fill="white"/>
</svg>
