<svg width="23" height="13" viewBox="0 0 23 13" fill="none" xmlns="http://www.w3.org/2000/svg">
<path d="M9.62388 9.82405H4.88788L4.00788 12H0.775879L5.71988 0.800049H8.83988L13.7999 12H10.5039L9.62388 9.82405ZM8.69588 7.48805L7.25588 3.90405L5.81588 7.48805H8.69588Z" fill="white"/>
<path d="M18.25 3.18405C19.69 3.18405 20.7887 3.51472 21.546 4.17605C22.3033 4.82672 22.682 5.82938 22.682 7.18405V12H19.85V10.88C19.4127 11.7227 18.5593 12.144 17.29 12.144C16.618 12.144 16.0367 12.0267 15.546 11.792C15.0553 11.5574 14.682 11.2427 14.426 10.848C14.1807 10.4427 14.058 9.98405 14.058 9.47205C14.058 8.65072 14.3727 8.01605 15.002 7.56805C15.6313 7.10938 16.602 6.88005 17.914 6.88005H19.642C19.5887 5.96272 18.9753 5.50405 17.802 5.50405C17.386 5.50405 16.9647 5.57338 16.538 5.71205C16.1113 5.84005 15.7487 6.02138 15.45 6.25605L14.426 4.19205C14.906 3.87205 15.4873 3.62672 16.17 3.45605C16.8633 3.27472 17.5567 3.18405 18.25 3.18405ZM18.138 10.224C18.49 10.224 18.7993 10.1387 19.066 9.96805C19.3327 9.79738 19.5247 9.54672 19.642 9.21605V8.46405H18.33C17.4447 8.46405 17.002 8.75738 17.002 9.34405C17.002 9.61072 17.1033 9.82405 17.306 9.98405C17.5087 10.144 17.786 10.224 18.138 10.224Z" fill="white"/>
</svg>
