<svg width="23" height="13" viewBox="0 0 23 13" fill="none" xmlns="http://www.w3.org/2000/svg">
<path d="M9.67195 9.00805H3.41595L1.47995 12H0.199951L7.55995 0.800049H8.72795L11.608 12H10.424L9.67195 9.00805ZM9.44795 8.04805L7.92795 2.00005L4.02395 8.04805H9.44795Z" fill="white"/>
<path d="M22.5026 3.58405L20.8226 12H19.7346L20.0066 10.672C19.6012 11.12 19.1212 11.4667 18.5666 11.712C18.0119 11.9574 17.3986 12.08 16.7266 12.08C16.0119 12.08 15.3772 11.936 14.8226 11.648C14.2679 11.36 13.8359 10.9494 13.5266 10.416C13.2172 9.87205 13.0626 9.23738 13.0626 8.51205C13.0626 7.56272 13.2652 6.70938 13.6706 5.95205C14.0866 5.19472 14.6572 4.60272 15.3826 4.17605C16.1079 3.73872 16.9186 3.52005 17.8146 3.52005C18.6146 3.52005 19.2866 3.68005 19.8306 4.00005C20.3746 4.30938 20.7692 4.75738 21.0146 5.34405L21.3666 3.58405H22.5026ZM16.9666 11.072C17.6599 11.072 18.2839 10.9067 18.8386 10.576C19.3932 10.2347 19.8252 9.76538 20.1346 9.16805C20.4546 8.56005 20.6146 7.88272 20.6146 7.13605C20.6146 6.31472 20.3692 5.67472 19.8786 5.21605C19.3986 4.74672 18.7212 4.51205 17.8466 4.51205C17.1532 4.51205 16.5292 4.68272 15.9746 5.02405C15.4199 5.36538 14.9826 5.84005 14.6626 6.44805C14.3532 7.04538 14.1986 7.71738 14.1986 8.46405C14.1986 9.28538 14.4386 9.92538 14.9186 10.384C15.4092 10.8427 16.0919 11.072 16.9666 11.072Z" fill="white"/>
</svg>
