<svg width="20" height="11" viewBox="0 0 20 11" fill="none" xmlns="http://www.w3.org/2000/svg">
<path d="M8.588 7.382H3.114L1.42 10H0.3L6.74 0.199999H7.762L10.282 10H9.246L8.588 7.382ZM8.392 6.542L7.062 1.25L3.646 6.542H8.392ZM19.8148 2.636L18.3448 10H17.3928L17.6308 8.838C17.2761 9.23 16.8561 9.53333 16.3708 9.748C15.8855 9.96267 15.3488 10.07 14.7608 10.07C14.1355 10.07 13.5801 9.944 13.0948 9.692C12.6095 9.44 12.2315 9.08067 11.9608 8.614C11.6901 8.138 11.5548 7.58267 11.5548 6.948C11.5548 6.11733 11.7321 5.37067 12.0868 4.708C12.4508 4.04533 12.9501 3.52733 13.5848 3.154C14.2195 2.77133 14.9288 2.58 15.7128 2.58C16.4128 2.58 17.0008 2.72 17.4768 3C17.9528 3.27067 18.2981 3.66267 18.5128 4.176L18.8208 2.636H19.8148ZM14.9708 9.188C15.5775 9.188 16.1235 9.04333 16.6088 8.754C17.0941 8.45533 17.4721 8.04467 17.7428 7.522C18.0228 6.99 18.1628 6.39733 18.1628 5.744C18.1628 5.02533 17.9481 4.46533 17.5188 4.064C17.0988 3.65333 16.5061 3.448 15.7408 3.448C15.1341 3.448 14.5881 3.59733 14.1028 3.896C13.6175 4.19467 13.2348 4.61 12.9548 5.142C12.6841 5.66467 12.5488 6.25267 12.5488 6.906C12.5488 7.62467 12.7588 8.18467 13.1788 8.586C13.6081 8.98733 14.2055 9.188 14.9708 9.188Z" fill="white"/>
</svg>
