<svg width="17" height="11" viewBox="0 0 17 11" fill="none" xmlns="http://www.w3.org/2000/svg">
<path d="M7.742 7.382H2.282L1.106 10H0.028L4.508 0.199999H5.53L10.01 10H8.918L7.742 7.382ZM7.364 6.542L5.012 1.278L2.66 6.542H7.364ZM13.9972 2.58C14.9585 2.58 15.6958 2.82267 16.2092 3.308C16.7225 3.784 16.9792 4.49333 16.9792 5.436V10H16.0272V8.852C15.8032 9.23467 15.4718 9.53333 15.0332 9.748C14.6038 9.96267 14.0905 10.07 13.4932 10.07C12.6718 10.07 12.0185 9.874 11.5332 9.482C11.0478 9.09 10.8052 8.572 10.8052 7.928C10.8052 7.30267 11.0292 6.79867 11.4772 6.416C11.9345 6.03333 12.6578 5.842 13.6472 5.842H15.9852V5.394C15.9852 4.75933 15.8078 4.27867 15.4532 3.952C15.0985 3.616 14.5805 3.448 13.8992 3.448C13.4325 3.448 12.9845 3.52733 12.5552 3.686C12.1258 3.83533 11.7572 4.04533 11.4492 4.316L11.0012 3.574C11.3745 3.25667 11.8225 3.014 12.3452 2.846C12.8678 2.66867 13.4185 2.58 13.9972 2.58ZM13.6472 9.286C14.2072 9.286 14.6878 9.16 15.0892 8.908C15.4905 8.64667 15.7892 8.27333 15.9852 7.788V6.584H13.6752C12.4152 6.584 11.7852 7.02267 11.7852 7.9C11.7852 8.32933 11.9485 8.67 12.2752 8.922C12.6018 9.16467 13.0592 9.286 13.6472 9.286Z" fill="white"/>
</svg>
