<svg width="42" height="42" viewBox="0 0 42 42" fill="none" xmlns="http://www.w3.org/2000/svg">
<path d="M15 21H18L14 17L10 21H13C13 23.1217 13.8429 25.1566 15.3431 26.6569C16.8434 28.1571 18.8783 29 21 29C22.57 29 24.03 28.54 25.26 27.76L23.8 26.3C22.97 26.75 22 27 21 27C19.4087 27 17.8826 26.3679 16.7574 25.2426C15.6321 24.1174 15 22.5913 15 21ZM16.74 14.24L18.2 15.7C19.04 15.26 20 15 21 15C22.5913 15 24.1174 15.6321 25.2426 16.7574C26.3679 17.8826 27 19.4087 27 21H24L28 25L32 21H29C29 18.8783 28.1571 16.8434 26.6569 15.3431C25.1566 13.8429 23.1217 13 21 13C19.43 13 17.97 13.46 16.74 14.24Z" fill="white"/>
<circle cx="21" cy="21" r="20.5" stroke="white"/>
</svg>
