<svg width="19" height="23" viewBox="0 0 19 23" fill="none" xmlns="http://www.w3.org/2000/svg">
<path d="M10.651 3.73006V0L5.2241 5.52826L10.651 10.935V6.18436C14.0383 6.76756 16.6146 9.75647 16.6146 13.365C16.6146 16.9736 14.0383 19.9625 10.651 20.5457V23C15.3622 22.4046 19 18.3222 19 13.365C19 8.40782 15.3622 4.32541 10.651 3.73006ZM3.61394 21.0438C4.99749 22.1373 6.60766 22.7934 8.26554 23V20.5335C7.22787 20.3513 6.22599 19.9382 5.33145 19.2821L3.61394 21.0438ZM2.40929 14.58H0C0.202762 16.2689 0.858757 17.897 1.9322 19.3064L3.61394 17.5811C2.99372 16.6698 2.57627 15.6492 2.40929 14.58ZM3.62586 9.14897L1.94413 7.42367C0.870684 8.83307 0.202762 10.4612 0 12.15H2.40929C2.57627 11.093 2.99372 10.0602 3.62586 9.14897Z" fill="white"/>
</svg>
