<svg width="19" height="23" viewBox="0 0 19 23" fill="none" xmlns="http://www.w3.org/2000/svg">
<path d="M8.34903 3.73006V0L13.7759 5.52826L8.34903 10.935V6.18436C4.96171 6.76756 2.38544 9.75647 2.38544 13.365C2.38544 16.9736 4.96171 19.9625 8.34903 20.5457V23C3.63779 22.4046 0 18.3222 0 13.365C0 8.40782 3.63779 4.32541 8.34903 3.73006ZM15.3861 21.0438C14.0025 22.1373 12.3923 22.7934 10.7345 23V20.5335C11.7721 20.3513 12.774 19.9382 13.6686 19.2821L15.3861 21.0438ZM16.5907 14.58H19C18.7972 16.2689 18.1412 17.897 17.0678 19.3064L15.3861 17.5811C16.0063 16.6698 16.4237 15.6492 16.5907 14.58ZM15.3741 9.14897L17.0559 7.42367C18.1293 8.83307 18.7972 10.4612 19 12.15H16.5907C16.4237 11.093 16.0063 10.0602 15.3741 9.14897Z" fill="white"/>
</svg>
