<svg width="21" height="15" viewBox="0 0 21 15" fill="none" xmlns="http://www.w3.org/2000/svg">
<path d="M8.848 9.00805H2.608L1.264 12H0.032L5.152 0.800049H6.32L11.44 12H10.192L8.848 9.00805ZM8.416 8.04805L5.728 2.03205L3.04 8.04805H8.416Z" fill="white"/>
<path d="M15.9967 3.52005C17.0954 3.52005 17.9381 3.79738 18.5247 4.35205C19.1114 4.89605 19.4048 5.70672 19.4048 6.78405V12H18.3167V10.688C18.0607 11.1254 17.6821 11.4667 17.1807 11.712C16.6901 11.9574 16.1034 12.08 15.4207 12.08C14.4821 12.08 13.7354 11.856 13.1807 11.408C12.6261 10.96 12.3488 10.368 12.3488 9.63205C12.3488 8.91738 12.6047 8.34138 13.1167 7.90405C13.6394 7.46672 14.4661 7.24805 15.5968 7.24805H18.2687V6.73605C18.2687 6.01072 18.0661 5.46138 17.6608 5.08805C17.2554 4.70405 16.6634 4.51205 15.8848 4.51205C15.3514 4.51205 14.8394 4.60272 14.3488 4.78405C13.8581 4.95472 13.4368 5.19472 13.0848 5.50405L12.5728 4.65605C12.9994 4.29338 13.5114 4.01605 14.1088 3.82405C14.7061 3.62138 15.3354 3.52005 15.9967 3.52005ZM15.5968 11.184C16.2368 11.184 16.7861 11.04 17.2448 10.752C17.7034 10.4534 18.0447 10.0267 18.2687 9.47205V8.09605H15.6287C14.1887 8.09605 13.4688 8.59738 13.4688 9.60005C13.4688 10.0907 13.6554 10.48 14.0288 10.768C14.4021 11.0454 14.9248 11.184 15.5968 11.184Z" fill="white"/>
<path d="M0 13.6H20.9088V14.4H0V13.6Z" fill="white"/>
</svg>
