<svg width="42" height="42" viewBox="0 0 42 42" fill="none" xmlns="http://www.w3.org/2000/svg">
<circle cx="21" cy="21" r="20.5" fill="white" stroke="white"/>
<path d="M16.0925 32.2917C12.55 30.5908 10.015 27.1567 9.625 23.0833H8C8.54167 29.7567 14.1317 35 20.9458 35C21.195 35 21.4225 35 21.6608 34.9675L17.5333 30.8292L16.0925 32.2917ZM21.0542 9C20.805 9 20.5775 9 20.3392 9.04333L24.4667 13.1708L25.9075 11.7083C29.45 13.4092 31.985 16.8433 32.375 20.9167H34C33.4583 14.2433 27.8683 9 21.0542 9ZM25.3333 24.1667H27.5V17.6667C27.5 16.4642 26.525 15.5 25.3333 15.5H18.8333V17.6667H25.3333V24.1667ZM16.6667 26.3333V13.3333H14.5V15.5H12.3333V17.6667H14.5V26.3333C14.5 26.908 14.7283 27.4591 15.1346 27.8654C15.5409 28.2717 16.092 28.5 16.6667 28.5H25.3333V30.6667H27.5V28.5H29.6667V26.3333H16.6667Z" fill="white"/>
<path d="M16.0925 31.2917C12.55 29.5908 10.015 26.1567 9.625 22.0833H8C8.54167 28.7567 14.1317 34 20.9458 34C21.195 34 21.4225 34 21.6608 33.9675L17.5333 29.8292L16.0925 31.2917ZM21.0542 8C20.805 8 20.5775 8 20.3392 8.04333L24.4667 12.1708L25.9075 10.7083C29.45 12.4092 31.985 15.8433 32.375 19.9167H34C33.4583 13.2433 27.8683 8 21.0542 8ZM25.3333 23.1667H27.5V16.6667C27.5 15.4642 26.525 14.5 25.3333 14.5H18.8333V16.6667H25.3333V23.1667ZM16.6667 25.3333V12.3333H14.5V14.5H12.3333V16.6667H14.5V25.3333C14.5 25.908 14.7283 26.4591 15.1346 26.8654C15.5409 27.2717 16.092 27.5 16.6667 27.5H25.3333V29.6667H27.5V27.5H29.6667V25.3333H16.6667Z" fill="#E21E26"/>
</svg>
