<svg width="301" height="233" viewBox="0 0 301 233" fill="none" xmlns="http://www.w3.org/2000/svg">
<path d="M56.7738 231.705C56.7738 231.705 50.3891 217.043 70.9298 187.919C88.6877 162.74 109.673 155.742 122.552 152.961C146.092 147.878 150.481 131.179 150.481 131.179V107.066L56.7544 128.81L35.0045 197.001L56.7738 231.705Z" fill="#D0FFFF"/>
<path d="M244.184 231.705C244.184 231.705 250.569 217.043 230.032 187.919C212.274 162.74 191.288 155.742 178.409 152.961C154.869 147.878 150.481 131.179 150.481 131.179V107.066L244.204 128.81L265.963 197.001L244.184 231.705Z" fill="#D0FFFF"/>
<path d="M233.888 70.286C182.182 48.1979 176.523 48.488 162.179 30.3192C150.693 15.7571 150.481 3.86377 150.481 3.86377C150.481 3.86377 150.268 15.7571 138.782 30.3192C124.439 48.4977 118.789 48.2076 67.0731 70.286C15.357 92.3644 -3.12319 138.903 4.04832 180.401C11.2198 221.899 41.4118 231.326 42.5436 231.704H56.7738C56.3452 228.034 56.1298 224.343 56.1288 220.648C56.1288 168.566 98.3711 126.343 150.477 126.343C202.584 126.343 244.826 168.566 244.826 220.648C244.827 224.343 244.611 228.034 244.181 231.704H258.414C259.546 231.326 289.738 221.896 296.91 180.401C304.081 138.906 285.591 92.3741 233.888 70.286Z" fill="#21A0FD"/>
<path d="M258.417 233H244.184C243.82 233 243.46 232.923 243.128 232.773C242.796 232.624 242.5 232.407 242.258 232.135C242.016 231.863 241.835 231.543 241.725 231.196C241.616 230.849 241.581 230.483 241.624 230.122C242.039 226.552 242.248 222.96 242.249 219.366C242.249 168.789 201.081 127.639 150.48 127.639C99.8798 127.639 58.7114 168.789 58.7114 219.366C58.7113 222.96 58.9202 226.552 59.3369 230.122C59.3793 230.483 59.3445 230.85 59.235 231.197C59.1255 231.544 58.9437 231.864 58.7015 232.136C58.4594 232.408 58.1623 232.625 57.83 232.774C57.4977 232.923 57.1376 233 56.7734 233H42.5432C42.2659 233 41.9905 232.955 41.7274 232.868H41.6855C39.5153 232.156 31.7924 229.258 23.531 221.848C11.9708 211.486 4.56066 197.259 1.50374 179.57C-2.28839 157.605 1.14582 134.888 11.1937 115.594C22.3669 94.125 41.3372 77.1939 66.0602 66.6317C75.2761 62.6963 82.9023 59.5215 89.6321 56.7238C119.924 44.1182 125.383 41.8459 136.753 27.432C147.485 13.8272 147.897 2.63007 147.901 2.51726C147.917 1.84407 148.195 1.20384 148.677 0.733447C149.16 0.26305 149.807 -0.000189838 150.48 1.02718e-07C151.156 -0.000134914 151.804 0.264436 152.286 0.736902C152.769 1.20937 153.046 1.85205 153.06 2.52693C153.06 2.63007 153.473 13.8272 164.204 27.432C175.577 41.8459 181.037 44.1182 211.328 56.7238C218.058 59.5215 225.684 62.6963 234.9 66.6317C259.62 77.1939 278.594 94.125 289.767 115.594C299.808 134.888 303.249 157.605 299.441 179.557C296.384 197.246 288.974 211.466 277.413 221.835C269.152 229.248 261.429 232.149 259.259 232.855H259.217C258.96 232.945 258.69 232.994 258.417 233V233ZM247.041 227.843H258.005C262.293 226.351 287.945 215.917 294.381 178.681C300.395 143.871 287.9 94.8792 232.882 71.3762C223.688 67.4472 216.075 64.2853 209.342 61.4844C178.728 48.7434 172.372 46.0907 160.154 30.6229C155.191 24.3314 152.238 18.504 150.48 13.8079C148.723 18.504 145.769 24.3314 140.806 30.6229C128.605 46.094 122.233 48.7434 91.612 61.4844C84.8951 64.2789 77.2818 67.4472 68.0885 71.3762C13.0768 94.8825 0.571837 143.874 6.58894 178.684C13.0381 215.93 38.6769 226.354 42.9656 227.846H53.9293C53.6842 225.032 53.5617 222.193 53.5617 219.369C53.5617 206.646 56.0688 194.048 60.9399 182.293C65.811 170.539 72.9507 159.859 81.9513 150.862C90.9519 141.866 101.637 134.729 113.397 129.86C125.157 124.991 137.761 122.485 150.49 122.485C163.219 122.485 175.823 124.991 187.583 129.86C199.343 134.729 210.028 141.866 219.029 150.862C228.029 159.859 235.169 170.539 240.04 182.293C244.911 194.048 247.418 206.646 247.418 219.369C247.409 222.196 247.283 225.029 247.041 227.843Z" fill="#66C7ED"/>
<path d="M127.735 112.148C137.141 104.013 144.802 93.2415 146.824 80.9743C147.914 74.3411 147.111 66.9569 142.658 61.9224C139.256 58.074 134.055 56.0756 128.918 55.9564C122.901 55.8178 116.823 58.2126 112.669 62.5509C110.09 65.2454 108.232 68.8618 108.535 72.5716C108.838 76.2814 111.811 79.8688 115.533 80.0203C111.499 75.6529 113.804 67.5854 119.276 65.2519C124.749 62.9183 131.598 66.0029 134.339 71.2791C137.079 76.5554 136.073 83.2692 132.726 88.1844C131.098 83.2788 124.807 80.5908 120.134 82.7696C115.462 84.9484 113.485 91.501 116.184 95.8974C114.765 92.5776 118.844 88.8226 122.346 89.7025C125.848 90.5824 127.873 94.5598 127.641 98.16C127.409 101.76 125.481 105.022 123.397 107.971C117.761 115.961 110.715 122.475 102.828 128.187C111.721 124.483 120.473 118.43 127.735 112.148Z" fill="#66C7ED"/>
<path d="M94.6598 124.902C100.986 115.365 105.114 103.923 103.872 92.5454C103.198 86.3957 100.648 80.0461 95.4659 76.6812C91.4964 74.1027 86.3919 73.6257 81.8097 74.7892C76.4408 76.1526 71.6393 79.7657 69.0339 84.652C67.4216 87.6753 66.6573 91.3432 67.8472 94.5599C69.0371 97.7766 72.5584 100.22 75.8926 99.4333C71.2363 96.5582 71.2846 88.8356 75.5701 85.4159C79.8556 81.9961 86.6789 83.034 90.4033 87.0274C94.1277 91.0209 94.9177 97.2319 93.1603 102.415C90.5 98.4824 84.2572 97.6412 80.6489 100.729C77.0405 103.817 76.9148 110.111 80.3974 113.344C78.3175 110.75 81.0036 106.415 84.3281 106.331C87.6527 106.247 90.4226 109.27 91.1159 112.519C91.8092 115.768 90.8966 119.136 89.7809 122.266C86.7595 130.743 82.1225 138.262 76.544 145.273C83.5026 139.797 89.7648 132.27 94.6598 124.902Z" fill="#66C7ED"/>
<path d="M66.6863 148.8C70.6945 138.073 72.1327 125.999 68.3502 115.189C66.3058 109.358 62.4138 103.747 56.5805 101.652C52.1337 100.04 47.0485 100.72 42.8469 102.889C37.9261 105.429 34.0631 110.032 32.6281 115.379C31.7414 118.689 31.8284 122.434 33.7116 125.3C35.5948 128.165 39.5771 129.751 42.6502 128.23C37.465 126.483 35.7689 118.947 39.1579 114.651C42.547 110.354 49.4444 109.816 53.9911 112.878C58.5378 115.94 60.6821 121.803 60.1501 127.247C56.6707 124.023 50.3989 124.604 47.5741 128.426C44.7494 132.249 46.0586 138.418 50.1764 140.774C47.5677 138.714 49.209 133.886 52.4336 133.039C55.6582 132.191 59.0344 134.528 60.4467 137.551C61.8591 140.574 61.7366 144.046 61.3464 147.346C60.3178 156.287 57.4995 164.657 53.6493 172.748C59.1892 165.824 63.5907 157.09 66.6863 148.8Z" fill="#66C7ED"/>
<path d="M49.3831 182.725C49.0864 172.469 46.1939 161.955 39.3868 154.265C35.714 150.107 30.574 146.768 25.0277 146.987C20.7938 147.155 16.8017 149.437 14.0447 152.657C12.4237 154.545 11.2093 156.748 10.477 159.126C9.74467 161.504 9.51021 164.008 9.7882 166.481C10.1687 169.53 11.5069 172.605 14.0415 174.348C16.576 176.092 20.4165 176.063 22.4544 173.762C17.5563 174.065 13.5997 168.379 14.9637 163.67C16.3277 158.961 21.8708 156.186 26.6722 157.185C31.4736 158.184 35.2496 162.342 36.6459 167.035C32.6667 165.527 27.6557 168.134 26.6109 172.26C25.5662 176.385 28.7295 181.062 32.9473 181.633C30.0838 180.808 29.813 176.244 32.2024 174.464C34.5918 172.685 38.1873 173.465 40.3735 175.489C42.5598 177.514 43.6336 180.45 44.4365 183.318C46.6067 191.089 47.0968 198.989 46.6357 207.008C48.9187 199.395 49.612 190.645 49.3831 182.725Z" fill="#66C7ED"/>
<path d="M21.3419 136.652C20.6293 134.521 20.4068 132.075 21.4999 130.115C23.0219 127.385 26.914 126.496 29.6968 127.927C32.4797 129.358 34.021 132.649 33.8211 135.769C33.6792 134.157 32.6667 132.587 31.1576 131.985C29.6485 131.382 27.7105 131.904 26.8657 133.29C25.8273 134.995 26.6141 137.209 27.6041 138.943C29.569 142.381 32.2527 145.355 35.4721 147.662C34.2597 146.795 31.6381 146.766 30.1805 146.17C28.9641 145.67 27.8218 145.006 26.785 144.197C24.2643 142.275 22.3702 139.649 21.3419 136.652V136.652Z" fill="#66C7ED"/>
<path d="M53.6716 90.5839C53.6186 89.4504 53.7459 88.3157 54.0489 87.2222C54.3595 86.2564 54.9023 85.3814 55.6298 84.6739C56.3572 83.9665 57.2471 83.4481 58.2215 83.1643C59.2009 82.9018 60.2324 82.9043 61.2104 83.1716C62.1885 83.439 63.0778 83.9615 63.7872 84.6856C64.4764 85.4294 64.9378 86.3552 65.1167 87.3532C65.2956 88.3512 65.1845 89.3796 64.7965 90.3164C64.8622 89.6253 64.7294 88.9298 64.4138 88.3115C64.0981 87.6931 63.6127 87.1775 63.0144 86.825C62.4161 86.4726 61.7297 86.2979 61.0356 86.3214C60.3415 86.3449 59.6684 86.5657 59.0954 86.9579C58.5326 87.3648 58.0641 87.888 57.7217 88.4921C56.4319 90.7032 56.4867 93.5105 57.3315 95.9311C58.1764 98.3516 59.7371 100.344 61.2011 102.422C56.1513 100.166 53.7458 96.0632 53.6716 90.5839Z" fill="#66C7ED"/>
<path d="M95.656 69.4489C95.7979 67.6053 96.4557 65.7488 97.7746 64.4466C99.0934 63.1445 101.128 62.5127 102.869 63.1348C104.611 63.7569 105.823 65.781 105.272 67.5473C105.272 66.2129 103.93 65.1299 102.595 65.1106C101.26 65.0913 100.016 65.9454 99.2837 67.0606C98.5517 68.1758 98.2421 69.5198 98.0777 70.8445C97.7198 73.7002 98.0422 76.9072 100.093 79.099C97.3328 76.398 95.3432 73.5584 95.656 69.4489Z" fill="#66C7ED"/>
<path d="M42.2115 194.004C41.2894 193.33 40.2356 192.858 39.1189 192.619C38.0021 192.38 36.8474 192.378 35.7301 192.615C33.4875 193.111 31.4606 194.306 29.9419 196.028C28.4158 197.704 27.3554 199.75 26.8665 201.963C26.3776 204.176 26.4772 206.478 27.1553 208.641C27.8334 210.803 29.0663 212.75 30.7315 214.289C32.3966 215.827 34.4357 216.902 36.6458 217.407C38.6 217.852 40.7637 217.81 42.4501 216.763C44.1366 215.715 45.1814 213.446 44.3849 211.606C44.0302 213.217 42.4953 214.416 40.8604 214.674C39.2255 214.932 37.5423 214.381 36.1557 213.475C31.9992 210.758 30.5481 204.618 33.0536 200.331C34.6885 197.53 38.3678 195.622 41.2538 197.108C42.75 197.872 43.7496 199.39 44.2237 201.001C44.6977 202.613 44.7009 204.318 44.6332 205.994C44.8041 202.355 45.5071 196.537 42.2115 194.004Z" fill="#66C7ED"/>
<path d="M173.575 111.263C164.169 103.125 156.508 92.3566 154.486 80.0893C153.396 73.4561 154.196 66.0719 158.652 61.0342C162.054 57.189 167.255 55.1874 172.392 55.0714C178.406 54.9296 184.484 57.3276 188.641 61.6659C191.22 64.3572 193.078 67.9768 192.775 71.6866C192.472 75.3964 189.499 78.9838 185.774 79.1321C189.811 74.7679 187.502 66.7004 182.034 64.3669C176.565 62.0333 169.712 65.1179 166.971 70.3941C164.231 75.6704 165.237 82.3842 168.584 87.2995C170.219 82.4067 176.507 79.7058 181.182 81.8846C185.858 84.0634 187.831 90.6161 185.132 95.0124C186.551 91.6926 182.472 87.9376 178.97 88.8176C175.468 89.6975 173.443 93.6716 173.663 97.275C173.882 100.879 175.823 104.137 177.903 107.086C183.543 115.076 190.588 121.59 198.473 127.302C189.589 123.598 180.837 117.545 173.575 111.263Z" fill="#66C7ED"/>
<path d="M206.66 124.016C200.333 114.478 196.206 103.036 197.447 91.6587C198.121 85.509 200.672 79.1594 205.854 75.7945C209.82 73.216 214.928 72.739 219.51 73.9025C224.879 75.2659 229.68 78.879 232.286 83.7653C233.898 86.7886 234.659 90.4565 233.472 93.6732C232.286 96.8899 228.761 99.333 225.411 98.5433C230.07 95.6715 230.019 87.9489 225.733 84.5292C221.448 81.1094 214.624 82.1473 210.9 86.1407C207.176 90.1342 206.386 96.3451 208.143 101.528C210.803 97.5957 217.046 96.7545 220.654 99.8422C224.263 102.93 224.389 109.225 220.906 112.454C222.986 109.876 220.3 105.528 216.975 105.444C213.651 105.36 210.877 108.384 210.204 111.632C209.53 114.881 210.423 118.25 211.539 121.379C214.56 129.856 219.197 137.372 224.759 144.386C217.807 138.91 211.545 131.381 206.66 124.016Z" fill="#66C7ED"/>
<path d="M234.624 147.913C230.615 137.193 229.177 125.113 232.96 114.312C235.001 108.472 238.909 102.857 244.729 100.752C249.176 99.1409 254.261 99.8242 258.463 101.99C263.384 104.53 267.244 109.136 268.682 114.483C269.569 117.793 269.482 121.538 267.598 124.401C265.715 127.263 261.73 128.855 258.657 127.334C263.845 125.587 265.541 118.051 262.152 113.755C258.763 109.458 251.866 108.92 247.319 111.982C242.772 115.044 240.625 120.903 241.16 126.351C244.639 123.127 250.911 123.708 253.736 127.53C256.561 131.353 255.255 137.522 251.134 139.875C253.745 137.818 252.101 132.99 248.876 132.155C245.652 131.321 242.272 133.644 240.863 136.652C239.454 139.659 239.573 143.149 239.964 146.45C240.992 155.391 243.81 163.758 247.661 171.851C242.118 164.938 237.719 156.19 234.624 147.913Z" fill="#66C7ED"/>
<path d="M251.927 181.839C252.223 171.583 255.116 161.069 261.923 153.379C265.596 149.221 270.736 145.882 276.282 146.101C280.516 146.269 284.508 148.551 287.265 151.771C288.886 153.66 290.1 155.862 290.832 158.24C291.564 160.618 291.799 163.122 291.522 165.595C291.141 168.644 289.803 171.718 287.268 173.462C284.734 175.206 280.89 175.177 278.855 172.876C283.754 173.179 287.71 167.493 286.346 162.781C284.982 158.069 279.439 155.3 274.638 156.299C269.836 157.298 266.06 161.456 264.664 166.146C268.643 164.64 273.651 167.248 274.699 171.374C275.747 175.499 272.58 180.176 268.363 180.743C271.226 179.918 271.497 175.354 269.108 173.575C266.718 171.796 263.123 172.579 260.936 174.603C258.75 176.627 257.673 179.56 256.873 182.432C254.703 190.203 254.213 198.103 254.671 206.122C252.391 198.506 251.698 189.758 251.927 181.839Z" fill="#66C7ED"/>
<path d="M279.968 135.762C280.68 133.635 280.903 131.188 279.81 129.228C278.288 126.499 274.396 125.609 271.613 127.037C268.83 128.465 267.289 131.762 267.489 134.882C267.63 133.27 268.643 131.697 270.152 131.095C271.661 130.492 273.596 131.014 274.444 132.403C275.482 134.108 274.696 136.323 273.706 138.057C271.741 141.495 269.057 144.468 265.838 146.775C267.05 145.908 269.672 145.879 271.129 145.283C272.344 144.786 273.487 144.127 274.525 143.323C277.048 141.397 278.943 138.765 279.968 135.762V135.762Z" fill="#66C7ED"/>
<path d="M247.638 89.697C247.691 88.5635 247.564 87.4288 247.261 86.3352C246.951 85.3702 246.409 84.4957 245.683 83.7883C244.957 83.0809 244.068 82.5621 243.095 82.2773C242.115 82.0141 241.084 82.0163 240.106 82.2837C239.127 82.5511 238.238 83.074 237.529 83.7986C236.84 84.542 236.379 85.4673 236.2 86.4647C236.021 87.4621 236.132 88.4899 236.52 89.4262C236.455 88.7354 236.588 88.0404 236.904 87.4225C237.22 86.8047 237.705 86.2896 238.303 85.9376C238.902 85.5855 239.588 85.4111 240.282 85.4347C240.975 85.4583 241.648 85.679 242.221 86.0709C242.785 86.4759 243.254 86.9996 243.595 87.6052C244.884 89.813 244.83 92.6236 243.985 95.0441C243.14 97.4647 241.576 99.4566 240.115 101.536C245.158 99.2793 247.564 95.1763 247.638 89.697Z" fill="#66C7ED"/>
<path d="M205.654 68.5627C205.512 66.719 204.854 64.8593 203.535 63.5604C202.216 62.2615 200.182 61.6265 198.437 62.2486C196.693 62.8706 195.487 64.8948 196.038 66.661C196.054 65.3267 197.38 64.2437 198.715 64.2243C200.049 64.205 201.294 65.0591 202.026 66.1743C202.758 67.2895 203.068 68.6304 203.232 69.9583C203.59 72.814 203.268 76.021 201.217 78.2127C203.974 75.5117 205.967 72.6722 205.654 68.5627Z" fill="#66C7ED"/>
<path d="M259.114 193.113C260.036 192.439 261.09 191.967 262.207 191.728C263.324 191.489 264.479 191.489 265.596 191.727C267.833 192.225 269.854 193.42 271.368 195.14C272.894 196.816 273.954 198.862 274.443 201.075C274.932 203.288 274.833 205.59 274.154 207.753C273.476 209.915 272.243 211.862 270.578 213.4C268.913 214.938 266.874 216.014 264.664 216.519C262.729 216.964 260.549 216.922 258.86 215.874C257.17 214.827 256.128 212.558 256.925 210.717C257.28 212.329 258.814 213.525 260.449 213.786C262.084 214.047 263.767 213.493 265.151 212.587C269.311 209.87 270.762 203.73 268.256 199.44C266.621 196.642 262.942 194.734 260.053 196.217C258.56 196.98 257.56 198.502 257.086 200.113C256.612 201.725 256.609 203.43 256.677 205.106C256.506 201.464 255.803 195.649 259.114 193.113Z" fill="#66C7ED"/>
<path d="M150.529 28.8345C149.949 30.4392 149.153 31.9573 148.162 33.3469C146.479 35.8287 144.518 38.2202 143.719 41.1082C143.038 43.6021 143.278 46.2578 144.396 48.589C140.278 48.3409 135.689 48.2409 132.581 50.9387C134.76 50.6148 136.983 50.7542 139.104 51.3478C141.226 51.9414 143.198 52.9758 144.892 54.3834C146.586 55.791 147.964 57.5401 148.935 59.5164C149.906 61.4927 150.45 63.6516 150.529 65.8521V28.8345Z" fill="#D0FFFF"/>
<path d="M150.445 28.8345C151.025 30.4392 151.821 31.9573 152.812 33.3469C154.495 35.8287 156.456 38.2202 157.256 41.1082C157.937 43.6021 157.696 46.2578 156.578 48.589C160.696 48.3409 165.285 48.2409 168.393 50.9387C166.214 50.6148 163.991 50.7543 161.869 51.348C159.748 51.9418 157.775 52.9765 156.081 54.3845C154.387 55.7924 153.01 57.5419 152.038 59.5186C151.067 61.4953 150.524 63.6546 150.445 65.8554V28.8345Z" fill="#D0FFFF"/>
<path d="M159.116 105.976C159.116 107.694 158.607 109.372 157.652 110.8C156.697 112.228 155.34 113.34 153.753 113.997C152.165 114.653 150.418 114.824 148.733 114.488C147.049 114.152 145.501 113.325 144.287 112.109C143.073 110.894 142.247 109.346 141.914 107.662C141.58 105.977 141.754 104.232 142.413 102.646C143.072 101.06 144.188 99.7052 145.617 98.753C147.047 97.8007 148.727 97.2938 150.445 97.2964C152.746 97.2998 154.952 98.2158 156.577 99.8432C158.203 101.471 159.116 103.676 159.116 105.976V105.976Z" fill="#D0FFFF"/>
<path d="M47.3776 98.9529C50.0275 98.9529 52.1758 96.8056 52.1758 94.1569C52.1758 91.5081 50.0275 89.3608 47.3776 89.3608C44.7276 89.3608 42.5793 91.5081 42.5793 94.1569C42.5793 96.8056 44.7276 98.9529 47.3776 98.9529Z" fill="#D0FFFF"/>
<path d="M15.9473 146.978C18.5972 146.978 20.7455 144.831 20.7455 142.182C20.7455 139.533 18.5972 137.386 15.9473 137.386C13.2973 137.386 11.149 139.533 11.149 142.182C11.149 144.831 13.2973 146.978 15.9473 146.978Z" fill="#D0FFFF"/>
<path d="M42.5825 186.326C42.5825 187.274 42.3011 188.202 41.7739 188.99C41.2466 189.779 40.4972 190.394 39.6205 190.757C38.7437 191.12 37.779 191.215 36.8482 191.03C35.9174 190.845 35.0625 190.388 34.3914 189.717C33.7204 189.046 33.2634 188.192 33.0783 187.261C32.8931 186.331 32.9882 185.367 33.3513 184.49C33.7145 183.614 34.3295 182.865 35.1186 182.338C35.9076 181.811 36.8353 181.53 37.7843 181.53C38.4145 181.529 39.0386 181.653 39.621 181.894C40.2033 182.135 40.7324 182.488 41.1781 182.934C41.6237 183.379 41.9771 183.908 42.2181 184.49C42.4591 185.072 42.5829 185.696 42.5825 186.326V186.326Z" fill="#D0FFFF"/>
<path d="M95.2628 68.5113C95.2628 69.46 94.9813 70.3874 94.4539 71.1762C93.9266 71.965 93.177 72.5797 92.3 72.9426C91.4231 73.3055 90.4582 73.4003 89.5273 73.215C88.5965 73.0297 87.7415 72.5726 87.0706 71.9015C86.3997 71.2304 85.943 70.3756 85.7582 69.445C85.5734 68.5145 85.6689 67.5501 86.0325 66.6738C86.3962 65.7975 87.0117 65.0486 87.8012 64.522C88.5907 63.9954 89.5187 63.7147 90.4678 63.7153C91.0978 63.7153 91.7216 63.8394 92.3035 64.0805C92.8855 64.3215 93.4142 64.6749 93.8595 65.1202C94.3048 65.5656 94.658 66.0944 94.8987 66.6762C95.1395 67.2581 95.2632 67.8817 95.2628 68.5113V68.5113Z" fill="#D0FFFF"/>
<path d="M215.115 68.5397C215.115 69.3492 214.874 70.1407 214.424 70.8138C213.974 71.487 213.335 72.0116 212.587 72.3214C211.838 72.6312 211.015 72.7123 210.22 72.5544C209.426 72.3964 208.696 72.0066 208.124 71.4341C207.551 70.8616 207.161 70.1323 207.003 69.3382C206.845 68.5442 206.926 67.7212 207.236 66.9732C207.546 66.2252 208.071 65.5859 208.744 65.1361C209.418 64.6864 210.209 64.4463 211.019 64.4463C211.557 64.4459 212.09 64.5515 212.587 64.757C213.084 64.9626 213.536 65.2641 213.916 65.6443C214.296 66.0244 214.598 66.4759 214.804 66.9727C215.009 67.4695 215.115 68.002 215.115 68.5397V68.5397Z" fill="#D0FFFF"/>
<path d="M256.489 98.9529C259.139 98.9529 261.288 96.8056 261.288 94.1569C261.288 91.5081 259.139 89.3608 256.489 89.3608C253.839 89.3608 251.691 91.5081 251.691 94.1569C251.691 96.8056 253.839 98.9529 256.489 98.9529Z" fill="#D0FFFF"/>
<path d="M264.429 189.339C267.079 189.339 269.227 187.192 269.227 184.543C269.227 181.894 267.079 179.747 264.429 179.747C261.779 179.747 259.63 181.894 259.63 184.543C259.63 187.192 261.779 189.339 264.429 189.339Z" fill="#D0FFFF"/>
<path d="M290.161 141.982C290.161 142.93 289.879 143.857 289.352 144.646C288.825 145.435 288.076 146.05 287.199 146.413C286.322 146.776 285.357 146.87 284.427 146.685C283.496 146.5 282.641 146.044 281.97 145.373C281.299 144.702 280.842 143.848 280.657 142.917C280.472 141.987 280.567 141.023 280.93 140.146C281.293 139.27 281.908 138.521 282.697 137.994C283.486 137.467 284.414 137.186 285.363 137.186C285.993 137.186 286.617 137.31 287.199 137.551C287.781 137.792 288.31 138.145 288.756 138.59C289.201 139.036 289.555 139.564 289.796 140.146C290.037 140.728 290.161 141.352 290.161 141.982V141.982Z" fill="#D0FFFF"/>
</svg>
