<svg width="123" height="96" viewBox="0 0 123 96" fill="none" xmlns="http://www.w3.org/2000/svg">
<path d="M23.2036 94.6982C23.2036 94.6982 20.5941 88.7058 28.9892 76.8027C36.2468 66.512 44.8237 63.6521 50.0874 62.5153C59.7081 60.4379 61.5017 53.613 61.5017 53.613V43.7583L23.1957 52.6448L14.3065 80.5149L23.2036 94.6982Z" fill="#D0FFFF"/>
<path d="M99.7985 94.6982C99.7985 94.6982 102.408 88.7058 94.0143 76.8027C86.7566 66.512 78.1797 63.6521 72.916 62.5153C63.2954 60.4379 61.5017 53.613 61.5017 53.613V43.7583L99.8064 52.6448L108.7 80.5149L99.7985 94.6982Z" fill="#D0FFFF"/>
<path d="M95.5905 28.726C74.458 19.6985 72.1451 19.8171 66.2831 12.3915C61.5887 6.43993 61.5017 1.5791 61.5017 1.5791C61.5017 1.5791 61.4147 6.43993 56.7204 12.3915C50.8584 19.821 48.5494 19.7025 27.4129 28.726C6.27649 37.7495 -1.27639 56.7699 1.65462 73.7301C4.58562 90.6903 16.9251 94.5434 17.3877 94.6976H23.2036C23.0284 93.1978 22.9404 91.6892 22.94 90.1792C22.94 68.893 40.2045 51.6364 61.5004 51.6364C82.7963 51.6364 100.061 68.893 100.061 90.1792C100.061 91.6892 99.973 93.1979 99.7972 94.6976H105.614C106.077 94.5434 118.416 90.689 121.347 73.7301C124.279 56.7712 116.722 37.7534 95.5905 28.726Z" fill="#21A0FD"/>
<path d="M105.616 95.2275H99.7983C99.6496 95.2273 99.5026 95.1958 99.3669 95.1348C99.2312 95.0739 99.11 94.985 99.0112 94.8739C98.9123 94.7627 98.8382 94.632 98.7935 94.4902C98.7488 94.3484 98.7346 94.1988 98.7519 94.0511C98.9216 92.592 99.007 91.1242 99.0076 89.6553C99.0076 68.9842 82.182 52.1663 61.5015 52.1663C40.821 52.1663 23.9954 68.9842 23.9954 89.6553C23.9954 91.1243 24.0808 92.592 24.2511 94.0511C24.2684 94.1989 24.2542 94.3486 24.2094 94.4905C24.1647 94.6324 24.0904 94.7632 23.9914 94.8743C23.8924 94.9855 23.771 95.0744 23.6352 95.1352C23.4994 95.1961 23.3522 95.2275 23.2034 95.2275H17.3875C17.2742 95.2275 17.1616 95.2092 17.0541 95.1734H17.0369C16.15 94.8823 12.9936 93.6981 9.61715 90.6696C4.89248 86.4345 1.86395 80.6199 0.614581 73.3906C-0.935268 64.4132 0.468296 55.1289 4.57487 47.2436C9.14139 38.469 16.8946 31.5493 26.9989 27.2325C30.7655 25.6241 33.8823 24.3265 36.6328 23.1831C49.0131 18.0312 51.2443 17.1025 55.8912 11.2115C60.2772 5.65121 60.4459 1.07491 60.4472 1.02881C60.4537 0.753675 60.5677 0.492013 60.7647 0.299761C60.9617 0.107509 61.2262 -7.75872e-05 61.5015 4.19809e-08C61.7775 -5.51397e-05 62.0425 0.108076 62.2397 0.301173C62.4368 0.49427 62.5503 0.756935 62.5558 1.03276C62.5558 1.07491 62.7245 5.65121 67.1105 11.2115C71.7587 17.1025 73.9899 18.0312 86.3703 23.1831C89.1207 24.3265 92.2375 25.6241 96.0041 27.2325C106.107 31.5493 113.862 38.469 118.428 47.2436C122.532 55.1289 123.938 64.4132 122.382 73.3853C121.132 80.6147 118.104 86.4266 113.379 90.6643C110.003 93.6941 106.846 94.8797 105.959 95.1682H105.942C105.837 95.2049 105.727 95.2249 105.616 95.2275ZM100.966 93.1198H105.447C107.2 92.5099 117.684 88.2458 120.314 73.027C122.772 58.8002 117.665 38.7773 95.1791 29.1716C91.4218 27.5658 88.3102 26.2735 85.5584 25.1288C73.0463 19.9215 70.4487 18.8374 65.4552 12.5156C63.427 9.94428 62.2198 7.56261 61.5015 5.6433C60.7832 7.56261 59.5761 9.94428 57.5478 12.5156C52.5609 18.8387 49.9567 19.9215 37.4419 25.1288C34.6968 26.2709 31.5852 27.5658 27.8279 29.1716C5.34452 38.7786 0.233711 58.8015 2.69291 73.0284C5.32871 88.251 15.8073 92.5112 17.5601 93.1211H22.041C21.9408 91.9711 21.8907 90.8105 21.8907 89.6566C21.8907 84.4567 22.9154 79.3077 24.9062 74.5036C26.8971 69.6995 29.8151 65.3344 33.4936 61.6575C37.1722 57.9806 41.5393 55.064 46.3456 53.0741C51.1518 51.0841 56.3032 50.0599 61.5055 50.0599C66.7077 50.0599 71.8591 51.0841 76.6654 53.0741C81.4716 55.064 85.8387 57.9806 89.5173 61.6575C93.1959 65.3344 96.1139 69.6995 98.1047 74.5036C100.096 79.3077 101.12 84.4567 101.12 89.6566C101.116 90.8119 101.065 91.9698 100.966 93.1198Z" fill="#66C7ED"/>
<path d="M52.2053 45.8353C56.0496 42.5104 59.1809 38.108 60.0072 33.0944C60.4527 30.3834 60.1245 27.3655 58.3045 25.3078C56.9141 23.735 54.7883 22.9183 52.6889 22.8695C50.2297 22.8129 47.7455 23.7916 46.048 25.5647C44.9937 26.666 44.2346 28.144 44.3585 29.6602C44.4824 31.1764 45.6975 32.6425 47.2183 32.7045C45.5696 30.9195 46.5119 27.6223 48.7484 26.6686C50.9849 25.7149 53.7841 26.9755 54.9043 29.1319C56.0245 31.2884 55.6134 34.0323 54.2454 36.0412C53.5798 34.0362 51.0086 32.9376 49.099 33.8281C47.1893 34.7186 46.3815 37.3967 47.4846 39.1935C46.9047 37.8366 48.5718 36.302 50.0031 36.6616C51.4343 37.0212 52.2619 38.6468 52.1671 40.1182C52.0722 41.5896 51.2841 42.9227 50.4327 44.1281C48.129 47.3936 45.2494 50.0559 42.0258 52.3901C45.6606 50.8766 49.2374 48.4027 52.2053 45.8353Z" fill="#66C7ED"/>
<path d="M38.6876 51.0478C41.2733 47.1499 42.9602 42.4735 42.4528 37.8234C42.1774 35.31 41.1349 32.7149 39.017 31.3397C37.3947 30.2858 35.3085 30.0909 33.4357 30.5664C31.2414 31.1236 29.2791 32.6003 28.2142 34.5973C27.5553 35.833 27.2429 37.3321 27.7292 38.6467C28.2155 39.9614 29.6547 40.9599 31.0174 40.6385C29.1143 39.4634 29.1341 36.3072 30.8856 34.9095C32.6371 33.5119 35.4258 33.9361 36.9479 35.5682C38.4701 37.2003 38.793 39.7388 38.0747 41.857C36.9875 40.2499 34.436 39.9061 32.9613 41.168C31.4866 42.43 31.4352 45.0027 32.8585 46.3239C32.0085 45.2635 33.1063 43.4917 34.465 43.4575C35.8238 43.4232 36.9558 44.6589 37.2392 45.9867C37.5225 47.3145 37.1496 48.6911 36.6936 49.9702C35.4587 53.4347 33.5636 56.508 31.2836 59.3731C34.1276 57.135 36.687 54.0591 38.6876 51.0478Z" fill="#66C7ED"/>
<path d="M27.2548 60.8147C28.893 56.4307 29.4807 51.4961 27.9348 47.0779C27.0993 44.6949 25.5086 42.4015 23.1245 41.5453C21.3071 40.8866 19.2288 41.1646 17.5116 42.0511C15.5005 43.0892 13.9216 44.9703 13.3352 47.1557C12.9727 48.5085 13.0083 50.0392 13.778 51.2103C14.5476 52.3814 16.1752 53.0295 17.4312 52.4077C15.312 51.6937 14.6188 48.6139 16.0039 46.8579C17.389 45.102 20.208 44.882 22.0662 46.1334C23.9245 47.3849 24.8009 49.781 24.5834 52.0059C23.1614 50.6886 20.5981 50.9258 19.4436 52.4881C18.2891 54.0504 18.8242 56.5717 20.5072 57.5346C19.441 56.6929 20.1118 54.7196 21.4297 54.3731C22.7476 54.0267 24.1274 54.9817 24.7047 56.2173C25.2819 57.453 25.2318 58.8717 25.0724 60.2206C24.652 63.8748 23.5001 67.2958 21.9265 70.6022C24.1907 67.7727 25.9896 64.2028 27.2548 60.8147Z" fill="#66C7ED"/>
<path d="M20.183 74.6802C20.0617 70.4885 18.8796 66.1915 16.0975 63.0485C14.5964 61.3491 12.4957 59.9844 10.2289 60.074C8.49846 60.1425 6.86691 61.0751 5.7401 62.3911C5.07762 63.163 4.58127 64.0631 4.28198 65.0351C3.98268 66.0071 3.88686 67.0303 4.00047 68.041C4.15599 69.2872 4.70291 70.5439 5.73878 71.2565C6.77465 71.9692 8.34427 71.9573 9.17718 71.0168C7.17529 71.1406 5.55823 68.8169 6.1157 66.8923C6.67318 64.9678 8.93864 63.8336 10.901 64.2419C12.8633 64.6503 14.4066 66.3496 14.9773 68.2676C13.351 67.6511 11.303 68.7168 10.876 70.4029C10.449 72.0891 11.7418 74.0005 13.4656 74.2336C12.2953 73.8964 12.1846 72.0311 13.1612 71.304C14.1378 70.5768 15.6072 70.8956 16.5007 71.7229C17.3943 72.5501 17.8331 73.7502 18.1613 74.9226C19.0482 78.0986 19.2486 81.3273 19.0601 84.6047C19.9932 81.4932 20.2765 77.9168 20.183 74.6802Z" fill="#66C7ED"/>
<path d="M8.7225 55.8498C8.43125 54.9791 8.34031 53.9792 8.78708 53.1783C9.40913 52.0626 10.9998 51.699 12.1372 52.2839C13.2745 52.8688 13.9045 54.2137 13.8228 55.4889C13.7648 54.8302 13.351 54.1887 12.7342 53.9424C12.1174 53.696 11.3254 53.9094 10.9801 54.4759C10.5557 55.1727 10.8773 56.0777 11.2819 56.7864C12.0849 58.1915 13.1818 59.4069 14.4975 60.3497C14.002 59.9953 12.9306 59.9835 12.3349 59.7398C11.8377 59.5355 11.3708 59.2642 10.9471 58.9336C9.9169 58.1481 9.14276 57.0749 8.7225 55.8498Z" fill="#66C7ED"/>
<path d="M21.9358 37.0218C21.9141 36.5585 21.9661 36.0948 22.0899 35.6479C22.2169 35.2531 22.4387 34.8955 22.736 34.6064C23.0334 34.3172 23.3971 34.1054 23.7953 33.9894C24.1956 33.8821 24.6172 33.8831 25.0169 33.9924C25.4166 34.1016 25.7801 34.3152 26.07 34.6111C26.3517 34.9152 26.5403 35.2935 26.6134 35.7014C26.6865 36.1093 26.6411 36.5296 26.4825 36.9125C26.5093 36.63 26.4551 36.3458 26.3261 36.0931C26.1971 35.8403 25.9987 35.6296 25.7542 35.4855C25.5096 35.3415 25.2291 35.2701 24.9454 35.2797C24.6617 35.2893 24.3867 35.3796 24.1525 35.5398C23.9224 35.7061 23.731 35.92 23.591 36.1669C23.0639 37.0705 23.0863 38.2179 23.4316 39.2072C23.7769 40.1965 24.4147 41.0106 25.013 41.8602C22.9492 40.9381 21.9661 39.2612 21.9358 37.0218Z" fill="#66C7ED"/>
<path d="M39.0948 28.3838C39.1528 27.6303 39.4216 26.8715 39.9606 26.3393C40.4997 25.8071 41.3313 25.549 42.0429 25.8032C42.7546 26.0574 43.2501 26.8847 43.0248 27.6066C43.0248 27.0612 42.4765 26.6186 41.9309 26.6107C41.3853 26.6028 40.8766 26.9519 40.5774 27.4077C40.2783 27.8634 40.1517 28.4128 40.0845 28.9542C39.9382 30.1213 40.07 31.432 40.9082 32.3278C39.7801 31.2239 38.967 30.0633 39.0948 28.3838Z" fill="#66C7ED"/>
<path d="M17.2519 79.2897C16.8751 79.0144 16.4444 78.8215 15.988 78.7237C15.5316 78.6259 15.0596 78.6253 14.603 78.722C13.6864 78.9246 12.858 79.4131 12.2373 80.117C11.6136 80.8019 11.1802 81.6383 10.9804 82.5427C10.7806 83.4471 10.8213 84.388 11.0984 85.2718C11.3756 86.1556 11.8795 86.9514 12.56 87.58C13.2406 88.2086 14.074 88.6481 14.9773 88.8546C15.7759 89.0364 16.6602 89.0193 17.3495 88.5912C18.0387 88.1631 18.4657 87.2357 18.1402 86.4835C17.9952 87.1422 17.3679 87.6322 16.6997 87.7376C16.0316 87.8429 15.3436 87.6177 14.7769 87.2475C13.0782 86.1371 12.4851 83.6276 13.5091 81.8756C14.1773 80.7309 15.681 79.951 16.8605 80.5583C17.472 80.8705 17.8806 81.4909 18.0743 82.1496C18.268 82.8082 18.2694 83.5051 18.2417 84.1901C18.3115 82.7028 18.5988 80.3251 17.2519 79.2897Z" fill="#66C7ED"/>
<path d="M70.9405 45.4736C67.0962 42.1474 63.9649 37.7463 63.1386 32.7327C62.6931 30.0217 63.02 27.0037 64.8413 24.9448C66.2317 23.3733 68.3574 22.5552 70.4569 22.5078C72.9147 22.4498 75.399 23.4299 77.0977 25.203C78.1521 26.3029 78.9112 27.7823 78.7873 29.2985C78.6634 30.8147 77.4483 32.2808 75.9261 32.3414C77.5761 30.5578 76.6325 27.2606 74.3974 26.3069C72.1622 25.3532 69.3617 26.6138 68.2415 28.7702C67.1213 30.9267 67.5324 33.6706 68.9004 35.6795C69.5686 33.6798 72.1385 32.5759 74.0494 33.4664C75.9604 34.3569 76.767 37.035 75.6639 38.8318C76.2438 37.4749 74.5766 35.9403 73.1454 36.2999C71.7141 36.6595 70.8865 38.2838 70.9761 39.7565C71.0657 41.2292 71.8591 42.561 72.7092 43.7664C75.0142 47.0319 77.8938 49.6942 81.116 52.0285C77.4852 50.5149 73.9084 48.041 70.9405 45.4736Z" fill="#66C7ED"/>
<path d="M84.4621 50.6855C81.8764 46.7876 80.1895 42.1112 80.6969 37.4611C80.9724 34.9477 82.0148 32.3526 84.1327 30.9774C85.7537 29.9235 87.8412 29.7286 89.714 30.2041C91.9083 30.7613 93.8706 32.238 94.9355 34.235C95.5944 35.4707 95.9054 36.9698 95.4205 38.2844C94.9355 39.5991 93.495 40.5976 92.1257 40.2748C94.0301 39.1011 94.009 35.9449 92.2575 34.5472C90.506 33.1496 87.7174 33.5738 86.1952 35.2059C84.673 36.838 84.3501 39.3765 85.0684 41.4947C86.1556 39.8876 88.7071 39.5438 90.1818 40.8057C91.6565 42.0677 91.7079 44.6404 90.2846 45.9603C91.1347 44.9065 90.0369 43.1294 88.6781 43.0952C87.3193 43.0609 86.186 44.2966 85.9105 45.6244C85.6351 46.9522 86.0001 48.3288 86.4561 49.6079C87.691 53.0724 89.5861 56.1443 91.8595 59.0108C89.0181 56.7727 86.4588 53.6955 84.4621 50.6855Z" fill="#66C7ED"/>
<path d="M95.891 60.4524C94.2528 56.0711 93.665 51.1339 95.2109 46.7196C96.0452 44.3327 97.6425 42.0379 100.021 41.1777C101.839 40.5191 103.917 40.7984 105.634 41.6836C107.645 42.7216 109.223 44.604 109.811 46.7894C110.173 48.1423 110.137 49.673 109.368 50.8428C108.598 52.0125 106.969 52.6633 105.713 52.0415C107.834 51.3275 108.527 48.2477 107.142 46.4917C105.757 44.7358 102.938 44.5158 101.08 45.7672C99.2213 47.0186 98.3436 49.4135 98.5623 51.6397C99.9844 50.3224 102.548 50.5595 103.702 52.1219C104.857 53.6842 104.323 56.2055 102.639 57.1671C103.706 56.3267 103.034 54.3534 101.716 54.0122C100.398 53.671 99.017 54.6208 98.4411 55.8498C97.8652 57.0788 97.9139 58.5055 98.0734 59.8544C98.4938 63.5086 99.6457 66.9283 101.219 70.236C98.9538 67.4104 97.1562 63.8353 95.891 60.4524Z" fill="#66C7ED"/>
<path d="M102.963 74.3179C103.084 70.1262 104.266 65.8292 107.048 62.6862C108.549 60.9868 110.65 59.6221 112.917 59.7117C114.647 59.7802 116.279 60.7128 117.406 62.0288C118.068 62.8009 118.564 63.7009 118.863 64.6729C119.163 65.6449 119.259 66.6681 119.145 67.6787C118.99 68.9249 118.443 70.1816 117.407 70.8942C116.371 71.6069 114.8 71.595 113.969 70.6545C115.97 70.7783 117.588 68.4546 117.03 66.5287C116.473 64.6028 114.207 63.4713 112.245 63.8796C110.282 64.288 108.739 65.9873 108.169 67.904C109.795 67.2888 111.842 68.3545 112.27 70.0406C112.698 71.7268 111.404 73.6382 109.68 73.87C110.85 73.5328 110.961 71.6675 109.985 70.9403C109.008 70.2132 107.539 70.5333 106.645 71.3606C105.751 72.1878 105.311 73.3866 104.984 74.5603C104.098 77.7363 103.897 80.965 104.084 84.2424C103.153 81.1296 102.869 77.5545 102.963 74.3179Z" fill="#66C7ED"/>
<path d="M114.423 55.4861C114.715 54.6167 114.805 53.6169 114.359 52.8159C113.737 51.7002 112.146 51.3366 111.009 51.9202C109.871 52.5037 109.241 53.8513 109.323 55.1265C109.381 54.4678 109.795 53.825 110.412 53.5787C111.028 53.3323 111.819 53.5457 112.166 54.1135C112.59 54.8103 112.269 55.7153 111.864 56.424C111.061 57.8291 109.964 59.0445 108.648 59.9873C109.144 59.633 110.215 59.6211 110.811 59.3774C111.308 59.1744 111.774 58.905 112.199 58.5765C113.23 57.7893 114.004 56.7137 114.423 55.4861Z" fill="#66C7ED"/>
<path d="M101.21 36.6593C101.232 36.1961 101.18 35.7323 101.056 35.2854C100.929 34.8909 100.708 34.5335 100.411 34.2444C100.114 33.9553 99.7508 33.7433 99.3531 33.6269C98.9528 33.5193 98.5312 33.5202 98.1314 33.6295C97.7316 33.7388 97.3682 33.9525 97.0784 34.2487C96.7968 34.5525 96.6083 34.9306 96.5352 35.3383C96.4621 35.7459 96.5074 36.166 96.6659 36.5487C96.6393 36.2663 96.6938 35.9823 96.8229 35.7297C96.952 35.4772 97.1504 35.2667 97.3949 35.1228C97.6394 34.9789 97.9198 34.9077 98.2033 34.9173C98.4869 34.927 98.7618 35.0172 98.9959 35.1773C99.2267 35.3429 99.4183 35.5569 99.5574 35.8044C100.085 36.7067 100.062 37.8554 99.7168 38.8447C99.3715 39.834 98.7324 40.6481 98.1353 41.4977C100.197 40.5756 101.18 38.8987 101.21 36.6593Z" fill="#66C7ED"/>
<path d="M84.051 28.0218C83.993 27.2683 83.7241 26.5082 83.1851 25.9773C82.6461 25.4464 81.8145 25.1869 81.1015 25.4412C80.3885 25.6954 79.8956 26.5227 80.121 27.2446C80.1276 26.6992 80.6692 26.2566 81.2149 26.2487C81.7605 26.2408 82.2692 26.5899 82.5683 27.0456C82.8675 27.5014 82.994 28.0494 83.0612 28.5921C83.2075 29.7593 83.0757 31.07 82.2376 31.9657C83.3644 30.8618 84.1788 29.7013 84.051 28.0218Z" fill="#66C7ED"/>
<path d="M105.9 78.9255C106.277 78.65 106.708 78.4571 107.164 78.3594C107.621 78.2618 108.093 78.2617 108.549 78.3591C109.464 78.5627 110.29 79.0512 110.908 79.7541C111.532 80.439 111.966 81.2753 112.165 82.1797C112.365 83.0841 112.324 84.0251 112.047 84.9089C111.77 85.7927 111.266 86.5885 110.586 87.2171C109.905 87.8457 109.072 88.2852 108.169 88.4917C107.378 88.6735 106.487 88.6564 105.796 88.2282C105.106 87.8001 104.68 86.8727 105.006 86.1206C105.151 86.7792 105.778 87.2679 106.446 87.3746C107.114 87.4813 107.802 87.2548 108.368 86.8846C110.068 85.7741 110.661 83.2647 109.637 81.5114C108.968 80.3679 107.465 79.5881 106.284 80.1941C105.674 80.5063 105.265 81.128 105.071 81.7867C104.878 82.4453 104.876 83.1422 104.904 83.8272C104.834 82.3386 104.547 79.9622 105.9 78.9255Z" fill="#66C7ED"/>
<path d="M61.5215 11.7847C61.2844 12.4405 60.959 13.061 60.5541 13.6289C59.8662 14.6432 59.0649 15.6206 58.7381 16.8009C58.4597 17.8202 58.558 18.9056 59.0148 19.8584C57.3319 19.757 55.4565 19.7161 54.1861 20.8187C55.0766 20.6863 55.9851 20.7433 56.8521 20.9859C57.7191 21.2285 58.5251 21.6512 59.2175 22.2265C59.9098 22.8018 60.4729 23.5167 60.87 24.3244C61.267 25.1321 61.489 26.0145 61.5215 26.9138V11.7847Z" fill="#D0FFFF"/>
<path d="M61.4872 11.7847C61.7243 12.4405 62.0497 13.061 62.4546 13.6289C63.1425 14.6432 63.9438 15.6206 64.2706 16.8009C64.549 17.8202 64.4507 18.9056 63.9939 19.8584C65.6768 19.757 67.5522 19.7161 68.8226 20.8187C67.932 20.6863 67.0234 20.7433 66.1563 20.986C65.2892 21.2287 64.4831 21.6516 63.7907 22.227C63.0984 22.8024 62.5353 23.5174 62.1384 24.3253C61.7414 25.1332 61.5195 26.0157 61.4872 26.9152V11.7847Z" fill="#D0FFFF"/>
<path d="M65.031 43.3126C65.031 44.0145 64.8227 44.7006 64.4325 45.2841C64.0423 45.8675 63.4877 46.3222 62.8389 46.5906C62.1901 46.8589 61.4762 46.9289 60.7876 46.7916C60.099 46.6543 59.4666 46.3159 58.9705 45.8192C58.4743 45.3226 58.1367 44.69 58.0004 44.0015C57.8641 43.313 57.9351 42.5995 58.2045 41.9514C58.474 41.3033 58.9297 40.7496 59.514 40.3604C60.0983 39.9713 60.785 39.7641 61.4872 39.7651C62.4276 39.7665 63.3289 40.1409 63.9934 40.806C64.6578 41.4712 65.031 42.3727 65.031 43.3126Z" fill="#D0FFFF"/>
<path d="M19.3632 40.4423C20.4463 40.4423 21.3243 39.5647 21.3243 38.4821C21.3243 37.3996 20.4463 36.522 19.3632 36.522C18.2802 36.522 17.4022 37.3996 17.4022 38.4821C17.4022 39.5647 18.2802 40.4423 19.3632 40.4423Z" fill="#D0FFFF"/>
<path d="M6.51766 60.0702C7.60071 60.0702 8.4787 59.1926 8.4787 58.11C8.4787 57.0275 7.60071 56.1499 6.51766 56.1499C5.43462 56.1499 4.55663 57.0275 4.55663 58.11C4.55663 59.1926 5.43462 60.0702 6.51766 60.0702Z" fill="#D0FFFF"/>
<path d="M17.4035 76.1516C17.4035 76.5392 17.2885 76.9182 17.073 77.2406C16.8575 77.5629 16.5513 77.8141 16.1929 77.9625C15.8346 78.1109 15.4403 78.1497 15.0599 78.074C14.6795 77.9984 14.3301 77.8117 14.0558 77.5376C13.7816 77.2635 13.5948 76.9142 13.5191 76.534C13.4435 76.1537 13.4823 75.7596 13.6307 75.4014C13.7792 75.0433 14.0305 74.7371 14.353 74.5217C14.6755 74.3064 15.0546 74.1914 15.4425 74.1914C15.7001 74.1912 15.9551 74.2418 16.1931 74.3403C16.4311 74.4387 16.6474 74.5831 16.8295 74.7651C17.0117 74.9472 17.1561 75.1633 17.2546 75.4012C17.3531 75.6391 17.4037 75.8941 17.4035 76.1516Z" fill="#D0FFFF"/>
<path d="M38.934 28.0007C38.934 28.3884 38.819 28.7674 38.6034 29.0898C38.3879 29.4122 38.0815 29.6634 37.7231 29.8117C37.3647 29.96 36.9704 29.9988 36.5899 29.923C36.2095 29.8473 35.8601 29.6605 35.5859 29.3862C35.3117 29.112 35.125 28.7626 35.0495 28.3823C34.974 28.0019 35.013 27.6078 35.1616 27.2496C35.3102 26.8915 35.5618 26.5855 35.8845 26.3702C36.2071 26.155 36.5864 26.0403 36.9743 26.0405C37.2318 26.0405 37.4867 26.0912 37.7246 26.1898C37.9624 26.2883 38.1785 26.4327 38.3605 26.6147C38.5425 26.7968 38.6868 27.0128 38.7852 27.2507C38.8836 27.4885 38.9342 27.7433 38.934 28.0007Z" fill="#D0FFFF"/>
<path d="M87.9177 28.0123C87.9177 28.3432 87.8195 28.6667 87.6356 28.9418C87.4517 29.2169 87.1903 29.4313 86.8845 29.5579C86.5786 29.6846 86.2421 29.7177 85.9174 29.6531C85.5928 29.5886 85.2945 29.4293 85.0605 29.1953C84.8264 28.9613 84.667 28.6632 84.6024 28.3387C84.5378 28.0142 84.571 27.6778 84.6976 27.3721C84.8243 27.0664 85.0388 26.8051 85.3141 26.6213C85.5893 26.4375 85.9129 26.3394 86.244 26.3394C86.4638 26.3392 86.6815 26.3823 86.8847 26.4663C87.0878 26.5504 87.2724 26.6736 87.4279 26.829C87.5833 26.9844 87.7066 27.1688 87.7906 27.3719C87.8747 27.5749 87.9179 27.7926 87.9177 28.0123Z" fill="#D0FFFF"/>
<path d="M104.828 40.4423C105.911 40.4423 106.789 39.5647 106.789 38.4821C106.789 37.3996 105.911 36.522 104.828 36.522C103.745 36.522 102.867 37.3996 102.867 38.4821C102.867 39.5647 103.745 40.4423 104.828 40.4423Z" fill="#D0FFFF"/>
<path d="M108.072 77.3832C109.155 77.3832 110.033 76.5056 110.033 75.423C110.033 74.3405 109.155 73.4629 108.072 73.4629C106.989 73.4629 106.111 74.3405 106.111 75.423C106.111 76.5056 106.989 77.3832 108.072 77.3832Z" fill="#D0FFFF"/>
<path d="M118.589 58.028C118.589 58.4157 118.474 58.7947 118.259 59.117C118.043 59.4394 117.737 59.6906 117.379 59.8389C117.02 59.9873 116.626 60.0261 116.246 59.9505C115.865 59.8749 115.516 59.6882 115.241 59.414C114.967 59.1399 114.78 58.7906 114.705 58.4104C114.629 58.0302 114.668 57.6361 114.816 57.2779C114.965 56.9197 115.216 56.6136 115.539 56.3982C115.861 56.1828 116.24 56.0679 116.628 56.0679C116.886 56.0679 117.141 56.1186 117.379 56.2171C117.616 56.3156 117.833 56.46 118.015 56.642C118.197 56.824 118.341 57.0401 118.44 57.2779C118.538 57.5157 118.589 57.7706 118.589 58.028Z" fill="#D0FFFF"/>
</svg>
