<svg width="128" height="64" viewBox="0 0 128 64" fill="none" xmlns="http://www.w3.org/2000/svg">
<path d="M8.69842 41.1535C2.00238 25.1179 24.7616 -3.50668 37.3229 1.36734C49.8843 6.24136 56.406 2.38162 61.0735 1.36734C65.7409 0.35307 79.95 -4.72288 86.4487 14.3601C92.9473 33.4432 98.8402 38.1106 106.748 35.4717C114.261 32.8328 111.415 43.7924 111.415 43.7924C109.791 53.132 87.0591 61.0488 78.9357 55.569C69.1922 36.8898 57.8241 35.0632 57.8241 35.0632L30.4204 30.3957L8.69842 41.1535Z" fill="#E21E26"/>
<g style="mix-blend-mode:multiply">
<path d="M111.879 40.8046C110.612 40.2218 109.359 40.5247 108.409 42.5257C105.362 48.9188 92.5756 53.031 86.4854 49.6807C80.3952 46.3304 78.2657 37.1973 79.179 33.0851C80.0923 28.973 82.8505 23.0388 80.3952 18.1648C79.9362 18.3162 80.3952 20.1428 78.2657 23.8006C78.2657 23.8006 77.1963 18.7752 73.3916 17.2515C76.6043 21.0561 78.5686 31.8689 73.5431 40.5476C73.5431 40.5476 73.2815 42.8883 72.9603 46.2569C75.2372 49.1666 77.2348 52.2844 78.9266 55.569C87.0499 61.0488 109.782 53.132 111.406 43.7924C111.638 42.8097 111.796 41.8109 111.879 40.8046Z" fill="#DBDBDB"/>
</g>
<g style="mix-blend-mode:multiply">
<path d="M61.0596 1.37665C59.9995 1.60612 58.8338 1.98704 57.5304 2.37715C52.4177 5.67698 44.7303 7.54948 40.2005 5.99365C34.8721 4.15787 35.1796 10.5602 43.2479 9.95437C48.7553 9.53673 54.9327 4.48831 61.6379 1.23438L61.0596 1.37665Z" fill="#DBDBDB"/>
</g>
<path d="M125.397 40.0316C126.801 34.0838 123.118 28.1242 117.17 26.7204C111.222 25.3167 105.263 29.0002 103.859 34.948C102.455 40.8957 106.139 46.8553 112.086 48.2591C118.034 49.6629 123.994 45.9793 125.397 40.0316Z" fill="white"/>
<g style="mix-blend-mode:multiply">
<path d="M116.294 26.6187C118.227 27.9626 119.681 29.8886 120.443 32.1162C121.206 34.3437 121.237 36.7566 120.533 39.0033C119.829 41.25 118.426 43.2132 116.528 44.607C114.631 46.0009 112.338 46.7526 109.983 46.7527C109.432 46.7374 108.883 46.6822 108.34 46.5874C109.705 47.5426 111.268 48.1768 112.912 48.4423C114.557 48.7078 116.24 48.5979 117.836 48.1208C119.432 47.6437 120.899 46.8117 122.128 45.6872C123.356 44.5626 124.315 43.1747 124.931 41.6272C125.548 40.0798 125.806 38.4129 125.687 36.7515C125.568 35.0901 125.074 33.4772 124.243 32.0335C123.413 30.5898 122.266 29.3528 120.889 28.4151C119.513 27.4773 117.942 26.8632 116.294 26.6187Z" fill="#DBDBDB"/>
</g>
<path d="M74.4379 37.9641C68.3477 28.0692 56.6262 23.5027 41.3937 23.8056H36.2352C21.0119 23.5027 9.28578 28.0692 3.19096 37.9641C-2.90385 47.859 0.607093 60.4984 6.40359 64.0002H6.52292C6.30683 61.1581 6.69956 58.3027 7.67489 55.6244C10.8508 47.3634 21.9298 37.7989 39.2459 38.3497C56.5665 37.7989 67.6409 47.3772 70.8214 55.6244C71.7396 58.1371 72.1363 60.8106 71.9871 63.4816C77.3017 59.4016 80.2665 47.4368 74.4379 37.9641Z" fill="white"/>
<g style="mix-blend-mode:multiply">
<path d="M70.3076 32.9565C70.0184 32.6766 69.7477 32.3828 69.4448 32.1167C68.5943 31.3799 67.6992 30.6963 66.7645 30.0697L66.5121 29.8908C65.4607 29.2014 64.3695 28.5746 63.2444 28.0137C70.7252 35.4348 70.3305 45.7244 66.8104 49.2124C68.5006 51.1071 69.8486 53.2813 70.7941 55.6377C71.7123 58.1504 72.1089 60.8238 71.9598 63.4949C72.2954 63.2337 72.6142 62.9516 72.9144 62.6504C73.2196 62.3405 73.5077 62.0142 73.7772 61.6728L73.8323 61.604C74.0985 61.2644 74.3509 60.9018 74.5941 60.5255L74.6814 60.3924C74.9108 60.0252 75.1403 59.6443 75.333 59.245C75.3697 59.1716 75.411 59.0982 75.4478 59.0201C75.6359 58.6438 75.8149 58.2491 75.9802 57.8452C76.0261 57.7351 76.072 57.6203 76.1133 57.5102C76.2647 57.1247 76.407 56.7346 76.5355 56.3307C76.586 56.1792 76.6273 56.0232 76.6732 55.8717C76.7879 55.4908 76.8935 55.1099 76.9853 54.7152C77.0312 54.5224 77.0725 54.3251 77.1092 54.1278C77.1872 53.7606 77.2606 53.3888 77.3203 53.0079C77.357 52.7739 77.3845 52.549 77.4121 52.2966C77.458 51.9432 77.4947 51.5898 77.5268 51.2272C77.5268 50.9564 77.5544 50.6765 77.5636 50.4011C77.5727 50.1257 77.5911 49.7265 77.5911 49.3822C77.5911 49.038 77.5911 48.7673 77.559 48.4643C77.5268 48.1614 77.559 47.8218 77.5085 47.5006C77.458 47.1793 77.4305 46.8259 77.3846 46.4909C77.3387 46.1558 77.3111 45.8851 77.2606 45.573C77.2102 45.2609 77.1092 44.8524 77.0266 44.4945C76.9623 44.2099 76.9118 43.9299 76.8338 43.65C76.7328 43.2645 76.5998 42.879 76.4759 42.498C76.3932 42.241 76.3198 41.984 76.228 41.7316C76.0674 41.3048 75.8792 40.8825 75.691 40.4649C75.5992 40.2538 75.5212 40.0427 75.4203 39.8407C75.1174 39.2166 74.7823 38.597 74.4106 38.0049C73.7115 36.8772 72.9291 35.8034 72.0699 34.7923C71.5421 34.1268 70.9226 33.544 70.3076 32.9565Z" fill="#DBDBDB"/>
</g>
</svg>
