<svg width="304" height="152" viewBox="0 0 304 152" fill="none" xmlns="http://www.w3.org/2000/svg">
<path d="M20.6589 97.7395C4.75576 59.6549 58.8088 -8.32835 88.6421 3.24744C118.475 14.8232 133.964 5.65634 145.05 3.24744C156.135 0.83854 189.881 -11.2168 205.316 34.1053C220.75 79.4275 234.746 90.5128 253.526 84.2453C271.37 77.9778 264.612 104.007 264.612 104.007C260.753 126.188 206.765 144.991 187.472 131.976C164.332 87.6134 137.332 83.2752 137.332 83.2752L72.2485 72.1899L20.6589 97.7395Z" fill="#E21E26"/>
<g style="mix-blend-mode:multiply">
<path d="M265.712 96.9109C262.704 95.5266 259.728 96.246 257.472 100.998C250.234 116.182 219.867 125.949 205.403 117.992C190.938 110.035 185.881 88.3435 188.05 78.5771C190.219 68.8107 196.77 54.717 190.938 43.1413C189.848 43.501 190.938 47.8392 185.881 56.5264C185.881 56.5264 183.341 44.591 174.305 40.9722C181.935 50.0083 186.6 75.6887 174.665 96.3005C174.665 96.3005 174.044 101.86 173.281 109.86C178.688 116.771 183.433 124.175 187.451 131.976C206.743 144.991 260.731 126.188 264.59 104.007C265.141 101.673 265.516 99.3009 265.712 96.9109V96.9109Z" fill="#DBDBDB"/>
</g>
<g style="mix-blend-mode:multiply">
<path d="M145.017 3.26954C142.499 3.81454 139.73 4.71923 136.635 5.64573C124.492 13.4828 106.235 17.93 95.4763 14.2349C82.8214 9.87493 83.5517 25.0804 102.714 23.6416C115.794 22.6497 130.465 10.6597 146.39 2.93164L145.017 3.26954Z" fill="#DBDBDB"/>
</g>
<path d="M297.819 95.075C301.153 80.9491 292.404 66.7951 278.279 63.4611C264.153 60.1271 249.999 68.8756 246.665 83.0015C243.331 97.1274 252.079 111.281 266.205 114.615C280.331 117.949 294.485 109.201 297.819 95.075Z" fill="white"/>
<g style="mix-blend-mode:multiply">
<path d="M276.198 63.2192C280.79 66.4111 284.242 70.9853 286.053 76.2758C287.864 81.5663 287.939 87.2968 286.266 92.6327C284.594 97.9686 281.262 102.631 276.755 105.942C272.248 109.252 266.803 111.037 261.211 111.037C259.902 111.001 258.598 110.87 257.309 110.645C260.549 112.914 264.262 114.42 268.167 115.05C272.072 115.681 276.07 115.42 279.86 114.287C283.65 113.154 287.135 111.178 290.053 108.507C292.972 105.836 295.248 102.54 296.712 98.8646C298.176 95.1894 298.789 91.2306 298.506 87.2848C298.223 83.3389 297.051 79.5082 295.078 76.0795C293.105 72.6507 290.381 69.7128 287.112 67.4857C283.842 65.2586 280.111 63.8001 276.198 63.2192V63.2192Z" fill="#DBDBDB"/>
</g>
<path d="M176.79 90.1649C162.326 66.6645 134.487 55.819 98.3101 56.5384H86.0585C49.9032 55.819 22.0537 66.6645 7.57854 90.1649C-6.89665 113.665 1.44185 143.684 15.2085 152.001H15.4919C14.9787 145.251 15.9114 138.469 18.2279 132.108C25.7706 112.488 52.0833 89.7725 93.2089 91.0805C134.346 89.7725 160.647 112.521 168.201 132.108C170.382 138.076 171.324 144.425 170.969 150.769C183.592 141.079 190.633 112.662 176.79 90.1649Z" fill="white"/>
<g style="mix-blend-mode:multiply">
<path d="M166.981 78.2715C166.294 77.6066 165.651 76.909 164.931 76.2768C162.911 74.527 160.786 72.9034 158.566 71.4154L157.966 70.9903C155.469 69.3531 152.878 67.8645 150.205 66.5322V66.5322C167.972 84.1575 167.035 108.595 158.675 116.879C162.689 121.379 165.89 126.543 168.136 132.139C170.317 138.107 171.259 144.456 170.905 150.8C171.702 150.18 172.459 149.51 173.172 148.794V148.794C173.897 148.058 174.581 147.283 175.221 146.473L175.352 146.309C175.984 145.503 176.583 144.642 177.161 143.748L177.368 143.432C177.913 142.56 178.458 141.655 178.916 140.707C179.003 140.532 179.101 140.358 179.188 140.173C179.635 139.279 180.061 138.341 180.453 137.382C180.562 137.121 180.671 136.848 180.769 136.586C181.129 135.671 181.467 134.744 181.772 133.785C181.892 133.425 181.99 133.055 182.099 132.695C182.371 131.79 182.622 130.886 182.84 129.948C182.949 129.491 183.047 129.022 183.134 128.553C183.32 127.681 183.494 126.798 183.636 125.894C183.723 125.338 183.788 124.804 183.854 124.204C183.963 123.365 184.05 122.525 184.126 121.664C184.126 121.021 184.192 120.356 184.213 119.702C184.235 119.048 184.279 118.1 184.279 117.283C184.279 116.465 184.279 115.822 184.203 115.103C184.126 114.383 184.203 113.577 184.083 112.814C183.963 112.051 183.897 111.211 183.788 110.416C183.679 109.62 183.614 108.977 183.494 108.236C183.374 107.494 183.134 106.524 182.938 105.674C182.786 104.998 182.666 104.333 182.48 103.668C182.241 102.753 181.925 101.837 181.63 100.933C181.434 100.322 181.26 99.7118 181.042 99.1123C180.66 98.0986 180.213 97.0958 179.766 96.1039C179.548 95.6025 179.363 95.1011 179.123 94.6215C178.404 93.1391 177.608 91.6676 176.725 90.2615C175.065 87.5832 173.207 85.0327 171.166 82.6315C169.913 81.051 168.441 79.6667 166.981 78.2715Z" fill="#DBDBDB"/>
</g>
</svg>
