<svg width="169" height="305" viewBox="0 0 169 305" fill="none" xmlns="http://www.w3.org/2000/svg">
<path d="M84.4764 304.018C131.131 304.018 168.953 267.949 168.953 223.455C168.953 178.961 131.131 142.892 84.4764 142.892C37.8214 142.892 0 178.961 0 223.455C0 267.949 37.8214 304.018 84.4764 304.018Z" fill="white"/>
<g style="mix-blend-mode:multiply">
<path d="M140.857 163.474C148.72 175.862 152.895 190.233 152.894 204.906C152.894 249.406 115.062 285.469 68.3702 285.469C47.736 285.55 27.7517 278.256 12.0214 264.902C19.8178 277.006 30.5495 286.941 43.2178 293.783C55.8861 300.625 70.0793 304.151 84.4767 304.033C131.137 304.033 169 268.032 169 223.47C168.949 212.025 166.406 200.729 161.545 190.368C156.685 180.006 149.625 170.829 140.857 163.474V163.474Z" fill="#E6E6E6"/>
</g>
<path d="M62.2339 159.577C77.2759 171.316 146.507 181.209 152.063 174.212C157.62 167.215 143.204 162.254 145.677 155.257C148.15 148.26 144.237 144.3 138.884 142.265C133.531 140.231 74.1767 143.924 62.2339 159.577Z" fill="#C41E1C"/>
<path d="M39.3501 124.14C32.3534 125.173 30.0838 131.966 37.0961 139.182C44.1084 146.398 34.8265 152.158 41.2127 157.307C47.5989 162.457 58.5243 166.996 84.2727 154.834C110.021 142.672 132.498 142.312 139.917 143.705C147.336 145.099 151.25 124.923 136.411 122.074C121.572 119.225 39.3501 124.14 39.3501 124.14Z" fill="#D9221E"/>
<path d="M148.699 44.1869C137.898 18.8612 117.206 0.939148 86.9496 0C56.6933 0.939148 36.0164 18.8612 25.2005 44.1869C14.3847 69.5126 2.94276 137.523 86.7148 137.225H87.2626C170.956 137.523 159.53 69.5283 148.699 44.1869ZM87.1687 121.808C65.0048 121.808 46.801 105.779 47.0358 66.4604C47.0358 55.8165 51.2641 45.6085 58.7904 38.0821C66.3168 30.5558 76.5248 26.3275 87.1687 26.3275C97.8126 26.3275 108.021 30.5558 115.547 38.0821C123.073 45.6085 127.302 55.8165 127.302 66.4604C130.933 101.052 109.301 121.808 87.1687 121.808Z" fill="white"/>
<path d="M40.6335 70.6858C40.4589 70.5067 40.2353 70.3831 39.9907 70.3308C39.7461 70.2785 39.4915 70.2997 39.2589 70.3917C39.0263 70.4837 38.8262 70.6424 38.6836 70.848C38.5411 71.0535 38.4625 71.2966 38.4578 71.5467C38.4578 82.1903 50.1502 96.2463 68.714 101.208C88.9683 106.624 99.3146 96.5124 98.7041 85.133C98.0937 73.7537 84.6169 69.6997 71.8132 77.8703C60.5903 85.0235 47.458 77.1659 40.6335 70.6858Z" fill="#ED622F"/>
<g style="mix-blend-mode:multiply">
<path d="M70.7335 86.6829C82.0032 88.076 74.7405 86.3699 72.424 83.5524C70.577 81.3298 82.3163 70.5609 93.8835 76.0393C88.7182 72.3766 80.1406 72.5175 71.8135 77.8236C60.5907 84.9768 47.4583 77.1193 40.6338 70.6392C44.453 76.8532 59.448 85.2899 70.7335 86.6829Z" fill="#E6E6E6"/>
</g>
<g style="mix-blend-mode:multiply">
<path d="M47.3956 76.6348C47.667 78.2809 47.5051 79.9694 46.926 81.534C47.3489 81.2984 47.7083 80.9635 47.9732 80.5583C48.2381 80.1531 48.4007 79.6896 48.4468 79.2077C48.493 78.7257 48.4215 78.2398 48.2384 77.7916C48.0553 77.3435 47.7661 76.9465 47.3956 76.6348V76.6348Z" fill="#E0E0E0"/>
</g>
<g style="mix-blend-mode:multiply">
<path d="M51.7786 78.8086C52.3926 79.6454 52.7691 80.6326 52.8683 81.6659C52.9675 82.6991 52.7857 83.7399 52.342 84.6783C55.0656 82.4556 54.0325 79.826 51.7786 78.8086Z" fill="#E0E0E0"/>
</g>
<g style="mix-blend-mode:multiply">
<path d="M58.4622 81.2832C59.4474 82.1715 60.1741 83.3096 60.5654 84.5771C60.9566 85.8446 60.9979 87.1943 60.6848 88.4833C61.2396 87.9381 61.6338 87.2507 61.8242 86.4965C62.0147 85.7423 61.994 84.9502 61.7646 84.2069C61.5351 83.4636 61.1057 82.7977 60.5233 82.2821C59.9408 81.7664 59.2278 81.4209 58.4622 81.2832V81.2832Z" fill="#E0E0E0"/>
</g>
<g style="mix-blend-mode:multiply">
<path d="M65.7251 81.8462C70.6713 84.6793 70.1704 90.9403 70.1704 90.9403C72.2209 84.8828 69.2313 81.7993 65.7251 81.8462Z" fill="#E0E0E0"/>
</g>
<path d="M69.8573 183.072C69.8604 184.339 69.4871 185.579 68.7849 186.634C68.0826 187.69 67.083 188.512 65.9125 188.999C64.7421 189.485 63.4536 189.614 62.2104 189.367C60.9671 189.121 59.8249 188.51 58.9286 187.614C58.0324 186.718 57.4224 185.576 57.1758 184.333C56.9293 183.089 57.0574 181.801 57.5439 180.63C58.0304 179.46 58.8534 178.46 59.9085 177.758C60.9637 177.056 62.2036 176.682 63.4711 176.686C65.1648 176.686 66.7891 177.358 67.9868 178.556C69.1844 179.754 69.8573 181.378 69.8573 183.072V183.072Z" fill="#404040"/>
<path d="M44.7195 216.442C48.2465 216.442 51.1057 213.583 51.1057 210.056C51.1057 206.529 48.2465 203.669 44.7195 203.669C41.1925 203.669 38.3333 206.529 38.3333 210.056C38.3333 213.583 41.1925 216.442 44.7195 216.442Z" fill="#404040"/>
<path d="M48.6325 247.56C48.6325 248.823 48.258 250.058 47.5563 251.108C46.8545 252.158 45.8571 252.977 44.6902 253.46C43.5233 253.943 42.2393 254.07 41.0005 253.824C39.7617 253.577 38.6237 252.969 37.7306 252.076C36.8375 251.183 36.2292 250.045 35.9828 248.806C35.7364 247.567 35.8629 246.283 36.3462 245.116C36.8296 243.949 37.6481 242.952 38.6984 242.25C39.7486 241.548 40.9833 241.174 42.2463 241.174C43.9401 241.174 45.5644 241.847 46.762 243.044C47.9597 244.242 48.6325 245.866 48.6325 247.56V247.56Z" fill="#404040"/>
<g style="mix-blend-mode:multiply">
<path d="M148.699 44.1868C141.076 26.3117 128.507 12.1775 111.133 5.05566C122.379 13.2862 131.106 24.4906 136.333 37.4093C147.149 62.7506 158.575 130.745 74.819 130.432H74.2711C58.9943 130.432 46.9106 128.256 37.3939 124.453C48.0219 132.279 63.7527 137.319 86.6366 137.241H87.1844C170.956 137.522 159.53 69.5282 148.699 44.1868Z" fill="#E6E6E6"/>
</g>
<path d="M86.5427 248.796C70.9685 247.982 71.0937 233.143 77.6834 211.23C84.2731 189.317 86.7462 162.394 85.5096 153.535C89.4227 140.763 115.797 137.679 121.98 152.925C128.163 168.17 120.336 195.985 124.046 213.703C127.756 231.422 131.043 248.326 115.594 247.497C100.145 246.667 94.3689 249.203 86.5427 248.796Z" fill="#D9221E"/>
</svg>
