<svg width="67" height="121" viewBox="0 0 67 121" fill="none" xmlns="http://www.w3.org/2000/svg">
<path d="M33.4906 120.993C51.987 120.993 66.9813 106.693 66.9813 89.0535C66.9813 71.414 51.987 57.1143 33.4906 57.1143C14.9943 57.1143 0 71.414 0 89.0535C0 106.693 14.9943 120.993 33.4906 120.993Z" fill="white"/>
<g style="mix-blend-mode:multiply">
<path d="M55.8427 65.2739C58.9599 70.1854 60.615 75.8825 60.6146 81.6997C60.6146 99.3417 45.6161 113.639 27.1054 113.639C18.9249 113.671 11.0022 110.779 4.76587 105.485C7.85677 110.284 12.1113 114.223 17.1337 116.935C22.156 119.647 27.7829 121.045 33.4907 120.999C51.9891 120.999 67 106.726 67 89.0593C66.98 84.5221 65.9714 80.0438 64.0445 75.9361C62.1177 71.8284 59.3188 68.1899 55.8427 65.2739Z" fill="#E6E6E6"/>
</g>
<path d="M24.6726 63.729C30.636 68.3831 58.0826 72.3049 60.2855 69.5311C62.4884 66.7573 56.7732 64.7901 57.7537 62.0163C58.7341 59.2425 57.1828 57.6725 55.0605 56.8658C52.9383 56.0591 29.4073 57.5236 24.6726 63.729Z" fill="#C41E1C"/>
<path d="M15.6003 49.68C12.8265 50.0896 11.9267 52.7827 14.7067 55.6434C17.4867 58.5041 13.8069 60.7877 16.3387 62.8293C18.8705 64.8709 23.2019 66.6705 33.4098 61.8489C43.6178 57.0273 52.5287 56.8845 55.4701 57.4368C58.4115 57.9891 59.9628 49.9903 54.0801 48.8609C48.1973 47.7315 15.6003 49.68 15.6003 49.68Z" fill="#D9221E"/>
<path d="M58.9515 17.9827C54.6698 7.94238 46.4662 0.837169 34.4711 0.464844C22.4761 0.837169 14.2787 7.94238 9.99076 17.9827C5.70282 28.0231 1.16667 54.9856 34.3781 54.8677H34.5953C67.7756 54.9856 63.2457 28.0293 58.9515 17.9827ZM34.558 48.7554C25.7711 48.7554 18.5542 42.401 18.6473 26.813C18.6473 22.5933 20.3236 18.5463 23.3075 15.5625C26.2913 12.5787 30.3382 10.9024 34.558 10.9024C38.7778 10.9024 42.8247 12.5787 45.8086 15.5625C48.7924 18.5463 50.4687 22.5933 50.4687 26.813C51.9084 40.527 43.3325 48.7554 34.558 48.7554Z" fill="white"/>
<path d="M16.1092 28.4883C16.04 28.4173 15.9513 28.3683 15.8543 28.3475C15.7574 28.3268 15.6564 28.3352 15.5642 28.3717C15.472 28.4082 15.3926 28.4711 15.3361 28.5526C15.2796 28.6341 15.2485 28.7304 15.2466 28.8296C15.2466 33.0493 19.8821 38.6217 27.2417 40.5889C35.2715 42.7359 39.3733 38.7272 39.1313 34.2159C38.8892 29.7046 33.5464 28.0973 28.4703 31.3366C24.0211 34.1725 18.8147 31.0573 16.1092 28.4883Z" fill="#ED622F"/>
<g style="mix-blend-mode:multiply">
<path d="M28.0422 34.8303C32.5101 35.3826 29.6308 34.7062 28.7124 33.5892C27.9802 32.708 32.6342 28.4387 37.22 30.6106C35.1723 29.1585 31.7717 29.2144 28.4704 31.318C24.0211 34.1539 18.8148 31.0388 16.1092 28.4697C17.6233 30.9333 23.5681 34.278 28.0422 34.8303Z" fill="#E6E6E6"/>
</g>
<g style="mix-blend-mode:multiply">
<path d="M18.79 30.8467C18.8976 31.4993 18.8334 32.1687 18.6038 32.789C18.7715 32.6956 18.914 32.5628 19.019 32.4022C19.124 32.2415 19.1885 32.0578 19.2068 31.8667C19.2251 31.6756 19.1967 31.483 19.1241 31.3053C19.0515 31.1276 18.9369 30.9702 18.79 30.8467Z" fill="#E0E0E0"/>
</g>
<g style="mix-blend-mode:multiply">
<path d="M20.5276 31.7085C20.771 32.0403 20.9203 32.4316 20.9596 32.8413C20.9989 33.2509 20.9268 33.6635 20.751 34.0355C21.8307 33.1544 21.4212 32.1118 20.5276 31.7085Z" fill="#E0E0E0"/>
</g>
<g style="mix-blend-mode:multiply">
<path d="M23.1773 32.6895C23.5679 33.0416 23.856 33.4928 24.0111 33.9953C24.1662 34.4978 24.1826 35.0329 24.0585 35.5439C24.2784 35.3278 24.4347 35.0553 24.5102 34.7563C24.5857 34.4573 24.5775 34.1432 24.4865 33.8486C24.3956 33.5539 24.2253 33.2899 23.9944 33.0855C23.7635 32.881 23.4808 32.744 23.1773 32.6895Z" fill="#E0E0E0"/>
</g>
<g style="mix-blend-mode:multiply">
<path d="M26.0567 32.9128C28.0176 34.036 27.819 36.5182 27.819 36.5182C28.6319 34.1167 27.4467 32.8942 26.0567 32.9128Z" fill="#E0E0E0"/>
</g>
<path d="M27.6949 73.0435C27.6961 73.546 27.5481 74.0376 27.2697 74.4559C26.9913 74.8742 26.595 75.2005 26.131 75.3934C25.667 75.5862 25.1562 75.637 24.6633 75.5393C24.1704 75.4416 23.7175 75.1997 23.3622 74.8444C23.0069 74.4891 22.7651 74.0363 22.6673 73.5434C22.5696 73.0505 22.6204 72.5396 22.8132 72.0756C23.0061 71.6116 23.3324 71.2153 23.7507 70.9369C24.169 70.6585 24.6606 70.5105 25.1631 70.5117C25.8346 70.5117 26.4785 70.7785 26.9533 71.2533C27.4281 71.7281 27.6949 72.3721 27.6949 73.0435Z" fill="#404040"/>
<path d="M17.729 86.2731C19.1273 86.2731 20.2608 85.1396 20.2608 83.7413C20.2608 82.343 19.1273 81.2095 17.729 81.2095C16.3307 81.2095 15.1972 82.343 15.1972 83.7413C15.1972 85.1396 16.3307 86.2731 17.729 86.2731Z" fill="#404040"/>
<path d="M19.2803 98.6099C19.2803 99.1107 19.1318 99.6002 18.8536 100.017C18.5754 100.433 18.18 100.757 17.7174 100.949C17.2548 101.141 16.7457 101.191 16.2546 101.093C15.7635 100.995 15.3123 100.754 14.9583 100.4C14.6042 100.046 14.363 99.595 14.2654 99.1039C14.1677 98.6127 14.2178 98.1037 14.4094 97.641C14.6011 97.1784 14.9256 96.783 15.3419 96.5048C15.7583 96.2266 16.2478 96.0781 16.7485 96.0781C17.42 96.0781 18.064 96.3449 18.5388 96.8197C19.0136 97.2945 19.2803 97.9384 19.2803 98.6099Z" fill="#404040"/>
<g style="mix-blend-mode:multiply">
<path d="M58.9515 17.9828C55.9295 10.8962 50.9466 5.2927 44.0585 2.46924C48.517 5.73224 51.9769 10.1742 54.0492 15.2958C58.3372 25.3424 62.8671 52.2987 29.662 52.1746H29.4448C23.3883 52.1746 18.5977 51.3121 14.8248 49.8042C19.0383 52.9069 25.2747 54.905 34.347 54.874H34.5642C67.7756 54.9857 63.2457 28.0293 58.9515 17.9828Z" fill="#E6E6E6"/>
</g>
<path d="M34.3098 99.0998C28.1354 98.7772 28.1851 92.8944 30.7976 84.2068C33.41 75.5193 34.3905 64.8459 33.9003 61.3337C35.4516 56.27 45.9078 55.0476 48.3589 61.0917C50.81 67.1357 47.7073 78.1628 49.178 85.1873C50.6487 92.2118 51.9518 98.9137 45.8271 98.5848C39.7023 98.2559 37.4125 99.2612 34.3098 99.0998Z" fill="#D9221E"/>
</svg>
