<svg width="133" height="54" viewBox="0 0 133 54" fill="none" xmlns="http://www.w3.org/2000/svg">
<path d="M38.5209 43.0673C29.8338 40.1979 22.3204 34.5718 17.1221 27.0433C16.2281 25.9154 15.6463 24.5723 15.435 23.1486C15.4205 21.9081 15.6774 20.6795 16.1877 19.5487C17.2591 16.7056 18.5162 13.9359 19.9506 11.2576C20.4837 10.2667 21.0482 9.09388 20.5778 8.07787C20.1074 7.06187 18.7966 6.71067 17.7304 6.99289C16.6832 7.35483 15.7372 7.96111 14.971 8.7615C11.2456 12.1064 7.61433 15.5453 4.07713 19.0783C2.68482 20.4706 1.26744 21.9319 0.552467 23.7695C-0.802204 27.2126 0.552456 31.0948 2.26461 34.3874C6.15608 41.9485 11.6837 48.5473 18.4454 53.704L38.5209 43.0673Z" fill="#C9A047"/>
<path d="M8.10358 15.1396C10.8325 16.5232 13.7056 17.6022 16.6707 18.357C16.5076 18.7647 16.3382 19.166 16.1877 19.5737C13.0452 18.7482 9.99894 17.592 7.10013 16.1243L8.10358 15.1396Z" fill="#B08C3E"/>
<path d="M16.7271 26.4414C16.8526 26.6421 16.9905 26.8491 17.1222 27.0686L17.4734 27.5578C12.0798 29.8406 6.18452 30.0664 0.358171 29.5333C0.250387 29.095 0.166624 28.6512 0.10729 28.2037C5.77058 28.7619 11.4903 28.5988 16.7271 26.4414Z" fill="#B08C3E"/>
<path d="M11.7098 39.0034C15.6311 37.7953 19.3174 35.9267 22.6099 33.478C22.9235 33.7791 23.2371 34.0738 23.5695 34.3623C19.9478 37.1144 15.8482 39.1727 11.4777 40.4333C9.89576 40.8942 8.28996 41.269 6.66739 41.5559C6.38517 41.1671 6.11549 40.7719 5.84581 40.3768C7.83277 40.0699 9.79319 39.6107 11.7098 39.0034Z" fill="#B08C3E"/>
<path d="M82.6747 40.4112C90.9083 36.4188 97.6136 29.8478 101.772 21.6966C102.511 20.4611 102.913 19.0533 102.938 17.6138C102.783 16.3837 102.366 15.2011 101.715 14.1456C100.274 11.4684 98.6611 8.88749 96.8862 6.41894C96.259 5.50955 95.519 4.42455 95.8451 3.3521C96.1712 2.27965 97.4318 1.76537 98.5294 1.90335C99.6154 2.13377 100.632 2.61725 101.496 3.31447C105.627 6.12834 109.68 9.05511 113.657 12.0948C115.224 13.2926 116.792 14.5532 117.771 16.2779C119.564 19.5141 118.711 23.5405 117.47 27.0275C114.611 35.0357 110.005 42.307 103.986 48.3134L82.6747 40.4112Z" fill="#C9A047"/>
<path d="M102.092 21.0507C101.985 21.2702 101.885 21.4835 101.772 21.6779C101.659 21.8723 101.584 22.0354 101.49 22.211C107.134 23.7601 112.998 23.227 118.718 21.9099C118.768 21.4622 118.793 21.012 118.793 20.5615C113.255 21.9037 107.561 22.4995 102.092 21.0507Z" fill="#B08C3E"/>
<path d="M108.708 32.8417C104.667 32.1586 100.771 30.7928 97.1873 28.8027C96.9114 29.1414 96.6291 29.4738 96.3469 29.8062C100.304 32.0531 104.641 33.552 109.141 34.2277C110.77 34.4769 112.411 34.634 114.058 34.6981C114.278 34.2779 114.497 33.8577 114.685 33.4437C112.681 33.3926 110.683 33.1914 108.708 32.8417Z" fill="#B08C3E"/>
<path opacity="0.71" d="M115.256 27.1467C116.51 23.6597 117.351 19.6208 115.557 16.3971C114.604 14.6724 113.011 13.4056 111.443 12.2077C107.471 9.16386 103.417 6.2371 99.2819 3.42741C98.5686 2.88863 97.7749 2.46535 96.9301 2.17308C97.4266 1.93289 97.982 1.84142 98.5294 1.90968C99.6149 2.13825 100.631 2.61955 101.496 3.31452C105.627 6.1284 109.68 9.05516 113.657 12.0948C115.224 13.2927 116.792 14.5533 117.771 16.278C119.564 19.5142 118.711 23.5405 117.47 27.0276C114.611 35.0358 110.005 42.307 103.986 48.3135L102.449 47.7491C108.141 41.8756 112.508 34.8503 115.256 27.1467Z" fill="#B89241"/>
<path opacity="0.71" d="M4.47857 34.218C2.7915 30.9316 1.41171 27.0495 2.76011 23.6063C3.48134 21.7688 4.89246 20.3075 6.28476 18.9089C9.82196 15.3717 13.4533 11.9348 17.1786 8.59832C17.8184 7.97903 18.5504 7.46279 19.3486 7.06804C18.8249 6.89793 18.2637 6.88053 17.7305 7.01788C16.6827 7.3826 15.7354 7.9884 14.9647 8.78647C11.2477 12.1313 7.61856 15.5703 4.07717 19.1033C2.68487 20.4956 1.26748 21.9569 0.552517 23.7945C-0.802156 27.2376 0.552505 31.1198 2.26466 34.4124C6.15613 41.9735 11.6837 48.5723 18.4455 53.729L19.8879 52.9639C13.4698 47.8893 8.21514 41.4968 4.47857 34.218Z" fill="#B89241"/>
<path d="M44.2511 28.0786C44.2437 27.9651 44.2673 27.8518 44.3193 27.7507C44.3713 27.6496 44.4498 27.5646 44.5465 27.5047C44.6431 27.4448 44.7542 27.4122 44.8679 27.4106C44.9816 27.4089 45.0936 27.4382 45.1919 27.4953C47.9774 29.2233 50.9751 30.583 54.1101 31.5405C53.2741 30.1677 52.7396 28.6327 52.5422 27.0375C52.4607 26.4103 53.4265 26.1469 53.7276 26.6737C54.9714 28.9095 56.6647 30.8634 58.701 32.4123C58.3499 30.6309 58.2465 28.8095 58.3937 26.9999C58.3662 26.8335 58.406 26.6631 58.5042 26.5261C58.6024 26.3891 58.751 26.2967 58.9173 26.2692C59.0837 26.2418 59.2541 26.2815 59.3911 26.3797C59.5281 26.4779 59.6206 26.6266 59.648 26.7929C60.4527 29.3503 61.8732 31.6708 63.7848 33.5507C65.6963 35.4305 68.0403 36.812 70.6108 37.5738C71.3948 37.8122 71.1063 39.0665 70.3161 38.8282C69.8582 38.6902 69.4129 38.5271 68.9676 38.3578L54.2983 39.8567C54.2944 39.9671 54.2643 40.075 54.2105 40.1715C54.1566 40.2679 54.0806 40.3502 53.9887 40.4115C53.8968 40.4728 53.7916 40.5113 53.6819 40.5239C53.5721 40.5365 53.4609 40.5228 53.3575 40.4839C50.8289 39.4784 48.6341 37.7819 47.0238 35.5883C45.4135 33.3947 44.4527 30.7923 44.2511 28.0786Z" fill="#C8A484"/>
<path d="M27.8948 40.8728C28.5711 33.9043 30.198 27.0611 32.7302 20.5339C38.6192 5.35024 56.7004 -3.49276 72.5425 1.31131C80.357 3.68199 86.7227 10.1606 91.6961 16.3632C93.2752 18.3873 94.9891 20.3024 96.8263 22.0955C100.257 25.3254 104.76 27.8466 109.457 27.4515C113.465 27.1128 117.065 24.6669 119.649 21.5812C120.408 20.6656 121.141 19.6558 122.22 19.1478C123.299 18.6398 124.848 18.8844 125.3 19.982C126.704 23.3561 120.194 27.9846 117.974 29.5023C109.821 35.0903 100.006 35.1468 90.7303 32.544C88.9981 32.1638 87.3025 31.6329 85.6628 30.9573C86.7352 31.7036 88.2279 33.2402 88.3721 34.6074C88.8362 38.8972 80.1563 38.0631 77.6351 38.2011L57.9547 39.2672L27.9073 40.8916L27.8948 40.8728Z" fill="#DF1A22"/>
<path d="M46.9479 8.00316C43.8429 9.50135 41.2824 11.9304 39.6227 14.9521C39.1899 15.7424 37.9419 15.1152 38.3683 14.325C40.1284 11.0831 42.8526 8.46852 46.164 6.84291C46.9605 6.45407 47.7444 7.62058 46.9416 8.00942L46.9479 8.00316Z" fill="#F2F2F2"/>
<path d="M90.6174 32.6504C88.9944 26.7667 85.7161 21.4728 81.1723 17.3978C81.0515 17.2702 80.9829 17.1021 80.98 16.9264C80.9771 16.7508 81.0401 16.5804 81.1566 16.4489C81.2731 16.3175 81.4347 16.2344 81.6094 16.2162C81.7841 16.198 81.9594 16.2459 82.1005 16.3504C86.8298 20.5899 90.2484 26.0932 91.9533 32.2114C92.1916 33.0769 90.862 33.5222 90.6174 32.6504Z" fill="#E21E26"/>
<path d="M83.5117 28.4989C87.3687 28.8125 90.0467 28.4613 92.292 31.6347C93.9302 34.1509 94.8994 37.0434 95.1079 40.0387C95.202 41.0923 95.064 42.3717 94.0354 42.9425C93.1135 43.4567 91.9784 43.1369 91.0063 42.817C71.6081 36.5015 48.748 38.1384 29.6948 47.2072C28.7815 47.7431 27.749 48.0427 26.6907 48.0789C26.056 48.0147 25.455 47.7625 24.9645 47.3547C24.474 46.9469 24.1164 46.402 23.9374 45.7898C23.6501 44.5858 23.6674 43.3291 23.9875 42.1334C24.4078 39.976 25.1165 37.6743 27.0105 36.2318C28.1342 35.471 29.3791 34.9069 30.6919 34.5635C47.7439 29.1607 65.6789 27.1014 83.5117 28.4989Z" fill="white"/>
<path d="M34.6305 33.3717C33.3134 33.7417 31.9964 34.1368 30.6919 34.5508C29.379 34.8941 28.1341 35.4582 27.0104 36.219C25.129 37.6615 24.4077 39.982 23.9875 42.1206C23.6673 43.3163 23.6501 44.5729 23.9374 45.777C24.1164 46.3892 24.474 46.9341 24.9645 47.3419C25.4549 47.7497 26.056 48.0019 26.6906 48.0661C27.1145 48.0822 27.5381 48.0292 27.9449 47.9093C28.5448 47.7194 29.1279 47.4803 29.6884 47.1944C33.8788 45.2005 38.23 43.564 42.6958 42.3025C58.6007 37.7806 75.8539 37.8684 90.9874 42.7979C91.8037 43.1459 92.7026 43.2526 93.5776 43.1053C93.7305 43.062 93.8779 43.001 94.0166 42.9234C95.0452 42.3527 95.1831 41.0419 95.0891 40.0196C94.8659 37.0323 93.886 34.151 92.2417 31.647C90.0278 28.461 87.3498 28.8122 83.4614 28.5112C67.0075 27.2121 50.4539 28.8624 34.5803 33.3842L34.6305 33.3717ZM34.3545 32.6065C42.3542 30.3359 50.5393 28.7786 58.8139 27.953C67.0285 27.1271 75.3008 27.0432 83.5304 27.7021C84.0698 27.746 84.5903 27.7774 85.0983 27.8087C88.1338 27.9906 90.7428 28.1474 92.8752 31.1954C94.6025 33.8203 95.6321 36.8422 95.8667 39.9757C96.0235 41.7318 95.4967 43.0363 94.3804 43.6634C94.1813 43.7702 93.971 43.8543 93.7532 43.9143C92.7224 44.1148 91.6553 44.0057 90.6864 43.6007C83.0496 41.1474 75.0822 39.8784 67.0611 39.8377C58.8772 39.7684 50.7253 40.8687 42.8526 43.1053C38.434 44.3597 34.1273 45.9792 29.977 47.947C29.3722 48.2524 28.7428 48.5062 28.0955 48.7058C27.5977 48.8553 27.0778 48.9168 26.5589 48.8877C25.7597 48.8152 25.0006 48.5045 24.3801 47.9957C23.7595 47.487 23.3059 46.8036 23.0782 46.0341C22.7521 44.702 22.7629 43.3096 23.1095 41.9826C23.8935 37.9688 25.2983 36.4573 26.4397 35.5918C27.6362 34.7738 28.9641 34.1671 30.3658 33.7981C31.6703 33.3842 33.0061 32.9828 34.3232 32.6128L34.3545 32.6065Z" fill="#E8E8E8"/>
<path d="M126.849 22.2648C129.307 21.8007 131.559 20.007 132.092 17.5046C133.139 12.5438 127.382 8.17242 122.791 9.62744C114.876 12.1424 119.705 23.6257 126.849 22.2648Z" fill="white"/>
<path d="M122.709 9.65256C114.907 12.2239 119.73 23.6195 126.849 22.2648C127.152 22.208 127.451 22.1326 127.745 22.039C128.801 21.7247 129.756 21.1414 130.518 20.3465C131.28 19.5516 131.822 18.5723 132.092 17.5047C133.139 12.5438 127.382 8.17245 122.791 9.62747H122.709V9.65256ZM122.459 8.86233L122.546 8.83098C125.105 8.02194 128.191 8.79962 130.43 10.8191C131.404 11.6405 132.144 12.7047 132.575 13.9041C133.005 15.1035 133.111 16.3953 132.882 17.6489C132.584 18.855 131.977 19.9626 131.12 20.8623C130.263 21.762 129.187 22.4227 127.996 22.7791C127.67 22.8868 127.337 22.9727 126.999 23.0362C122.678 23.8578 119.109 20.5276 118.156 16.8336C117.203 13.1396 118.896 10.0351 122.459 8.86233Z" fill="#E8E8E8"/>
<path d="M86.6224 28.7119C88.899 28.9126 90.6927 29.3955 92.2669 31.647C93.912 34.1571 94.8898 37.0453 95.1079 40.0385C95.202 41.0921 95.064 42.3715 94.0354 42.9423C93.1135 43.4565 91.9784 43.1367 91.0063 42.8168C90.1847 42.5534 89.3568 42.2963 88.4976 42.058C89.1523 39.828 89.3236 37.484 89.0003 35.1826C88.6769 32.8811 87.8663 30.6751 86.6224 28.7119Z" fill="#F2F2F2"/>
</svg>
