<svg width="303" height="123" viewBox="0 0 303 123" fill="none" xmlns="http://www.w3.org/2000/svg">
<path d="M87.7583 98.116C67.9673 91.579 50.8504 78.7614 39.0076 61.6101C36.9708 59.0406 35.6454 55.9807 35.1641 52.7373C35.1311 49.9112 35.7163 47.1121 36.8787 44.5359C39.3197 38.0588 42.1835 31.749 45.4515 25.6472C46.666 23.3897 47.9519 20.7178 46.8803 18.4032C45.8087 16.0885 42.8225 15.2884 40.3935 15.9314C38.0076 16.7559 35.8526 18.1372 34.1068 19.9606C25.6197 27.5809 17.347 35.4154 9.28855 43.4643C6.11661 46.6363 2.88753 49.9654 1.25869 54.1518C-1.82752 61.9959 1.25867 70.8402 5.15929 78.3414C14.0248 95.567 26.6177 110.6 42.0224 122.348L87.7583 98.116Z" fill="#C9A047"/>
<path d="M18.4615 34.4912C24.6786 37.6433 31.2239 40.1014 37.9789 41.821C37.6075 42.7497 37.2217 43.6641 36.8787 44.5928C29.7193 42.7123 22.7795 40.0781 16.1754 36.7344L18.4615 34.4912Z" fill="#B08C3E"/>
<path d="M38.1075 60.2388C38.3933 60.696 38.7076 61.1675 39.0077 61.6676L39.8078 62.782C27.5201 67.9829 14.0894 68.4972 0.815838 67.2828C0.570285 66.2842 0.379459 65.273 0.244282 64.2537C13.1464 65.5253 26.177 65.1538 38.1075 60.2388Z" fill="#B08C3E"/>
<path d="M26.6771 88.8573C35.6106 86.1052 44.0088 81.8481 51.5096 76.2695C52.224 76.9554 52.9385 77.6269 53.6957 78.2841C45.4449 84.5539 36.1052 89.2431 26.1484 92.115C22.5444 93.1651 18.8861 94.0188 15.1895 94.6725C14.5466 93.7866 13.9322 92.8865 13.3178 91.9863C17.8445 91.2871 22.3107 90.241 26.6771 88.8573Z" fill="#B08C3E"/>
<path d="M188.349 92.0647C207.107 82.9691 222.383 67.9991 231.856 49.4292C233.54 46.6144 234.456 43.4072 234.513 40.1277C234.159 37.3253 233.209 34.6312 231.727 32.2265C228.444 26.1274 224.769 20.2475 220.726 14.6236C219.297 12.5519 217.611 10.08 218.354 7.63679C219.097 5.19354 221.969 4.02192 224.469 4.33626C226.943 4.8612 229.259 5.96266 231.227 7.55106C240.638 13.9616 249.873 20.6294 258.932 27.5543C262.504 30.2833 266.076 33.1552 268.305 37.0844C272.391 44.457 270.448 53.6299 267.619 61.574C261.106 79.8184 250.612 96.3836 236.9 110.068L188.349 92.0647Z" fill="#C9A047"/>
<path d="M232.585 47.9577C232.342 48.4578 232.113 48.9436 231.856 49.3865C231.599 49.8295 231.427 50.201 231.213 50.601C244.072 54.1302 257.432 52.9157 270.462 49.9152C270.576 48.8951 270.633 47.8696 270.634 46.8433C258.017 49.9009 245.044 51.2583 232.585 47.9577Z" fill="#B08C3E"/>
<path d="M247.659 74.8201C238.451 73.264 229.575 70.1524 221.412 65.6187C220.783 66.3902 220.14 67.1474 219.497 67.9047C228.512 73.0237 238.393 76.4384 248.645 77.9778C252.355 78.5456 256.095 78.9034 259.846 79.0494C260.346 78.0921 260.847 77.1348 261.275 76.1918C256.708 76.0753 252.157 75.6168 247.659 74.8201Z" fill="#B08C3E"/>
<path opacity="0.71" d="M262.575 61.8453C265.433 53.9012 267.347 44.6997 263.261 37.3557C261.089 33.4265 257.46 30.5403 253.888 27.8113C244.839 20.8768 235.604 14.2091 226.184 7.80806C224.558 6.58062 222.75 5.61631 220.826 4.95045C221.957 4.40326 223.222 4.19488 224.469 4.35038C226.942 4.8711 229.257 5.96759 231.227 7.55088C240.638 13.9614 249.873 20.6292 258.932 27.5541C262.504 30.2831 266.076 33.155 268.305 37.0842C272.391 44.4568 270.448 53.6297 267.619 61.5739C261.106 79.8182 250.612 96.3835 236.9 110.067L233.399 108.781C246.366 95.4005 256.315 79.3957 262.575 61.8453V61.8453Z" fill="#B89241"/>
<path opacity="0.71" d="M10.203 77.9551C6.35955 70.4682 3.21611 61.6239 6.28803 53.7798C7.93116 49.5934 11.146 46.2643 14.3179 43.0781C22.3763 35.0196 30.6492 27.1898 39.1362 19.5886C40.5938 18.1777 42.2615 17.0016 44.0798 16.1023C42.8869 15.7147 41.6082 15.6751 40.3935 15.988C38.0065 16.8189 35.8482 18.199 34.0925 20.0172C25.6245 27.6375 17.3565 35.4721 9.28857 43.521C6.11663 46.6929 2.88755 50.022 1.25871 54.2084C-1.8275 62.0526 1.25868 70.8968 5.15931 78.398C14.0248 95.6237 26.6177 110.657 42.0224 122.405L45.3086 120.662C30.6869 109.101 18.7157 94.5378 10.203 77.9551V77.9551Z" fill="#B89241"/>
<path d="M100.813 63.9685C100.796 63.7101 100.85 63.4519 100.968 63.2216C101.087 62.9913 101.266 62.7975 101.486 62.661C101.706 62.5246 101.959 62.4505 102.218 62.4467C102.477 62.443 102.732 62.5097 102.956 62.6398C109.302 66.5764 116.131 69.6742 123.274 71.8555C121.369 68.728 120.151 65.2309 119.702 61.5967C119.516 60.1679 121.716 59.5678 122.402 60.768C125.236 65.8615 129.093 70.3128 133.732 73.8416C132.933 69.7832 132.697 65.6338 133.032 61.511C132.97 61.1321 133.06 60.7438 133.284 60.4316C133.508 60.1195 133.846 59.909 134.225 59.8465C134.604 59.784 134.993 59.8745 135.305 60.0982C135.617 60.322 135.827 60.6606 135.89 61.0395C137.723 66.8657 140.959 72.1524 145.314 76.435C149.669 80.7176 155.009 83.865 160.865 85.6006C162.651 86.1436 161.994 89.0012 160.194 88.4582C159.151 88.1439 158.136 87.7724 157.122 87.3866L123.702 90.8014C123.693 91.0529 123.625 91.2988 123.502 91.5185C123.38 91.7383 123.206 91.9258 122.997 92.0654C122.788 92.205 122.548 92.2927 122.298 92.3214C122.048 92.3501 121.795 92.3188 121.559 92.2302C115.798 89.9395 110.798 86.0747 107.129 81.0771C103.461 76.0796 101.272 70.151 100.813 63.9685V63.9685Z" fill="#C8A484"/>
<path d="M63.5496 93.1162C65.0904 77.2406 68.7968 61.6506 74.5656 46.7802C87.9821 12.1889 129.174 -7.9572 165.266 2.98742C183.069 8.38829 197.571 23.1478 208.902 37.2787C212.499 41.8899 216.404 46.2529 220.589 50.3379C228.405 57.6962 238.664 63.44 249.365 62.5399C258.495 61.7683 266.697 56.196 272.583 49.1663C274.312 47.0802 275.984 44.7799 278.441 43.6225C280.899 42.4652 284.428 43.0224 285.457 45.5228C288.657 53.2098 273.826 63.7544 268.768 67.2121C250.194 79.9427 227.833 80.0712 206.701 74.1417C202.755 73.2754 198.892 72.0658 195.157 70.5268C197.6 72.2271 201 75.7277 201.329 78.8425C202.386 88.6155 182.612 86.7152 176.868 87.0295L132.032 89.4585L63.5781 93.1591L63.5496 93.1162Z" fill="#DF1A22"/>
<path d="M106.957 18.2327C99.8828 21.6459 94.0493 27.1797 90.2682 34.0638C89.2823 35.8641 86.439 34.4353 87.4106 32.635C91.4205 25.2495 97.6267 19.2929 105.171 15.5894C106.985 14.7036 108.771 17.3611 106.942 18.247L106.957 18.2327Z" fill="#F2F2F2"/>
<path d="M206.444 74.3841C202.747 60.9799 195.278 48.9192 184.926 39.6356C184.651 39.345 184.495 38.9619 184.488 38.5617C184.482 38.1615 184.625 37.7734 184.891 37.4739C185.156 37.1744 185.524 36.9852 185.922 36.9437C186.32 36.9022 186.719 37.0113 187.041 37.2495C197.815 46.9079 205.603 59.4454 209.487 73.3839C210.03 75.3556 207.001 76.3701 206.444 74.3841V74.3841Z" fill="#E21E26"/>
<path d="M190.256 64.926C199.043 65.6404 205.144 64.8402 210.259 72.07C213.991 77.8023 216.199 84.3921 216.674 91.2159C216.889 93.6163 216.574 96.531 214.231 97.8313C212.131 99.0029 209.545 98.2742 207.33 97.5455C163.137 83.1575 111.057 86.8866 67.6504 107.547C65.5697 108.768 63.2174 109.451 60.8064 109.533C59.3606 109.387 57.9913 108.812 56.8739 107.883C55.7565 106.954 54.9418 105.713 54.534 104.318C53.8795 101.575 53.9188 98.7121 54.6482 95.9881C55.6055 91.073 57.2201 85.8293 61.5351 82.5431C64.095 80.8098 66.9312 79.5246 69.9221 78.7424C108.77 66.4336 149.629 61.7422 190.256 64.926V64.926Z" fill="white"/>
<path d="M78.8948 76.0271C75.8943 76.8701 72.8938 77.7702 69.9219 78.7132C66.9309 79.4954 64.0948 80.7806 61.5349 82.5138C57.2485 85.8001 55.6053 91.0866 54.648 95.9589C53.9186 98.6829 53.8793 101.546 54.5338 104.289C54.9416 105.684 55.7563 106.925 56.8737 107.854C57.9911 108.783 59.3604 109.358 60.8062 109.504C61.7718 109.54 62.737 109.42 63.6638 109.147C65.0304 108.714 66.3589 108.169 67.6359 107.518C77.1823 102.975 87.0953 99.2472 97.2692 96.3732C133.504 86.0715 172.81 86.2716 207.287 97.5019C209.147 98.2946 211.194 98.5376 213.188 98.2021C213.536 98.1036 213.872 97.9645 214.188 97.7877C216.531 96.4875 216.846 93.5013 216.631 91.1724C216.123 84.3667 213.891 77.8025 210.144 72.0979C205.101 64.8395 199 65.6397 190.141 64.9538C152.656 61.9944 114.944 65.7541 78.7805 76.0557L78.8948 76.0271ZM78.2662 74.2839C96.4909 69.1109 115.138 65.5632 133.989 63.6822C152.704 61.8008 171.55 61.6094 190.298 63.1107C191.527 63.2107 192.713 63.2822 193.87 63.3536C200.786 63.768 206.73 64.1251 211.588 71.0691C215.523 77.0491 217.869 83.9337 218.403 91.0723C218.76 95.073 217.56 98.0449 215.017 99.4737C214.563 99.7169 214.084 99.9086 213.588 100.045C211.24 100.502 208.808 100.254 206.601 99.3308C189.203 93.7418 171.052 90.8506 152.778 90.758C134.134 90.6 115.562 93.1067 97.6264 98.2021C87.56 101.06 77.7485 104.749 68.2931 109.232C66.9155 109.928 65.4816 110.507 64.0067 110.961C62.8728 111.302 61.6882 111.442 60.5062 111.376C58.6854 111.21 56.9562 110.503 55.5423 109.343C54.1285 108.184 53.0953 106.628 52.5763 104.875C51.8335 101.84 51.858 98.6676 52.6478 95.6445C54.4338 86.5002 57.6343 83.0568 60.2347 81.085C62.9604 79.2213 65.9858 77.8391 69.179 76.9986C72.1509 76.0556 75.1942 75.1412 78.1947 74.2982L78.2662 74.2839Z" fill="#E8E8E8"/>
<path d="M288.986 50.7238C294.587 49.6665 299.716 45.5801 300.931 39.8792C303.317 28.5773 290.201 18.6186 279.742 21.9334C261.71 27.6629 272.712 53.8243 288.986 50.7238Z" fill="white"/>
<path d="M279.556 21.9906C261.782 27.8486 272.769 53.81 288.986 50.7237C289.677 50.5943 290.359 50.4225 291.029 50.2094C293.433 49.4932 295.61 48.1644 297.346 46.3535C299.082 44.5425 300.317 42.3115 300.931 39.8792C303.317 28.5773 290.201 18.6186 279.742 21.9334H279.556V21.9906ZM278.984 20.1903L279.184 20.1188C285.014 18.2757 292.044 20.0474 297.144 24.6481C299.364 26.5194 301.05 28.944 302.031 31.6764C303.012 34.4088 303.254 37.3519 302.731 40.2077C302.052 42.9556 300.669 45.4789 298.717 47.5286C296.765 49.5782 294.312 51.0834 291.601 51.8954C290.857 52.1408 290.098 52.3365 289.329 52.4812C279.484 54.3529 271.355 46.766 269.183 38.3503C267.011 29.9347 270.869 22.8621 278.984 20.1903V20.1903Z" fill="#E8E8E8"/>
<path d="M197.343 65.4111C202.529 65.8683 206.616 66.9685 210.202 72.0979C213.95 77.8164 216.177 84.3962 216.674 91.2153C216.889 93.6157 216.574 96.5304 214.231 97.8306C212.131 99.0023 209.545 98.2736 207.33 97.5449C205.458 96.9448 203.572 96.359 201.615 95.816C203.106 90.7357 203.497 85.3957 202.76 80.1525C202.023 74.9094 200.176 69.8837 197.343 65.4111Z" fill="#F2F2F2"/>
</svg>
