<svg width="42" height="42" viewBox="0 0 42 42" fill="none" xmlns="http://www.w3.org/2000/svg">
<circle cx="21" cy="21" r="20.5" stroke="white"/>
<path d="M28.3636 25.0909H16.9091V13.6364H28.3636V25.0909ZM28.3636 12H16.9091C16.4751 12 16.0589 12.1724 15.752 12.4793C15.4451 12.7862 15.2727 13.2024 15.2727 13.6364V25.0909C15.2727 25.5249 15.4451 25.9411 15.752 26.248C16.0589 26.5549 16.4751 26.7273 16.9091 26.7273H28.3636C28.7976 26.7273 29.2138 26.5549 29.5207 26.248C29.8276 25.9411 30 25.5249 30 25.0909V13.6364C30 13.2024 29.8276 12.7862 29.5207 12.4793C29.2138 12.1724 28.7976 12 28.3636 12ZM13.6364 15.2727H12V28.3636C12 28.7976 12.1724 29.2138 12.4793 29.5207C12.7862 29.8276 13.2024 30 13.6364 30H26.7273V28.3636H13.6364V15.2727ZM24.24 19.6009L21.99 22.4973L20.3864 20.5664L18.1364 23.4545H27.1364L24.24 19.6009Z" fill="white"/>
</svg>
