<svg width="106" height="75" viewBox="0 0 106 75" fill="none" xmlns="http://www.w3.org/2000/svg">
<path d="M98.2773 0L96.9342 9.96782L106 14.3274L96.1054 16.1269L94.7623 26.0947L89.9935 17.2443L80.0991 19.0438L87.0399 11.7725L82.271 2.9169L91.3365 7.27651L98.2773 0Z" fill="#FFB405"/>
<path d="M92.3172 14.942L90.3125 13.978L75.4148 44.9609L77.4195 45.9248L92.3172 14.942Z" fill="#FFB405"/>
<path d="M7.71719 0.178223L9.06022 10.1408L0 14.5004L9.88913 16.3051L11.2374 26.2677L16.0062 17.4173L25.9006 19.2168L18.9546 11.9455L23.7287 3.08987L14.6632 7.44949L7.71719 0.178223Z" fill="#FFB405"/>
<path d="M28.5549 46.1182L30.5596 45.1543L15.6618 14.1714L13.6571 15.1354L28.5549 46.1182Z" fill="#FFB405"/>
<path d="M74.2768 44.7395L78.27 46.6768L79.6279 43.8778L75.6347 41.9405L74.2768 44.7395Z" fill="#1A8224"/>
<path d="M14.5426 74.3912C14.3295 74.3802 14.121 74.326 13.9296 74.2319C13.7381 74.1379 13.5678 74.0059 13.429 73.844C13.2901 73.682 13.1856 73.4936 13.1218 73.29C13.058 73.0865 13.0363 72.8721 13.0579 72.6599C15.1984 52.7872 32.343 37.4473 52.798 37.4473C71.1178 37.4473 90.6548 50.5628 92.5591 72.6547C92.5771 72.8678 92.5513 73.0823 92.4836 73.2851C92.4159 73.4879 92.3075 73.6748 92.1651 73.8344C92.0228 73.9939 91.8494 74.1228 91.6555 74.2131C91.4617 74.3035 91.2515 74.3533 91.0377 74.3597C90.6236 74.3798 90.2184 74.2356 89.9099 73.9586C89.6015 73.6816 89.4148 73.2941 89.3904 72.8803C87.612 52.6561 69.6437 40.6265 52.798 40.6265C36.2619 40.6265 18.3828 52.6928 16.2214 72.9485C16.1878 73.3615 15.9928 73.7447 15.6785 74.0148C15.3641 74.2849 14.956 74.4202 14.5426 74.3912Z" fill="#1A8224"/>
<path d="M30.3037 41.9407L26.3105 43.8779L27.6685 46.6769L31.6616 44.7397L30.3037 41.9407Z" fill="#1A8224"/>
</svg>
