<svg width="298" height="209" viewBox="0 0 298 209" fill="none" xmlns="http://www.w3.org/2000/svg">
<path d="M276.093 0L272.32 28.0029L297.788 40.2504L269.991 45.3057L266.218 73.3086L252.821 48.445L225.024 53.5002L244.523 33.0729L231.126 8.19453L256.594 20.4421L276.093 0Z" fill="#FFB405"/>
<path d="M259.349 41.9766L253.717 39.2686L211.865 126.31L217.497 129.018L259.349 41.9766Z" fill="#FFB405"/>
<path d="M21.6801 0.500488L25.4531 28.4886L0 40.7362L27.7818 45.8062L31.5696 73.7943L44.9667 48.9307L72.7632 53.986L53.2497 33.5586L66.6616 8.68027L41.1937 20.9278L21.6801 0.500488Z" fill="#FFB405"/>
<path d="M80.2197 129.561L85.8516 126.853L43.999 39.812L38.3671 42.52L80.2197 129.561Z" fill="#FFB405"/>
<path d="M208.668 125.688L219.886 131.13L223.701 123.267L212.483 117.825L208.668 125.688Z" fill="#1A8224"/>
<path d="M40.8548 208.989C40.2563 208.958 39.6705 208.806 39.1327 208.542C38.5949 208.278 38.1164 207.907 37.7263 207.452C37.3362 206.997 37.0426 206.468 36.8634 205.896C36.6842 205.324 36.6232 204.722 36.6839 204.126C42.6971 148.297 90.8621 105.202 148.327 105.202C199.793 105.202 254.679 142.048 260.029 204.111C260.079 204.709 260.007 205.312 259.817 205.882C259.626 206.452 259.322 206.977 258.922 207.425C258.522 207.873 258.035 208.235 257.49 208.489C256.946 208.743 256.355 208.883 255.755 208.901C254.591 208.957 253.453 208.552 252.586 207.774C251.72 206.996 251.195 205.907 251.127 204.745C246.131 147.928 195.652 114.133 148.327 114.133C101.872 114.133 51.6433 148.031 45.5711 204.936C45.4769 206.097 44.9289 207.173 44.0459 207.932C43.1629 208.691 42.0162 209.071 40.8548 208.989V208.989Z" fill="#1A8224"/>
<path d="M85.1332 117.825L73.915 123.268L77.7299 131.131L88.948 125.689L85.1332 117.825Z" fill="#1A8224"/>
</svg>
