<svg width="78" height="119" viewBox="0 0 78 119" fill="none" xmlns="http://www.w3.org/2000/svg">
<path d="M49.4528 98.8486H47.7505V118.441H49.4528V98.8486Z" fill="#D67D00"/>
<path d="M52.2926 93.1689H50.5903V112.762H52.2926V93.1689Z" fill="#D67D00"/>
<path d="M56.3234 92.9971H54.6211V112.59H56.3234V92.9971Z" fill="#D67D00"/>
<path d="M60.0719 95.3257H58.3696V114.919H60.0719V95.3257Z" fill="#D67D00"/>
<path d="M62.5148 88.4551H60.8125V108.048H62.5148V88.4551Z" fill="#D67D00"/>
<path d="M66.0382 85.9019H64.3359V105.495H66.0382V85.9019Z" fill="#D67D00"/>
<path d="M69.7863 92.543H68.084V112.136H69.7863V92.543Z" fill="#D67D00"/>
<path d="M75.0651 90.6689H73.3628V110.262H75.0651V90.6689Z" fill="#D67D00"/>
<path d="M48.4296 29.8401C53.5406 44.4938 51.4987 62.2166 47.067 75.164C42.6353 88.1113 41.6163 106.857 52.8613 100.044C64.1064 93.2305 63.0915 94.9287 72.6261 95.9517C82.1606 96.9747 74.6721 64.6023 70.58 50.9716C66.488 37.3409 68.534 29.5005 68.534 29.5005L48.4296 29.8401Z" fill="#FFB405"/>
<path d="M56.3812 15.9844C34.374 12.3752 28.9233 4.62476 21.1893 1.21606C15.5382 -1.26783 12.555 -0.146589 12.1008 6.44165C11.881 10.2906 10.2662 13.9275 7.55859 16.6718C7.55859 16.6718 16.8722 25.3061 18.464 25.5353C20.0558 25.7645 35.2742 26.8979 37.9996 25.7604C40.7249 24.6228 56.3812 15.9844 56.3812 15.9844Z" fill="#FFB405"/>
<path d="M8.73261 15.0187C4.64054 16.2095 5.66356 19.4463 3.10601 20.4693C0.548462 21.4924 -3.0321 24.0499 4.64054 29.1609C12.3132 34.2719 65.6411 35.6346 71.4314 30.5236C77.2217 25.4126 67.1757 24.2177 67.1757 19.6182C67.1757 15.0187 66.6641 7.0105 58.8237 11.9496C50.9833 16.8888 22.5311 20.4612 8.73261 15.0187Z" fill="#D67D00"/>
</svg>
