<svg width="199" height="304" viewBox="0 0 199 304" fill="none" xmlns="http://www.w3.org/2000/svg">
<path d="M126.905 253.663H122.536V303.942H126.905V253.663Z" fill="#D67D00"/>
<path d="M134.192 239.088H129.824V289.367H134.192V239.088Z" fill="#D67D00"/>
<path d="M144.536 238.647H140.167V288.926H144.536V238.647Z" fill="#D67D00"/>
<path d="M154.155 244.623H149.787V294.901H154.155V244.623Z" fill="#D67D00"/>
<path d="M160.424 226.991H156.056V277.27H160.424V226.991Z" fill="#D67D00"/>
<path d="M169.466 220.439H165.097V270.718H169.466V220.439Z" fill="#D67D00"/>
<path d="M179.084 237.481H174.715V287.76H179.084V237.481Z" fill="#D67D00"/>
<path d="M192.63 232.672H188.262V282.951H192.63V232.672Z" fill="#D67D00"/>
<path d="M124.279 76.5751C137.395 114.179 132.155 159.659 120.782 192.884C109.409 226.109 106.795 274.214 135.651 256.73C164.508 239.246 161.904 243.604 186.371 246.229C210.839 248.854 191.622 165.781 181.121 130.802C170.62 95.8235 175.87 75.7036 175.87 75.7036L124.279 76.5751Z" fill="#FFB405"/>
<path d="M144.684 41.0187C88.2095 31.7569 74.2222 11.868 54.3753 3.12064C39.8735 -3.25346 32.2182 -0.376173 31.0526 16.5304C30.4886 26.4075 26.3448 35.7405 19.3965 42.7829C19.3965 42.7829 43.2968 64.94 47.3817 65.5281C51.4665 66.1161 90.5197 69.0249 97.5134 66.1056C104.507 63.1863 144.684 41.0187 144.684 41.0187Z" fill="#FFB405"/>
<path d="M22.4094 38.5407C11.9084 41.5965 14.5337 49.9028 7.97057 52.528C1.40745 55.1532 -7.78092 61.7164 11.9084 74.8321C31.5978 87.9478 168.447 91.4447 183.306 78.3289C198.164 65.2132 172.385 62.1469 172.385 50.3438C172.385 38.5407 171.072 17.9902 150.952 30.6649C130.832 43.3396 57.8188 52.507 22.4094 38.5407Z" fill="#D67D00"/>
</svg>
