<svg width="246" height="298" viewBox="0 0 246 298" fill="none" xmlns="http://www.w3.org/2000/svg">
<path d="M178.287 59.8974H178.275C176.966 59.8913 175.913 58.8239 175.92 57.5179L176.137 17.9411C176.143 16.6321 177.265 15.583 178.516 15.583C179.825 15.5891 180.877 16.6565 180.871 17.9625L180.654 57.5424C180.648 58.8453 179.587 59.8974 178.287 59.8974ZM178.14 70.6235C174.476 70.6235 171.497 73.6025 171.497 77.2666C171.497 80.9306 174.479 83.9096 178.14 83.9096C181.804 83.9096 184.783 80.9306 184.783 77.2666C184.783 73.6025 181.804 70.6235 178.14 70.6235V70.6235ZM178.14 88.6472C171.864 88.6472 166.759 83.5426 166.759 77.2666C166.759 70.9906 171.864 65.8859 178.14 65.8859C184.416 65.8859 189.521 70.9906 189.521 77.2666C189.521 83.5426 184.416 88.6472 178.14 88.6472ZM144.133 77.5786L162.193 84.8302C163.184 85.2278 163.787 86.2402 163.664 87.2984L161.407 106.873L176.718 94.859C177.559 94.1984 178.733 94.1831 179.593 94.8193L195.414 106.561L192.665 87.2954C192.515 86.2402 193.09 85.2125 194.069 84.7874L212.147 76.9546L194.087 69.7029C193.096 69.3053 192.494 68.293 192.616 67.2347L194.873 47.6604L179.562 59.6742C178.721 60.3317 177.547 60.3501 176.69 59.7139L160.866 47.9724L163.615 67.2378C163.765 68.293 163.19 69.3206 162.211 69.7458L144.133 77.5786V77.5786ZM158.404 114.608C158.006 114.608 157.608 114.51 157.248 114.308C156.413 113.84 155.942 112.919 156.052 111.971L158.752 88.5555L137.104 79.8632C136.217 79.5054 135.633 78.6521 135.618 77.6978C135.606 76.7436 136.168 75.8719 137.046 75.4927L158.673 66.1214L155.379 43.0268C155.244 42.0817 155.691 41.1458 156.51 40.6595C157.33 40.1702 158.367 40.2191 159.135 40.7911L178.064 54.8356L196.418 40.4363C197.17 39.8429 198.201 39.7665 199.036 40.2283C199.871 40.6962 200.342 41.6199 200.232 42.568L197.531 65.9838L219.179 74.676C220.066 75.0339 220.65 75.8872 220.665 76.8415C220.678 77.7957 220.115 78.6643 219.24 79.0466L197.61 88.4148L200.907 111.509C201.042 112.454 200.595 113.39 199.776 113.88C198.956 114.369 197.922 114.317 197.155 113.748L178.226 99.7006L159.875 114.103C159.447 114.439 158.933 114.608 158.413 114.608H158.404ZM178.22 37.4757C177.733 37.4757 177.247 37.3288 176.831 37.0291L165.931 29.1443C164.869 28.3767 164.631 26.8963 165.398 25.8381C166.166 24.7799 167.646 24.5382 168.705 25.309L178.21 32.1845L188.028 25.0062C189.083 24.2385 190.567 24.4648 191.337 25.52C192.108 26.5783 191.879 28.0616 190.824 28.8324L179.614 37.0261C179.198 37.3319 178.709 37.4787 178.217 37.4787L178.22 37.4757ZM161.117 69.6387C160.713 69.6387 160.3 69.5347 159.924 69.3145L125.757 49.3365C124.629 48.6758 124.246 47.2261 124.907 46.0975C125.568 44.969 127.014 44.5866 128.146 45.2473L162.312 65.2253C163.441 65.8859 163.823 67.3357 163.163 68.4643C162.722 69.2166 161.93 69.6387 161.117 69.6387V69.6387ZM129.394 63.9866C128.489 63.9866 127.626 63.4667 127.232 62.5858C126.696 61.39 127.232 59.9922 128.424 59.457L139.129 54.6644L137.823 42.5711C137.682 41.2743 138.624 40.0998 139.924 39.9653C141.233 39.8276 142.392 40.7605 142.533 42.0634L144.023 55.8663C144.133 56.8879 143.573 57.8635 142.637 58.2826L130.36 63.7817C130.045 63.9224 129.718 63.9897 129.394 63.9897V63.9866ZM126.592 108.977C125.77 108.977 124.968 108.549 124.531 107.781C123.883 106.643 124.28 105.2 125.415 104.551L159.798 84.9526C160.939 84.3042 162.383 84.7018 163.028 85.8365C163.676 86.9742 163.279 88.4178 162.144 89.0662L127.761 108.668C127.391 108.879 126.987 108.98 126.589 108.98L126.592 108.977ZM140.218 114.027C140.138 114.027 140.056 114.024 139.973 114.014C138.67 113.88 137.725 112.718 137.86 111.418L139.062 99.7495L127.938 94.8345C126.742 94.3054 126.201 92.9077 126.73 91.7118C127.259 90.5159 128.657 89.9777 129.853 90.5037L142.551 96.116C143.49 96.532 144.053 97.5046 143.949 98.5261L142.573 111.907C142.448 113.127 141.42 114.033 140.221 114.033L140.218 114.027ZM177.776 138.95H177.764C176.455 138.944 175.403 137.877 175.409 136.571L175.626 96.9938C175.632 95.6909 176.693 94.6388 177.993 94.6388H178.006C179.315 94.6449 180.37 95.7123 180.36 97.0183L180.143 136.595C180.137 137.898 179.076 138.95 177.776 138.95V138.95ZM166.854 129.983C166.123 129.983 165.405 129.646 164.943 129.01C164.172 127.955 164.401 126.472 165.457 125.701L176.666 117.507C177.495 116.902 178.62 116.898 179.449 117.501L190.35 125.386C191.408 126.153 191.646 127.631 190.882 128.692C190.117 129.753 188.634 129.992 187.576 129.224L178.07 122.349L168.249 129.527C167.827 129.836 167.337 129.983 166.854 129.983ZM229.327 109.607C228.92 109.607 228.51 109.503 228.134 109.283L193.968 89.3079C192.839 88.6472 192.457 87.1975 193.117 86.0689C193.778 84.9403 195.228 84.558 196.356 85.2187L230.523 105.194C231.651 105.854 232.034 107.304 231.373 108.433C230.933 109.185 230.14 109.607 229.327 109.607V109.607ZM216.099 114.583C214.906 114.583 213.879 113.684 213.747 112.47L212.254 98.6668C212.144 97.6453 212.704 96.6696 213.64 96.2506L225.917 90.7514C227.11 90.2162 228.51 90.7515 229.046 91.9443C229.581 93.1371 229.046 94.5379 227.853 95.0731L217.145 99.8688L218.451 111.962C218.592 113.262 217.653 114.43 216.35 114.571C216.264 114.58 216.178 114.583 216.093 114.583H216.099ZM195.313 69.8926C194.491 69.8926 193.689 69.4613 193.255 68.6967C192.607 67.5589 193.001 66.1123 194.139 65.4669L228.523 45.8651C229.66 45.2167 231.104 45.6143 231.752 46.749C232.401 47.8867 232.003 49.3334 230.868 49.9788L196.485 69.5806C196.115 69.7916 195.711 69.8926 195.313 69.8926V69.8926ZM178.507 0C175.378 0 172.831 2.5416 172.831 5.6735C172.831 8.80539 175.378 11.347 178.507 11.347C181.636 11.347 184.184 8.80539 184.184 5.6735C184.184 2.5416 181.639 0 178.507 0ZM119.163 36.237C116.456 34.671 112.976 35.6039 111.41 38.3167C110.651 39.6319 110.45 41.1581 110.844 42.6261C111.236 44.0912 112.175 45.3146 113.487 46.0731C114.361 46.5777 115.331 46.8377 116.316 46.8377C116.808 46.8377 117.304 46.7735 117.793 46.6419C119.258 46.2505 120.481 45.3115 121.24 43.9994C122.806 41.2896 121.873 37.809 119.163 36.2431V36.237ZM117.429 107.264C115.967 106.873 114.435 107.072 113.123 107.83C110.413 109.396 109.48 112.873 111.046 115.583C111.805 116.895 113.028 117.837 114.493 118.229C114.982 118.36 115.478 118.425 115.97 118.425C116.955 118.425 117.925 118.168 118.799 117.663C120.111 116.905 121.05 115.681 121.445 114.216C121.836 112.751 121.635 111.222 120.876 109.91C120.118 108.598 118.894 107.656 117.429 107.264V107.264ZM177.779 143.183C174.65 143.183 172.103 145.728 172.103 148.86C172.103 151.992 174.65 154.536 177.779 154.536C180.908 154.536 183.456 151.992 183.456 148.86C183.456 145.731 180.911 143.183 177.779 143.183ZM242.8 108.463C241.488 107.705 239.958 107.506 238.493 107.897C237.028 108.289 235.805 109.231 235.046 110.543C233.48 113.253 234.413 116.73 237.123 118.296C237.998 118.801 238.967 119.058 239.952 119.058C240.445 119.058 240.94 118.994 241.429 118.862C242.894 118.471 244.118 117.532 244.876 116.216C245.635 114.904 245.837 113.375 245.445 111.91C245.054 110.445 244.115 109.222 242.8 108.463V108.463ZM238.857 47.2689C239.347 47.4004 239.842 47.4647 240.334 47.4647C241.319 47.4647 242.289 47.2078 243.164 46.7001C245.873 45.1341 246.806 41.6566 245.24 38.9468C243.674 36.237 240.197 35.3011 237.487 36.867C234.777 38.433 233.844 41.9105 235.41 44.6203C236.169 45.9324 237.392 46.8713 238.857 47.2628V47.2689ZM227.391 64.2374C227.073 64.2374 226.746 64.1732 226.437 64.0356L213.738 58.4263C212.799 58.0103 212.233 57.0377 212.34 56.0193L213.716 42.6384C213.851 41.3385 215.013 40.3843 216.313 40.525C217.613 40.6565 218.561 41.8218 218.426 43.1216L217.225 54.7898L228.348 59.7047C229.544 60.2339 230.085 61.6316 229.556 62.8275C229.165 63.7144 228.296 64.2405 227.388 64.2405L227.391 64.2374Z" fill="white"/>
<path d="M39.1117 161.601C36.9237 161.601 35.1444 163.381 35.1444 165.57C35.1444 167.759 36.9237 169.539 39.1117 169.539C41.2997 169.539 43.079 167.759 43.079 165.57C43.079 163.381 41.2997 161.601 39.1117 161.601ZM39.1117 172.212C35.4518 172.212 32.4718 169.231 32.4718 165.57C32.4718 161.909 35.4518 158.928 39.1117 158.928C42.7752 158.928 45.7516 161.909 45.7516 165.57C45.7516 169.235 42.7716 172.212 39.1117 172.212ZM39.1117 153.06C38.374 153.06 37.7736 152.46 37.7736 151.722V143.759C37.7736 143.021 38.374 142.421 39.1117 142.421C39.8495 142.421 40.4498 143.018 40.4498 143.759V151.722C40.4498 152.46 39.8495 153.06 39.1117 153.06ZM27.1231 159.984C26.8952 159.984 26.6674 159.927 26.454 159.804L19.561 155.82C18.9209 155.452 18.7039 154.634 19.0728 153.994C19.4417 153.353 20.259 153.133 20.8991 153.505L27.7921 157.488C28.4322 157.857 28.6492 158.675 28.2803 159.315C28.0308 159.746 27.5824 159.984 27.1195 159.984H27.1231ZM20.23 177.816C19.7671 177.816 19.3187 177.577 19.0692 177.146C18.7003 176.506 18.9173 175.689 19.5574 175.32L26.4504 171.337C27.0905 170.968 27.9078 171.188 28.2767 171.825C28.6456 172.465 28.4286 173.283 27.7885 173.652L20.8955 177.635C20.6857 177.758 20.4543 177.816 20.2264 177.816H20.23ZM39.1117 188.719C38.374 188.719 37.7736 188.119 37.7736 187.381V179.418C37.7736 178.68 38.374 178.08 39.1117 178.08C39.8495 178.08 40.4498 178.68 40.4498 179.418V187.381C40.4498 188.119 39.8495 188.719 39.1117 188.719ZM57.9934 177.816C57.7692 177.816 57.5377 177.758 57.328 177.635L50.4313 173.652C49.7912 173.283 49.5742 172.465 49.9431 171.825C50.312 171.185 51.1293 170.964 51.7694 171.337L58.6661 175.32C59.3026 175.689 59.5232 176.506 59.1543 177.146C58.9048 177.577 58.4564 177.816 57.9934 177.816ZM51.104 159.984C50.6411 159.984 50.1927 159.746 49.9431 159.315C49.5742 158.675 49.7912 157.857 50.4313 157.488L57.328 153.505C57.9645 153.136 58.7854 153.357 59.1543 153.994C59.5196 154.634 59.3026 155.452 58.6661 155.82L51.7694 159.804C51.5597 159.927 51.3282 159.984 51.1004 159.984H51.104ZM21.6875 175.634L31.1157 178.163C31.2278 178.192 31.3363 178.239 31.4375 178.297L31.933 178.583C32.0343 178.641 32.1283 178.713 32.2115 178.796L39.1117 185.699L46.012 178.796C46.0952 178.713 46.1892 178.641 46.2905 178.583L46.7859 178.297C46.8872 178.239 46.9957 178.192 47.1078 178.163L56.536 175.634L54.0081 166.203C53.9791 166.091 53.961 165.975 53.961 165.856V165.281C53.961 165.165 53.9755 165.049 54.0081 164.933L56.536 155.502L47.1078 152.973C46.9957 152.944 46.8872 152.897 46.7859 152.84L46.2905 152.554C46.1892 152.496 46.0952 152.424 46.012 152.34L39.1117 145.438L32.2115 152.34C32.1283 152.424 32.0343 152.496 31.933 152.554L31.4375 152.84C31.3363 152.897 31.2278 152.944 31.1157 152.973L21.6875 155.502L24.2118 164.933C24.2407 165.045 24.2588 165.161 24.2588 165.281V165.856C24.2588 165.972 24.2443 166.091 24.2118 166.203L21.6875 175.634ZM39.1117 188.929C38.7681 188.929 38.4282 188.799 38.1678 188.538L30.4466 180.815L30.2549 180.703L19.7057 177.874C18.9932 177.682 18.5701 176.947 18.7618 176.235L21.5862 165.682V165.461L18.7618 154.909C18.5701 154.196 18.9932 153.462 19.7057 153.27L30.2549 150.441L30.4466 150.329L38.1678 142.602C38.6705 142.099 39.5565 142.099 40.0592 142.602L47.7841 150.329L47.9757 150.441L58.5251 153.27C59.2375 153.462 59.6606 154.196 59.469 154.909L56.6445 165.461V165.682L59.469 176.235C59.6642 176.947 59.2375 177.682 58.5251 177.874L47.9757 180.703L47.7841 180.815L40.0592 188.538C39.7988 188.799 39.4553 188.929 39.1153 188.929H39.1117ZM28.7613 171.55L34.3922 173.059C34.6201 173.12 34.8262 173.239 34.9926 173.406L39.1153 177.526L43.2381 173.406C43.4045 173.239 43.6107 173.12 43.8385 173.059L49.4693 171.55L47.9613 165.917C47.8998 165.689 47.8998 165.451 47.9613 165.226L49.4693 159.594L43.8385 158.085C43.6107 158.024 43.4045 157.904 43.2381 157.738L39.1153 153.617L34.9926 157.738C34.8262 157.904 34.6201 158.024 34.3922 158.085L28.7613 159.594L30.2694 165.226C30.3309 165.454 30.3309 165.693 30.2694 165.917L28.7613 171.55ZM39.1117 180.757C38.7573 180.757 38.4174 180.616 38.1678 180.366L33.3543 175.551L26.7795 173.789C26.067 173.598 25.6439 172.863 25.8356 172.15L27.5968 165.574L25.8356 158.997C25.6439 158.284 26.067 157.55 26.7795 157.358L33.3543 155.596L38.1678 150.781C38.6705 150.278 39.5565 150.278 40.0592 150.781L44.8728 155.596L51.4476 157.358C52.1601 157.55 52.5832 158.284 52.3951 158.997L50.6339 165.574L52.3951 172.15C52.5868 172.863 52.1637 173.598 51.4476 173.789L44.8728 175.551L40.0592 180.366C39.8097 180.616 39.4698 180.757 39.1153 180.757H39.1117ZM40.0448 121.178C39.8929 120.798 39.524 120.545 39.1117 120.545C38.6994 120.545 38.3306 120.798 38.1787 121.178L34.4971 130.439C34.4031 130.678 34.4031 130.946 34.4971 131.181L38.1787 140.438C38.3306 140.822 38.6994 141.071 39.1117 141.071C39.524 141.071 39.8929 140.818 40.0448 140.438L43.7264 131.181C43.8204 130.942 43.8204 130.678 43.7264 130.439L40.0448 121.178ZM11.6481 144.382C11.489 144.183 11.2611 144.049 11.008 144.013L1.14942 142.569C0.744377 142.511 0.339357 142.703 0.136833 143.057C-0.0693066 143.416 -0.0367652 143.861 0.220006 144.183L6.39696 152C6.55608 152.203 6.78393 152.333 7.03708 152.369L16.8956 153.813C16.9427 153.82 16.9933 153.824 17.0403 153.824C17.3947 153.824 17.7274 153.635 17.9082 153.321C18.1144 152.966 18.0818 152.521 17.8251 152.196L11.6481 144.378V144.382ZM16.892 177.327L7.03346 178.771C6.78031 178.807 6.54884 178.941 6.39334 179.14L0.216386 186.958C-0.0403853 187.279 -0.0693102 187.724 0.133213 188.083C0.314038 188.397 0.64672 188.585 1.00114 188.585C1.04815 188.585 1.09879 188.582 1.1458 188.575L11.0044 187.131C11.2575 187.095 11.489 186.961 11.6445 186.759L17.8214 178.941C18.0746 178.619 18.1108 178.174 17.9047 177.816C17.6985 177.461 17.2934 177.266 16.892 177.324V177.327ZM40.0448 190.698C39.8929 190.318 39.524 190.065 39.1117 190.065C38.6994 190.065 38.3306 190.315 38.1787 190.698L34.4971 199.959C34.4031 200.198 34.4031 200.462 34.4971 200.701L38.1787 209.962C38.3306 210.342 38.6994 210.595 39.1117 210.595C39.524 210.595 39.8929 210.346 40.0448 209.962L43.7264 200.701C43.8204 200.462 43.8204 200.198 43.7264 199.959L40.0448 190.698ZM71.8338 179.14C71.6746 178.937 71.4468 178.807 71.19 178.771L61.3351 177.327C60.93 177.269 60.5286 177.461 60.3224 177.819C60.1163 178.174 60.1488 178.622 60.402 178.944L66.579 186.762C66.7381 186.965 66.966 187.095 67.2227 187.135L77.0777 188.578C77.1283 188.585 77.1753 188.589 77.2223 188.589C77.5767 188.589 77.9094 188.401 78.0903 188.086C78.2964 187.732 78.2639 187.283 78.0071 186.961L71.8338 179.143V179.14ZM61.1868 153.824C61.2338 153.824 61.2808 153.82 61.3315 153.813L71.1864 152.369C71.4432 152.333 71.671 152.199 71.8301 152L78.0035 144.183C78.2602 143.861 78.2928 143.416 78.0866 143.057C77.8805 142.703 77.4755 142.508 77.0741 142.569L67.2191 144.013C66.9623 144.049 66.7345 144.183 66.5754 144.382L60.3984 152.199C60.1453 152.521 60.1127 152.966 60.3188 153.324C60.4996 153.639 60.8324 153.827 61.1868 153.827V153.824ZM24.9459 142.489C24.8302 142.489 24.7145 142.475 24.5987 142.442L18.6315 140.843C17.9191 140.652 17.496 139.917 17.6876 139.205C17.8793 138.492 18.6098 138.069 19.3259 138.26L24.0021 139.512L25.3004 134.668C25.492 133.952 26.2262 133.529 26.9386 133.72C27.6511 133.912 28.0742 134.646 27.8862 135.356L26.2406 141.495C26.1502 141.838 25.926 142.131 25.6186 142.309C25.4125 142.424 25.1846 142.486 24.9496 142.486L24.9459 142.489ZM6.5199 171.34C6.17634 171.34 5.83639 171.21 5.57239 170.949C5.05161 170.429 5.05161 169.578 5.57239 169.057L8.99724 165.632L5.44944 162.083C4.92866 161.562 4.92866 160.712 5.44944 160.191C5.97021 159.666 6.82008 159.666 7.34085 160.191L11.8326 164.684C12.3569 165.205 12.3569 166.055 11.8326 166.576L7.46385 170.946C7.20346 171.206 6.85985 171.337 6.51628 171.337L6.5199 171.34ZM26.6529 197.358C26.0634 197.358 25.521 196.964 25.3619 196.367L24.1069 191.689L19.2608 192.988C18.5484 193.18 17.8142 192.757 17.6226 192.044C17.4309 191.331 17.854 190.597 18.5701 190.405L24.7072 188.759C25.0508 188.665 25.4161 188.716 25.7199 188.893C26.0273 189.07 26.2515 189.363 26.3419 189.707L27.9404 195.676C28.1321 196.389 27.709 197.123 26.9929 197.315C26.8772 197.347 26.7614 197.362 26.6457 197.362L26.6529 197.358ZM51.632 197.467C51.5163 197.467 51.4006 197.452 51.2848 197.42C50.5724 197.228 50.1493 196.494 50.3373 195.781L51.9828 189.642C52.1745 188.929 52.905 188.502 53.6211 188.698L59.5919 190.297C60.3044 190.488 60.7275 191.223 60.5394 191.935C60.3441 192.648 59.6136 193.071 58.9012 192.88L54.225 191.628L52.9267 196.476C52.7676 197.072 52.2251 197.467 51.6356 197.467H51.632ZM71.8265 171.34C71.483 171.34 71.143 171.21 70.879 170.949L66.3873 166.456C65.8629 165.932 65.8629 165.085 66.3873 164.564L70.756 160.194C71.2768 159.67 72.1231 159.67 72.6475 160.194C73.1682 160.715 73.1682 161.565 72.6475 162.086L69.2226 165.512L72.7704 169.061C73.2912 169.582 73.2912 170.432 72.7704 170.953C72.51 171.214 72.1665 171.344 71.8229 171.344L71.8265 171.34ZM53.169 142.428C52.5795 142.428 52.0371 142.034 51.8779 141.437L50.2794 135.468C50.0878 134.751 50.5109 134.021 51.227 133.829C51.9394 133.637 52.6736 134.064 52.8652 134.777L54.1166 139.451L58.9626 138.152C59.6751 137.957 60.4092 138.383 60.6009 139.1C60.7926 139.812 60.3658 140.547 59.6534 140.735L53.5162 142.381C53.4005 142.414 53.2847 142.428 53.169 142.428V142.428ZM28.2514 148.274C28.1357 148.274 28.0199 148.26 27.9042 148.227L21.937 146.628C21.2246 146.436 20.8014 145.702 20.9931 144.989C21.1848 144.273 21.9153 143.85 22.6314 144.041L27.3075 145.293L28.6058 140.446C28.7975 139.729 29.5281 139.306 30.2441 139.498C30.9566 139.689 31.3797 140.424 31.188 141.133L29.5425 147.272C29.3834 147.869 28.8409 148.263 28.2514 148.263V148.274ZM13.1815 171.369C12.8379 171.369 12.498 171.239 12.2376 170.978C11.7132 170.457 11.7132 169.607 12.2376 169.086L15.6624 165.66L12.1146 162.112C11.5939 161.591 11.5939 160.74 12.1146 160.22C12.6354 159.695 13.4853 159.695 14.0061 160.22L18.4977 164.713C18.7473 164.962 18.8883 165.302 18.8883 165.657C18.8883 166.011 18.7473 166.351 18.4977 166.605L14.129 170.975C13.8686 171.235 13.5251 171.365 13.1815 171.365V171.369ZM30.009 191.603C29.4195 191.603 28.8771 191.208 28.7179 190.611L27.463 185.934L22.6169 187.232C21.9045 187.424 21.1703 187.001 20.9787 186.285C20.787 185.572 21.2101 184.838 21.9226 184.646L28.0597 183C28.7722 182.808 29.5063 183.231 29.698 183.944L31.2965 189.913C31.4882 190.626 31.065 191.36 30.3526 191.552C30.2369 191.584 30.1211 191.599 30.0054 191.599L30.009 191.603ZM48.3302 191.679C48.2145 191.679 48.0987 191.664 47.983 191.631C47.2705 191.44 46.8474 190.705 47.0391 189.993L48.6846 183.854C48.775 183.51 48.9992 183.217 49.3066 183.04C49.614 182.862 49.9793 182.812 50.3228 182.906L56.29 184.505C57.0025 184.696 57.4257 185.431 57.234 186.144C57.0423 186.856 56.3082 187.283 55.5957 187.088L50.9196 185.836L49.6213 190.684C49.4621 191.281 48.9197 191.675 48.3302 191.675V191.679ZM65.1649 171.308C64.8214 171.308 64.4814 171.177 64.2174 170.917L59.7257 166.424C59.4762 166.174 59.3351 165.834 59.3351 165.476C59.3351 165.121 59.4762 164.781 59.7257 164.528L64.0945 160.158C64.6189 159.633 65.4651 159.633 65.9859 160.158C66.5103 160.679 66.5103 161.529 65.9859 162.05L62.5611 165.476L66.1088 169.025C66.6332 169.546 66.6332 170.396 66.1088 170.917C65.8484 171.177 65.5049 171.308 65.1613 171.308H65.1649ZM49.8129 148.18C49.5815 148.18 49.35 148.119 49.1439 147.999C48.8365 147.822 48.6122 147.529 48.5218 147.185L46.9234 141.216C46.7317 140.503 47.1548 139.769 47.8673 139.581C48.5797 139.386 49.3139 139.812 49.5055 140.525L50.7568 145.203L55.6029 143.904C56.3154 143.709 57.0495 144.136 57.2412 144.852C57.4329 145.564 57.0097 146.299 56.2973 146.491L50.1601 148.137C50.0444 148.169 49.9287 148.184 49.8129 148.184V148.18ZM30.3815 151.78C29.9186 151.78 29.4702 151.541 29.2206 151.11L24.3709 142.71C24.0021 142.07 24.2227 141.252 24.8592 140.883C25.4993 140.514 26.3166 140.731 26.6855 141.372L31.5352 149.772C31.9041 150.412 31.6871 151.23 31.047 151.599C30.8372 151.722 30.6058 151.78 30.3779 151.78H30.3815ZM21.6477 166.909H11.9483C11.2105 166.909 10.6102 166.308 10.6102 165.57C10.6102 164.832 11.2105 164.232 11.9483 164.232H21.6477C22.3855 164.232 22.9858 164.832 22.9858 165.57C22.9858 166.308 22.3855 166.909 21.6477 166.909ZM25.5282 190.441C25.3004 190.441 25.0725 190.383 24.8592 190.26C24.219 189.891 24.0021 189.074 24.3709 188.433L29.2206 180.03C29.5895 179.389 30.4068 179.169 31.047 179.541C31.6871 179.91 31.9041 180.728 31.5352 181.368L26.6855 189.772C26.4395 190.203 25.9875 190.441 25.5246 190.441H25.5282ZM52.6917 190.441C52.2287 190.441 51.7803 190.203 51.5308 189.772L46.681 181.368C46.3122 180.728 46.5291 179.91 47.1693 179.541C47.8094 179.172 48.6267 179.389 48.9956 180.03L53.8453 188.433C54.2142 189.074 53.9972 189.891 53.3571 190.26C53.1473 190.383 52.9159 190.441 52.688 190.441H52.6917ZM66.2716 166.909H56.5721C55.8308 166.909 55.2341 166.308 55.2341 165.57C55.2341 164.832 55.8344 164.232 56.5721 164.232H66.2716C67.0094 164.232 67.6097 164.832 67.6097 165.57C67.6097 166.308 67.0094 166.909 66.2716 166.909ZM47.8383 151.78C47.6105 151.78 47.3826 151.722 47.1693 151.599C46.5291 151.23 46.3122 150.412 46.681 149.772L51.5308 141.372C51.8997 140.731 52.717 140.511 53.3571 140.883C53.9972 141.252 54.2142 142.07 53.8453 142.71L48.9956 151.11C48.7497 151.541 48.2976 151.78 47.8347 151.78H47.8383Z" fill="white"/>
<path d="M153.873 233.203C152.731 233.203 151.572 233.488 150.515 234.086C147.296 235.908 146.19 239.952 148.049 243.106C149.908 246.26 154.035 247.345 157.254 245.523C160.473 243.701 161.579 239.656 159.72 236.502C158.473 234.387 156.202 233.203 153.873 233.203ZM153.901 250.246C150.215 250.246 146.626 248.373 144.654 245.028C141.716 240.041 143.465 233.642 148.554 230.762C153.643 227.885 160.173 229.597 163.112 234.584C166.05 239.57 164.301 245.97 159.212 248.849C157.54 249.797 155.708 250.246 153.901 250.246ZM154.167 233.163C153.085 233.163 152.209 232.304 152.209 231.244V212.985C152.209 211.924 153.085 211.066 154.167 211.066C155.249 211.066 156.125 211.924 156.125 212.985V231.244C156.125 232.304 155.249 233.163 154.167 233.163ZM146.492 228.62C145.816 228.62 145.157 228.276 144.794 227.659L129.372 201.48C128.831 200.562 129.152 199.389 130.088 198.859C131.025 198.329 132.222 198.644 132.763 199.561L148.186 225.741C148.727 226.658 148.406 227.832 147.469 228.362C147.162 228.537 146.824 228.617 146.492 228.617V228.62ZM146.882 229.188C146.382 229.188 145.879 228.999 145.497 228.625C144.734 227.875 144.734 226.661 145.497 225.913L152.539 219.013C153.302 218.262 154.543 218.262 155.307 219.013L162.304 225.87C163.07 226.621 163.07 227.834 162.304 228.582C161.541 229.333 160.3 229.333 159.536 228.582L153.926 223.084L148.271 228.628C147.889 229.002 147.387 229.191 146.887 229.191L146.882 229.188ZM139.302 241.4C138.437 241.4 137.646 240.835 137.413 239.977L134.837 230.552C134.557 229.53 135.177 228.477 136.221 228.203L145.778 225.692C146.821 225.415 147.895 226.026 148.175 227.048C148.455 228.071 147.834 229.123 146.791 229.398L139.126 231.411L141.197 238.981C141.477 240.006 140.856 241.058 139.813 241.33C139.643 241.376 139.472 241.398 139.305 241.398L139.302 241.4ZM146.308 253.935C146.14 253.935 145.97 253.914 145.8 253.868L136.182 251.344C135.68 251.212 135.251 250.892 134.993 250.45C134.732 250.009 134.664 249.487 134.798 248.995L137.36 239.629C137.641 238.604 138.714 237.996 139.758 238.273C140.804 238.548 141.422 239.6 141.142 240.622L139.088 248.136L146.813 250.165C147.856 250.44 148.477 251.492 148.197 252.515C147.964 253.373 147.17 253.938 146.308 253.938V253.935ZM153.846 261.161C153.346 261.161 152.844 260.973 152.462 260.599L145.464 253.744C144.698 252.994 144.698 251.78 145.464 251.032C146.228 250.281 147.469 250.281 148.233 251.032L153.843 256.53L159.5 250.989C160.264 250.238 161.505 250.238 162.269 250.989C163.035 251.74 163.035 252.953 162.269 253.701L155.227 260.601C154.846 260.978 154.343 261.164 153.843 261.164L153.846 261.161ZM161.483 253.987C160.618 253.987 159.827 253.421 159.594 252.563C159.314 251.54 159.934 250.488 160.978 250.214L168.643 248.201L166.572 240.631C166.292 239.608 166.912 238.556 167.956 238.281C169.002 238.004 170.076 238.615 170.356 239.638L172.935 249.062C173.215 250.084 172.594 251.137 171.551 251.411L161.994 253.922C161.824 253.968 161.653 253.987 161.486 253.989L161.483 253.987ZM168.522 241.406C168.354 241.406 168.184 241.384 168.014 241.338C166.97 241.064 166.349 240.012 166.63 238.989L168.684 231.478L160.959 229.449C159.912 229.174 159.294 228.122 159.575 227.1C159.855 226.074 160.928 225.463 161.975 225.743L171.592 228.268C172.638 228.542 173.256 229.594 172.976 230.617L170.417 239.982C170.183 240.84 169.389 241.406 168.527 241.406H168.522ZM149.202 208.138L154.239 210.834L159.275 208.138L154.239 191.09L149.202 208.138ZM154.31 214.903H154.17C153.84 214.903 153.519 214.823 153.231 214.669L145.945 210.77C145.14 210.339 144.748 209.416 145.003 208.552L152.231 184.093V184.028C152.228 183.07 152.942 182.257 153.912 182.12C154.881 181.983 155.801 182.567 156.073 183.487L163.48 208.552C163.735 209.416 163.342 210.339 162.538 210.77L155.252 214.669C154.964 214.825 154.642 214.903 154.313 214.903H154.31ZM146.456 237.202C146.124 237.202 145.789 237.119 145.478 236.946L129.342 227.818C128.405 227.288 128.084 226.115 128.625 225.197C129.166 224.279 130.363 223.964 131.3 224.495L147.436 233.623C148.373 234.153 148.694 235.326 148.153 236.244C147.791 236.86 147.131 237.205 146.456 237.205V237.202ZM111.011 215.148L123.558 227.947L128.457 225.019L128.595 219.398L111.011 215.148V215.148ZM123.237 232.307C122.718 232.307 122.204 232.105 121.822 231.718L103.763 213.321C102.915 212.847 102.555 211.833 102.915 210.945C103.277 210.057 104.255 209.564 105.2 209.793L131.058 216.042C131.95 216.257 132.568 217.051 132.546 217.95L132.349 226.082C132.34 226.403 132.25 226.717 132.085 226.997L132.014 227.118C131.849 227.396 131.618 227.63 131.338 227.797L124.25 232.03C123.934 232.218 123.583 232.31 123.231 232.31L123.237 232.307ZM130.042 254.896C129.363 254.896 128.707 254.552 128.345 253.935C127.804 253.018 128.125 251.844 129.061 251.314L145.198 242.183C146.135 241.653 147.332 241.968 147.873 242.886C148.414 243.803 148.093 244.977 147.156 245.507L131.019 254.638C130.712 254.813 130.374 254.894 130.042 254.894V254.896ZM123.204 251.064L110.656 263.866L128.24 259.614L128.103 253.992L123.201 251.064H123.204ZM104.431 269.361C103.848 269.361 103.274 269.108 102.89 268.632C102.286 267.876 102.341 266.802 103.019 266.11L121.468 247.294C122.105 246.645 123.116 246.516 123.901 246.984L130.989 251.217C131.269 251.384 131.503 251.618 131.665 251.896L131.736 252.017C131.901 252.297 131.992 252.611 132 252.932L132.198 261.064C132.22 261.966 131.599 262.757 130.709 262.972L105.422 269.1C105.112 269.278 104.774 269.361 104.436 269.361H104.431ZM153.602 268.548C152.52 268.548 151.643 267.69 151.643 266.63V248.37C151.643 247.31 152.52 246.451 153.602 246.451C154.684 246.451 155.56 247.31 155.56 248.37V266.63C155.56 267.69 154.681 268.548 153.602 268.548ZM148.494 271.476L153.53 288.522L158.567 271.476L153.53 268.78L148.494 271.476V271.476ZM153.58 297.516C152.72 297.516 151.946 296.959 151.701 296.132L144.295 271.062C144.039 270.201 144.432 269.275 145.237 268.847L152.522 264.948C152.811 264.791 153.132 264.713 153.461 264.713H153.604C153.931 264.713 154.255 264.794 154.543 264.948L161.829 268.847C162.634 269.275 163.027 270.201 162.771 271.062L155.543 295.527V295.589C155.546 296.55 154.832 297.362 153.865 297.494C153.769 297.508 153.676 297.516 153.582 297.516H153.58ZM177.444 255.378C177.112 255.378 176.774 255.295 176.466 255.122L160.33 245.994C159.393 245.464 159.072 244.29 159.613 243.37C160.154 242.452 161.351 242.138 162.288 242.668L178.424 251.796C179.361 252.326 179.682 253.5 179.141 254.42C178.779 255.036 178.12 255.381 177.444 255.381V255.378ZM179.174 260.217L196.758 264.463L184.211 251.664L179.309 254.592L179.171 260.217H179.174ZM203.036 269.88C202.88 269.88 202.723 269.862 202.564 269.824L176.708 263.575C175.816 263.36 175.198 262.566 175.22 261.664L175.417 253.535C175.426 253.214 175.514 252.902 175.676 252.625L175.747 252.504C175.912 252.224 176.145 251.99 176.425 251.82L183.513 247.587C184.299 247.119 185.309 247.248 185.944 247.897L204.005 266.296C204.854 266.772 205.211 267.787 204.849 268.675C204.544 269.418 203.816 269.883 203.031 269.883L203.036 269.88ZM161.596 237.686C160.917 237.686 160.261 237.342 159.899 236.726C159.358 235.808 159.679 234.635 160.615 234.105L176.752 224.976C177.688 224.446 178.886 224.761 179.427 225.679C179.968 226.596 179.647 227.77 178.71 228.3L162.573 237.431C162.266 237.606 161.928 237.686 161.596 237.686ZM179.666 225.622L184.565 228.55L197.112 215.751L179.528 220L179.666 225.622ZM184.889 232.91C184.54 232.91 184.186 232.818 183.87 232.63L176.782 228.397C176.502 228.23 176.271 227.996 176.107 227.719L176.035 227.597C175.871 227.318 175.78 227.003 175.772 226.682L175.574 218.55C175.552 217.648 176.173 216.854 177.062 216.642L202.352 210.514C203.195 210.03 204.275 210.232 204.879 210.985C205.483 211.739 205.428 212.812 204.75 213.504L186.303 232.32C185.924 232.708 185.408 232.91 184.889 232.91ZM137.58 213.577C137.382 213.577 137.185 213.547 136.992 213.488L126.713 210.32C125.681 210.003 125.11 208.926 125.434 207.914C125.758 206.903 126.856 206.343 127.889 206.658L136.149 209.204L138.135 200.848C138.379 199.814 139.434 199.176 140.486 199.413C141.54 199.655 142.194 200.686 141.949 201.717L139.486 212.091C139.362 212.611 139.022 213.06 138.55 213.324C138.25 213.491 137.915 213.577 137.577 213.577H137.58ZM138.61 241.449H107.762C106.68 241.449 105.804 240.59 105.804 239.53C105.804 238.47 106.68 237.611 107.762 237.611H138.61C139.692 237.611 140.568 238.47 140.568 239.53C140.568 240.59 139.692 241.449 138.61 241.449ZM112.919 248.626C112.389 248.626 111.862 248.416 111.475 248.004C110.744 247.224 110.796 246.01 111.593 245.292L117.972 239.554L111.579 233.693C110.788 232.969 110.747 231.755 111.486 230.98C112.224 230.205 113.466 230.167 114.254 230.889L122.19 238.165C122.589 238.531 122.814 239.043 122.811 239.576C122.808 240.108 122.578 240.62 122.177 240.98L114.24 248.12C113.864 248.459 113.389 248.626 112.916 248.626H112.919ZM130.577 280.734C130.245 280.734 129.907 280.65 129.6 280.478C128.663 279.948 128.342 278.772 128.883 277.857L144.306 251.675C144.847 250.757 146.044 250.442 146.98 250.973C147.917 251.503 148.238 252.676 147.697 253.594L132.274 279.776C131.912 280.389 131.253 280.736 130.577 280.736V280.734ZM139.5 279.948C138.602 279.948 137.794 279.337 137.591 278.444L135.71 270.158L127.331 272.655C126.293 272.959 125.203 272.389 124.887 271.374C124.571 270.362 125.156 269.286 126.192 268.982L136.591 265.881C137.113 265.725 137.676 265.793 138.149 266.062C138.618 266.331 138.953 266.778 139.071 267.3L141.411 277.607C141.647 278.64 140.98 279.668 139.925 279.897C139.783 279.929 139.64 279.945 139.497 279.945L139.5 279.948ZM176.705 281.014C176.03 281.014 175.371 280.669 175.008 280.05L159.585 253.871C159.044 252.953 159.366 251.78 160.302 251.25C161.239 250.72 162.436 251.034 162.977 251.952L178.403 278.131C178.944 279.052 178.622 280.228 177.686 280.753C177.378 280.93 177.04 281.014 176.708 281.014H176.705ZM167.731 280.252C167.582 280.252 167.434 280.233 167.286 280.204C166.231 279.961 165.578 278.931 165.822 277.895L168.286 267.523C168.409 267.001 168.75 266.554 169.222 266.29C169.697 266.029 170.26 265.968 170.782 266.126L181.058 269.296C182.091 269.614 182.662 270.69 182.338 271.702C182.014 272.711 180.913 273.277 179.883 272.959L171.622 270.413L169.637 278.769C169.425 279.657 168.621 280.255 167.731 280.255V280.252ZM200.012 242.003H169.164C168.082 242.003 167.206 241.145 167.206 240.084C167.206 239.024 168.082 238.165 169.164 238.165H200.012C201.094 238.165 201.97 239.024 201.97 240.084C201.97 241.145 201.094 242.003 200.012 242.003ZM194.855 249.242C194.374 249.242 193.897 249.07 193.518 248.723L185.578 241.446C185.18 241.083 184.955 240.569 184.958 240.036C184.96 239.503 185.191 238.992 185.592 238.631L193.529 231.491C194.325 230.776 195.564 230.827 196.297 231.607C197.027 232.388 196.975 233.601 196.179 234.32L189.799 240.057L196.192 245.921C196.981 246.645 197.022 247.859 196.283 248.634C195.899 249.038 195.374 249.242 194.852 249.242H194.855ZM161.769 228.9C161.436 228.9 161.099 228.816 160.791 228.644C159.855 228.114 159.533 226.941 160.074 226.023L175.497 199.844C176.038 198.926 177.235 198.611 178.172 199.141C179.108 199.672 179.43 200.845 178.889 201.763L163.466 227.942C163.103 228.558 162.444 228.903 161.769 228.903V228.9ZM170.612 213.813C170.268 213.813 169.928 213.725 169.626 213.552C169.153 213.283 168.818 212.831 168.7 212.312L166.36 202.007C166.124 200.974 166.792 199.949 167.846 199.717C168.901 199.489 169.947 200.14 170.183 201.173L172.064 209.457L180.443 206.962C181.478 206.655 182.571 207.226 182.887 208.24C183.203 209.255 182.618 210.326 181.583 210.635L171.183 213.733C170.996 213.789 170.804 213.816 170.614 213.816L170.612 213.813ZM123.182 190.958C124.14 189.332 126.26 188.775 127.919 189.714C129.578 190.654 130.146 192.731 129.188 194.357C128.229 195.982 126.109 196.539 124.451 195.6C122.792 194.661 122.223 192.583 123.182 190.958V190.958ZM95.3627 241.441C94.4043 239.815 94.9727 237.738 96.6314 236.798C98.2901 235.859 100.41 236.416 101.369 238.042C102.327 239.667 101.759 241.745 100.1 242.684C98.4412 243.623 96.3211 243.066 95.3627 241.441ZM126.068 290.29C124.154 290.29 122.6 288.769 122.6 286.894C122.6 285.015 124.151 283.495 126.068 283.495C127.982 283.495 129.536 285.015 129.536 286.894C129.536 288.769 127.985 290.29 126.068 290.29ZM184.592 288.659C183.634 290.287 181.514 290.839 179.855 289.902C178.197 288.966 177.628 286.886 178.587 285.26C179.545 283.637 181.665 283.08 183.324 284.017C184.982 284.953 185.551 287.034 184.592 288.659ZM212.412 238.176C213.37 239.802 212.802 241.879 211.143 242.818C209.484 243.758 207.364 243.201 206.406 241.575C205.447 239.95 206.016 237.872 207.674 236.933C209.333 235.994 211.453 236.551 212.412 238.176ZM181.706 189.327C183.62 189.327 185.175 190.847 185.175 192.726C185.175 194.601 183.623 196.125 181.706 196.125C179.792 196.125 178.238 194.604 178.238 192.726C178.238 190.85 179.789 189.327 181.706 189.327Z" fill="white"/>
</svg>
