<svg width="96" height="116" viewBox="0 0 96 116" fill="none" xmlns="http://www.w3.org/2000/svg">
<path d="M69.5132 23.3537H69.5084C68.998 23.3514 68.5878 22.9352 68.5902 22.426L68.6748 6.99515C68.6772 6.48477 69.1149 6.07574 69.6026 6.07574C70.113 6.07813 70.5232 6.49431 70.5208 7.0035L70.4362 22.4355C70.4338 22.9435 70.02 23.3537 69.5132 23.3537ZM69.456 27.5358C68.0274 27.5358 66.8659 28.6973 66.8659 30.1259C66.8659 31.5545 68.0285 32.716 69.456 32.716C70.8846 32.716 72.046 31.5545 72.046 30.1259C72.046 28.6973 70.8846 27.5358 69.456 27.5358ZM69.456 34.5632C67.009 34.5632 65.0187 32.5729 65.0187 30.1259C65.0187 27.6789 67.009 25.6886 69.456 25.6886C71.903 25.6886 73.8932 27.6789 73.8932 30.1259C73.8932 32.5729 71.903 34.5632 69.456 34.5632ZM56.1966 30.2475L63.2383 33.0749C63.6247 33.2299 63.8596 33.6247 63.8119 34.0373L62.9318 41.6692L68.9015 36.9851C69.2294 36.7275 69.6873 36.7216 70.0224 36.9696L76.1911 41.5476L75.1191 34.0361C75.0606 33.6247 75.2849 33.224 75.6665 33.0582L82.7153 30.0043L75.6736 27.1769C75.2873 27.0218 75.0523 26.6271 75.1 26.2145L75.9801 18.5826L70.0105 23.2667C69.6825 23.5231 69.2246 23.5302 68.8907 23.2822L62.7208 18.7042L63.7928 26.2157C63.8513 26.6271 63.6271 27.0278 63.2455 27.1936L56.1966 30.2475ZM61.7608 44.685C61.6058 44.685 61.4508 44.6469 61.31 44.5682C60.9845 44.3857 60.8009 44.0268 60.8438 43.6571L61.8967 34.5274L53.4563 31.1383C53.1105 30.9988 52.8827 30.6661 52.8768 30.294C52.872 29.922 53.0914 29.5821 53.4336 29.4343L61.8657 25.7805L60.5814 16.776C60.529 16.4075 60.7031 16.0426 61.0227 15.853C61.3423 15.6622 61.7465 15.6813 62.0458 15.9043L69.4261 21.3802L76.5823 15.7659C76.8756 15.5346 77.2775 15.5048 77.603 15.6848C77.9286 15.8673 78.1123 16.2274 78.0693 16.5971L77.0163 25.7268L85.4568 29.1159C85.8026 29.2554 86.0304 29.5881 86.0364 29.9601C86.0411 30.3322 85.8217 30.6709 85.4806 30.8199L77.0474 34.4725L78.3329 43.477C78.3853 43.8455 78.2112 44.2104 77.8916 44.4012C77.572 44.592 77.169 44.5717 76.8697 44.3499L69.4893 38.8728L62.3344 44.4883C62.1675 44.6194 61.9671 44.685 61.7644 44.685H61.7608ZM69.4869 14.6116C69.2973 14.6116 69.1077 14.5544 68.9455 14.4375L64.6955 11.3632C64.2817 11.0639 64.1887 10.4868 64.488 10.0742C64.7873 9.66156 65.3645 9.56735 65.7771 9.86786L69.4834 12.5486L73.3113 9.74981C73.7227 9.45049 74.301 9.53874 74.6015 9.95014C74.9021 10.3627 74.8126 10.9411 74.4012 11.2416L70.0307 14.4363C69.8685 14.5555 69.6778 14.6128 69.4858 14.6128L69.4869 14.6116ZM62.8185 27.1518C62.6611 27.1518 62.5002 27.1113 62.3535 27.0254L49.0322 19.2361C48.5921 18.9785 48.4431 18.4133 48.7006 17.9732C48.9582 17.5332 49.5223 17.3841 49.9635 17.6417L63.2848 25.4311C63.7248 25.6886 63.8739 26.2539 63.6163 26.6939C63.4446 26.9873 63.1357 27.1518 62.8185 27.1518ZM50.45 24.9481C50.097 24.9481 49.7608 24.7454 49.6069 24.4019C49.3982 23.9357 49.6069 23.3907 50.072 23.182L54.2457 21.3134L53.7365 16.5983C53.6817 16.0927 54.049 15.6347 54.5558 15.5823C55.0661 15.5286 55.5181 15.8923 55.573 16.4003L56.1537 21.782C56.1966 22.1803 55.9784 22.5607 55.6135 22.7241L50.8269 24.8682C50.704 24.9231 50.5764 24.9493 50.45 24.9493V24.9481ZM49.3577 42.4896C49.0369 42.4896 48.7245 42.3227 48.554 42.0234C48.3012 41.5798 48.4562 41.0169 48.8986 40.7641L62.3046 33.1226C62.7494 32.8698 63.3122 33.0248 63.5638 33.4673C63.8167 33.9109 63.6616 34.4737 63.2192 34.7265L49.8133 42.3692C49.669 42.4515 49.5115 42.4908 49.3565 42.4908L49.3577 42.4896ZM54.6703 44.4584C54.6393 44.4584 54.6071 44.4573 54.5749 44.4537C54.0669 44.4012 53.6984 43.9481 53.7508 43.4412L54.2195 38.8919L49.8824 36.9756C49.4161 36.7693 49.2051 36.2243 49.4114 35.758C49.6177 35.2918 50.1626 35.0819 50.6289 35.287L55.5801 37.4752C55.9462 37.6374 56.1656 38.0166 56.1251 38.4149L55.5885 43.6321C55.5396 44.1079 55.1389 44.4608 54.6715 44.4608L54.6703 44.4584ZM69.3141 54.1761H69.3093C68.7989 54.1737 68.3887 53.7575 68.391 53.2483L68.4757 37.8175C68.4781 37.3095 68.8919 36.8992 69.3987 36.8992H69.4035C69.9139 36.9016 70.3253 37.3178 70.3217 37.827L70.237 53.2578C70.2346 53.7658 69.8209 54.1761 69.3141 54.1761ZM65.0557 50.6797C64.7706 50.6797 64.4904 50.5485 64.3103 50.3005C64.0098 49.889 64.0993 49.3107 64.5107 49.0102L68.8811 45.8155C69.2043 45.5794 69.6432 45.5782 69.9663 45.8131L74.2164 48.8874C74.629 49.1867 74.722 49.7626 74.4239 50.1764C74.1258 50.5902 73.5474 50.6833 73.1348 50.3839L69.4285 47.7032L65.5994 50.502C65.4349 50.6224 65.2441 50.6797 65.0557 50.6797ZM89.4135 42.7353C89.2549 42.7353 89.0951 42.6948 88.9484 42.6089L75.6271 34.8207C75.1871 34.5632 75.038 33.9979 75.2956 33.5579C75.5531 33.1179 76.1184 32.9688 76.5584 33.2264L89.8798 41.0145C90.3198 41.2721 90.4688 41.8374 90.2112 42.2774C90.0395 42.5707 89.7307 42.7353 89.4135 42.7353ZM84.256 44.6755C83.7909 44.6755 83.3902 44.3249 83.3389 43.8515L82.757 38.4698C82.7141 38.0715 82.9323 37.6911 83.2972 37.5277L88.0839 35.3836C88.5489 35.1749 89.0951 35.3836 89.3038 35.8487C89.5125 36.3137 89.3038 36.8599 88.8387 37.0686L84.6638 38.9384L85.173 43.6535C85.2278 44.1603 84.8617 44.6159 84.3537 44.6707C84.3203 44.6743 84.287 44.6755 84.2536 44.6755H84.256ZM76.1518 27.2508C75.831 27.2508 75.5186 27.0827 75.3492 26.7845C75.0964 26.3409 75.2503 25.7769 75.6939 25.5253L89.0999 17.8826C89.5435 17.6298 90.1063 17.7848 90.3591 18.2272C90.6119 18.6708 90.4569 19.2349 90.0145 19.4865L76.6085 27.1292C76.4642 27.2115 76.3068 27.2508 76.1518 27.2508ZM69.599 0C68.3791 0 67.3858 0.99096 67.3858 2.21207C67.3858 3.43318 68.3791 4.42414 69.599 4.42414C70.8189 4.42414 71.8123 3.43318 71.8123 2.21207C71.8123 0.99096 70.8201 0 69.599 0ZM46.4611 14.1286C45.4058 13.5181 44.0487 13.8818 43.4382 14.9395C43.1424 15.4523 43.0637 16.0473 43.2176 16.6197C43.3702 17.1909 43.7363 17.6679 44.2479 17.9637C44.5889 18.1604 44.967 18.2618 45.3509 18.2618C45.5429 18.2618 45.7361 18.2368 45.9269 18.1855C46.4981 18.0328 46.9751 17.6668 47.2709 17.1552C47.8814 16.0986 47.5177 14.7416 46.4611 14.131V14.1286ZM45.785 41.8218C45.215 41.6692 44.6176 41.7467 44.106 42.0425C43.0494 42.653 42.6857 44.0089 43.2963 45.0654C43.592 45.577 44.069 45.9443 44.6402 46.0969C44.831 46.1482 45.0242 46.1732 45.2162 46.1732C45.6002 46.1732 45.9782 46.0731 46.3192 45.8763C46.8308 45.5806 47.1969 45.1036 47.3507 44.5324C47.5034 43.9612 47.4247 43.3649 47.129 42.8534C46.8332 42.3418 46.3562 41.9745 45.785 41.8218ZM69.3152 55.8265C68.0953 55.8265 67.102 56.8186 67.102 58.0397C67.102 59.2608 68.0953 60.253 69.3152 60.253C70.5351 60.253 71.5285 59.2608 71.5285 58.0397C71.5285 56.8198 70.5363 55.8265 69.3152 55.8265ZM94.6664 42.2893C94.1549 41.9936 93.5586 41.9161 92.9874 42.0687C92.4162 42.2213 91.9392 42.5886 91.6435 43.1002C91.0329 44.1567 91.3966 45.5126 92.4532 46.1232C92.7942 46.3199 93.1722 46.4201 93.5562 46.4201C93.7482 46.4201 93.9413 46.3951 94.1321 46.3438C94.7033 46.1911 95.1803 45.825 95.4761 45.3123C95.7718 44.8007 95.8506 44.2044 95.6979 43.6332C95.5453 43.062 95.1792 42.585 94.6664 42.2893ZM93.1293 18.4299C93.3201 18.4812 93.5133 18.5063 93.7053 18.5063C94.0893 18.5063 94.4673 18.4061 94.8083 18.2081C95.8649 17.5976 96.2286 16.2417 95.618 15.1852C95.0075 14.1286 93.6516 13.7637 92.5951 14.3743C91.5385 14.9848 91.1748 16.3407 91.7854 17.3972C92.0811 17.9088 92.5581 18.2749 93.1293 18.4276V18.4299ZM88.6586 25.0459C88.5346 25.0459 88.407 25.0208 88.2866 24.9672L83.3354 22.7802C82.9693 22.618 82.7486 22.2388 82.7904 21.8417L83.327 16.6245C83.3795 16.1177 83.8326 15.7457 84.3394 15.8005C84.8463 15.8518 85.2159 16.3061 85.1634 16.8129L84.6948 21.3623L89.0319 23.2786C89.4982 23.4849 89.7092 24.0299 89.5029 24.4961C89.3503 24.842 89.0116 25.0471 88.6575 25.0471L88.6586 25.0459Z" fill="white"/>
<path d="M15.2495 63.0078C14.3964 63.0078 13.7027 63.7017 13.7027 64.5551C13.7027 65.4084 14.3964 66.1024 15.2495 66.1024C16.1026 66.1024 16.7963 65.4084 16.7963 64.5551C16.7963 63.7017 16.1026 63.0078 15.2495 63.0078ZM15.2495 67.1448C13.8225 67.1448 12.6606 65.9825 12.6606 64.5551C12.6606 63.1277 13.8225 61.9654 15.2495 61.9654C16.6779 61.9654 17.8384 63.1277 17.8384 64.5551C17.8384 65.9839 16.6765 67.1448 15.2495 67.1448ZM15.2495 59.6776C14.9618 59.6776 14.7278 59.4434 14.7278 59.1557V56.0512C14.7278 55.7634 14.9618 55.5293 15.2495 55.5293C15.5371 55.5293 15.7712 55.762 15.7712 56.0512V59.1557C15.7712 59.4434 15.5371 59.6776 15.2495 59.6776ZM10.5752 62.3773C10.4863 62.3773 10.3975 62.3547 10.3143 62.3068L7.62674 60.7538C7.37716 60.6099 7.29256 60.2911 7.43639 60.0415C7.58021 59.7918 7.89888 59.7058 8.14846 59.8511L10.836 61.404C11.0856 61.5479 11.1702 61.8667 11.0264 62.1163C10.9291 62.2842 10.7542 62.3773 10.5738 62.3773H10.5752ZM7.8876 69.3296C7.70711 69.3296 7.53227 69.2365 7.43498 69.0687C7.29115 68.819 7.37575 68.5003 7.62533 68.3564L10.3129 66.8034C10.5625 66.6595 10.8811 66.7456 11.025 66.9938C11.1688 67.2435 11.0842 67.5623 10.8346 67.7061L8.14704 69.2591C8.06526 69.3071 7.97502 69.3296 7.88619 69.3296H7.8876ZM15.2495 73.5809C14.9618 73.5809 14.7278 73.3467 14.7278 73.059V69.9545C14.7278 69.6667 14.9618 69.4326 15.2495 69.4326C15.5371 69.4326 15.7712 69.6667 15.7712 69.9545V73.059C15.7712 73.3467 15.5371 73.5809 15.2495 73.5809ZM22.6114 69.3296C22.524 69.3296 22.4337 69.3071 22.3519 69.2591L19.663 67.7061C19.4134 67.5623 19.3288 67.2435 19.4726 66.9938C19.6164 66.7442 19.9351 66.6581 20.1847 66.8034L22.8737 68.3564C23.1218 68.5003 23.2078 68.819 23.064 69.0687C22.9667 69.2365 22.7919 69.3296 22.6114 69.3296ZM19.9252 62.3773C19.7447 62.3773 19.5699 62.2842 19.4726 62.1163C19.3288 61.8667 19.4134 61.5479 19.663 61.404L22.3519 59.8511C22.6001 59.7072 22.9202 59.7932 23.064 60.0415C23.2064 60.2911 23.1218 60.6099 22.8737 60.7538L20.1847 62.3068C20.1029 62.3547 20.0126 62.3773 19.9238 62.3773H19.9252ZM8.45586 68.4791L12.1319 69.465C12.1756 69.4763 12.2179 69.4947 12.2574 69.5172L12.4505 69.6287C12.49 69.6512 12.5267 69.6794 12.5591 69.7119L15.2495 72.4031L17.9399 69.7119C17.9723 69.6794 18.009 69.6512 18.0485 69.6287L18.2416 69.5172C18.2811 69.4947 18.3234 69.4763 18.3671 69.465L22.0431 68.4791L21.0575 64.8019C21.0462 64.7582 21.0392 64.7131 21.0392 64.6665V64.4422C21.0392 64.3971 21.0448 64.352 21.0575 64.3068L22.0431 60.6297L18.3671 59.6437C18.3234 59.6324 18.2811 59.6141 18.2416 59.5915L18.0485 59.4801C18.009 59.4575 17.9723 59.4293 17.9399 59.3969L15.2495 56.7057L12.5591 59.3969C12.5267 59.4293 12.49 59.4575 12.4505 59.4801L12.2574 59.5915C12.2179 59.6141 12.1756 59.6324 12.1319 59.6437L8.45586 60.6297L9.44007 64.3068C9.45135 64.3506 9.4584 64.3957 9.4584 64.4422V64.6665C9.4584 64.7117 9.45276 64.7582 9.44007 64.8019L8.45586 68.4791ZM15.2495 73.6627C15.1155 73.6627 14.983 73.6119 14.8815 73.5104L11.871 70.4989L11.7963 70.4552L7.68315 69.3522C7.40537 69.2774 7.24039 68.9911 7.31513 68.7132L8.41637 64.5988V64.5128L7.31513 60.3983C7.24039 60.1205 7.40537 59.8341 7.68315 59.7594L11.7963 58.6564L11.871 58.6127L14.8815 55.5998C15.0775 55.4038 15.4229 55.4038 15.6189 55.5998L18.6308 58.6127L18.7055 58.6564L22.8187 59.7594C23.0964 59.8341 23.2614 60.1205 23.1867 60.3983L22.0854 64.5128V64.5988L23.1867 68.7132C23.2628 68.9911 23.0964 69.2774 22.8187 69.3522L18.7055 70.4552L18.6308 70.4989L15.6189 73.5104C15.5174 73.6119 15.3834 73.6627 15.2509 73.6627H15.2495ZM11.2139 66.8866L13.4094 67.4748C13.4982 67.4988 13.5786 67.5453 13.6434 67.6102L15.2509 69.2168L16.8584 67.6102C16.9232 67.5453 17.0036 67.4988 17.0924 67.4748L19.2879 66.8866L18.6999 64.6905C18.6759 64.6016 18.6759 64.5085 18.6999 64.4211L19.2879 62.2249L17.0924 61.6368C17.0036 61.6128 16.9232 61.5662 16.8584 61.5014L15.2509 59.8948L13.6434 61.5014C13.5786 61.5662 13.4982 61.6128 13.4094 61.6368L11.2139 62.2249L11.8019 64.4211C11.8259 64.51 11.8259 64.603 11.8019 64.6905L11.2139 66.8866ZM15.2495 70.4764C15.1113 70.4764 14.9788 70.4214 14.8815 70.324L13.0047 68.4467L10.4412 67.7597C10.1634 67.685 9.99845 67.3987 10.0732 67.1208L10.7599 64.5565L10.0732 61.9922C9.99845 61.7143 10.1634 61.428 10.4412 61.3533L13.0047 60.6663L14.8815 58.789C15.0775 58.5929 15.4229 58.5929 15.6189 58.789L17.4957 60.6663L20.0592 61.3533C20.337 61.428 20.5019 61.7143 20.4286 61.9922L19.7419 64.5565L20.4286 67.1208C20.5034 67.3987 20.3384 67.685 20.0592 67.7597L17.4957 68.4467L15.6189 70.324C15.5216 70.4214 15.3891 70.4764 15.2509 70.4764H15.2495ZM15.6133 47.2468C15.5541 47.0987 15.4102 47 15.2495 47C15.0887 47 14.9449 47.0987 14.8857 47.2468L13.4503 50.8577C13.4136 50.9508 13.4136 51.0552 13.4503 51.1469L14.8857 54.7563C14.9449 54.9059 15.0887 55.0032 15.2495 55.0032C15.4102 55.0032 15.5541 54.9044 15.6133 54.7563L17.0487 51.1469C17.0854 51.0538 17.0854 50.9508 17.0487 50.8577L15.6133 47.2468ZM4.54154 56.2938C4.4795 56.2162 4.39067 56.164 4.29196 56.1499L0.448155 55.5871C0.290229 55.5646 0.132314 55.6393 0.0533507 55.7775C-0.0270223 55.9172 -0.0143346 56.0907 0.0857792 56.2162L2.49414 59.2643C2.55619 59.3433 2.64502 59.3941 2.74373 59.4082L6.58753 59.971C6.60587 59.9738 6.62561 59.9752 6.64394 59.9752C6.78212 59.9752 6.91184 59.9018 6.98234 59.7791C7.06271 59.6409 7.05002 59.4674 6.94991 59.3405L4.54154 56.2924V56.2938ZM6.58612 69.1392L2.74232 69.702C2.64361 69.7161 2.55337 69.7683 2.49273 69.8459L0.0843678 72.894C-0.015746 73.0195 -0.0270237 73.193 0.0519393 73.3326C0.122442 73.4553 0.252153 73.5287 0.390338 73.5287C0.408669 73.5287 0.428413 73.5273 0.446744 73.5245L4.29055 72.9617C4.38926 72.9476 4.4795 72.8954 4.54013 72.8164L6.9485 69.7683C7.0472 69.6428 7.06132 69.4693 6.98094 69.3296C6.90057 69.1914 6.74264 69.1152 6.58612 69.1378V69.1392ZM15.6133 74.3524C15.5541 74.2043 15.4102 74.1056 15.2495 74.1056C15.0887 74.1056 14.9449 74.2029 14.8857 74.3524L13.4503 77.9633C13.4136 78.0564 13.4136 78.1594 13.4503 78.2525L14.8857 81.8633C14.9449 82.0114 15.0887 82.1102 15.2495 82.1102C15.4102 82.1102 15.5541 82.0128 15.6133 81.8633L17.0487 78.2525C17.0854 78.1594 17.0854 78.0564 17.0487 77.9633L15.6133 74.3524ZM28.0077 69.8459C27.9456 69.7669 27.8568 69.7161 27.7567 69.702L23.9143 69.1392C23.7563 69.1166 23.5998 69.1914 23.5194 69.331C23.4391 69.4693 23.4518 69.6442 23.5505 69.7697L25.9588 72.8178C26.0209 72.8968 26.1097 72.9476 26.2098 72.9631L30.0522 73.5259C30.072 73.5287 30.0903 73.5301 30.1086 73.5301C30.2468 73.5301 30.3765 73.4568 30.447 73.334C30.5274 73.1958 30.5147 73.0209 30.4146 72.8954L28.0077 69.8473V69.8459ZM23.8565 59.9752C23.8748 59.9752 23.8931 59.9738 23.9129 59.971L27.7553 59.4082C27.8554 59.3941 27.9442 59.3419 28.0063 59.2643L30.4132 56.2162C30.5133 56.0907 30.526 55.9172 30.4456 55.7775C30.3653 55.6393 30.2073 55.5631 30.0508 55.5871L26.2084 56.1499C26.1083 56.164 26.0195 56.2162 25.9574 56.2938L23.5491 59.3419C23.4504 59.4674 23.4377 59.6409 23.518 59.7805C23.5885 59.9033 23.7183 59.9766 23.8565 59.9766V59.9752ZM9.72631 55.5561C9.68119 55.5561 9.63606 55.5504 9.59094 55.5378L7.26435 54.9143C6.98657 54.8396 6.82159 54.5532 6.89633 54.2754C6.97106 53.9975 7.2559 53.8325 7.53509 53.9072L9.35829 54.3953L9.8645 52.5066C9.93923 52.2273 10.2255 52.0623 10.5033 52.137C10.781 52.2118 10.946 52.4981 10.8727 52.7746L10.2311 55.1682C10.1959 55.3022 10.1084 55.4165 9.98858 55.4856C9.90821 55.5307 9.81938 55.5547 9.72773 55.5547L9.72631 55.5561ZM2.54208 66.8048C2.40813 66.8048 2.27558 66.7541 2.17265 66.6525C1.9696 66.4494 1.9696 66.1179 2.17265 65.9148L3.50798 64.5791L2.12471 63.1954C1.92166 62.9923 1.92166 62.6608 2.12471 62.4577C2.32776 62.2531 2.65912 62.2531 2.86217 62.4577L4.61346 64.2095C4.81792 64.4126 4.81792 64.7441 4.61346 64.9472L2.91012 66.6511C2.8086 66.7526 2.67462 66.8034 2.54067 66.8034L2.54208 66.8048ZM10.3919 76.9492C10.162 76.9492 9.95052 76.7954 9.88847 76.5627L9.39917 74.7389L7.50971 75.2453C7.23193 75.32 6.94569 75.155 6.87096 74.8771C6.79622 74.5993 6.9612 74.3129 7.24039 74.2382L9.63325 73.5964C9.7672 73.5597 9.90962 73.5795 10.0281 73.6486C10.1479 73.7177 10.2353 73.8319 10.2706 73.9659L10.8938 76.2933C10.9686 76.5711 10.8036 76.8575 10.5244 76.9322C10.4793 76.9449 10.4342 76.9506 10.389 76.9506L10.3919 76.9492ZM20.1311 76.9915C20.086 76.9915 20.0408 76.9858 19.9957 76.9731C19.7179 76.8984 19.553 76.612 19.6263 76.3342L20.2679 73.9406C20.3426 73.6627 20.6274 73.4963 20.9066 73.5724L23.2346 74.1959C23.5124 74.2706 23.6774 74.5569 23.604 74.8348C23.5279 75.1127 23.2431 75.2777 22.9653 75.203L21.1421 74.7149L20.6359 76.605C20.5739 76.8377 20.3623 76.9915 20.1325 76.9915H20.1311ZM28.0048 66.8048C27.8709 66.8048 27.7383 66.7541 27.6354 66.6525L25.8841 64.9007C25.6797 64.6961 25.6797 64.3661 25.8841 64.163L27.5875 62.4591C27.7905 62.2546 28.1205 62.2546 28.3249 62.4591C28.528 62.6622 28.528 62.9937 28.3249 63.1968L26.9896 64.5325L28.3729 65.9162C28.5759 66.1193 28.5759 66.4508 28.3729 66.6539C28.2713 66.7555 28.1374 66.8062 28.0034 66.8062L28.0048 66.8048ZM20.7304 55.5321C20.5005 55.5321 20.289 55.3784 20.227 55.1456L19.6037 52.8183C19.529 52.539 19.694 52.2541 19.9732 52.1794C20.2509 52.1046 20.5372 52.271 20.6119 52.5489L21.0998 54.3713L22.9893 53.8649C23.267 53.7887 23.5533 53.9552 23.628 54.2345C23.7028 54.5123 23.5364 54.7987 23.2586 54.872L20.8657 55.5138C20.8206 55.5265 20.7755 55.5321 20.7304 55.5321ZM11.0151 57.8115C10.97 57.8115 10.9248 57.8058 10.8797 57.7932L8.55314 57.1697C8.27536 57.0949 8.11039 56.8086 8.18512 56.5308C8.25985 56.2515 8.54469 56.0864 8.82388 56.1612L10.6471 56.6492L11.1533 54.7592C11.228 54.4799 11.5129 54.3149 11.792 54.3896C12.0698 54.4644 12.2348 54.7507 12.1601 55.0272L11.5185 57.4208C11.4564 57.6535 11.2449 57.8073 11.0151 57.8073V57.8115ZM5.13941 66.8161C5.00545 66.8161 4.87291 66.7653 4.77138 66.6638C4.56693 66.4607 4.56693 66.1292 4.77138 65.9261L6.1067 64.5903L4.72345 63.2066C4.5204 63.0035 4.5204 62.6721 4.72345 62.469C4.9265 62.2644 5.25785 62.2644 5.4609 62.469L7.21218 64.2208C7.30947 64.3181 7.36447 64.4507 7.36447 64.5889C7.36447 64.7272 7.30947 64.8598 7.21218 64.9585L5.50884 66.6624C5.40732 66.7639 5.27336 66.8147 5.13941 66.8147V66.8161ZM11.7004 74.705C11.4706 74.705 11.259 74.5513 11.197 74.3186L10.7077 72.4948L8.81823 73.0012C8.54045 73.0759 8.25422 72.9109 8.17949 72.6316C8.10476 72.3537 8.26973 72.0674 8.54751 71.9927L10.9404 71.3509C11.2181 71.2761 11.5044 71.4412 11.5791 71.719L12.2024 74.0463C12.2771 74.3242 12.1121 74.6105 11.8343 74.6853C11.7892 74.698 11.7441 74.7036 11.699 74.7036L11.7004 74.705ZM18.8437 74.7347C18.7986 74.7347 18.7535 74.729 18.7083 74.7163C18.4306 74.6416 18.2656 74.3552 18.3403 74.0774L18.9819 71.6838C19.0172 71.5498 19.1046 71.4355 19.2244 71.3664C19.3443 71.2973 19.4867 71.2775 19.6206 71.3142L21.9472 71.9376C22.225 72.0124 22.39 72.2987 22.3153 72.5766C22.2405 72.8545 21.9543 73.0209 21.6765 72.9447L19.8533 72.4567L19.3471 74.3468C19.2851 74.5795 19.0736 74.7333 18.8437 74.7333V74.7347ZM25.4075 66.7921C25.2736 66.7921 25.141 66.7414 25.0381 66.6398L23.2868 64.888C23.1895 64.7906 23.1345 64.6581 23.1345 64.5184C23.1345 64.3802 23.1895 64.2476 23.2868 64.1489L24.9901 62.445C25.1946 62.2405 25.5246 62.2405 25.7276 62.445C25.9321 62.6481 25.9321 62.9796 25.7276 63.1827L24.3923 64.5184L25.7755 65.9021C25.98 66.1052 25.98 66.4367 25.7755 66.6398C25.674 66.7414 25.5401 66.7921 25.4061 66.7921H25.4075ZM19.4218 57.7748C19.3316 57.7748 19.2414 57.7508 19.161 57.7043C19.0411 57.6352 18.9537 57.5209 18.9184 57.3869L18.2952 55.0596C18.2205 54.7817 18.3855 54.4954 18.6632 54.4221C18.941 54.3459 19.2273 54.5123 19.302 54.7902L19.7899 56.614L21.6793 56.1076C21.9571 56.0314 22.2433 56.1979 22.3181 56.4772C22.3928 56.755 22.2278 57.0413 21.9501 57.1161L19.5572 57.7579C19.5121 57.7706 19.467 57.7762 19.4218 57.7762V57.7748ZM11.8456 59.1783C11.6651 59.1783 11.4903 59.0852 11.393 58.9173L9.50212 55.6421C9.35829 55.3925 9.4443 55.0737 9.69247 54.9298C9.94205 54.786 10.2607 54.8706 10.4045 55.1203L12.2954 58.3954C12.4393 58.6451 12.3547 58.9639 12.1051 59.1077C12.0233 59.1557 11.9331 59.1783 11.8442 59.1783H11.8456ZM8.44035 65.077H4.65857C4.37092 65.077 4.13686 64.8428 4.13686 64.5551C4.13686 64.2673 4.37092 64.0332 4.65857 64.0332H8.44035C8.728 64.0332 8.96206 64.2673 8.96206 64.5551C8.96206 64.8428 8.728 65.077 8.44035 65.077ZM9.95333 74.2523C9.8645 74.2523 9.77567 74.2297 9.69247 74.1817C9.44289 74.0379 9.35829 73.7191 9.50212 73.4694L11.393 70.1929C11.5368 69.9432 11.8555 69.8572 12.1051 70.0024C12.3547 70.1463 12.4393 70.4651 12.2954 70.7147L10.4045 73.9913C10.3087 74.1592 10.1324 74.2523 9.95192 74.2523H9.95333ZM20.5442 74.2523C20.3638 74.2523 20.1889 74.1592 20.0916 73.9913L18.2007 70.7147C18.0569 70.4651 18.1415 70.1463 18.3911 70.0024C18.6407 69.8586 18.9593 69.9432 19.1032 70.1929L20.9941 73.4694C21.1379 73.7191 21.0533 74.0379 20.8037 74.1817C20.7219 74.2297 20.6317 74.2523 20.5428 74.2523H20.5442ZM25.839 65.077H22.0572C21.7682 65.077 21.5355 64.8428 21.5355 64.5551C21.5355 64.2673 21.7696 64.0332 22.0572 64.0332H25.839C26.1266 64.0332 26.3607 64.2673 26.3607 64.5551C26.3607 64.8428 26.1266 65.077 25.839 65.077ZM18.6519 59.1783C18.5631 59.1783 18.4743 59.1557 18.3911 59.1077C18.1415 58.9639 18.0569 58.6451 18.2007 58.3954L20.0916 55.1203C20.2354 54.8706 20.5541 54.7845 20.8037 54.9298C21.0533 55.0737 21.1379 55.3925 20.9941 55.6421L19.1032 58.9173C19.0073 59.0852 18.831 59.1783 18.6505 59.1783H18.6519Z" fill="white"/>
<path d="M59.9947 90.9248C59.5492 90.9248 59.0974 91.036 58.6851 91.269C57.4302 91.9793 56.9987 93.5563 57.7236 94.7861C58.4485 96.0158 60.0578 96.4387 61.3127 95.7283C62.5676 95.018 62.9991 93.4409 62.2743 92.2112C61.7881 91.3865 60.9026 90.9248 59.9947 90.9248ZM60.0053 97.5698C58.5684 97.5698 57.169 96.8395 56.4002 95.5352C55.2545 93.591 55.9366 91.0958 57.9206 89.9731C59.9047 88.8515 62.4509 89.5188 63.5966 91.4631C64.7423 93.4074 64.0602 95.9025 62.0762 97.0252C61.4241 97.3945 60.7099 97.5698 60.0053 97.5698ZM60.1092 90.9091C59.6873 90.9091 59.3458 90.5744 59.3458 90.1609V83.0417C59.3458 82.6283 59.6873 82.2936 60.1092 82.2936C60.5311 82.2936 60.8727 82.6283 60.8727 83.0417V90.1609C60.8727 90.5744 60.5311 90.9091 60.1092 90.9091ZM57.1165 89.1379C56.8531 89.1379 56.5961 89.0036 56.4548 88.7633L50.4416 78.5561C50.2306 78.1983 50.3559 77.7409 50.721 77.5342C51.0861 77.3275 51.553 77.4502 51.7639 77.808L57.7772 88.0152C57.9881 88.373 57.8628 88.8305 57.4977 89.0372C57.3778 89.1054 57.2461 89.1369 57.1165 89.1369V89.1379ZM57.2686 89.3593C57.0737 89.3593 56.8777 89.2859 56.7289 89.14C56.4312 88.8473 56.4312 88.3741 56.7289 88.0824L59.4743 85.3921C59.7719 85.0993 60.2559 85.0993 60.5536 85.3921L63.2818 88.0656C63.5805 88.3583 63.5805 88.8315 63.2818 89.1232C62.9841 89.416 62.5002 89.416 62.2025 89.1232L60.015 86.9796L57.8103 89.1411C57.6615 89.2869 57.4656 89.3604 57.2707 89.3604L57.2686 89.3593ZM54.3133 94.1208C53.976 94.1208 53.6677 93.9005 53.5767 93.5658L52.5723 89.8913C52.4631 89.4926 52.7051 89.0823 53.112 88.9753L56.8381 87.9963C57.245 87.8883 57.6637 88.1264 57.7729 88.5252C57.8821 88.9239 57.6401 89.3341 57.2332 89.4412L54.2448 90.226L55.0521 93.1776C55.1613 93.5773 54.9194 93.9876 54.5125 94.0936C54.4461 94.1114 54.3797 94.1198 54.3144 94.1198L54.3133 94.1208ZM57.0448 99.0083C56.9795 99.0083 56.9131 98.9999 56.8467 98.9821L53.097 97.9979C52.901 97.9464 52.734 97.8216 52.6334 97.6495C52.5316 97.4774 52.5049 97.2739 52.5573 97.0819L53.5563 93.4304C53.6655 93.0307 54.0842 92.7935 54.4911 92.9016C54.899 93.0086 55.1399 93.4189 55.0307 93.8176L54.2298 96.7471L57.2418 97.5383C57.6487 97.6453 57.8906 98.0556 57.7814 98.4543C57.6904 98.789 57.381 99.0093 57.0448 99.0093V99.0083ZM59.9839 101.826C59.7891 101.826 59.5931 101.752 59.4443 101.606L56.7161 98.9338C56.4173 98.6411 56.4173 98.1678 56.7161 97.8761C57.0137 97.5834 57.4977 97.5834 57.7954 97.8761L59.9829 100.02L62.1886 97.8594C62.4863 97.5666 62.9702 97.5666 63.2679 97.8594C63.5666 98.1521 63.5666 98.6253 63.2679 98.917L60.5225 101.607C60.3737 101.754 60.1777 101.827 59.9829 101.827L59.9839 101.826ZM62.9617 99.0282C62.6244 99.0282 62.316 98.8079 62.225 98.4732C62.1158 98.0745 62.3578 97.6642 62.7646 97.5572L65.7531 96.7723L64.9457 93.8208C64.8365 93.422 65.0785 93.0118 65.4854 92.9048C65.8933 92.7967 66.312 93.0349 66.4212 93.4336L67.4266 97.1081C67.5358 97.5068 67.2938 97.9171 66.887 98.0241L63.1608 99.0031C63.0944 99.0209 63.028 99.0282 62.9627 99.0293L62.9617 99.0282ZM65.7059 94.1229C65.6406 94.1229 65.5742 94.1146 65.5079 94.0967C65.101 93.9897 64.859 93.5794 64.9682 93.1807L65.7691 90.2522L62.7571 89.4611C62.3492 89.3541 62.1083 88.9438 62.2175 88.5451C62.3267 88.1453 62.7454 87.9071 63.1533 88.0163L66.903 89.0005C67.311 89.1075 67.5519 89.5177 67.4427 89.9165L66.4448 93.5679C66.3537 93.9026 66.0443 94.1229 65.7081 94.1229H65.7059ZM58.1733 81.152L60.137 82.2034L62.1008 81.152L60.137 74.505L58.1733 81.152ZM60.1649 83.7898H60.1103C59.9818 83.7898 59.8565 83.7584 59.7441 83.6986L56.9034 82.1782C56.5897 82.0103 56.4366 81.6504 56.5362 81.3136L59.3544 71.7769V71.7517C59.3533 71.3782 59.6317 71.0613 60.0096 71.0078C60.3876 70.9543 60.7463 71.1819 60.8523 71.5408L63.7401 81.3136C63.8397 81.6504 63.6865 82.0103 63.3728 82.1782L60.5322 83.6986C60.4197 83.7594 60.2944 83.7898 60.166 83.7898H60.1649ZM57.1026 92.484C56.973 92.484 56.8424 92.4515 56.7214 92.3843L50.4298 88.8252C50.0647 88.6185 49.9394 88.1611 50.1503 87.8033C50.3612 87.4455 50.8281 87.3227 51.1932 87.5294L57.4848 91.0885C57.85 91.2952 57.9752 91.7527 57.7643 92.1105C57.623 92.3507 57.366 92.4851 57.1026 92.4851V92.484ZM43.2826 83.8853L48.1748 88.8756L50.085 87.734L50.1385 85.5421L43.2826 83.8853ZM48.0495 90.5754C47.8472 90.5754 47.6469 90.4967 47.4981 90.3456L40.457 83.1729C40.1261 82.9882 39.9858 82.5926 40.1261 82.2464C40.2674 81.9001 40.6486 81.7081 41.017 81.7973L51.099 84.2337C51.447 84.3176 51.6879 84.6272 51.6793 84.9776L51.6022 88.1485C51.599 88.2733 51.5637 88.3961 51.4994 88.5052L51.4716 88.5524C51.4074 88.6605 51.3174 88.7518 51.2082 88.8168L48.4446 90.4673C48.3215 90.5408 48.1844 90.5765 48.0474 90.5765L48.0495 90.5754ZM50.7028 99.3829C50.4383 99.3829 50.1824 99.2486 50.0411 99.0083C49.8302 98.6505 49.9554 98.193 50.3206 97.9863L56.6122 94.4262C56.9773 94.2195 57.4442 94.3422 57.6551 94.7C57.866 95.0578 57.7408 95.5153 57.3756 95.722L51.084 99.2822C50.9641 99.3504 50.8324 99.3818 50.7028 99.3818V99.3829ZM48.0367 97.8887L43.1445 102.88L50.0004 101.222L49.9469 99.0303L48.0356 97.8887H48.0367ZM40.7171 105.023C40.4901 105.023 40.2664 104.924 40.1165 104.738C39.8809 104.443 39.9023 104.025 40.1668 103.755L47.36 96.4187C47.6084 96.1659 48.0024 96.1155 48.3086 96.2981L51.0722 97.9485C51.1814 98.0136 51.2724 98.1049 51.3356 98.213L51.3635 98.2602C51.4277 98.3693 51.463 98.4921 51.4662 98.6169L51.5433 101.788C51.5519 102.139 51.3099 102.448 50.963 102.532L41.1037 104.921C40.9827 104.99 40.851 105.023 40.7193 105.023H40.7171ZM59.8887 104.706C59.4668 104.706 59.1252 104.371 59.1252 103.958V96.8384C59.1252 96.425 59.4668 96.0903 59.8887 96.0903C60.3105 96.0903 60.6521 96.425 60.6521 96.8384V103.958C60.6521 104.371 60.3095 104.706 59.8887 104.706ZM57.8971 105.847L59.8608 112.493L61.8245 105.847L59.8608 104.796L57.8971 105.847ZM59.8801 116C59.5449 116 59.243 115.783 59.1477 115.461L56.2599 105.686C56.1603 105.35 56.3134 104.989 56.6272 104.822L59.4678 103.302C59.5803 103.241 59.7056 103.211 59.834 103.211H59.8897C60.0171 103.211 60.1435 103.242 60.2559 103.302L63.0966 104.822C63.4103 104.989 63.5634 105.35 63.4638 105.686L60.6456 115.225V115.249C60.6467 115.623 60.3683 115.94 59.9914 115.992C59.954 115.997 59.9176 116 59.8811 116H59.8801ZM69.1847 99.5707C69.0552 99.5707 68.9235 99.5382 68.8036 99.471L62.512 95.9119C62.1468 95.7052 62.0215 95.2478 62.2325 94.8889C62.4434 94.5311 62.9103 94.4083 63.2754 94.6151L69.567 98.1741C69.9321 98.3808 70.0574 98.8383 69.8465 99.1972C69.7051 99.4374 69.4482 99.5718 69.1847 99.5718V99.5707ZM69.8593 101.457L76.7152 103.113L71.8231 98.1227L69.9118 99.2643L69.8582 101.457H69.8593ZM79.1629 105.225C79.1019 105.225 79.0409 105.218 78.9788 105.203L68.8978 102.767C68.5498 102.683 68.3089 102.373 68.3175 102.022L68.3946 98.852C68.3978 98.7271 68.432 98.6054 68.4952 98.4973L68.523 98.4501C68.5873 98.341 68.6783 98.2497 68.7875 98.1836L71.5511 96.5331C71.8573 96.3505 72.2514 96.4009 72.4987 96.6538L79.5409 103.828C79.8717 104.013 80.011 104.409 79.8696 104.755C79.7508 105.045 79.467 105.226 79.1608 105.226L79.1629 105.225ZM63.0055 92.6729C62.7411 92.6729 62.4852 92.5386 62.3438 92.2983C62.1329 91.9405 62.2582 91.483 62.6233 91.2763L68.9149 87.7172C69.28 87.5105 69.7469 87.6333 69.9578 87.9911C70.1688 88.3489 70.0435 88.8064 69.6784 89.0131L63.3867 92.5732C63.2668 92.6414 63.1351 92.6729 63.0055 92.6729ZM70.051 87.969L71.9612 89.1106L76.8534 84.1204L69.9974 85.7771L70.051 87.969ZM72.0875 90.8104C71.9515 90.8104 71.8134 90.7748 71.6903 90.7013L68.9267 89.0508C68.8175 88.9858 68.7276 88.8945 68.6633 88.7864L68.6355 88.7392C68.5712 88.6301 68.5359 88.5073 68.5327 88.3825L68.4556 85.2116C68.447 84.8601 68.689 84.5506 69.0359 84.4677L78.8963 82.0785C79.225 81.8896 79.6458 81.9683 79.8814 82.2621C80.117 82.5559 80.0956 82.9746 79.8311 83.2442L72.6389 90.5806C72.4912 90.7317 72.2899 90.8104 72.0875 90.8104ZM53.642 83.2726C53.5649 83.2726 53.4878 83.261 53.4129 83.2379L49.4051 82.003C49.0025 81.8791 48.7798 81.4594 48.9061 81.0649C49.0325 80.6704 49.4608 80.4522 49.8634 80.5749L53.0841 81.5675L53.8583 78.3096C53.9536 77.9067 54.3647 77.658 54.7748 77.7503C55.186 77.8447 55.4408 78.2466 55.3455 78.6485L54.3851 82.6934C54.3369 82.8959 54.2041 83.0711 54.02 83.1739C53.9032 83.239 53.7726 83.2726 53.6409 83.2726H53.642ZM54.0435 94.1397H42.0159C41.5941 94.1397 41.2525 93.805 41.2525 93.3916C41.2525 92.9782 41.5941 92.6435 42.0159 92.6435H54.0435C54.4654 92.6435 54.8069 92.9782 54.8069 93.3916C54.8069 93.805 54.4654 94.1397 54.0435 94.1397ZM44.0268 96.9381C43.8201 96.9381 43.6145 96.8563 43.4636 96.6957C43.1788 96.3914 43.1991 95.9182 43.5096 95.6381L45.9969 93.4011L43.5043 91.1158C43.1959 90.8335 43.1798 90.3603 43.4679 90.0581C43.7559 89.7559 44.2399 89.7412 44.5472 90.0224L47.6416 92.8596C47.7968 93.0023 47.8846 93.2017 47.8836 93.4095C47.8825 93.6172 47.7925 93.8166 47.6362 93.9572L44.5418 96.7408C44.3951 96.8731 44.2099 96.9381 44.0257 96.9381H44.0268ZM50.9116 109.457C50.782 109.457 50.6503 109.424 50.5304 109.357C50.1653 109.15 50.04 108.692 50.251 108.335L56.2642 98.1269C56.4751 97.7691 56.942 97.6464 57.3071 97.8531C57.6722 98.0598 57.7975 98.5172 57.5866 98.875L51.5733 109.083C51.432 109.323 51.175 109.458 50.9116 109.458V109.457ZM54.3904 109.15C54.0403 109.15 53.7255 108.912 53.6463 108.564L52.9128 105.333L49.646 106.307C49.2413 106.426 48.8162 106.203 48.693 105.807C48.5699 105.413 48.798 104.993 49.2016 104.875L53.2565 103.666C53.4599 103.605 53.6795 103.631 53.8636 103.736C54.0467 103.841 54.1773 104.015 54.2234 104.219L55.1356 108.238C55.2277 108.64 54.9676 109.041 54.5564 109.131C54.5007 109.143 54.445 109.149 54.3893 109.149L54.3904 109.15ZM68.8967 109.566C68.6333 109.566 68.3764 109.432 68.235 109.19L62.2218 98.9831C62.0108 98.6253 62.1361 98.1678 62.5012 97.9611C62.8664 97.7544 63.3332 97.8772 63.5441 98.235L69.5584 108.442C69.7694 108.801 69.6441 109.26 69.279 109.464C69.1591 109.533 69.0274 109.566 68.8978 109.566H68.8967ZM65.3976 109.269C65.3398 109.269 65.2819 109.262 65.2241 109.25C64.8129 109.156 64.5581 108.754 64.6534 108.35L65.6139 104.306C65.662 104.102 65.7948 103.928 65.979 103.825C66.1642 103.724 66.3837 103.7 66.5871 103.761L70.5939 104.997C70.9964 105.121 71.2192 105.541 71.0928 105.936C70.9665 106.329 70.5371 106.549 70.1356 106.426L66.9148 105.433L66.1407 108.691C66.0582 109.037 65.7445 109.27 65.3976 109.27V109.269ZM77.9841 94.3559H65.9565C65.5346 94.3559 65.193 94.0212 65.193 93.6078C65.193 93.1944 65.5346 92.8596 65.9565 92.8596H77.9841C78.4059 92.8596 78.7475 93.1944 78.7475 93.6078C78.7475 94.0212 78.4059 94.3559 77.9841 94.3559ZM75.9732 97.1784C75.7858 97.1784 75.5995 97.1112 75.4518 96.9759L72.3563 94.1387C72.201 93.997 72.1132 93.7966 72.1143 93.5889C72.1154 93.3811 72.2053 93.1818 72.3616 93.0412L75.4561 90.2575C75.7666 89.9784 76.2495 89.9983 76.5354 90.3026C76.8202 90.6069 76.7998 91.0801 76.4893 91.3602L74.002 93.5973L76.4947 95.8836C76.802 96.1659 76.818 96.6391 76.53 96.9413C76.3801 97.0986 76.1756 97.1784 75.9721 97.1784H75.9732ZM63.073 89.247C62.9435 89.247 62.8118 89.2145 62.6918 89.1474C62.3267 88.9407 62.2014 88.4832 62.4124 88.1254L68.4256 77.9182C68.6366 77.5604 69.1034 77.4376 69.4685 77.6443C69.8336 77.851 69.9589 78.3085 69.748 78.6663L63.7347 88.8735C63.5934 89.1138 63.3364 89.2481 63.073 89.2481V89.247ZM66.5208 83.3649C66.3869 83.3649 66.2542 83.3303 66.1364 83.2631C65.9522 83.1582 65.8216 82.9819 65.7755 82.7794L64.8633 78.7618C64.7712 78.3589 65.0314 77.9591 65.4425 77.8689C65.8537 77.7797 66.2617 78.0336 66.3537 78.4365L67.0872 81.6661L70.354 80.6935C70.7577 80.5739 71.1838 80.7963 71.307 81.1919C71.4301 81.5875 71.202 82.0051 70.7984 82.1257L66.7435 83.3334C66.6707 83.3555 66.5957 83.3659 66.5218 83.3659L66.5208 83.3649ZM48.0281 74.4535C48.4018 73.8198 49.2284 73.6026 49.8751 73.9688C50.5219 74.335 50.7435 75.145 50.3698 75.7788C49.9961 76.4125 49.1695 76.6297 48.5228 76.2635C47.8761 75.8973 47.6544 75.0873 48.0281 74.4535ZM37.1816 94.1366C36.8079 93.5028 37.0295 92.6928 37.6762 92.3266C38.323 91.9604 39.1496 92.1776 39.5233 92.8114C39.8969 93.4451 39.6753 94.2552 39.0286 94.6213C38.3819 94.9875 37.5553 94.7703 37.1816 94.1366ZM49.1535 113.183C48.4072 113.183 47.8011 112.59 47.8011 111.859C47.8011 111.126 48.4061 110.533 49.1535 110.533C49.8998 110.533 50.5058 111.126 50.5058 111.859C50.5058 112.59 49.9008 113.183 49.1535 113.183ZM71.9719 112.547C71.5982 113.182 70.7716 113.397 70.1249 113.032C69.4781 112.667 69.2565 111.855 69.6302 111.222C70.0039 110.589 70.8305 110.372 71.4772 110.737C72.1239 111.102 72.3456 111.913 71.9719 112.547ZM82.8184 92.8638C83.1921 93.4976 82.9705 94.3076 82.3238 94.6738C81.677 95.04 80.8504 94.8228 80.4767 94.1891C80.1031 93.5553 80.3247 92.7453 80.9714 92.3791C81.6181 92.0129 82.4447 92.2301 82.8184 92.8638ZM70.8465 73.8177C71.5928 73.8177 72.1989 74.4105 72.1989 75.1429C72.1989 75.8742 71.5939 76.4681 70.8465 76.4681C70.1002 76.4681 69.4942 75.8753 69.4942 75.1429C69.4942 74.4116 70.0992 73.8177 70.8465 73.8177Z" fill="white"/>
</svg>
