<svg width="110" height="101" viewBox="0 0 110 101" fill="none" xmlns="http://www.w3.org/2000/svg">
<path fill-rule="evenodd" clip-rule="evenodd" d="M14.8637 34.3917C14.8637 34.8047 14.9924 34.8407 15.2604 34.9353C15.8622 35.1477 16.9363 34.9215 17.2001 34.7086C17.3011 34.627 17.4327 34.4992 17.437 34.3077C17.4579 33.3996 17.6909 32.1246 18.1742 30.3021C18.6008 28.6941 19.3097 26.18 19.637 24.6161C19.637 24.2741 19.3175 24.2628 19.1781 24.2744C17.7925 24.389 17.0794 24.7128 16.875 25.5743C16.681 26.392 16.4342 27.2324 16.1551 28.2354C15.6614 30.0086 15.1171 32.1698 14.8637 34.3918L14.8637 34.3917ZM23.2872 61.6406C23.2872 65.7773 30.5877 66.5785 30.5877 58.8652C30.2868 55.1222 23.2872 55.9811 23.2872 61.6406ZM27.2182 62.9021C24.3406 62.9021 26.3734 57.6037 28.0606 57.6037C30.2318 57.6037 29.1125 62.9021 27.2182 62.9021ZM99.6604 32.878C99.6604 30.2522 100.598 28.4962 101 27.4762C101.325 26.6521 101.223 26.4113 99.827 26.4113C99.3708 26.4113 99.1048 26.4305 98.9206 26.8804C98.5741 27.7269 98.2198 29.0642 98.036 29.8206C97.8225 30.6994 97.772 31.2256 97.7041 31.8465C97.4169 32.3453 95.7847 33.2901 95.4491 32.7941C95.1379 32.0551 95.7531 30.3786 96.0952 29.2909C96.42 28.2587 96.6691 27.697 96.8175 27.2568C97.0825 26.471 96.9622 26.3927 95.7502 26.3927C94.3397 26.416 94.3416 27.0704 94.3411 27.0728L93.5103 31.1243C93.2964 32.1675 92.6902 34.602 94.4908 34.6664C95.462 34.7011 95.7301 34.5152 97.218 33.2078C97.5256 32.9375 97.667 32.8996 97.695 33.3826C98.0023 36.7009 102.022 32.6597 102.125 32.5977C102.601 34.4308 104.261 35.0961 106.378 34.646C107.499 34.4075 108.684 33.9111 109.398 33.0948C109.666 32.7888 110.144 32.1749 109.958 31.7971C109.93 31.7396 109.853 31.7587 109.749 31.837C108.606 32.6968 104.327 35.4886 104.715 31.8688C110.853 31.4098 111.107 25.8127 107.104 26.1987C105.53 26.3504 104.593 26.9344 103.793 27.7603C102.588 29.0029 102.284 30.4934 102.128 31.5623C101.53 32.1466 100.616 33.201 99.6604 32.878L99.6604 32.878ZM104.714 31.1118C104.902 29.816 105.196 28.3506 106.651 27.7853C108.293 27.1481 108.373 28.4867 107.697 29.4105C107.067 30.2716 105.803 30.8013 104.714 31.1118ZM74.1091 45.4931C71.4782 45.4931 65.2125 44.4026 61.3078 44.7952C60.1314 44.9135 59.0843 45.0986 58.5225 45.5741C58.377 45.6966 58.5892 46.1307 58.8751 46.0464C59.2304 46.0266 59.6369 45.9543 59.6864 45.9646C59.8269 45.9938 60.0275 46.0743 60.3321 46.2408C62.9736 48.4368 60.2527 50.8573 58.634 51.4498C58.2759 51.5809 57.9412 51.5754 57.6807 51.3789C57.167 50.9913 57.2585 49.8281 57.5847 47.5498C57.759 46.3329 57.9892 45.1111 58.4059 43.8581C60.5922 43.4004 65.6856 43.3853 65.6856 39.1855C65.6856 37.2719 62.3892 35.2682 59.0232 39.0018C58.3814 39.7137 56.9455 42.025 56.7005 42.9701C53.8493 42.9701 51.5933 43.198 49.1719 43.4933C46.8661 36.8332 36.7894 36.5622 33.5257 38.8167C32.8414 39.2894 32.749 39.473 33.4347 39.9333C34.0878 40.3717 34.5001 40.2468 35.1292 39.9441C36.0478 39.5021 37.4286 38.6809 40.6958 38.6809C45.1405 38.6809 47.3682 41.2827 48.3703 43.7083C45.2584 43.7706 39.0112 46.556 39.0112 50.7915C39.0112 53.9004 43.3987 54.7218 46.6156 52.6492C49.83 50.5781 49.9752 47.5495 49.6329 44.2388C51.7317 44.0429 53.8746 43.9793 56.139 43.9793C55.8123 45.239 53.2642 52.3053 57.5429 52.3053C61.9922 52.3053 65.0733 48.8161 62.597 45.4931C67.1523 45.4931 69.8745 46.5023 74.3899 46.5023C75.3288 50.1233 80.5817 53.1693 84.4981 54.0714C84.0554 55.7789 83.1954 58.9384 83.0402 60.4377C82.9832 60.6031 81.8791 61.9709 81.6432 62.1119C81.4547 62.2245 81.2575 62.2682 81.1287 62.1452C81.2598 60.7298 83.7672 55.8375 81.4095 55.8375C79.5529 55.8375 79.0337 57.2351 78.3416 58.1077C78.6424 55.6125 77.3481 54.6678 74.5164 57.7175C74.4905 57.7453 74.4334 57.8109 74.3899 57.8559C74.3792 57.1967 74.4018 56.5939 74.4761 56.2073C74.5269 55.943 74.309 55.8375 73.5475 55.8375C73.043 55.8375 72.6616 55.9363 72.3727 56.1106C71.9938 56.3392 71.9875 56.4035 71.9792 56.766C71.9475 58.1515 71.6682 59.954 71.1866 61.3979C70.9691 61.6067 68.8453 62.7682 68.4585 62.9227C67.3863 63.3511 66.6213 63.3027 66.1542 62.9077C64.6435 61.6304 65.9354 57.1685 67.7894 56.6325C68.3343 56.4751 68.4826 56.6056 68.5173 56.8467C68.5737 57.2395 68.2738 58.0398 68.2259 58.5474C68.1979 58.8449 68.2765 59.0522 68.6076 59.0522C70.5363 59.0522 71.1742 57.5052 70.4455 56.4717C70.0908 55.9687 69.6097 55.8375 68.4935 55.8375C66.244 55.8375 64.1572 57.6301 63.555 59.2214C62.9585 60.7973 63.1115 60.7516 63.036 61.701C58.3853 65.3098 58.0807 62.7718 58.1046 61.6405C63.597 60.4907 64.3236 55.6552 61.4065 55.6552C59.5425 55.6552 58.2395 56.4517 57.3373 57.4188C55.8334 59.3004 55.2131 61.7041 56.0888 63.1836C57.0798 64.8576 59.8701 65.3432 63.3149 62.4539C63.6708 63.6517 64.9784 64.6446 66.4917 64.5866C68.0899 64.5254 69.469 63.546 70.6458 62.9865C70.5768 63.7651 70.4288 64.1359 70.6096 64.3199C70.8231 64.5372 72.914 64.4381 72.9653 63.6959C73.0077 61.9859 74.5384 57.4285 76.0746 57.8559C76.4602 58.1803 74.5475 62.4793 74.5097 63.9164C74.5017 64.2198 74.5862 64.4164 74.8374 64.4164C75.3106 64.4164 77.0529 64.5256 77.0417 63.8048C77.0217 62.5189 78.0109 60.1858 78.5019 59.2801C79.1131 58.1528 79.4688 57.4452 80.0057 57.6037C80.3641 57.7657 79.0913 60.2052 78.8009 62.5815C78.7615 62.9037 78.5813 64.3343 78.9749 64.4331C79.4512 64.5955 79.8435 64.5064 80.1441 64.4067C80.4747 64.2971 80.9332 63.9842 81.3495 63.6049C81.9372 63.0696 82.5784 62.4693 82.9854 61.6598C82.9854 66.831 91.237 64.1253 91.237 58.8652C91.237 54.8346 86.9004 56.0572 86.4637 56.0899L86.787 54.5845C93.576 54.5449 98.7432 55.0992 102.468 48.7731C105.288 48.7731 107.197 47.9374 108.302 45.5215C109.252 43.4445 108.383 41.4219 106.146 40.1246C102.784 38.1749 96.6924 38.2095 90.6011 43.6602C88.3143 45.7065 85.6233 50.0576 84.7789 53.3145C80.8055 52.1623 77.6593 50.9765 75.5131 46.5023C86.6258 46.5023 88.1718 36.417 81.0788 36.417C75.823 36.417 73.1107 41.4742 74.1092 45.4931L74.1091 45.4931ZM58.9468 42.7178C59.8587 41.1691 60.6991 37.924 63.1585 37.924C65.412 37.924 65.2421 42.7178 58.9468 42.7178ZM74.9514 44.2316C74.9514 37.2179 82.8896 35.1851 83.5459 39.5235C83.9035 41.8877 81.6752 43.8848 78.7803 44.804C77.426 45.234 76.3957 45.3642 75.0734 45.4538C75.0144 45.0816 74.9515 44.876 74.9515 44.2316H74.9514ZM96.291 45.4932C96.291 47.7775 98.329 48.5896 100.784 48.7731C98.3555 52.8964 92.0608 53.5668 87.0251 53.5668C87.405 52.17 87.7485 51.2532 89.0832 48.8562C91.5448 44.4357 95.3651 39.9424 101.907 39.9424C109.872 39.9424 108.547 47.9002 102.749 48.0161C103.108 45.9038 101.896 42.6268 98.9161 42.9122C97.5552 43.0426 96.291 44.0588 96.291 45.4931L96.291 45.4932ZM101.345 48.0162C98.9043 47.9673 96.4887 47.0347 97.4493 44.7878C98.5028 42.3237 102.87 43.7478 101.345 48.0162ZM40.5821 51.7219C38.5473 49.7471 42.6679 44.9244 48.5577 44.4839C48.5577 46.9575 48.4717 48.2055 47.4824 49.8252C46.1145 52.0647 42.7305 53.8071 40.5821 51.7219ZM58.3852 60.6314C58.5281 59.088 59.4712 56.8468 61.193 56.8468C62.7203 56.8468 61.5822 58.5951 61.1295 59.0587C60.4792 59.7248 59.1241 60.4211 58.3852 60.6314V60.6314ZM85.4068 62.483C85.2214 60.6515 85.5448 59.0501 86.0168 57.2296C87.3002 56.5106 88.7098 56.7773 88.7098 59.1175C88.7098 59.9083 88.2718 61.7223 87.2668 62.8052C86.1738 63.9827 85.5578 63.9749 85.4068 62.483L85.4068 62.483ZM58.2288 14.9948C57.6617 13.8501 56.0119 10.3504 55.7823 6.80137C55.6231 4.34065 56.3235 1.05704 58.1938 1.09696C59.4867 1.12454 60.9122 2.87956 60.9122 5.88151C60.9122 8.7377 60.0989 12.9719 58.2288 14.9948ZM43.4388 15.0639C44.09 15.7493 44.3181 16.8652 44.346 17.9921C43.3742 17.53 41.758 16.6095 41.6457 15.6353C41.5379 14.6994 42.4986 14.0742 43.4388 15.0639V15.0639ZM73.9424 18.2065C73.7472 16.5167 73.7748 15.1531 74.5938 14.6151C75.4075 14.0805 76.1281 14.2444 76.3842 14.7068C76.9849 15.7915 75.8093 17.568 73.9424 18.2065ZM89.2714 24.0474C90.3234 21.9851 91.618 19.3584 93.547 17.3395C94.3015 16.5499 95.1529 15.8533 96.1249 15.3197C100.321 13.0162 103.016 13.4443 103.721 14.9561C105.005 17.7073 100.187 24.0474 89.2714 24.0474H89.2714ZM60.4551 31.0414C60.5675 29.8272 61.4156 28.0206 62.6126 27.5471C64.8673 26.6552 63.4418 30.4161 60.4551 31.0414ZM41.2574 31.1118C41.514 28.3409 44.6268 26.9958 44.6268 28.3365C44.6268 29.9415 42.7097 30.8078 41.2574 31.1118ZM57.4376 0.0785023C57.9841 -0.0706693 59.2368 -0.103106 60.3021 0.87894C63.6943 4.0062 61.7982 10.4638 60.0378 14.1786C59.7258 14.8369 59.3253 15.3309 58.9468 15.9736C62.1529 20.2758 67.7811 20.1015 72.6423 18.9546C72.2382 17.7589 72.1488 16.4599 72.5242 15.2475C73.0328 13.6045 74.8984 12.4212 76.4571 13.0934C77.8394 13.6203 77.8902 15.699 76.8057 17.1669C76.1415 18.066 75.2186 18.8024 74.3899 19.0013C75.6557 20.6998 77.3728 21.6406 79.5572 22.4318C81.2992 23.0629 84.7327 23.7951 87.0251 23.7951C88.9189 19.6987 93.5266 14.3005 98.4916 12.9048C103.022 11.6315 105.125 13.2097 105.122 15.5893C105.118 18.5241 101.909 22.6779 96.0941 24.2044C93.6478 24.8466 91.2508 24.8455 88.9617 24.833L88.4186 26.1218C90.8303 25.9306 92.038 26.1796 92.5271 27.7824C92.8082 29.2682 92.4623 30.9925 91.5026 32.3767C90.6205 33.649 89.4445 34.5024 88.0907 34.6372C85.9968 34.8456 85.1909 33.9896 84.9938 32.5697C84.9686 32.3881 84.8946 32.3476 84.803 32.3779C84.6502 32.4285 84.4484 32.6761 84.343 32.7937C84.0614 33.1078 83.1379 33.901 82.2495 34.3403C81.4294 34.7459 80.6392 34.8499 80.4124 33.9965C80.006 32.4681 81.4095 30.3407 81.4095 28.3365C79.7037 29.3629 79.3848 31.4122 78.981 33.219C78.8484 33.8317 78.7737 34.1072 78.4575 34.2464C78.269 34.3294 77.9947 34.3639 77.5711 34.3926C77.2862 34.4027 77.0709 34.3974 76.9098 34.3707C76.3716 34.2816 76.4367 33.9545 76.529 33.166C76.76 31.1924 78.4311 27.9199 77.6975 27.9089C77.2439 27.9022 76.5799 28.8928 76.1725 29.6482C74.9032 32.0012 75.2402 33.3468 74.7861 34.0366C74.5211 34.4393 74.0446 34.3782 72.7634 34.4038C72.6062 34.3969 72.4495 34.3733 72.4653 34.154C72.4976 33.7059 72.8548 32.8997 72.6319 32.9625C71.7803 33.7334 70.3909 34.664 68.4865 34.6661C66.6516 34.6682 65.9209 33.6597 65.384 32.4206C64.9371 33.4521 60.6295 36.5187 58.1045 33.1303C57.0705 33.65 56.0257 34.5901 54.2558 34.6255C53.6709 34.6377 53.8617 33.9334 53.7986 33.2521C53.1478 33.5615 49.7061 35.5218 49.685 33.9952C49.6835 33.8824 49.6889 33.707 49.6809 33.3826C48.9507 33.822 46.794 34.9681 45.9176 34.6072C45.5218 34.4442 45.6684 33.9089 45.6507 33.1962C44.6284 33.9679 43.8541 34.7099 41.7623 34.7619C40.5043 34.7932 39.2934 34.2477 38.8029 32.7569C38.4473 32.9709 36.8869 34.543 35.7961 34.5562C35.3967 34.5611 34.921 34.5023 34.7886 33.8845C34.6319 33.1533 35.1321 31.8612 35.5179 30.6553C35.7314 29.9876 36.3976 28.8335 35.9328 28.7199C35.6275 28.6879 35.1956 29.0021 34.892 29.2532C34.1247 29.8882 33.6305 30.9252 33.379 31.8541C33.1272 32.7841 33.1005 33.5793 32.9502 34.0316C32.8441 34.3507 32.6652 34.5111 32.1534 34.586C32.0044 34.6078 31.8273 34.6223 31.6155 34.6314C30.8251 34.6653 30.8748 34.3927 30.9104 33.7243C31.0007 32.0266 31.4894 30.9735 31.927 29.7132C32.1676 29.0201 32.2836 28.7001 32.1659 28.5775C31.908 28.3087 30.9215 29.0966 30.4559 29.7321C29.3418 31.2532 29.321 32.6888 28.9731 33.8422C28.8539 34.2377 28.817 34.3955 28.3335 34.4624C27.8654 34.5272 27.2604 34.5708 26.9738 34.4308C26.3786 34.1399 28.2151 28.6024 28.2203 27.5311C28.2234 26.8958 28.5713 26.5601 29.8649 26.5111C30.6192 26.4824 30.5588 26.7947 30.4791 27.4152L30.3801 28.1862L30.8373 27.5517C30.8689 27.517 30.9276 27.4507 30.9632 27.4124C32.3866 25.881 34.5595 25.5756 34.1963 28.5043C35.6583 26.9684 37.628 25.599 38.2 26.7505C38.3738 27.1005 38.4085 27.7897 38.2673 28.5977C38.144 29.3027 37.2962 32.1563 37.0456 32.6257C37.0348 32.7619 37.1042 32.8376 37.2221 32.8607C37.6397 32.9426 38.6143 32.162 38.9063 31.4933C39.3559 28.3485 41.5771 26.8508 43.2439 26.5463C45.1274 26.2023 46.7788 27.463 46.2495 29.0646C45.5 31.3324 42.3088 31.8007 40.9876 32.1956C41.0629 35.2381 45.3366 32.8836 45.9979 31.5871C46.698 30.2149 46.7435 28.1531 47.1538 26.5704C47.1565 26.2554 49.6844 25.695 49.5046 26.319C49.2908 28.6281 48.1945 30.9891 47.9962 33.1303C48.0274 33.7442 49.3715 32.808 49.9002 32.5235C49.9571 32.4009 50.1147 31.2386 50.18 30.9638C50.6409 29.0256 51.0726 26.839 51.3152 26.7219C51.8212 26.3438 52.9744 25.9468 53.5385 26.1359C53.8594 26.2435 53.8294 26.4888 53.6418 27.1679C53.1202 29.0566 52.0627 30.9895 52.0627 33.1024C52.1463 33.386 53.4039 33.1914 53.869 32.427C54.2782 30.3065 55.285 28.1201 55.285 27.0292C55.1749 26.7661 55.8212 26.2487 57.1117 26.1041C57.9146 26.0142 57.934 26.3909 57.7103 27.2455C57.0507 29.7648 55.9374 32.3161 56.0691 33.0916C56.2039 33.366 57.2012 32.9387 57.8236 32.6257C57.8236 28.9936 59.6061 26.4093 63.1878 26.3621C64.4541 26.3454 65.1743 26.7553 65.3857 27.4051C65.5533 27.9202 65.4011 28.5861 64.9477 29.3097C64.0263 30.7798 61.5058 31.5225 60.3928 31.7383C60.3928 35.1576 64.5704 32.5609 65.3884 31.4174C65.4325 28.0594 68.2257 25.3333 72.1044 26.1475C73.3385 26.4066 73.4182 28.9578 70.9235 29.0793C70.2818 29.1105 69.9342 28.7762 70.4248 28.1832C71.204 27.2416 70.9287 25.9138 69.3266 27.0703C67.2448 28.5732 67.1695 32.5905 68.4933 33.3826C69.6553 33.8861 72.1781 32.6158 72.9299 31.7698C73.3953 30.3702 73.8593 28.7029 73.8593 26.948C73.8921 26.472 75.448 26.1591 75.9971 26.2814C76.2509 26.338 76.3982 26.4829 76.343 26.774C76.2359 27.3391 76.1166 27.6082 76.1166 28.438C76.8079 27.436 77.9466 26.3182 78.8984 26.2983C80.2437 26.3182 80.1662 27.3869 80.0054 28.5417C80.4892 27.9491 81.4558 27.1452 82.2787 26.6232C83.044 26.1379 83.7599 26.1809 84.0305 26.8659C84.1695 27.2178 84.1491 27.7602 84.0452 28.4433C83.8049 30.0241 83.0348 31.9521 82.8132 32.6257C82.6322 33.4839 84.5495 32.3092 84.8444 31.3519C84.78 29.3921 85.3356 27.2358 86.4634 24.8043C82.7319 24.5253 75.205 23.0501 73.2665 19.7582C68.0912 21.5869 61.2952 20.9627 57.5427 17.4875C54.3762 19.7985 49.6836 21.3718 44.6266 19.7582C43.8158 21.1353 43.6392 21.5071 42.1919 22.4265C35.893 26.4276 26.4168 23.3818 19.7556 21.67C16.0671 20.7232 9.29923 18.7274 6.91785 22.2063C5.59184 24.1432 6.71251 26.6585 9.22904 26.5817C11.4147 26.5151 14.2481 24.2152 15.014 24.7648C15.1923 24.8928 15.2644 25.176 15.2746 25.5931C15.3668 29.3877 12.3251 36.6504 10.7005 38.4724C9.01619 40.3612 7.40008 41.5091 3.62073 41.4735C2.41909 41.4622 1.59077 41.2804 1.03183 40.914C-1.011 39.5748 0.26966 35.5494 2.35376 36.504C2.66376 36.6718 2.63796 37.3667 2.1625 38.3008C1.58439 39.4366 2.30828 40.4231 3.59806 40.7129C4.83307 40.9904 6.59378 40.6206 7.9221 39.5081C10.9625 36.962 12.5129 30.6773 12.5129 26.8041C2.50359 31.5631 0.604638 19.8835 10.0848 19.501C18.2635 19.1711 23.3601 22.4602 31.4518 23.2706C36.9335 23.8197 41.7785 22.912 43.7843 19.5059C42.379 18.6604 41.8301 18.512 40.6129 17.3093C37.1987 13.9359 45.1882 10.1215 45.1882 18.4967C49.9341 20.6674 54.7624 18.4062 56.9811 16.4783C55.4259 14.3913 54.3087 10.9709 53.9308 7.86399C53.5867 5.03397 55.1606 0.890211 57.4375 0.0785322L57.4376 0.0785023ZM87.3059 33.8872C86.2529 33.5956 87.0115 28.7923 88.05 27.0016C90.1373 26.3655 90.5341 28.092 90.3773 29.5419C90.2259 30.9414 89.5632 32.4763 89.0211 33.1183C88.5877 33.6315 88.0238 33.9485 87.3059 33.8872ZM21.3328 33.3732C21.244 33.2894 21.3375 32.9778 21.3925 32.6586C21.566 31.6535 22.1584 29.9175 22.3402 27.984C22.4312 27.0162 22.6355 26.702 21.4443 26.8806C20.9187 26.9594 20.2999 27.1512 20.2876 27.4852C20.2646 28.1059 20.1757 28.6911 19.8926 29.8463C19.0214 33.4009 18.2904 36.5703 23.2872 33.6349C22.9117 35.0831 22.5284 36.5189 22.164 37.924C18.3748 37.924 14.9663 38.1613 12.0092 40.1529C6.47614 43.8792 5.76261 52.81 12.3366 52.81C14.691 52.81 16.4975 51.5937 17.3945 50.2902C18.8274 48.2077 17.9509 46.8967 17.3907 44.7362C19.8115 43.5853 22.5895 42.1288 23.2872 39.4379C26.63 39.5047 31.5103 42.3103 33.0302 44.8122C33.6108 45.768 33.8831 46.1225 34.0169 47.4619C34.0992 48.2863 34.0864 49.2209 33.6011 50.2179C31.8565 53.802 26.2673 53.757 23.9619 50.6899C23.1497 49.6093 22.3469 48.2001 22.222 46.2615C22.1792 45.5969 21.9136 45.2544 20.7097 45.7254C19.5957 46.1613 19.6154 46.5732 19.6967 46.9611C20.4542 50.5786 19.7521 60.3534 18.7324 64.3688C16.5756 63.9958 7.52513 61.7733 2.97045 68.3626C-2.59364 76.4123 9.64607 80.0994 16.1862 73.1734C18.1675 71.0751 19.3728 68.24 20.3756 65.7247C24.4573 66.5792 29.9778 69.1621 32.8332 70.0692C32.0978 70.621 29.8665 72.4488 29.1218 73.4434C26.8231 76.5138 26.538 80.3667 29.6661 83.1575C36.0517 88.8548 45.9259 82.3781 49.223 76.7789C50.0055 77.0276 51.0847 77.434 52.2079 77.7881C46.8873 86.8235 48.8362 101 63.4392 101C63.6571 101 63.6779 100.304 63.4392 100.243C56.5702 100.243 51.3655 95.8988 51.3655 89.6463C51.0543 85.3102 52.172 82.1743 54.2979 78.5642C57.2571 79.4397 74.9785 88.1228 85.8684 80.7855C86.6835 80.2363 87.3527 79.7358 87.9739 79.0036C88.6373 78.8471 94.116 80.2913 102.639 77.689C106.648 76.2534 108.122 73.8267 107.953 71.6372C107.666 67.9181 102.639 64.8833 97.2434 68.5517C95.9164 69.454 95.005 70.3651 94.3765 71.2013C94.1023 71.5661 94.4219 72.0889 95.0722 71.6294C95.2668 71.4919 95.5062 71.3021 95.7946 71.0521C97.893 69.0479 102.074 67.1467 104.567 68.5015C107.729 70.2193 107.004 74.4626 103.279 76.0707C101.353 76.9022 98.835 77.3129 96.474 77.4523C93.3835 77.6348 90.8254 77.3796 88.9697 77.1527C90.1865 73.5902 87.7392 70.6885 85.1791 69.1023C79.6692 65.6883 69.2485 66.5308 63.3998 68.4175C61.6833 68.9713 61.2452 69.3526 60.4406 69.7101C58.17 68.9451 55.7925 68.2879 53.482 67.6307C53.9305 65.9007 55.5103 58.874 56.0737 56.0498C56.2308 55.2624 56.4442 54.9339 55.645 55.0188C54.7354 55.1155 54.0815 55.3154 53.8015 55.6624C53.6566 55.8419 53.667 55.9476 53.5611 56.412C53.1535 58.1985 52.726 61.4303 52.3829 62.7157C50.6087 63.0898 49.3232 62.6155 49.1734 60.8863C49.0832 59.8452 49.5582 58.7006 50.031 57.9185C50.7514 56.7267 51.2286 56.7644 52.0366 56.8245C52.5006 56.8468 52.6619 56.4918 52.4061 56.2674C52.0956 55.9949 51.648 56.0462 51.2567 56.0315C49.8833 55.9799 48.3594 56.8958 47.5651 58.7391C47.1366 59.7334 47.1219 60.908 47.1219 62.0707C44.5348 63.6273 42.0995 64.1341 42.0995 60.6314C42.0995 58.9067 42.7418 57.0885 44.2446 56.5873C44.4659 56.5135 44.8732 56.493 44.9696 56.7437C44.9357 58.1101 43.829 58.8655 45.2027 59.0445C46.2877 59.1858 47.2823 58.0652 47.2265 57.1102C47.1868 56.4322 46.7256 55.8376 44.9073 55.8376C41.7404 55.8376 41.1004 57.9888 40.0528 59.5011C39.721 59.9801 39.3017 60.2776 38.8086 60.5743C38.9646 59.2733 39.2533 58.2936 39.5208 56.9973C39.7129 56.0668 40.0233 55.1613 38.9701 55.4598C38.5442 55.5804 38.1871 55.6912 37.9355 55.7537C37.2855 55.9152 37.2427 56.19 37.2281 56.6392C37.1953 57.653 37.0424 58.1044 36.8426 59.0065C36.7548 59.5448 36.196 59.9996 35.3814 60.5323C35.2146 58.4342 33.554 56.5953 31.7528 56.0162C31.5239 55.9426 30.9967 55.7465 30.8882 55.8859C30.7246 56.096 30.6535 56.1345 30.887 56.3425C31.8173 57.171 32.9893 57.6702 32.9893 60.6455C32.9893 61.9389 32.3895 63.5346 30.8505 63.9835C30.6849 64.0318 30.5621 64.1249 30.6794 64.4007C30.7287 64.5168 30.9462 64.5352 31.2183 64.5081C32.1194 64.4183 33.1909 64.0589 33.896 63.5558C34.5431 63.0942 35.0748 62.4417 35.37 61.5592C35.7121 61.1588 36.2653 60.8035 36.421 60.7098C36.3321 61.6686 36.0458 62.8259 35.7111 63.8531C35.4765 64.5729 35.7229 64.7259 36.5199 64.5729C36.8971 64.5005 37.2027 64.4455 37.4321 64.3708C37.7154 64.2786 37.8826 64.1843 37.9554 63.9604C38.2079 63.1848 38.2087 62.6498 38.3826 62.0892C38.7539 61.6365 39.0913 61.2268 39.5465 60.9775C39.5465 62.0846 39.7241 62.8167 40.2757 63.5317C42.0977 65.8939 45.772 63.6959 47.4344 62.7995C48.5481 64.6905 50.2995 65.1383 52.2486 63.8187C52.0046 65.1079 51.8952 65.8552 51.5943 67.2466C47.7152 66.4876 41.9585 65.6675 34.6009 69.0942C29.9521 67.7469 25.8204 65.7741 20.7599 64.9205C21.8973 61.2358 22.4084 55.6812 22.4084 51.9773C22.4161 51.354 22.4486 51.1516 23.0878 52.0496C24.4047 53.7034 25.8695 54.6885 28.9961 54.6885C33.9563 54.6885 37.643 49.7835 35.3799 45.3483C33.4868 41.6382 28.4237 38.4974 24.1294 38.1763C25.1131 34.3821 26.2494 31.1124 26.6382 27.1314C26.7197 26.2963 26.3275 26.3128 25.4203 26.4904C24.7485 26.6219 24.3628 26.8025 24.2532 27.1266C24.1614 27.3982 24.3523 27.6573 24.3513 28.0957C24.3477 29.6454 24.2488 30.7493 23.8718 32.106C23.6833 32.7838 21.7576 33.5952 21.3326 33.3732H21.3328ZM15.1445 44.4839C15.2941 46.0994 16.2676 46.0294 16.2676 48.2685C16.2676 53.1674 8.68648 52.7753 8.68648 48.0162C8.68648 45.0271 10.4748 42.3808 12.4488 41.0525C15.183 39.2126 17.0202 38.9333 21.6026 38.9333C21.49 40.1491 20.2605 41.645 19.2803 42.3972C18.348 43.1127 16.5493 44.3789 15.1445 44.484V44.4839ZM7.84416 76.0219C-0.632008 76.0219 2.0211 64.6682 12.3366 64.6682C13.9357 64.6682 17.2462 64.9996 18.2331 65.4252C18.16 68.3746 15.0489 73.3441 12.1565 74.8508C11.2373 75.3295 9.12099 76.0219 7.84416 76.0219V76.0219ZM48.7452 74.7365C47.222 73.9593 39.0122 70.9759 35.632 69.5838C40.4036 66.7801 46.7614 66.9789 51.2819 68.2285C50.922 69.8965 49.4191 73.592 48.7452 74.7365ZM72.6896 67.8969C79.1011 67.8969 89.8727 68.9206 87.826 76.9978C83.2753 76.9978 67.6017 72.6651 62.3694 70.5929C64.6329 68.8455 70.5094 67.8968 72.6896 67.8968V67.8969ZM53.3103 76.3581C52.5453 76.0913 51.1356 75.5413 50.4091 75.2277C50.7845 74.5368 52.4394 71.4993 53.2273 68.8455C54.7948 69.1737 57.3871 70.1154 58.666 70.7235C56.3903 72.6629 54.8701 73.81 53.3103 76.3581ZM29.3646 81.1577C27.9323 78.8911 28.5866 75.6223 30.3401 73.5288C30.9935 72.7488 33.2917 70.9013 33.7489 70.6116C38.3512 72.4428 43.2106 74.3318 47.7154 76.2742C47.1615 78.1383 43.6748 81.5151 40.0509 83.3432C36.0515 85.3608 31.8152 85.0358 29.3646 81.1577ZM86.4636 78.7972C84.0564 82.0273 78.623 82.5818 74.1091 82.5818C66.7394 82.5818 56.5382 77.7503 55.1929 77.2461C56.0238 75.835 59.4796 72.2198 60.9483 71.414C68.7555 73.8288 74.6314 76.7788 86.4636 78.7972ZM91.8126 61.6406C91.8126 65.7774 99.113 66.5786 99.113 58.8653C98.8122 55.1222 91.8126 55.9811 91.8126 61.6406ZM95.7436 62.9021C92.866 62.9021 94.8988 57.6038 96.586 57.6038C98.7572 57.6038 97.6379 62.9021 95.7436 62.9021Z" fill="#E21E26"/>
</svg>
