<svg width="300" height="275" viewBox="0 0 300 275" fill="none" xmlns="http://www.w3.org/2000/svg">
<path fill-rule="evenodd" clip-rule="evenodd" d="M40.5375 93.6409C40.5375 94.7653 40.8882 94.8632 41.6193 95.1208C43.2606 95.6993 46.19 95.0833 46.9093 94.5035C47.1849 94.2813 47.5437 93.9333 47.5555 93.4119C47.6124 90.9394 48.248 87.4679 49.5661 82.5056C50.7294 78.1275 52.6629 71.2823 53.5555 67.024C53.5555 66.0929 52.6842 66.0622 52.304 66.0936C48.5251 66.4056 46.5802 67.2874 46.0228 69.6329C45.4937 71.8594 44.8206 74.1477 44.0593 76.8784C42.7128 81.7067 41.2285 87.591 40.5374 93.641L40.5375 93.6409ZM63.5106 167.833C63.5106 179.097 83.4209 181.278 83.4209 160.277C82.6003 150.085 63.5106 152.424 63.5106 167.833ZM74.2315 171.268C66.3835 171.268 71.9274 156.842 76.5289 156.842C82.4504 156.842 79.3977 171.268 74.2315 171.268ZM271.801 89.5192C271.801 82.3698 274.358 77.5886 275.455 74.8115C276.341 72.5677 276.061 71.912 272.256 71.912C271.011 71.912 270.286 71.9643 269.784 73.1893C268.838 75.4941 267.872 79.1353 267.371 81.1948C266.789 83.5876 266.651 85.0202 266.466 86.7108C265.683 88.0689 261.231 90.6412 260.316 89.291C259.467 87.2788 261.145 82.7139 262.078 79.7526C262.964 76.9421 263.643 75.4126 264.048 74.214C264.77 72.0745 264.442 71.8613 261.137 71.8613C257.29 71.9248 257.295 73.7064 257.294 73.7131L255.028 84.7443C254.445 87.5848 252.792 94.2134 257.702 94.3887C260.351 94.4833 261.082 93.977 265.14 90.4173C265.979 89.6814 266.365 89.5782 266.441 90.8931C267.279 99.9283 278.243 88.925 278.523 88.7562C279.82 93.7473 284.349 95.5587 290.122 94.333C293.18 93.6839 296.411 92.3322 298.358 90.1097C299.088 89.2764 300.391 87.6049 299.887 86.5763C299.81 86.4197 299.6 86.4716 299.316 86.6848C296.197 89.0258 284.529 96.6274 285.585 86.7714C302.325 85.5217 303.02 70.2821 292.102 71.333C287.809 71.7462 285.254 73.3362 283.071 75.5849C279.785 78.9682 278.956 83.0266 278.53 85.9369C276.899 87.5278 274.407 90.3988 271.801 89.5193L271.801 89.5192ZM285.585 84.7103C286.097 81.1822 286.897 77.1921 290.868 75.6531C295.344 73.9181 295.564 77.5628 293.72 80.078C292.001 82.4226 288.554 83.8648 285.585 84.7103V84.7103ZM202.116 123.867C194.94 123.867 177.852 120.898 167.203 121.967C163.995 122.289 161.139 122.793 159.607 124.088C159.21 124.421 159.789 125.603 160.569 125.374C161.537 125.32 162.646 125.123 162.781 125.151C163.164 125.231 163.711 125.45 164.542 125.903C171.746 131.882 164.326 138.473 159.911 140.086C158.934 140.443 158.021 140.428 157.311 139.893C155.91 138.838 156.16 135.67 157.049 129.467C157.525 126.154 158.152 122.827 159.289 119.416C165.251 118.17 179.142 118.128 179.142 106.693C179.142 101.483 170.152 96.0272 160.972 106.193C159.222 108.131 155.306 114.425 154.638 116.998C146.862 116.998 140.709 117.618 134.105 118.422C127.817 100.288 100.335 99.5504 91.4337 105.689C89.5675 106.976 89.3155 107.476 91.1857 108.729C92.9666 109.923 94.0913 109.583 95.807 108.759C98.3123 107.555 102.078 105.319 110.988 105.319C123.111 105.319 129.186 112.404 131.919 119.008C123.432 119.177 106.394 126.761 106.394 138.294C106.394 146.758 118.36 148.995 127.133 143.352C135.9 137.713 136.296 129.466 135.362 120.452C141.087 119.919 146.931 119.746 153.106 119.746C152.215 123.176 145.266 142.415 156.935 142.415C169.07 142.415 177.473 132.915 170.719 123.867C183.143 123.867 190.567 126.615 202.882 126.615C205.442 136.474 219.768 144.768 230.449 147.224C229.242 151.873 226.896 160.476 226.473 164.558C226.318 165.008 223.306 168.733 222.663 169.117C222.149 169.423 221.611 169.542 221.26 169.207C221.618 165.353 228.456 152.033 222.026 152.033C216.962 152.033 215.546 155.838 213.659 158.214C214.479 151.42 210.949 148.848 203.226 157.152C203.156 157.227 203 157.406 202.882 157.528C202.852 155.734 202.914 154.092 203.117 153.04C203.255 152.32 202.661 152.033 200.584 152.033C199.208 152.033 198.168 152.302 197.38 152.776C196.347 153.399 196.33 153.574 196.307 154.561C196.22 158.333 195.459 163.241 194.145 167.173C193.552 167.741 187.76 170.903 186.705 171.324C183.781 172.49 181.695 172.359 180.421 171.283C176.301 167.805 179.824 155.657 184.88 154.198C186.366 153.769 186.771 154.124 186.865 154.781C187.019 155.85 186.201 158.029 186.071 159.411C185.994 160.221 186.209 160.786 187.112 160.786C192.372 160.786 194.112 156.574 192.124 153.76C191.157 152.39 189.845 152.033 186.8 152.033C180.666 152.033 174.974 156.914 173.332 161.246C171.705 165.537 172.122 165.413 171.916 167.998C159.233 177.824 158.402 170.913 158.467 167.833C173.446 164.702 175.428 151.536 167.472 151.536C162.389 151.536 158.835 153.705 156.374 156.338C152.273 161.462 150.581 168.006 152.97 172.034C155.672 176.592 163.282 177.915 172.677 170.048C173.648 173.309 177.214 176.012 181.341 175.855C185.7 175.688 189.461 173.021 192.67 171.498C192.482 173.618 192.079 174.627 192.572 175.128C193.154 175.72 198.856 175.45 198.996 173.429C199.112 168.774 203.286 156.365 207.476 157.528C208.528 158.412 203.311 170.117 203.208 174.03C203.186 174.856 203.417 175.391 204.102 175.391C205.393 175.391 210.144 175.689 210.114 173.726C210.059 170.225 212.757 163.872 214.096 161.406C215.763 158.337 216.733 156.41 218.197 156.842C219.175 157.283 215.703 163.925 214.912 170.395C214.804 171.272 214.313 175.168 215.386 175.437C216.685 175.879 217.755 175.636 218.575 175.365C219.476 175.066 220.727 174.214 221.862 173.182C223.465 171.724 225.214 170.09 226.324 167.886C226.324 181.966 248.828 174.598 248.828 160.277C248.828 149.302 237.001 152.631 235.81 152.72L236.692 148.621C255.207 148.513 269.3 150.022 279.459 132.798C287.149 132.798 292.357 130.523 295.37 123.945C297.96 118.289 295.59 112.782 289.49 109.25C280.321 103.942 263.707 104.036 247.094 118.877C240.857 124.448 233.518 136.296 231.215 145.163C220.379 142.026 211.798 138.797 205.945 126.615C236.252 126.615 240.468 99.1551 221.124 99.1551C206.79 99.1551 199.393 112.925 202.116 123.867L202.116 123.867ZM160.764 116.311C163.251 112.094 165.543 103.258 172.25 103.258C178.396 103.258 177.933 116.311 160.764 116.311ZM204.413 120.433C204.413 101.336 226.062 95.8011 227.852 107.613C228.828 114.051 222.751 119.488 214.855 121.991C211.162 123.162 208.352 123.516 204.746 123.76C204.585 122.747 204.413 122.187 204.413 120.433H204.413ZM262.612 123.868C262.612 130.087 268.17 132.298 274.864 132.798C268.242 144.025 251.075 145.85 237.341 145.85C238.377 142.047 239.314 139.551 242.954 133.024C249.668 120.988 260.087 108.754 277.928 108.754C299.652 108.754 296.037 130.421 280.225 130.737C281.203 124.986 277.898 116.063 269.771 116.84C266.06 117.195 262.612 119.962 262.612 123.867L262.612 123.868ZM276.396 130.737C269.739 130.604 263.151 128.065 265.771 121.947C268.644 115.238 280.555 119.115 276.396 130.737ZM110.678 140.827C105.129 135.45 116.367 122.319 132.43 121.12C132.43 127.854 132.196 131.253 129.497 135.663C125.767 141.76 116.538 146.504 110.678 140.827ZM159.232 165.085C159.622 160.883 162.194 154.781 166.89 154.781C171.055 154.781 167.951 159.541 166.717 160.803C164.943 162.617 161.248 164.513 159.232 165.086V165.085ZM232.928 170.127C232.422 165.14 233.304 160.78 234.591 155.823C238.091 153.865 241.936 154.592 241.936 160.964C241.936 163.117 240.741 168.056 238 171.004C235.02 174.21 233.34 174.189 232.928 170.127L232.928 170.127ZM158.806 40.8275C157.259 37.7107 152.76 28.1819 152.134 18.5186C151.699 11.8186 153.609 2.87807 158.71 2.98676C162.237 3.06185 166.124 7.84039 166.124 16.014C166.124 23.7908 163.906 35.3195 158.806 40.8275V40.8275ZM118.47 41.0156C120.245 42.8817 120.867 45.9201 120.944 48.9883C118.293 47.7302 113.885 45.2239 113.579 42.5714C113.285 40.0232 115.905 38.321 118.47 41.0156V41.0156ZM201.661 49.5721C201.129 44.9711 201.204 41.2585 203.438 39.7935C205.657 38.338 207.622 38.7842 208.321 40.0432C209.959 42.9966 206.753 47.8337 201.661 49.5721ZM243.467 65.4755C246.337 59.8604 249.867 52.7085 255.128 47.2114C257.186 45.0615 259.508 43.1649 262.159 41.7121C273.603 35.4402 280.952 36.6057 282.876 40.7222C286.378 48.213 273.238 65.4755 243.467 65.4755H243.467ZM164.878 84.5186C165.184 81.2127 167.497 76.2936 170.762 75.0045C176.911 72.576 173.023 82.8161 164.878 84.5186ZM112.52 84.7104C113.22 77.1659 121.709 73.5035 121.709 77.1539C121.709 81.524 116.481 83.8826 112.52 84.7104ZM156.648 0.213744C158.138 -0.192416 161.555 -0.280735 164.46 2.39315C173.712 10.908 168.541 28.4905 163.74 38.6052C162.889 40.3975 161.796 41.7425 160.764 43.4925C169.508 55.2065 184.857 54.7319 198.115 51.6092C197.013 48.3534 196.77 44.8165 197.793 41.5155C199.18 37.0419 204.268 33.8202 208.519 35.6502C212.289 37.0849 212.428 42.7447 209.47 46.7415C207.659 49.1897 205.142 51.1948 202.882 51.7362C206.334 56.3608 211.017 58.9223 216.974 61.0768C221.725 62.7949 231.089 64.7885 237.341 64.7885C242.506 53.6352 255.072 38.937 268.613 35.1369C280.968 31.67 286.705 35.9671 286.697 42.4461C286.686 50.4369 277.934 61.7469 262.075 65.903C255.403 67.6515 248.866 67.6485 242.623 67.6146L241.142 71.1236C247.719 70.6032 251.013 71.2811 252.347 75.6451C253.113 79.6906 252.17 84.3854 249.552 88.1545C247.147 91.6186 243.939 93.9423 240.247 94.3091C234.537 94.8765 232.339 92.5461 231.801 88.6798C231.733 88.1854 231.531 88.0752 231.281 88.1577C230.864 88.2953 230.314 88.9696 230.026 89.2898C229.258 90.1451 226.74 92.3046 224.317 93.5007C222.08 94.6051 219.925 94.8882 219.306 92.5647C218.198 88.4031 222.026 82.6108 222.026 77.154C217.374 79.9485 216.504 85.5284 215.403 90.4478C215.041 92.1161 214.837 92.8662 213.975 93.2451C213.461 93.4711 212.713 93.5651 211.558 93.6433C210.781 93.6706 210.193 93.6562 209.754 93.5836C208.286 93.3411 208.464 92.4502 208.715 90.3034C209.345 84.9299 213.903 76.0195 211.902 75.9897C210.665 75.9712 208.854 78.6686 207.743 80.7253C204.282 87.132 205.201 90.7958 203.962 92.6739C203.239 93.7703 201.94 93.6039 198.446 93.6737C198.017 93.655 197.589 93.5906 197.633 92.9935C197.721 91.7736 198.695 89.5784 198.087 89.7494C195.764 91.8483 191.975 94.3822 186.781 94.388C181.777 94.3936 179.784 91.6476 178.32 88.2739C177.101 91.0826 165.353 99.4321 158.467 90.2064C155.647 91.6214 152.797 94.1808 147.97 94.2772C146.375 94.3105 146.896 92.3928 146.724 90.5378C144.948 91.3803 135.562 96.7178 135.505 92.5611C135.5 92.2542 135.515 91.7764 135.493 90.8932C133.502 92.0895 127.62 95.2102 125.23 94.2276C124.15 93.7837 124.55 92.3261 124.502 90.3856C121.714 92.4868 119.602 94.5072 113.897 94.6488C110.466 94.7339 107.164 93.2488 105.826 89.1895C104.856 89.7721 100.601 94.0527 97.6258 94.0888C96.5365 94.102 95.239 93.9419 94.878 92.2597C94.4505 90.2688 95.8148 86.7509 96.8669 83.4673C97.4493 81.6494 99.2662 78.5071 97.9987 78.1979C97.1659 78.1106 95.988 78.966 95.1601 79.6499C93.0672 81.3789 91.7194 84.2023 91.0336 86.7315C90.347 89.2636 90.2741 91.4288 89.8641 92.6603C89.5749 93.5293 89.087 93.966 87.691 94.1698C87.2848 94.2291 86.8017 94.2687 86.2242 94.2934C84.0684 94.3857 84.2039 93.6434 84.301 91.8235C84.5475 87.2011 85.8801 84.3337 87.0735 80.9022C87.7298 79.015 88.046 78.1438 87.7253 77.8101C87.0217 77.0782 84.3315 79.2234 83.0617 80.9538C80.0231 85.0954 79.9664 89.004 79.0176 92.1446C78.6924 93.2214 78.5918 93.6511 77.2731 93.8332C75.9967 94.0096 74.3465 94.1284 73.565 93.7472C71.9416 92.9552 76.9502 77.878 76.9645 74.9608C76.9729 73.2311 77.9217 72.3172 81.4497 72.1836C83.5069 72.1056 83.3423 72.956 83.1249 74.6454L82.8548 76.7445L84.1018 75.0171C84.188 74.9225 84.348 74.7419 84.445 74.6378C88.3272 70.468 94.2531 69.6365 93.2627 77.6108C97.2499 73.4288 102.622 69.7003 104.182 72.8356C104.656 73.7884 104.75 75.6649 104.365 77.865C104.029 79.7847 101.717 87.5544 101.033 88.8323C101.004 89.2033 101.193 89.4093 101.515 89.4722C102.654 89.6951 105.312 87.5698 106.108 85.749C107.334 77.1864 113.392 73.1085 117.938 72.2796C123.075 71.3429 127.578 74.7756 126.135 79.1363C124.091 85.3111 115.388 86.586 111.784 87.6614C111.99 95.9454 123.645 89.5344 125.449 86.0044C127.358 82.2683 127.482 76.6545 128.601 72.3451C128.609 71.4875 135.503 69.9617 135.013 71.6607C134.429 77.9478 131.439 84.3762 130.899 90.2063C130.984 91.8777 134.65 89.3288 136.091 88.5541C136.247 88.2202 136.676 85.0557 136.855 84.3074C138.112 79.0302 139.289 73.0764 139.951 72.7577C141.331 71.7281 144.476 70.6472 146.014 71.1621C146.889 71.455 146.807 72.1229 146.296 73.972C144.873 79.1146 141.989 84.3774 141.989 90.1302C142.217 90.9024 145.647 90.3727 146.915 88.2914C148.032 82.5177 150.777 76.5646 150.777 73.5945C150.477 72.8779 152.24 71.4691 155.759 71.0756C157.949 70.8309 158.002 71.8563 157.392 74.1833C155.593 81.0427 152.556 87.9893 152.916 90.1009C153.283 90.8481 156.003 89.6845 157.701 88.8324C157.701 78.9431 162.562 71.9066 172.33 71.778C175.784 71.7325 177.748 72.8487 178.325 74.6178C178.782 76.0204 178.367 77.8335 177.13 79.8036C174.617 83.8063 167.743 85.8287 164.708 86.4161C164.708 95.7261 176.101 88.6558 178.332 85.5425C178.452 76.3993 186.07 68.9767 196.648 71.1937C200.014 71.8991 200.231 78.8456 193.428 79.1762C191.678 79.2612 190.73 78.351 192.068 76.7364C194.193 74.1726 193.442 70.5573 189.073 73.7063C183.395 77.7982 183.19 88.7365 186.8 90.8932C189.969 92.2641 196.849 88.8053 198.9 86.5019C200.169 82.6911 201.435 78.1516 201.435 73.3733C201.524 72.0772 205.767 71.2254 207.265 71.5584C207.957 71.7123 208.359 72.1069 208.208 72.8995C207.916 74.4382 207.591 75.1709 207.591 77.4301C209.476 74.702 212.582 71.6584 215.178 71.6043C218.846 71.6584 218.635 74.5684 218.197 77.7125C219.516 76.0991 222.152 73.9101 224.396 72.489C226.484 71.1677 228.436 71.2845 229.174 73.1497C229.553 74.1078 229.498 75.5846 229.214 77.4446C228.559 81.7489 226.459 86.9982 225.854 88.8325C225.361 91.1691 230.59 87.9706 231.394 85.3641C231.218 80.028 232.733 74.1569 235.809 67.5365C225.632 66.7769 205.105 62.7602 199.818 53.7971C185.703 58.7763 167.169 57.0768 156.935 47.6144C148.299 53.9068 135.501 58.1906 121.709 53.7971C119.498 57.5466 119.016 58.5589 115.069 61.0621C97.89 71.9564 72.0458 63.6633 53.8789 59.0025C43.8195 56.4246 25.3615 50.9904 18.8669 60.4626C15.2505 65.7365 18.3069 72.5851 25.1701 72.376C31.131 72.1945 38.8583 65.9325 40.9473 67.429C41.4335 67.7773 41.6303 68.5486 41.6579 69.6842C41.9093 80.0161 33.6139 99.7907 29.1831 104.752C24.5896 109.894 20.182 113.02 9.87471 112.923C6.59752 112.892 4.33848 112.397 2.81409 111.4C-2.75728 107.753 0.735438 96.7929 6.41935 99.3921C7.26479 99.8489 7.19443 101.741 5.89772 104.284C4.32105 107.377 6.29532 110.063 9.81288 110.852C13.1811 111.607 17.983 110.601 21.6057 107.572C29.8978 100.639 34.126 83.5274 34.126 72.9813C6.82798 85.9391 1.64901 54.1382 27.504 53.0968C49.8095 52.1985 63.7093 61.1539 85.7777 63.3606C100.728 64.8556 113.941 62.3841 119.412 53.1102C115.579 50.808 114.082 50.4041 110.762 47.1293C101.451 37.9443 123.241 27.5585 123.241 50.3624C136.184 56.2727 149.352 50.1159 155.403 44.8665C151.161 39.1844 148.115 29.8713 147.084 21.4118C146.145 13.7064 150.438 2.42384 156.648 0.213825L156.648 0.213744ZM238.107 92.2671C235.235 91.473 237.304 78.3949 240.136 73.5192C245.829 71.7871 246.911 76.4882 246.484 80.4358C246.071 84.2463 244.263 88.4255 242.785 90.1736C241.603 91.5708 240.065 92.434 238.107 92.2671V92.2671ZM58.1803 90.8677C57.9381 90.6395 58.1931 89.791 58.3433 88.9219C58.8163 86.1852 60.432 81.4586 60.9278 76.1942C61.176 73.5591 61.7332 72.7035 58.4845 73.1898C57.0511 73.4044 55.3634 73.9266 55.3298 74.836C55.2672 76.5258 55.0246 78.1193 54.2525 81.2646C51.8764 90.9431 49.8828 99.5725 63.5105 91.5801C62.4865 95.5233 61.4411 99.4326 60.4474 103.258C50.1131 103.258 40.8171 103.904 32.7523 109.327C17.6622 119.473 15.7162 143.79 33.6453 143.79C40.0664 143.79 44.9933 140.478 47.4395 136.929C51.3474 131.259 48.957 127.689 47.4293 121.807C54.0314 118.673 61.6078 114.707 63.5105 107.38C72.6272 107.562 85.9372 115.201 90.0822 122.013C91.6659 124.616 92.4086 125.581 92.7733 129.228C92.9979 131.473 92.9629 134.017 91.6392 136.732C86.8813 146.491 71.638 146.368 65.3506 138.017C63.1356 135.075 60.9461 131.238 60.6054 125.959C60.4886 124.15 59.7642 123.217 56.481 124.5C53.4429 125.687 53.4967 126.808 53.7181 127.864C55.7843 137.714 53.8693 164.329 51.0884 175.261C45.2061 174.246 20.5231 168.195 8.10124 186.136C-7.07356 208.053 26.3075 218.092 44.1441 199.234C49.5478 193.521 52.8348 185.802 55.5699 178.953C66.7018 181.28 81.7576 188.313 89.545 190.783C87.5393 192.285 81.4541 197.262 79.4231 199.97C73.154 208.33 72.3764 218.82 80.9075 226.419C98.3228 241.931 125.252 224.297 134.245 209.051C136.379 209.729 139.322 210.835 142.385 211.799C127.874 236.401 133.19 275 173.016 275C173.61 275 173.667 273.106 173.016 272.939C154.282 272.939 140.088 261.111 140.088 244.087C139.239 232.28 142.287 223.742 148.085 213.912C156.156 216.296 204.487 239.938 234.187 219.961C236.41 218.465 238.235 217.102 239.929 215.109C241.738 214.683 256.68 218.615 279.924 211.53C290.858 207.621 294.879 201.013 294.418 195.052C293.636 184.926 279.925 176.662 265.209 186.651C261.59 189.107 259.105 191.588 257.39 193.865C256.643 194.858 257.514 196.282 259.288 195.031C259.819 194.656 260.471 194.139 261.258 193.459C266.981 188.002 278.384 182.825 285.184 186.514C293.807 191.191 291.828 202.745 281.669 207.123C276.416 209.387 269.55 210.505 263.111 210.885C254.682 211.382 247.706 210.687 242.645 210.069C245.963 200.369 239.289 192.469 232.307 188.15C217.28 178.854 188.859 181.148 172.909 186.285C168.227 187.793 167.032 188.831 164.838 189.805C158.645 187.722 152.161 185.933 145.86 184.143C147.083 179.433 151.392 160.301 152.928 152.611C153.357 150.467 153.939 149.573 151.759 149.804C149.278 150.067 147.495 150.611 146.731 151.556C146.336 152.045 146.365 152.333 146.076 153.597C144.964 158.461 143.798 167.261 142.862 170.76C138.024 171.779 134.518 170.488 134.109 165.78C133.863 162.945 135.159 159.828 136.448 157.699C138.413 154.454 139.714 154.557 141.918 154.72C143.183 154.781 143.623 153.814 142.926 153.203C142.079 152.461 140.858 152.601 139.791 152.561C136.045 152.421 131.889 154.914 129.723 159.933C128.554 162.64 128.514 165.838 128.514 169.004C121.459 173.243 114.817 174.623 114.817 165.086C114.817 160.39 116.569 155.439 120.667 154.074C121.271 153.873 122.381 153.817 122.644 154.5C122.552 158.221 119.534 160.277 123.28 160.765C126.239 161.15 128.952 158.098 128.799 155.498C128.691 153.652 127.433 152.033 122.475 152.033C113.837 152.033 112.092 157.89 109.235 162.008C108.33 163.312 107.186 164.122 105.842 164.93C106.267 161.388 107.055 158.72 107.784 155.191C108.308 152.657 109.154 150.192 106.282 151.004C105.121 151.333 104.147 151.635 103.46 151.805C101.688 152.244 101.571 152.992 101.531 154.216C101.442 156.976 101.025 158.205 100.48 160.661C100.24 162.127 98.7163 163.365 96.4948 164.816C96.0399 159.103 91.5109 154.096 86.5984 152.519C85.9743 152.319 84.5365 151.785 84.2406 152.164C83.7945 152.737 83.6005 152.842 84.2373 153.408C86.7745 155.664 89.9707 157.023 89.9707 165.124C89.9707 168.646 88.3349 172.99 84.1376 174.213C83.6862 174.344 83.3513 174.597 83.671 175.348C83.8055 175.665 84.3986 175.715 85.1409 175.641C87.5983 175.396 90.5206 174.418 92.4437 173.048C94.2084 171.791 95.6586 170.015 96.4636 167.612C97.3968 166.521 98.9054 165.554 99.3299 165.299C99.0876 167.91 98.3066 171.061 97.3938 173.857C96.754 175.817 97.4262 176.234 99.5996 175.817C100.629 175.62 101.462 175.47 102.087 175.267C102.86 175.016 103.316 174.759 103.515 174.15C104.203 172.038 104.205 170.581 104.68 169.055C105.692 167.822 106.613 166.707 107.854 166.028C107.854 169.042 108.339 171.036 109.843 172.982C114.812 179.414 124.833 173.43 129.367 170.989C132.404 176.138 137.18 177.357 142.496 173.764C141.831 177.274 141.532 179.309 140.712 183.097C130.132 181.03 114.432 178.798 94.3662 188.128C81.6876 184.459 70.4193 179.088 56.618 176.764C59.7199 166.731 61.1137 151.607 61.1137 141.522C61.1347 139.825 61.2236 139.274 62.9667 141.719C66.5584 146.222 70.5531 148.904 79.0802 148.904C92.6082 148.904 102.663 135.549 96.4905 123.473C91.3276 113.371 77.5191 104.82 65.8075 103.945C68.4903 93.6145 71.5893 84.7121 72.6495 73.8725C72.8719 71.5989 71.8022 71.6438 69.3281 72.1273C67.4959 72.4853 66.444 72.9771 66.1452 73.8596C65.8948 74.5991 66.4153 75.3044 66.4125 76.4981C66.4027 80.7178 66.1331 83.7233 65.1048 87.4172C64.5909 89.2629 59.3388 91.4722 58.1798 90.8677H58.1803ZM41.3033 121.12C41.7111 125.518 44.3663 125.328 44.3663 131.424C44.3663 144.763 23.6904 143.695 23.6904 130.737C23.6904 122.599 28.5675 115.393 33.9513 111.776C41.4083 106.767 46.4187 106.006 58.9161 106.006C58.609 109.317 55.2559 113.39 52.5827 115.438C50.0401 117.386 45.1345 120.834 41.3033 121.12V121.12ZM21.3932 206.99C-1.72366 206.99 5.51208 176.077 33.6454 176.077C38.0063 176.077 47.0351 176.979 49.7266 178.138C49.5274 186.169 41.0425 199.699 33.154 203.802C30.6471 205.105 24.8754 206.99 21.3932 206.99V206.99ZM132.941 203.49C128.787 201.374 106.397 193.251 97.1781 189.461C110.192 181.827 127.531 182.368 139.86 185.771C138.878 190.312 134.779 200.374 132.941 203.49ZM198.244 184.868C215.73 184.868 245.107 187.655 239.525 209.648C227.114 209.648 184.368 197.851 170.098 192.208C176.272 187.451 192.298 184.868 198.244 184.868V184.868ZM145.392 207.906C143.305 207.179 139.461 205.682 137.479 204.828C138.503 202.947 143.017 194.676 145.165 187.451C149.44 188.344 156.51 190.908 159.998 192.564C153.792 197.844 149.646 200.968 145.392 207.906V207.906ZM80.0852 220.974C76.1789 214.802 77.9634 205.902 82.7457 200.202C84.5276 198.078 90.7955 193.048 92.0423 192.259C104.594 197.245 117.847 202.388 130.133 207.677C128.622 212.753 119.113 221.947 109.23 226.925C98.3223 232.418 86.7687 231.533 80.0852 220.974V220.974ZM235.81 214.547C229.245 223.342 214.426 224.851 202.116 224.851C182.016 224.851 154.195 211.696 150.526 210.324C152.792 206.481 162.217 196.638 166.223 194.444C187.515 201.019 203.54 209.051 235.81 214.547V214.547ZM250.398 167.833C250.398 179.097 270.308 181.278 270.308 160.277C269.488 150.085 250.398 152.424 250.398 167.833ZM261.119 171.268C253.271 171.268 258.815 156.842 263.416 156.842C269.338 156.842 266.285 171.268 261.119 171.268Z" fill="#E21E26"/>
</svg>
