<svg width="42" height="42" viewBox="0 0 42 42" fill="none" xmlns="http://www.w3.org/2000/svg">
<circle cx="21" cy="21" r="20.5" fill="#E21E26" stroke="#E21E26"/>
<path d="M17.1077 29.3976C14.9377 28.5976 13.2177 26.7276 12.7077 24.2976L11.0477 16.4876C10.8077 15.4076 11.4977 14.3476 12.5777 14.1176L22.3477 12.0476L22.3777 12.0376C23.4477 11.8276 24.4977 12.5176 24.7177 13.5776L25.0677 15.2476L29.4177 16.1776H29.4477C30.4977 16.4176 31.1777 17.4776 30.9577 18.5376L29.2977 26.3576C28.4977 30.1276 24.7777 32.5476 20.9977 31.7376C19.4177 31.4076 18.0777 30.5576 17.1077 29.3976ZM28.9977 18.1276L19.2277 16.0476L17.5677 23.8676V23.8976C16.9977 26.5776 18.7277 29.2176 21.4177 29.7876C24.1077 30.3576 26.7677 28.6376 27.3377 25.9476L28.9977 18.1276ZM24.9977 26.4476C24.3677 27.5176 23.1077 28.1076 21.8277 27.8376C20.5577 27.5676 19.6477 26.5176 19.4977 25.2876L24.9977 26.4476ZM17.4677 15.1176L12.9977 16.0776L14.6577 23.8876L14.6677 23.9176C14.8177 24.6276 15.1177 25.2676 15.5277 25.8176C15.4277 25.0476 15.4477 24.2476 15.6177 23.4476L16.0477 21.4476C15.5977 21.3676 15.2077 21.1176 14.9977 20.7576C15.0577 20.1476 15.5577 19.6076 16.2477 19.4476C16.3277 19.4476 16.3977 19.4476 16.4977 19.4476L17.2777 15.6376C17.3177 15.4476 17.3777 15.2776 17.4677 15.1176ZM24.0277 22.1776C24.3477 21.6476 25.0277 21.3676 25.7177 21.5176C26.4077 21.6576 26.9077 22.1876 26.9977 22.8076C26.6677 23.3276 25.9977 23.6076 25.2977 23.4476C24.6077 23.3176 24.1077 22.7876 24.0277 22.1776ZM19.1477 21.1376C19.4677 20.6076 20.1377 20.3276 20.8277 20.4776C21.4977 20.6176 22.0277 21.1576 22.1077 21.7676C21.7777 22.2876 21.1077 22.5776 20.4177 22.4476C19.7277 22.2776 19.2277 21.7476 19.1477 21.1376ZM20.9677 14.3776L22.9277 14.7976L22.7677 13.9976L20.9677 14.3776Z" fill="white"/>
</svg>
