<svg width="300" height="192" viewBox="0 0 300 192" fill="none" xmlns="http://www.w3.org/2000/svg">
<path d="M145.385 17.4544C150.01 4.44418 141.467 0.586289 141.467 0.586289C141.467 0.586289 132.942 -3.27161 126.223 8.80508C119.859 20.2679 117.391 46.9918 117.391 46.9918L119.343 49.5879L122.583 49.3364C122.583 49.3364 140.99 29.8125 145.385 17.4544Z" fill="#FF7A05"/>
<path d="M136.322 143.972C130.78 122.718 141.254 100.218 140.742 77.898C140.231 55.5776 131.053 47.8448 121.986 43.7482C112.919 39.6515 101.038 37.8867 83.961 52.2739C66.884 66.6611 56.9259 89.3608 37.3253 99.2847C17.7246 109.209 8.58507 112.022 0.0124512 122.973C0.0124512 122.973 11.7993 155.823 61.3039 178.173C110.809 200.524 143.24 187.637 143.24 187.637C145.777 173.953 141.855 165.223 136.322 143.972Z" fill="#FFB405"/>
<path d="M61.2957 178.16C110.796 200.51 143.232 187.624 143.232 187.624C86.5915 108.509 0 122.96 0 122.96C0 122.96 11.7911 155.81 61.2957 178.16Z" fill="#FF9705"/>
<g style="mix-blend-mode:screen">
<g style="mix-blend-mode:screen">
<path d="M89.887 55.2283C96.5158 50.7054 101.866 51.7967 101.111 57.0784C100.114 64.0269 83.0067 80.473 75.7044 78.9085C69.3869 77.5359 79.3108 62.4454 89.887 55.2283Z" fill="#615B4A"/>
</g>
</g>
<g style="mix-blend-mode:screen">
<g style="mix-blend-mode:screen">
<path d="M72.8181 85.2343C72.9286 84.5699 72.8399 83.8878 72.5632 83.2738C72.2865 82.6598 71.8342 82.1415 71.2633 81.7842C70.6924 81.4269 70.0286 81.2466 69.3554 81.2661C68.6822 81.2855 68.0299 81.5039 67.4806 81.8936C66.9314 82.2833 66.5098 82.8269 66.2691 83.4559C66.0283 84.0848 65.9792 84.771 66.1278 85.4278C66.2765 86.0846 66.6163 86.6828 67.1045 87.1467C67.5926 87.6107 68.2072 87.9198 68.8707 88.035C69.314 88.1119 69.7681 88.1004 70.2069 88.0011C70.6456 87.9018 71.0605 87.7166 71.4274 87.4563C71.7943 87.196 72.1061 86.8656 72.3448 86.4842C72.5834 86.1029 72.7443 85.6781 72.8181 85.2343V85.2343Z" fill="#615B4A"/>
</g>
</g>
<path d="M67.5708 130.416C66.4126 132.523 65.4151 134.715 64.5868 136.972C58.4354 154.267 69.7789 159.382 69.7789 159.382C69.7789 159.382 81.1224 164.498 90.0147 148.473C91.1759 146.338 92.1735 144.118 92.9987 141.832C84.8954 137.246 76.3827 133.424 67.5708 130.416V130.416Z" fill="#FF7A05"/>
<path d="M148.565 17.855C143.194 5.13457 151.502 0.803501 151.502 0.803501C151.502 0.803501 159.811 -3.54036 167.194 8.1271C174.206 19.2105 178.213 45.7426 178.213 45.7426L176.414 48.4495L173.162 48.3813C173.162 48.3813 153.659 29.9402 148.565 17.855Z" fill="#FF7A05"/>
<path d="M164.9 143.639C169.193 122.103 157.453 100.243 156.682 77.9358C155.91 55.6282 164.623 47.3753 173.447 42.7629C182.271 38.1505 194.024 35.7036 211.898 49.0677C229.773 62.4318 241.027 84.5475 261.164 93.3119C281.302 102.076 290.578 104.37 299.782 114.81C299.782 114.81 289.905 148.286 241.773 173.45C193.641 198.613 160.514 187.619 160.514 187.619C157.189 174.115 160.603 165.175 164.9 143.639Z" fill="#FFB405"/>
<g style="mix-blend-mode:screen">
<g style="mix-blend-mode:screen">
<path d="M162.769 72.3259C163.025 64.3074 167.057 60.6286 170.868 64.35C175.894 69.2523 179.096 92.7663 173.528 97.7411C168.716 102.047 162.364 85.123 162.769 72.3259Z" fill="#615B4A"/>
</g>
</g>
<g style="mix-blend-mode:screen">
<g style="mix-blend-mode:screen">
<path d="M176.947 103.802C176.476 103.321 175.873 102.99 175.214 102.851C174.555 102.712 173.87 102.771 173.244 103.021C172.619 103.271 172.081 103.701 171.7 104.256C171.318 104.811 171.109 105.466 171.1 106.14C171.09 106.813 171.281 107.474 171.646 108.04C172.012 108.605 172.537 109.05 173.155 109.317C173.773 109.585 174.457 109.663 175.12 109.543C175.782 109.423 176.395 109.109 176.879 108.641C177.202 108.328 177.461 107.955 177.64 107.542C177.818 107.129 177.913 106.685 177.92 106.236C177.926 105.786 177.844 105.339 177.677 104.922C177.51 104.504 177.262 104.124 176.947 103.802V103.802Z" fill="#615B4A"/>
</g>
</g>
<path d="M141.519 32.2375L142.516 34.2283C142.516 34.2283 142.265 44.7831 130.58 61.4296C118.896 78.0761 112.446 90.741 110.971 106.642C110.971 106.642 103.643 101.547 101.781 89.249C101.781 89.249 86.626 99.4373 82.5251 106.019C82.5251 106.019 81.161 82.7908 101.529 61.6854C121.897 40.5799 132.303 29.8247 132.303 29.8247L141.519 32.2375Z" fill="#E21E26"/>
<g style="mix-blend-mode:multiply">
<g style="mix-blend-mode:multiply">
<path d="M123.013 48.1211C123.013 48.1211 108.289 55.4916 106.388 76.8144C106.371 76.8315 120.903 67.142 123.013 48.1211Z" fill="#E21E26"/>
</g>
</g>
<path d="M151.997 32.2382L151.008 34.229C151.008 34.229 151.26 44.7838 162.944 61.4303C174.629 78.0768 181.061 90.7503 182.553 106.642C182.553 106.642 189.881 101.548 191.744 89.2497C191.744 89.2497 206.898 99.438 210.999 106.02C210.999 106.02 212.363 82.7915 191.996 61.6861C171.628 40.5806 161.239 29.8169 161.239 29.8169L151.997 32.2382Z" fill="#E21E26"/>
<g style="mix-blend-mode:multiply">
<g style="mix-blend-mode:multiply">
<path d="M170.502 48.1211C170.502 48.1211 185.226 55.4916 187.127 76.8144C187.144 76.8315 172.612 67.142 170.502 48.1211Z" fill="#E21E26"/>
</g>
</g>
<g style="mix-blend-mode:multiply">
<g style="mix-blend-mode:multiply">
<path d="M196.263 66.5153C194.958 64.8954 193.537 63.2826 192 61.6769C182.101 51.4176 174.57 43.6223 169.407 38.2909L158.511 34.7783C158.511 34.7783 153.898 33.0262 151.899 32.4209L151.008 34.2283C151.008 34.2283 151.187 41.6244 158.089 53.7949C165.118 58.4457 177.583 64.5714 196.263 66.5153Z" fill="#E21E26"/>
</g>
</g>
<g style="mix-blend-mode:multiply">
<g style="mix-blend-mode:multiply">
<path d="M142.516 34.2294L141.557 32.3154C138.863 32.2515 133.973 32.5584 133.973 32.5584L126.466 35.8451C121.408 41.0855 113.094 49.6965 101.524 61.678C99.6729 63.5998 97.9268 65.6205 96.2939 67.7313C116.283 65.0926 129.118 57.7732 136.587 51.7029C142.358 40.7772 142.516 34.2294 142.516 34.2294Z" fill="#E21E26"/>
</g>
</g>
<path d="M141.629 24.9106C141.629 24.9106 125.482 5.78311 84.6177 6.40549C84.6177 6.40549 79.2764 14.4794 83.2493 34.7237C87.2223 54.968 101.153 63.1655 101.153 63.1655C101.153 63.1655 125.746 55.714 142.503 34.2292V28.6363L141.629 24.9106Z" fill="#E21E26"/>
<g style="mix-blend-mode:multiply">
<g style="mix-blend-mode:multiply">
<path d="M136.676 27.0253C136.676 27.0253 125.375 14.7269 102.893 18.7085C102.893 18.7085 119.164 27.767 136.676 27.0253Z" fill="#E21E26"/>
</g>
</g>
<g style="mix-blend-mode:multiply">
<g style="mix-blend-mode:multiply">
<path d="M136.676 29.3652C136.676 29.3652 114.569 29.4889 100.655 49.3623C100.655 49.4007 117.549 52.9815 136.676 29.3652Z" fill="#E21E26"/>
</g>
</g>
<path d="M151.86 24.9106C151.86 24.9106 168.008 5.78311 208.872 6.40549C208.872 6.40549 214.213 14.4794 210.24 34.7237C206.267 54.968 192.336 63.1655 192.336 63.1655C192.336 63.1655 167.744 55.714 150.986 34.2292V28.6363L151.86 24.9106Z" fill="#E21E26"/>
<g style="mix-blend-mode:multiply">
<g style="mix-blend-mode:multiply">
<path d="M156.839 27.0249C156.839 27.0249 168.14 14.7265 190.622 18.6995C190.622 18.708 174.351 27.7666 156.839 27.0249Z" fill="#E21E26"/>
</g>
</g>
<g style="mix-blend-mode:multiply">
<g style="mix-blend-mode:multiply">
<path d="M156.839 29.3652C156.839 29.3652 178.946 29.4889 192.86 49.3623C192.86 49.4007 175.967 52.9815 156.839 29.3652Z" fill="#E21E26"/>
</g>
</g>
<path d="M154.376 22.4881C154.376 22.4881 146.66 21.141 141.08 24.2998C141.08 24.2998 139.23 28.9889 142.175 36.79C142.175 36.79 147.419 39.5395 155.557 36.79C155.557 36.79 158.455 29.3641 154.376 22.4881Z" fill="#E21E26"/>
<g style="mix-blend-mode:screen">
<g style="mix-blend-mode:screen">
<path d="M85.9859 15.7241C86.604 11.0946 89.1575 9.19764 91.1525 11.5806C93.7784 14.718 94.2474 28.534 90.7262 31.0874C87.6825 33.2828 84.9969 23.0988 85.9859 15.7241Z" fill="#E21E26"/>
</g>
</g>
<g style="mix-blend-mode:screen">
<g style="mix-blend-mode:screen">
<path d="M92.3506 34.7823C92.1057 34.4728 91.7744 34.2429 91.3988 34.1217C91.0231 34.0006 90.62 33.9935 90.2404 34.1015C89.8607 34.2095 89.5217 34.4277 89.2661 34.7285C89.0105 35.0293 88.8498 35.3991 88.8045 35.7912C88.7591 36.1833 88.8311 36.58 89.0113 36.9311C89.1915 37.2823 89.4717 37.5722 89.8167 37.764C90.1616 37.9558 90.5558 38.041 90.9492 38.0088C91.3425 37.9766 91.7175 37.8284 92.0267 37.583C92.4397 37.2537 92.7057 36.7742 92.7664 36.2495C92.8271 35.7247 92.6776 35.1972 92.3506 34.7823V34.7823Z" fill="#E21E26"/>
</g>
</g>
</svg>
