<svg width="129" height="83" viewBox="0 0 129 83" fill="none" xmlns="http://www.w3.org/2000/svg">
<path d="M62.5609 7.51087C64.5512 1.91239 60.8751 0.252288 60.8751 0.252288C60.8751 0.252288 57.2064 -1.40782 54.3155 3.78894C51.5767 8.72155 50.5146 20.2212 50.5146 20.2212L51.3548 21.3383L52.7489 21.2301C52.7489 21.2301 60.6697 12.8287 62.5609 7.51087Z" fill="#FF7A05"/>
<path d="M58.6611 61.9532C56.2764 52.8071 60.7834 43.1253 60.5633 33.5205C60.3432 23.9158 56.3938 20.5883 52.4921 18.8254C48.5904 17.0626 43.478 16.3032 36.1295 22.4942C28.7811 28.6852 24.496 38.4532 16.0616 42.7236C7.62716 46.994 3.69428 48.2047 0.00537109 52.9171C0.00537109 52.9171 5.07739 67.0528 26.3799 76.6703C47.6824 86.2879 61.6383 80.7426 61.6383 80.7426C62.7297 74.8543 61.0421 71.0975 58.6611 61.9532Z" fill="#FFB405"/>
<path d="M26.3764 76.6647C47.677 86.2823 61.6347 80.737 61.6347 80.737C37.2615 46.693 0 52.9115 0 52.9115C0 52.9115 5.07385 67.0471 26.3764 76.6647Z" fill="#FF9705"/>
<g style="mix-blend-mode:screen">
<g style="mix-blend-mode:screen">
<path d="M38.6795 23.7653C41.532 21.8191 43.8341 22.2887 43.5094 24.5614C43.0802 27.5515 35.7189 34.6284 32.5766 33.9552C29.8581 33.3646 34.1285 26.8709 38.6795 23.7653Z" fill="#615B4A"/>
</g>
</g>
<g style="mix-blend-mode:screen">
<g style="mix-blend-mode:screen">
<path d="M31.3346 36.6774C31.3821 36.3916 31.3439 36.098 31.2248 35.8338C31.1058 35.5696 30.9111 35.3465 30.6655 35.1928C30.4198 35.0391 30.1342 34.9615 29.8445 34.9699C29.5548 34.9782 29.2741 35.0722 29.0378 35.2399C28.8014 35.4076 28.62 35.6415 28.5164 35.9121C28.4128 36.1828 28.3917 36.4781 28.4556 36.7607C28.5196 37.0433 28.6658 37.3007 28.8759 37.5004C29.0859 37.7 29.3504 37.833 29.6359 37.8826C29.8267 37.9157 30.0221 37.9108 30.2109 37.868C30.3997 37.8253 30.5782 37.7456 30.7361 37.6336C30.894 37.5216 31.0282 37.3794 31.1309 37.2153C31.2336 37.0512 31.3028 36.8684 31.3346 36.6774Z" fill="#615B4A"/>
</g>
</g>
<path d="M29.0766 56.1196C28.5783 57.0264 28.149 57.9695 27.7926 58.9409C25.1456 66.3829 30.0268 68.5842 30.0268 68.5842C30.0268 68.5842 34.9081 70.7854 38.7346 63.89C39.2342 62.9712 39.6635 62.0158 40.0186 61.0321C36.5316 59.0586 32.8685 57.414 29.0766 56.1196Z" fill="#FF7A05"/>
<path d="M63.9296 7.68334C61.6183 2.20959 65.1934 0.345875 65.1934 0.345875C65.1934 0.345875 68.7686 -1.52335 71.9457 3.49732C74.9633 8.26667 76.6876 19.6838 76.6876 19.6838L75.9135 20.8486L74.5138 20.8192C74.5138 20.8192 66.1216 12.8838 63.9296 7.68334Z" fill="#FF7A05"/>
<path d="M70.9588 61.8099C72.806 52.5427 67.7542 43.136 67.4221 33.5368C67.0901 23.9375 70.8396 20.3862 74.6367 18.4014C78.4339 16.4166 83.4912 15.3637 91.1827 21.1145C98.8742 26.8652 103.717 36.3819 112.382 40.1533C121.048 43.9248 125.04 44.9117 129 49.4041C129 49.4041 124.75 63.8093 104.038 74.6376C83.3261 85.4659 69.0712 80.735 69.0712 80.735C67.6404 74.9238 69.1098 71.0771 70.9588 61.8099Z" fill="#FFB405"/>
<g style="mix-blend-mode:screen">
<g style="mix-blend-mode:screen">
<path d="M70.0416 31.1228C70.1517 27.6724 71.887 26.0893 73.5269 27.6907C75.6896 29.8002 77.0672 39.9186 74.6716 42.0593C72.6006 43.912 69.8674 36.6296 70.0416 31.1228Z" fill="#615B4A"/>
</g>
</g>
<g style="mix-blend-mode:screen">
<g style="mix-blend-mode:screen">
<path d="M76.1428 44.6676C75.94 44.4605 75.6805 44.318 75.3969 44.2582C75.1134 44.1983 74.8184 44.2238 74.5493 44.3314C74.2802 44.439 74.0489 44.6238 73.8847 44.8626C73.7205 45.1015 73.6307 45.3836 73.6266 45.6734C73.6225 45.9632 73.7043 46.2477 73.8618 46.4911C74.0192 46.7344 74.2451 46.9257 74.5111 47.0408C74.7771 47.1559 75.0712 47.1897 75.3563 47.1379C75.6415 47.0861 75.9049 46.951 76.1134 46.7496C76.2526 46.6152 76.3639 46.4545 76.4407 46.2769C76.5176 46.0993 76.5586 45.9082 76.5613 45.7147C76.564 45.5212 76.5285 45.3291 76.4566 45.1494C76.3848 44.9697 76.2781 44.8059 76.1428 44.6676Z" fill="#615B4A"/>
</g>
</g>
<path d="M60.8974 13.8722L61.3267 14.7289C61.3267 14.7289 61.2184 19.2708 56.1904 26.434C51.1624 33.5972 48.387 39.0471 47.7523 45.8893C47.7523 45.8893 44.5991 43.6972 43.7975 38.4051C43.7975 38.4051 37.2763 42.7892 35.5116 45.6215C35.5116 45.6215 34.9246 35.626 43.6892 26.544C52.4538 17.4621 56.9315 12.834 56.9315 12.834L60.8974 13.8722Z" fill="#E21E26"/>
<g style="mix-blend-mode:multiply">
<g style="mix-blend-mode:multiply">
<path d="M52.9343 20.707C52.9343 20.707 46.5984 23.8787 45.7803 33.0542C45.7729 33.0615 52.0263 28.892 52.9343 20.707Z" fill="#E21E26"/>
</g>
</g>
<path d="M65.4063 13.8725L64.9807 14.7291C64.9807 14.7291 65.0889 19.271 70.1169 26.4342C75.1449 33.5974 77.913 39.051 78.555 45.8895C78.555 45.8895 81.7083 43.6975 82.5099 38.4053C82.5099 38.4053 89.0311 42.7894 90.7958 45.6217C90.7958 45.6217 91.3828 35.6262 82.6182 26.5443C73.8535 17.4623 69.3832 12.8306 69.3832 12.8306L65.4063 13.8725Z" fill="#E21E26"/>
<g style="mix-blend-mode:multiply">
<g style="mix-blend-mode:multiply">
<path d="M73.3691 20.707C73.3691 20.707 79.705 23.8787 80.5232 33.0542C80.5305 33.0615 74.2772 28.892 73.3691 20.707Z" fill="#E21E26"/>
</g>
</g>
<g style="mix-blend-mode:multiply">
<g style="mix-blend-mode:multiply">
<path d="M84.4543 28.6224C83.893 27.9254 83.2816 27.2314 82.62 26.5404C78.3606 22.1257 75.1199 18.7713 72.8978 16.4771L68.2092 14.9656C68.2092 14.9656 66.2244 14.2117 65.3641 13.9512L64.9807 14.7289C64.9807 14.7289 65.0578 17.9116 68.0276 23.1487C71.0525 25.15 76.4161 27.786 84.4543 28.6224Z" fill="#E21E26"/>
</g>
</g>
<g style="mix-blend-mode:multiply">
<g style="mix-blend-mode:multiply">
<path d="M61.3266 14.7293L60.9138 13.9056C59.7545 13.8781 57.6505 14.0102 57.6505 14.0102L54.4202 15.4245C52.2434 17.6795 48.6658 21.3849 43.6873 26.5407C42.8905 27.3677 42.1392 28.2373 41.4365 29.1455C50.0379 28.0101 55.5611 24.8605 58.775 22.2483C61.2587 17.5468 61.3266 14.7293 61.3266 14.7293Z" fill="#E21E26"/>
</g>
</g>
<path d="M60.9449 10.7194C60.9449 10.7194 53.9964 2.48858 36.4121 2.7564C36.4121 2.7564 34.1137 6.23069 35.8233 14.9421C37.5329 23.6535 43.5276 27.181 43.5276 27.181C43.5276 27.181 54.1101 23.9745 61.321 14.7293V12.3226L60.9449 10.7194Z" fill="#E21E26"/>
<g style="mix-blend-mode:multiply">
<g style="mix-blend-mode:multiply">
<path d="M58.8135 11.6293C58.8135 11.6293 53.9506 6.3371 44.2761 8.0504C44.2761 8.0504 51.2779 11.9484 58.8135 11.6293Z" fill="#E21E26"/>
</g>
</g>
<g style="mix-blend-mode:multiply">
<g style="mix-blend-mode:multiply">
<path d="M58.8134 12.6362C58.8134 12.6362 49.3004 12.6894 43.313 21.2412C43.313 21.2578 50.5826 22.7986 58.8134 12.6362Z" fill="#E21E26"/>
</g>
</g>
<path d="M65.3475 10.7194C65.3475 10.7194 72.2961 2.48858 89.8803 2.7564C89.8803 2.7564 92.1788 6.23069 90.4691 14.9421C88.7595 23.6535 82.7648 27.181 82.7648 27.181C82.7648 27.181 72.1823 23.9745 64.9714 14.7293V12.3226L65.3475 10.7194Z" fill="#E21E26"/>
<g style="mix-blend-mode:multiply">
<g style="mix-blend-mode:multiply">
<path d="M67.49 11.6291C67.49 11.6291 72.3529 6.337 82.0273 8.04663C82.0273 8.0503 75.0256 11.9483 67.49 11.6291Z" fill="#E21E26"/>
</g>
</g>
<g style="mix-blend-mode:multiply">
<g style="mix-blend-mode:multiply">
<path d="M67.49 12.6362C67.49 12.6362 77.003 12.6894 82.9904 21.2412C82.9904 21.2578 75.7208 22.7986 67.49 12.6362Z" fill="#E21E26"/>
</g>
</g>
<path d="M66.4298 9.67702C66.4298 9.67702 63.1096 9.09736 60.7085 10.4566C60.7085 10.4566 59.9123 12.4744 61.1799 15.8313C61.1799 15.8313 63.4362 17.0145 66.938 15.8313C66.938 15.8313 68.1853 12.6359 66.4298 9.67702Z" fill="#E21E26"/>
<g style="mix-blend-mode:screen">
<g style="mix-blend-mode:screen">
<path d="M37.0009 6.76632C37.2669 4.7742 38.3657 3.9579 39.2241 4.98332C40.3541 6.33341 40.5559 12.2786 39.0407 13.3774C37.731 14.3221 36.5753 9.93977 37.0009 6.76632Z" fill="#E21E26"/>
</g>
</g>
<g style="mix-blend-mode:screen">
<g style="mix-blend-mode:screen">
<path d="M39.7397 14.9673C39.6342 14.8341 39.4917 14.7352 39.3301 14.6831C39.1684 14.6309 38.9949 14.6279 38.8316 14.6744C38.6682 14.7208 38.5223 14.8147 38.4123 14.9442C38.3023 15.0736 38.2332 15.2327 38.2137 15.4014C38.1942 15.5702 38.2251 15.7409 38.3027 15.892C38.3802 16.0431 38.5008 16.1678 38.6493 16.2504C38.7977 16.3329 38.9673 16.3696 39.1366 16.3557C39.3059 16.3418 39.4672 16.2781 39.6002 16.1725C39.778 16.0308 39.8924 15.8245 39.9185 15.5986C39.9447 15.3728 39.8804 15.1458 39.7397 14.9673Z" fill="#E21E26"/>
</g>
</g>
</svg>
