<svg width="240" height="302" viewBox="0 0 240 302" fill="none" xmlns="http://www.w3.org/2000/svg">
<path d="M195.509 149.219L172.772 155.915L66.7647 152.071L49.4236 135.44L66.1605 130.521C66.1605 130.521 160.356 138.489 161.241 138.785C162.127 139.08 195.509 149.219 195.509 149.219Z" fill="#7A1D04"/>
<path d="M223.271 201.389L207.321 209.364C207.321 209.364 97.7655 217.037 96.5851 217.037C95.4047 217.037 22.1756 218.808 22.1756 218.808L14.7909 213.187L61.7412 203.736L208.796 193.4L223.271 201.389Z" fill="#7A1D04"/>
<path d="M154.166 60.2372L147.674 68.5073L87.4294 83.5648L78.1826 81.499L108.396 67.0317C108.396 67.0317 141.469 57.2861 142.355 57.2861C143.24 57.2861 154.166 60.2372 154.166 60.2372Z" fill="#7A1D04"/>
<path d="M110.342 242.727L108.888 301.313H133.094L125.835 239.818L110.342 242.727Z" fill="#7A1D04"/>
<path d="M0 259.358L119.997 0L240 259.358H0Z" fill="#1A8224"/>
<path d="M213.426 201.959L203.189 191.089C203.189 191.089 49.3112 205.556 43.4371 205.556C39.5656 205.556 29.7357 207.46 23.419 208.767L20.9457 214.107L217.853 211.522L213.426 201.959Z" fill="#14631B"/>
<path d="M190.064 151.426L187.471 145.819L183.993 141.449L77.691 131.999L59.0852 132.884L58.474 132.968L51.9113 147.161L190.064 151.426Z" fill="#14631B"/>
<path d="M153.147 71.6552L146.641 57.5884L93.6338 67.3269L87.303 70.6715L81.6257 82.9325L153.147 71.6552Z" fill="#14631B"/>
<path d="M14.7909 213.201L223.264 201.39L212.049 181.899L20.1027 201.39L14.7909 213.201Z" fill="#E21E26"/>
<path d="M49.4236 135.44C51.391 135.834 195.495 149.219 195.495 149.219L185.258 132.686L57.3002 121.268L49.4236 135.44Z" fill="#E21E26"/>
<path d="M78.1826 81.4991L154.166 60.2373L146.296 49.2129L86.0521 60.2373L78.1826 81.4991Z" fill="#E21E26"/>
<path d="M36.1435 181.232L194.848 161.768L193.612 159.105L39.6848 173.587L36.1435 181.232Z" fill="#14631B"/>
<path d="M72.6737 102.275L163.553 94.1316L160.967 88.5386L75.9761 95.1504L72.6737 102.275Z" fill="#14631B"/>
<path d="M135.026 32.4834L103.611 35.4345L101.025 41.0556C107.749 40.5918 129.32 39.0601 137.562 37.9991L135.026 32.4834Z" fill="#14631B"/>
<path d="M5.88849 246.62L230.599 239.039L227.676 232.715L9.30338 239.249L5.88849 246.62Z" fill="#14631B"/>
<path d="M206.356 216.081C209.307 214.761 210.63 211.299 209.31 208.348C207.991 205.397 204.529 204.075 201.578 205.394C198.627 206.714 197.304 210.175 198.624 213.126C199.943 216.077 203.405 217.4 206.356 216.081Z" fill="white"/>
<path d="M163.789 218.41C166.532 216.7 167.369 213.09 165.659 210.347C163.949 207.604 160.339 206.766 157.596 208.476C154.853 210.186 154.016 213.797 155.726 216.54C157.436 219.283 161.046 220.12 163.789 218.41Z" fill="white"/>
<path d="M117.707 221.739C120.933 221.548 123.394 218.777 123.203 215.55C123.012 212.323 120.241 209.862 117.014 210.053C113.788 210.244 111.327 213.015 111.518 216.242C111.709 219.469 114.48 221.93 117.707 221.739Z" fill="white"/>
<path d="M78.3193 222.575C80.5689 220.254 80.5106 216.549 78.1893 214.299C75.8679 212.05 72.1625 212.108 69.913 214.429C67.6634 216.75 67.7216 220.456 70.043 222.706C72.3643 224.955 76.0698 224.897 78.3193 222.575Z" fill="white"/>
<path d="M33.8976 226.07C36.6407 224.36 37.4782 220.749 35.7681 218.006C34.058 215.263 30.4479 214.426 27.7048 216.136C24.9617 217.846 24.1242 221.456 25.8343 224.199C27.5444 226.942 31.1545 227.78 33.8976 226.07Z" fill="white"/>
<path d="M142.017 73.4887C141.758 72.3621 141.17 71.3378 140.328 70.5449C139.487 69.7519 138.429 69.226 137.289 69.0334C136.149 68.8408 134.978 68.9902 133.922 69.4627C132.867 69.9352 131.975 70.7096 131.36 71.6883C130.744 72.667 130.432 73.8061 130.463 74.9619C130.494 76.1177 130.867 77.2384 131.535 78.1826C132.202 79.1268 133.134 79.8522 134.213 80.2673C135.292 80.6824 136.47 80.7687 137.598 80.5151C138.35 80.3442 139.06 80.0269 139.689 79.5813C140.318 79.1356 140.853 78.5704 141.264 77.9178C141.674 77.2653 141.952 76.5383 142.081 75.7783C142.211 75.0183 142.189 74.2403 142.017 73.4887Z" fill="white"/>
<path d="M97.2687 91.1993C100.101 89.6405 101.133 86.0813 99.5738 83.2494C98.015 80.4176 94.4558 79.3854 91.624 80.9442C88.7921 82.503 87.76 86.0623 89.3188 88.8941C90.8775 91.726 94.4369 92.758 97.2687 91.1993Z" fill="white"/>
</svg>
