<svg width="83" height="105" viewBox="0 0 83 105" fill="none" xmlns="http://www.w3.org/2000/svg">
<path d="M67.6135 51.6048L59.7502 53.9205L23.0894 52.5913L17.0923 46.8396L22.8805 45.1387C22.8805 45.1387 55.4564 47.8942 55.7626 47.9963C56.0688 48.0984 67.6135 51.6048 67.6135 51.6048Z" fill="#7A1D04"/>
<path d="M77.2145 69.6471L71.6985 72.4052C71.6985 72.4052 33.8106 75.0587 33.4024 75.0587C32.9942 75.0587 7.66912 75.671 7.66912 75.671L5.11523 73.727L21.3522 70.4588L72.2088 66.8843L77.2145 69.6471Z" fill="#7A1D04"/>
<path d="M53.3157 20.8321L51.0704 23.6922L30.2359 28.8996L27.0381 28.1852L37.4869 23.1819C37.4869 23.1819 48.9247 19.8115 49.2309 19.8115C49.5371 19.8115 53.3157 20.8321 53.3157 20.8321Z" fill="#7A1D04"/>
<path d="M38.16 83.943L37.657 104.204H46.0282L43.518 82.937L38.16 83.943Z" fill="#7A1D04"/>
<path d="M0 89.6946L41.4988 0L83 89.6946H0Z" fill="#1A8224"/>
<path d="M73.8099 69.8441L70.2695 66.085C70.2695 66.085 17.0534 71.0882 15.0219 71.0882C13.683 71.0882 10.2835 71.7467 8.099 72.1987L7.24365 74.0455L75.3407 73.1513L73.8099 69.8441Z" fill="#14631B"/>
<path d="M65.7305 52.3682L64.8338 50.4291L63.6309 48.9177L26.8681 45.6494L20.4336 45.9556L20.2222 45.9847L17.9526 50.8932L65.7305 52.3682Z" fill="#14631B"/>
<path d="M52.9633 24.7808L50.7132 19.916L32.3816 23.2839L30.1922 24.4406L28.2288 28.6809L52.9633 24.7808Z" fill="#14631B"/>
<path d="M5.11523 73.7322L77.212 69.6474L73.3338 62.9067L6.95224 69.6474L5.11523 73.7322Z" fill="#E21E26"/>
<path d="M17.0923 46.8397C17.7727 46.9758 67.6086 51.6048 67.6086 51.6048L64.0682 45.8872L19.8163 41.9385L17.0923 46.8397Z" fill="#E21E26"/>
<path d="M27.0381 28.1852L53.3156 20.8321L50.5941 17.0195L29.7596 20.8321L27.0381 28.1852Z" fill="#E21E26"/>
<path d="M12.4998 62.6759L67.3851 55.9449L66.9575 55.0239L13.7245 60.0321L12.4998 62.6759Z" fill="#14631B"/>
<path d="M25.1331 35.3702L56.5621 32.5539L55.6679 30.6196L26.2751 32.9062L25.1331 35.3702Z" fill="#14631B"/>
<path d="M46.6963 11.2339L35.832 12.2545L34.9377 14.1984C37.2632 14.0381 44.7232 13.5083 47.5735 13.1414L46.6963 11.2339Z" fill="#14631B"/>
<path d="M2.03638 85.2894L79.7488 82.6674L78.738 80.4805L3.21736 82.7403L2.03638 85.2894Z" fill="#14631B"/>
<path d="M71.3647 74.7279C72.3853 74.2716 72.8427 73.0744 72.3864 72.0539C71.9301 71.0333 70.7329 70.5759 69.7123 71.0322C68.6918 71.4885 68.2344 72.6857 68.6907 73.7063C69.147 74.7268 70.3442 75.1842 71.3647 74.7279Z" fill="white"/>
<path d="M56.6438 75.5335C57.5925 74.9421 57.8821 73.6937 57.2907 72.745C56.6993 71.7963 55.4508 71.5067 54.5021 72.0981C53.5535 72.6895 53.2639 73.938 53.8553 74.8867C54.4467 75.8353 55.6952 76.1249 56.6438 75.5335Z" fill="white"/>
<path d="M40.7068 76.6847C41.8227 76.6186 42.6738 75.6604 42.6077 74.5444C42.5416 73.4285 41.5834 72.5774 40.4674 72.6435C39.3515 72.7096 38.5004 73.6679 38.5665 74.7838C38.6326 75.8998 39.5908 76.7508 40.7068 76.6847Z" fill="white"/>
<path d="M27.0854 76.974C27.8633 76.1712 27.8432 74.8898 27.0404 74.1118C26.2376 73.3339 24.9561 73.3539 24.1782 74.1567C23.4002 74.9595 23.4203 76.241 24.2231 77.019C25.0259 77.797 26.3074 77.7768 27.0854 76.974Z" fill="white"/>
<path d="M11.7229 78.1824C12.6716 77.591 12.9612 76.3425 12.3698 75.3939C11.7784 74.4452 10.5299 74.1556 9.58124 74.747C8.63258 75.3384 8.34295 76.5869 8.93436 77.5356C9.52577 78.4842 10.7743 78.7738 11.7229 78.1824Z" fill="white"/>
<path d="M49.1144 25.4148C49.0245 25.0252 48.8213 24.6709 48.5303 24.3967C48.2392 24.1225 47.8735 23.9406 47.4793 23.874C47.085 23.8074 46.6798 23.859 46.3149 24.0224C45.9499 24.1858 45.6416 24.4537 45.4287 24.7921C45.2158 25.1306 45.1079 25.5245 45.1187 25.9242C45.1294 26.324 45.2583 26.7115 45.4891 27.0381C45.7198 27.3646 46.0421 27.6155 46.4153 27.759C46.7885 27.9026 47.1959 27.9324 47.586 27.8447C47.846 27.7856 48.0917 27.6759 48.3093 27.5218C48.5268 27.3677 48.7118 27.1722 48.8538 26.9465C48.9957 26.7208 49.0918 26.4694 49.1365 26.2066C49.1812 25.9438 49.1737 25.6747 49.1144 25.4148Z" fill="white"/>
<path d="M33.6388 31.5397C34.6181 31.0006 34.975 29.7697 34.4359 28.7904C33.8969 27.811 32.666 27.4541 31.6866 27.9932C30.7073 28.5322 30.3503 29.7632 30.8894 30.7425C31.4285 31.7219 32.6594 32.0788 33.6388 31.5397Z" fill="white"/>
</svg>
