<svg width="136" height="106" viewBox="0 0 136 106" fill="none" xmlns="http://www.w3.org/2000/svg">
<path d="M75.6932 37.4321C67.9684 42.1311 59.6947 45.8615 51.0586 48.5391L68.0323 86.1857L75.1504 69.1008L92.6669 75.0788L75.6932 37.4321Z" fill="#E21E26"/>
<path d="M102.792 14.2239C97.2555 21.4014 90.6193 27.6585 83.1288 32.7633L110.237 62.3352L111.647 43.8839L130.154 44.0887L102.792 14.2239Z" fill="#1A8224"/>
<path d="M15.7319 53.5038C24.685 54.1704 33.6829 53.6888 42.642 51.0176L46.9313 90.8748L32.1705 79.7141L20.0676 93.7201L15.7319 53.5038Z" fill="#FFB405"/>
<path d="M63.7908 43.8988C52.1405 49.1515 40.0162 52.4898 28.7316 53.5433C17.7344 54.5736 8.01968 53.4113 0.633044 50.1839L0.769799 49.8669C15.8711 56.4626 40.5536 53.9987 63.6495 43.5855C86.7454 33.1723 104.935 16.3067 109.991 0.62264L110.319 0.730079C107.849 8.40139 102.285 16.4523 94.2317 24.0114C85.9693 31.768 75.4435 38.6449 63.7908 43.8988Z" fill="#231F20"/>
<path d="M63.7908 43.8988C52.1405 49.1515 40.0162 52.4898 28.7316 53.5433C17.7344 54.5736 8.01968 53.4113 0.633044 50.1839L0.769799 49.8669C15.8711 56.4626 40.5536 53.9987 63.6495 43.5855C86.7454 33.1723 104.935 16.3067 109.991 0.62264L110.319 0.730079C107.849 8.40139 102.285 16.4523 94.2317 24.0114C85.9693 31.768 75.4435 38.6449 63.7908 43.8988Z" fill="#231F20"/>
<g style="mix-blend-mode:screen">
<g style="mix-blend-mode:screen">
<path d="M92.3135 38.2933C90.8168 35.7424 91.3524 33.8015 93.2761 34.2111C95.806 34.7516 101.427 41.4597 100.666 44.1074C100.009 46.4007 94.7006 42.3672 92.3135 38.2933Z" fill="#1A8224"/>
</g>
</g>
<g style="mix-blend-mode:screen">
<g style="mix-blend-mode:screen">
<path d="M102.923 45.3301C102.68 45.2717 102.426 45.2865 102.192 45.3725C101.958 45.4586 101.755 45.6121 101.608 45.8136C101.461 46.0151 101.377 46.2556 101.367 46.5047C101.357 46.7539 101.421 47.0004 101.551 47.2132C101.681 47.426 101.871 47.5955 102.097 47.7003C102.323 47.8051 102.576 47.8405 102.822 47.802C103.068 47.7635 103.298 47.6529 103.481 47.484C103.665 47.3152 103.794 47.0958 103.853 46.8535C103.892 46.6924 103.899 46.5252 103.873 46.3614C103.848 46.1976 103.79 46.0405 103.703 45.899C103.617 45.7575 103.504 45.6344 103.37 45.5368C103.236 45.4392 103.084 45.369 102.923 45.3301Z" fill="#1A8224"/>
</g>
</g>
<g style="mix-blend-mode:screen">
<g style="mix-blend-mode:screen">
<path d="M58.2831 57.6436C57.4341 54.8098 58.4164 53.0505 60.1857 53.9066C62.5173 55.0322 66.3905 62.8809 65.0244 65.2723C63.8411 67.3411 59.6412 62.1662 58.2831 57.6436Z" fill="#E21E26"/>
</g>
</g>
<g style="mix-blend-mode:screen">
<g style="mix-blend-mode:screen">
<path d="M66.925 66.9933C66.7033 66.879 66.4527 66.833 66.2048 66.8612C65.9569 66.8894 65.723 66.9904 65.5325 67.1516C65.3421 67.3127 65.2037 67.5267 65.135 67.7665C65.0662 68.0063 65.0701 68.2611 65.1461 68.4987C65.2222 68.7363 65.367 68.946 65.5623 69.1012C65.7575 69.2565 65.9944 69.3504 66.2431 69.371C66.4917 69.3916 66.7408 69.3379 66.9589 69.2169C67.1771 69.0959 67.3544 68.9129 67.4685 68.691C67.6214 68.3938 67.6501 68.048 67.5482 67.7297C67.4462 67.4114 67.2221 67.1465 66.925 66.9933Z" fill="#E21E26"/>
</g>
</g>
<g style="mix-blend-mode:screen">
<g style="mix-blend-mode:screen">
<path d="M19.3249 63.4547C19.4742 60.5021 20.9851 59.1734 22.3658 60.5635C24.1837 62.4041 25.2059 71.0974 23.1182 72.893C21.3105 74.4468 19.0852 68.1626 19.3249 63.4547Z" fill="#FFB405"/>
</g>
</g>
<g style="mix-blend-mode:screen">
<g style="mix-blend-mode:screen">
<path d="M24.6817 76.0603C24.7041 75.3642 24.1581 74.7817 23.462 74.7592C22.7659 74.7367 22.1833 75.2828 22.1608 75.9789C22.1384 76.675 22.6844 77.2575 23.3805 77.28C24.0766 77.3025 24.6592 76.7564 24.6817 76.0603Z" fill="#FFB405"/>
</g>
</g>
<path d="M64.0234 44.4145C52.315 49.6935 40.1294 53.0442 28.7849 54.1065C17.7028 55.1507 7.87991 53.9642 0.406683 50.6999L0.99549 49.349C15.9578 55.8858 40.4604 53.4209 63.4173 43.0704C86.3742 32.7198 104.445 15.9896 109.454 0.451337L110.855 0.901988C108.355 8.66633 102.739 16.7983 94.6186 24.4241C86.3111 32.2224 75.7317 39.1356 64.0234 44.4145Z" fill="#231F20"/>
</svg>
