<svg width="335" height="261" viewBox="0 0 335 261" fill="none" xmlns="http://www.w3.org/2000/svg">
<path d="M186.571 92.2643C167.531 103.847 147.138 113.041 125.851 119.641L167.688 212.434L185.233 170.322L228.409 185.057L186.571 92.2643Z" fill="#E21E26"/>
<path d="M253.365 35.0597C239.719 52.7512 223.361 68.1739 204.899 80.7565L271.716 153.646L275.191 108.167L320.808 108.672L253.365 35.0597Z" fill="#1A8224"/>
<path d="M38.7766 131.878C60.8445 133.521 83.0228 132.335 105.106 125.75L115.678 223.992L79.2951 196.483L49.4634 231.005L38.7766 131.878Z" fill="#FFB405"/>
<path d="M157.234 108.204C128.518 121.151 98.6337 129.379 70.8189 131.976C43.7126 134.515 19.7674 131.65 1.56057 123.695L1.89765 122.914C39.1199 139.171 99.9584 133.098 156.886 107.432C213.813 81.7647 258.647 40.1936 271.109 1.53499L271.918 1.79981C265.831 20.7084 252.117 40.5525 232.266 59.1844C211.901 78.3032 185.956 95.2538 157.234 108.204Z" fill="#231F20"/>
<path d="M157.234 108.204C128.518 121.151 98.6337 129.379 70.8189 131.976C43.7126 134.515 19.7674 131.65 1.56057 123.695L1.89765 122.914C39.1199 139.171 99.9584 133.098 156.886 107.432C213.813 81.7647 258.647 40.1936 271.109 1.53499L271.918 1.79981C265.831 20.7084 252.117 40.5525 232.266 59.1844C211.901 78.3032 185.956 95.2538 157.234 108.204Z" fill="#231F20"/>
<g style="mix-blend-mode:screen">
<g style="mix-blend-mode:screen">
<path d="M227.538 94.3869C223.848 88.0994 225.168 83.3153 229.91 84.3248C236.146 85.6572 250 102.192 248.124 108.718C246.507 114.37 233.421 104.428 227.538 94.3869Z" fill="#1A8224"/>
</g>
</g>
<g style="mix-blend-mode:screen">
<g style="mix-blend-mode:screen">
<path d="M253.688 111.731C253.09 111.587 252.464 111.624 251.887 111.836C251.31 112.048 250.809 112.426 250.447 112.923C250.085 113.42 249.879 114.013 249.854 114.627C249.829 115.241 249.986 115.848 250.307 116.373C250.627 116.898 251.095 117.315 251.653 117.574C252.211 117.832 252.832 117.919 253.44 117.824C254.047 117.729 254.612 117.457 255.064 117.041C255.517 116.624 255.835 116.084 255.98 115.486C256.077 115.089 256.094 114.677 256.031 114.273C255.968 113.87 255.825 113.482 255.613 113.134C255.4 112.785 255.12 112.481 254.79 112.241C254.459 112 254.085 111.827 253.688 111.731V111.731Z" fill="#1A8224"/>
</g>
</g>
<g style="mix-blend-mode:screen">
<g style="mix-blend-mode:screen">
<path d="M143.658 142.082C141.565 135.097 143.987 130.761 148.348 132.871C154.095 135.645 163.641 154.991 160.274 160.886C157.358 165.985 147.006 153.23 143.658 142.082Z" fill="#E21E26"/>
</g>
</g>
<g style="mix-blend-mode:screen">
<g style="mix-blend-mode:screen">
<path d="M164.959 165.128C164.413 164.846 163.795 164.733 163.184 164.802C162.573 164.871 161.996 165.121 161.527 165.518C161.058 165.915 160.717 166.442 160.547 167.033C160.378 167.625 160.387 168.253 160.575 168.838C160.762 169.424 161.119 169.941 161.6 170.323C162.082 170.706 162.666 170.937 163.278 170.988C163.891 171.039 164.505 170.907 165.043 170.608C165.581 170.31 166.018 169.859 166.299 169.312C166.676 168.58 166.746 167.727 166.495 166.943C166.244 166.158 165.692 165.505 164.959 165.128V165.128Z" fill="#E21E26"/>
</g>
</g>
<g style="mix-blend-mode:screen">
<g style="mix-blend-mode:screen">
<path d="M47.6326 156.406C48.0008 149.128 51.7248 145.853 55.1281 149.279C59.609 153.816 62.1285 175.244 56.9825 179.67C52.5269 183.499 47.042 168.01 47.6326 156.406Z" fill="#FFB405"/>
</g>
</g>
<g style="mix-blend-mode:screen">
<g style="mix-blend-mode:screen">
<path d="M60.8365 187.476C60.8919 185.761 59.5459 184.325 57.8302 184.269C56.1144 184.214 54.6785 185.56 54.6231 187.276C54.5677 188.991 55.9136 190.427 57.6294 190.483C59.3452 190.538 60.781 189.192 60.8365 187.476Z" fill="#FFB405"/>
</g>
</g>
<path d="M157.807 109.475C128.948 122.486 98.9126 130.745 70.9501 133.364C43.6345 135.938 19.4227 133.013 1.00241 124.967L2.45372 121.637C39.3333 137.749 99.7284 131.674 156.313 106.162C212.898 80.6491 257.44 39.4119 269.787 1.1125L273.241 2.22327C267.077 21.3611 253.236 41.405 233.219 60.2015C212.743 79.4229 186.666 96.463 157.807 109.475Z" fill="#231F20"/>
</svg>
