<svg width="62" height="92" viewBox="0 0 62 92" fill="none" xmlns="http://www.w3.org/2000/svg">
<path d="M5.26901 30.3376C5.26901 30.3376 -3.77263 18.4348 1.83252 2.47852C1.83252 2.47852 20.0876 4.95957 28.4837 18.9529L29.2465 29.7649L19.3977 29.6998L5.26901 30.3376Z" fill="#FFB405"/>
<path d="M34.016 20.1608L34.0785 18.6352C34.0785 18.6352 39.2853 7.75817 49.9801 0C49.9801 0 61.3388 8.7761 58.8083 27.1562L40.4386 29.6294C40.4386 29.6294 35.2318 27.1484 35.0964 27.1484C34.961 27.1484 32.998 23.3969 32.998 23.3969L34.016 20.1608Z" fill="#FFB405"/>
<path d="M25.2866 19.859C25.2866 19.859 22.2823 15.3108 15.6982 14.8188C9.11421 14.3267 7.58862 14.8188 7.58862 14.8188L12.2175 20.5749C12.2175 20.5749 19.3717 18.7604 25.2866 19.859Z" fill="#D67D00"/>
<path d="M26.1458 22.3398C26.1458 22.3398 17.3671 20.8116 12.3113 24.7714C12.3113 24.7714 20.1788 26.3933 26.1458 22.3398Z" fill="#D67D00"/>
<path d="M35.6846 19.286C35.6846 19.286 40.4072 13.8969 49.6623 14.8966C49.6623 14.8966 48.8995 16.693 44.8902 19.4448C44.8902 19.4448 37.3299 19.0074 35.6846 19.286Z" fill="#D67D00"/>
<path d="M36.877 22.4183C36.877 22.4183 38.0537 23.8189 42.8648 24.0715C42.857 24.0715 40.1859 21.6242 36.877 22.4183Z" fill="#D67D00"/>
<path d="M26.8279 27.919C26.8279 27.919 26.1927 22.4519 28.4837 18.9529L34.0784 18.6353C34.0784 18.6353 36.3043 21.3064 36.1143 27.3463C35.9242 33.3862 27.9734 27.4738 27.9734 27.4738L26.8279 27.919Z" fill="#D67D00"/>
<path d="M16.5886 91.523H55.5148L58.4384 34.4067L12.647 35.4247L7.17724 37.333L6.03174 43.313L16.5886 91.523Z" fill="#E21E26"/>
<path d="M24.9534 43.0836L30.4544 91.5227H40.6936L38.538 42.3833L24.9534 43.0836Z" fill="#FFB405"/>
<g style="mix-blend-mode:multiply">
<g style="mix-blend-mode:multiply">
<path d="M19.2857 91.5229L17.4815 50.8159L57.9724 43.5108L58.2354 38.3898L57.168 37.8431L51.4014 34.5654L12.647 35.4246L7.17724 37.3329L6.03174 43.3129L16.5886 91.5229H19.2857Z" fill="#DE7356"/>
</g>
</g>
<path d="M3.17076 44.2031L61.3024 41.2144L62.0001 24.9951L0.43457 27.7287L3.17076 44.2031Z" fill="#E21E26"/>
<path d="M20.6135 26.8332L23.42 43.1618L40.6936 42.2741L41.1701 25.9194L20.6135 26.8332Z" fill="#FFD269"/>
<g style="mix-blend-mode:screen">
<g style="mix-blend-mode:screen">
<path d="M2.038 6.36537C2.68625 4.32169 3.99055 3.66823 4.70129 4.90485C5.63851 6.52938 4.75075 12.8088 2.957 13.6836C1.40276 14.4385 1.00184 9.62484 2.038 6.36537Z" fill="#878787"/>
</g>
</g>
<g style="mix-blend-mode:screen">
<g style="mix-blend-mode:screen">
<path d="M3.39187 15.4904C3.30562 15.3316 3.1742 15.2019 3.01426 15.1178C2.85431 15.0336 2.67302 14.9988 2.49329 15.0177C2.31356 15.0366 2.14346 15.1084 2.00451 15.2239C1.86557 15.3395 1.76401 15.4937 1.71268 15.667C1.66135 15.8402 1.66256 16.0249 1.71614 16.1974C1.76973 16.37 1.87329 16.5229 2.01373 16.6366C2.15417 16.7504 2.3252 16.8199 2.50516 16.8365C2.68512 16.853 2.86595 16.8158 3.02478 16.7296C3.13051 16.6726 3.22393 16.5953 3.29966 16.502C3.37539 16.4088 3.43194 16.3015 3.46606 16.1863C3.50017 16.0712 3.51117 15.9504 3.49844 15.831C3.48571 15.7115 3.4495 15.5958 3.39187 15.4904Z" fill="#878787"/>
</g>
</g>
</svg>
