<svg width="203" height="300" viewBox="0 0 203 300" fill="none" xmlns="http://www.w3.org/2000/svg">
<path d="M17.2189 99.1418C17.2189 99.1418 -12.3288 60.244 5.98858 8.09961C5.98858 8.09961 65.6454 16.2076 93.0831 61.9371L95.5759 97.2701L63.3908 97.0574L17.2189 99.1418Z" fill="#FFB405"/>
<path d="M111.162 65.8845L111.366 60.899C111.366 60.899 128.382 25.3533 163.332 0C163.332 0 200.452 28.6799 192.182 88.7451L132.151 96.8275C132.151 96.8275 115.135 88.7195 114.693 88.7195C114.25 88.7195 107.835 76.4598 107.835 76.4598L111.162 65.8845Z" fill="#FFB405"/>
<path d="M82.6358 64.8977C82.6358 64.8977 72.8178 50.0345 51.3015 48.4266C29.7852 46.8186 24.7997 48.4266 24.7997 48.4266L39.9266 67.2374C39.9266 67.2374 63.3061 61.3074 82.6358 64.8977Z" fill="#D67D00"/>
<path d="M85.443 73.0053C85.443 73.0053 56.7547 68.0112 40.2325 80.9516C40.2325 80.9516 65.9431 86.252 85.443 73.0053Z" fill="#D67D00"/>
<path d="M116.616 63.0257C116.616 63.0257 132.049 45.4145 162.294 48.6815C162.294 48.6815 159.801 54.5519 146.699 63.5447C146.699 63.5447 121.993 62.1154 116.616 63.0257Z" fill="#D67D00"/>
<path d="M120.512 73.2617C120.512 73.2617 124.357 77.8389 140.08 78.6642C140.054 78.6642 131.325 70.6668 120.512 73.2617Z" fill="#D67D00"/>
<path d="M87.6722 91.2378C87.6722 91.2378 85.5964 73.3714 93.0832 61.9369L111.367 60.8989C111.367 60.8989 118.641 69.628 118.02 89.3661C117.399 109.104 91.4157 89.783 91.4157 89.783L87.6722 91.2378Z" fill="#D67D00"/>
<path d="M54.2111 299.092H181.42L190.974 112.439L41.3303 115.766L23.4554 122.002L19.7119 141.545L54.2111 299.092Z" fill="#E21E26"/>
<path d="M81.5466 140.795L99.5236 299.091H132.985L125.94 138.506L81.5466 140.795Z" fill="#FFB405"/>
<g style="mix-blend-mode:multiply">
<g style="mix-blend-mode:multiply">
<path d="M63.0252 299.092L57.1293 166.064L189.451 142.191L190.311 125.456L186.822 123.669L167.978 112.958L41.3303 115.766L23.4554 122.002L19.7119 141.544L54.2111 299.092H63.0252Z" fill="#DE7356"/>
</g>
</g>
<path d="M10.3619 144.453L200.333 134.686L202.613 81.6826L1.42017 90.6158L10.3619 144.453Z" fill="#E21E26"/>
<path d="M67.364 87.6894L76.5354 141.05L132.985 138.149L134.542 84.7031L67.364 87.6894Z" fill="#FFD269"/>
<g style="mix-blend-mode:screen">
<g style="mix-blend-mode:screen">
<path d="M6.66048 20.8016C8.77893 14.1229 13.0413 11.9874 15.364 16.0287C18.4268 21.3375 15.5256 41.8584 9.66372 44.717C4.58455 47.1843 3.27437 31.4534 6.66048 20.8016Z" fill="#878787"/>
</g>
</g>
<g style="mix-blend-mode:screen">
<g style="mix-blend-mode:screen">
<path d="M11.0848 50.6216C10.803 50.1026 10.3735 49.6789 9.85083 49.4039C9.32814 49.129 8.73569 49.0152 8.14834 49.0769C7.56098 49.1387 7.00511 49.3732 6.55104 49.7509C6.09698 50.1286 5.76508 50.6324 5.59734 51.1987C5.4296 51.7649 5.43354 52.3682 5.60866 52.9323C5.78378 53.4963 6.12221 53.9957 6.58116 54.3674C7.04012 54.7391 7.59901 54.9664 8.18713 55.0205C8.77524 55.0746 9.36615 54.9531 9.88521 54.6713C10.2307 54.4851 10.536 54.2323 10.7835 53.9276C11.031 53.6229 11.2158 53.2723 11.3273 52.896C11.4388 52.5196 11.4747 52.1249 11.4331 51.7346C11.3915 51.3443 11.2732 50.966 11.0848 50.6216V50.6216Z" fill="#878787"/>
</g>
</g>
</svg>
