<svg width="42" height="42" viewBox="0 0 42 42" fill="none" xmlns="http://www.w3.org/2000/svg">
<circle cx="21" cy="21" r="20.5" stroke="white" stroke-opacity="0.3"/>
<path d="M16.0925 32.2917C12.55 30.5908 10.015 27.1567 9.625 23.0833H8C8.54167 29.7567 14.1317 35 20.9458 35C21.195 35 21.4225 35 21.6608 34.9675L17.5333 30.8292L16.0925 32.2917ZM21.0542 9C20.805 9 20.5775 9 20.3392 9.04333L24.4667 13.1708L25.9075 11.7083C29.45 13.4092 31.985 16.8433 32.375 20.9167H34C33.4583 14.2433 27.8683 9 21.0542 9ZM25.3333 24.1667H27.5V17.6667C27.5 16.4642 26.525 15.5 25.3333 15.5H18.8333V17.6667H25.3333V24.1667ZM16.6667 26.3333V13.3333H14.5V15.5H12.3333V17.6667H14.5V26.3333C14.5 26.908 14.7283 27.4591 15.1346 27.8654C15.5409 28.2717 16.092 28.5 16.6667 28.5H25.3333V30.6667H27.5V28.5H29.6667V26.3333H16.6667Z" fill="white" fill-opacity="0.3"/>
</svg>
