<svg width="42" height="42" viewBox="0 0 42 42" fill="none" xmlns="http://www.w3.org/2000/svg">
<path d="M19.5023 12C18.6823 12 17.9423 12.5 17.6423 13.27L12.1423 27.27C11.6223 28.58 12.5923 30 14.0023 30H16.2523C17.0923 30 17.8323 29.5 18.1223 28.7L18.7623 27H22.2423L22.8823 28.7C23.1723 29.5 23.9223 30 24.7523 30H27.0023C28.4123 30 29.3823 28.58 28.8623 27.27L23.3623 13.27C23.0623 12.5 22.3223 12 21.5023 12H19.5023ZM19.5023 14H21.5023L27.0023 28H24.7523L23.6223 25H17.3723L16.2523 28H14.0023L19.5023 14ZM20.5023 16.67L18.1223 23H22.8723L20.5023 16.67Z" fill="white" fill-opacity="0.3"/>
<circle cx="21" cy="21" r="20.5" stroke="white" stroke-opacity="0.3"/>
</svg>
