<svg width="42" height="42" viewBox="0 0 42 42" fill="none" xmlns="http://www.w3.org/2000/svg">
<circle cx="21" cy="21" r="20.5" stroke="white" stroke-opacity="0.3"/>
<g clip-path="url(#clip0)">
<path fill-rule="evenodd" clip-rule="evenodd" d="M30 24.0277C30 27.9264 26.8479 30.9957 23.0323 30.9957C21.1244 30.9957 19.3825 30.2491 18.1382 29.0048H15.0691C13.9908 29.0048 13.0783 28.0923 13.0783 27.014V14.9859H25.106V17.3086C28.0092 18.1381 30.0829 20.8755 30.0829 24.0277H30ZM23.0323 19.0506C20.2949 19.0506 18.0553 21.2903 18.0553 24.0277C18.0553 26.7651 20.2949 29.0048 23.0323 29.0048C25.7696 29.0048 28.0092 26.7651 28.0092 24.0277C28.0092 21.2903 25.7696 19.0506 23.0323 19.0506ZM26.0184 12.0826V14.0734H12V12.0826H15.4839L16.4793 11.0872H21.4562L22.4516 12.0826H25.9355H26.0184Z" fill="white" fill-opacity="0.3"/>
<path d="M24.9401 27.0138L23.0323 25.1059L21.2074 27.0138L20.212 26.0184L22.1198 24.1934L20.212 22.2855L21.2074 21.373L23.0323 23.198L24.9401 21.373L25.8526 22.2855L24.0277 24.1934L25.8526 26.0184L24.9401 27.0138Z" fill="#FEFEFE" fill-opacity="0.3"/>
</g>
<defs>
<clipPath id="clip0">
<rect width="18" height="20" fill="white" transform="translate(12 11)"/>
</clipPath>
</defs>
</svg>
