<svg width="264" height="300" viewBox="0 0 264 300" fill="none" xmlns="http://www.w3.org/2000/svg">
<path d="M241.339 276.469C238.635 285.766 232.708 298.051 221.495 297.005C207.498 295.701 192.553 296.23 178.784 293.351C174.33 292.419 170.1 290.694 165.603 289.823C157.578 288.272 149.118 288.362 140.966 288.093C122.041 287.461 103.764 287.509 85.0008 288.513C72.7594 289.162 60.2113 290.7 48.1151 287.359C40.0386 285.123 33.4378 275.94 32.5088 267.828C31.6806 260.611 39.323 250.808 46.6408 249.3C43.2064 229.588 71.3681 219.4 86.2706 216.978C100.477 214.668 113.924 209.264 128.041 206.316C138.25 204.185 148.451 203.178 158.6 200.623C166.985 198.513 177.955 197.42 184.344 191.237C192.896 182.96 193.797 169.811 197.789 158.863C201.1 149.786 207.957 140.114 213.192 153.481C216.413 161.714 217.97 169.565 219.406 178.767C221.87 194.557 222.466 210.718 223.589 226.54C224.279 236.221 232.904 243.379 238.662 250.242C244.305 256.973 243.698 268.385 241.342 276.469H241.339Z" fill="#7F5F40"/>
<path d="M73.1905 255.404C75.1774 263.674 80.3988 271.319 87.9078 275.315C91.0563 276.986 94.516 277.995 97.9934 278.795C102.065 279.727 106.212 280.382 110.387 280.479C122.621 280.748 134.893 275.942 143.691 267.437C152.487 258.928 157.7 246.823 157.836 234.587C157.892 229.593 157.085 224.448 154.487 220.181C151.468 215.219 146.3 211.894 140.874 209.818C125.136 203.793 103.227 205.794 88.05 212.958C74.3018 219.449 69.9857 242.076 73.1891 255.404H73.1905Z" fill="#B99466"/>
<path d="M257.417 252.28C253.625 256.138 248.264 252.364 244.208 250.561C238.168 247.869 236.281 245.063 237.675 238.235C238.017 236.558 238.048 234.731 238.643 233.043C240.001 234.359 241.311 235.893 242.67 237.232C244.809 235.458 247.706 233.909 250.199 232.88C250.302 235.092 249.977 237.46 250.146 239.671C252.382 238.908 255.068 238.499 257.465 238.367C256.972 239.989 256.162 241.444 255.615 243.085C258.049 243.476 260.928 243.511 263.614 243.842C261.613 246.402 259.587 250.079 257.418 252.28H257.417Z" fill="#34302F"/>
<path d="M238.821 233.764C238.587 234.629 238.467 235.53 238.347 236.408C238.269 237.04 238.178 237.688 238.052 238.314C236.749 244.697 238.227 247.473 244.363 250.207C245.03 250.502 245.71 250.844 246.436 251.204C250.054 253.001 254.158 255.045 257.139 252.009C258.437 250.693 259.699 248.805 260.925 246.978C261.568 246.017 262.235 245.032 262.889 244.148C261.922 244.046 260.931 243.974 259.969 243.908C258.406 243.794 256.929 243.692 255.552 243.47C255.438 243.452 255.342 243.385 255.281 243.283C255.222 243.187 255.208 243.073 255.246 242.965C255.503 242.184 255.828 241.439 256.135 240.723C256.418 240.068 256.687 239.443 256.915 238.794C254.475 238.963 252.137 239.401 250.269 240.038C250.155 240.08 250.035 240.062 249.932 239.997C249.83 239.93 249.771 239.822 249.758 239.702C249.667 238.495 249.722 237.232 249.769 236.011C249.805 235.164 249.842 234.298 249.829 233.457C247.16 234.611 244.661 236.078 242.911 237.525C242.761 237.651 242.531 237.646 242.394 237.508C241.739 236.859 241.084 236.161 240.453 235.488C239.918 234.912 239.371 234.322 238.818 233.764H238.821ZM253.462 254.335C250.992 254.335 248.365 253.031 246.087 251.895C245.372 251.54 244.699 251.204 244.05 250.915C237.553 248.024 235.913 244.923 237.295 238.157C237.415 237.561 237.494 236.955 237.584 236.312C237.728 235.187 237.885 234.029 238.275 232.916C238.316 232.79 238.418 232.694 238.552 232.664C238.684 232.635 238.815 232.67 238.912 232.766C239.627 233.457 240.336 234.221 241.028 234.961C241.568 235.543 242.133 236.145 242.693 236.709C244.598 235.195 247.261 233.681 250.049 232.526C250.169 232.479 250.301 232.491 250.409 232.556C250.512 232.623 250.578 232.737 250.584 232.863C250.639 233.909 250.59 234.99 250.549 236.042C250.507 237.077 250.458 238.134 250.507 239.149C252.496 238.53 254.942 238.115 257.443 237.983C257.575 237.977 257.689 238.031 257.767 238.127C257.846 238.229 257.87 238.361 257.834 238.481C257.57 239.37 257.203 240.212 256.849 241.03C256.609 241.594 256.355 242.178 256.139 242.772C257.352 242.941 258.656 243.036 260.027 243.132C261.223 243.222 262.467 243.307 263.663 243.457C263.801 243.468 263.915 243.559 263.97 243.691C264.023 243.817 264.005 243.968 263.922 244.076C263.147 245.067 262.384 246.209 261.572 247.411C260.328 249.268 259.042 251.185 257.696 252.549C256.416 253.853 254.974 254.335 253.465 254.335H253.462Z" fill="#34302F"/>
<path d="M259.405 268.265C257.914 278.235 255.912 285.778 246.971 291.288C239.579 295.837 230.793 296.698 222.301 296.698C215.108 296.698 204.542 298.338 201.531 290.244C196.957 277.912 207.997 267.515 213.798 257.96C218.665 249.943 223.101 242.485 232.717 240.207C240.536 238.362 247.766 239.973 253.721 245.471C260.572 251.805 260.692 259.702 259.406 268.266L259.405 268.265Z" fill="#685039"/>
<path d="M222.39 293.82C221.458 293.82 220.557 293.778 219.692 293.682C216.597 293.346 214.512 292.162 213.502 290.16C211.801 286.77 213.201 281.187 217.672 273.573C218.153 272.749 218.628 271.919 219.102 271.103C222.919 264.444 226.524 258.158 234.108 254.876C240.275 252.207 247.901 254.911 251.844 261.168C255.781 267.4 256.015 273.651 252.528 279.234C246.999 288.093 232.828 293.82 222.39 293.82Z" fill="#B99466"/>
<path d="M27.2594 254.612C27.5395 260.014 21.1372 261.416 17.0671 263.188C10.9998 265.827 7.65568 265.316 3.56483 259.672C2.56175 258.29 1.23567 257.033 0.389648 255.454C2.28024 255.346 4.29232 255.412 6.20069 255.316C6.337 252.545 7.15784 249.354 8.08239 246.825C9.78037 248.243 11.3079 250.081 13.0548 251.452C14.0016 249.294 15.5144 247.029 17.036 245.177C17.9028 246.638 18.4214 248.211 19.2629 249.726C21.198 248.194 23.1671 246.102 25.2236 244.341C25.7585 247.545 27.1009 251.523 27.2609 254.612H27.2594Z" fill="#34302F"/>
<path d="M1.04439 255.807C1.52297 256.57 2.10822 257.268 2.67866 257.947C3.08463 258.434 3.50542 258.932 3.87732 259.443C7.70443 264.719 10.7492 265.508 16.9129 262.833C17.5782 262.544 18.2908 262.269 19.045 261.98C22.8173 260.525 27.0933 258.885 26.8726 254.629C26.7777 252.791 26.2414 250.585 25.7258 248.445C25.4517 247.32 25.1716 246.162 24.9627 245.08C24.2352 245.723 23.5137 246.408 22.8099 247.07C21.672 248.152 20.5963 249.168 19.5013 250.033C19.4124 250.106 19.2969 250.13 19.1858 250.106C19.0746 250.088 18.9783 250.016 18.9235 249.919C18.522 249.198 18.193 248.458 17.873 247.744C17.5811 247.095 17.3026 246.47 16.9781 245.868C15.4579 247.78 14.2 249.799 13.4088 251.608C13.3614 251.716 13.2651 251.801 13.148 251.831C13.0325 251.86 12.9095 251.831 12.8146 251.758C11.8605 251.007 10.9655 250.118 10.1003 249.258C9.50167 248.657 8.8853 248.045 8.25708 247.491C7.30438 250.232 6.69987 253.062 6.58726 255.333C6.57689 255.532 6.41835 255.693 6.21981 255.699C5.30118 255.748 4.34848 255.754 3.42689 255.766C2.64014 255.772 1.83263 255.778 1.04588 255.807H1.04439ZM11.167 265.111C8.14596 265.111 5.83162 263.459 3.2491 259.9C2.8935 259.406 2.49938 258.938 2.08452 258.445C1.35702 257.573 0.604344 256.679 0.0457608 255.638C-0.0164687 255.518 -0.014987 255.381 0.0487241 255.265C0.113917 255.151 0.232449 255.072 0.364316 255.067C1.36295 255.007 2.40752 254.994 3.418 254.988C4.21513 254.982 5.03597 254.97 5.83162 254.939C5.99904 252.511 6.67764 249.524 7.71628 246.688C7.75925 246.574 7.85852 246.483 7.98001 246.448C8.10151 246.418 8.23189 246.442 8.32968 246.526C9.12978 247.193 9.90024 247.962 10.6455 248.701C11.376 249.429 12.1272 250.18 12.908 250.835C13.797 248.941 15.1423 246.863 16.7351 244.928C16.8151 244.831 16.9396 244.778 17.064 244.79C17.19 244.802 17.3026 244.868 17.3678 244.976C17.8419 245.775 18.2168 246.617 18.5812 247.429C18.8331 247.987 19.0909 248.565 19.3828 249.13C20.3296 248.349 21.2793 247.452 22.278 246.51C23.1521 245.68 24.056 244.827 24.9716 244.046C25.0783 243.956 25.2235 243.932 25.3568 243.973C25.4872 244.021 25.5835 244.135 25.6058 244.274C25.8117 245.519 26.1347 246.852 26.4785 248.264C27.0044 250.433 27.5482 252.675 27.6475 254.592C27.8964 259.4 23.1433 261.233 19.325 262.7C18.5783 262.989 17.873 263.259 17.224 263.542C14.8534 264.57 12.8961 265.111 11.17 265.111H11.167Z" fill="#34302F"/>
<path d="M158.606 65.1158C166.05 67.3635 174.097 75.4592 177.871 79.2419C186.736 88.117 194.722 96.1831 200.348 107.648C212.331 132.067 217.867 162.403 209.386 189.001C202.637 210.181 189.031 230.513 175.814 248.17C168.117 258.452 158.446 268.249 152.575 279.481C151.157 282.197 151.186 285.113 150.011 287.66C148.299 291.375 145.876 291.597 141.813 291.963C135.304 292.545 125.425 292.059 120.175 288.207C112.592 282.648 118.193 279.33 122.971 274.841C128.45 269.697 126.905 255.928 128.889 248.158C130.797 240.693 133.095 233.987 126.188 227.923C122.02 224.263 115.748 223.193 110.605 225.272C108.944 225.939 107.415 226.9 105.975 227.964C102.575 230.476 99.5774 233.643 97.7846 237.472C96.3666 240.495 96.334 243.692 96.6615 246.956C96.9934 250.25 97.0571 253.512 97.2586 256.824C97.6156 262.702 98.5476 268.55 100.038 274.247C100.755 276.994 101.674 278.592 103.12 280.929C104.433 283.057 105.285 285.466 103.425 287.576C100.065 291.386 85.1787 290.352 80.6996 289.908C78.0386 289.643 72.309 289.841 70.368 287.66C68.5338 285.593 70.7473 283.814 69.6257 280.677C67.2269 273.958 61.5655 267.756 58.3178 261.386C55.6597 256.169 54.5262 250.274 52.3882 244.708C50.1761 238.945 48.9167 232.76 48.8485 226.54C48.7226 214.797 51.674 202.773 53.1527 192.541C66.0031 177.015 78.8564 161.487 91.7068 145.959C102.45 132.98 113.192 120.001 123.936 107.023C128.809 101.135 134.718 96.3757 138.126 89.4564C141.61 82.383 142.987 74.3139 147.981 68.0124C150.863 64.3764 154.65 63.9201 158.606 65.1143V65.1158Z" fill="#7F5F40"/>
<path d="M116.121 223.619C119.917 223.619 123.722 224.96 126.583 227.471C133.349 233.408 131.634 239.99 129.821 246.949C129.704 247.4 129.585 247.85 129.47 248.308C128.804 250.916 128.544 254.209 128.267 257.696C127.72 264.594 127.155 271.734 123.38 275.28C122.804 275.821 122.214 276.35 121.638 276.861C119.128 279.102 116.959 281.038 117.059 283.136C117.127 284.559 118.262 286.062 120.529 287.727C125.494 291.369 135.067 291.965 141.757 291.363C145.713 291.009 147.892 290.816 149.463 287.409C149.982 286.286 150.254 285.082 150.543 283.81C150.887 282.295 151.241 280.732 152.04 279.206C156.045 271.543 161.853 264.489 167.47 257.661C170.116 254.446 172.855 251.123 175.331 247.811C187.23 231.909 201.792 210.834 208.812 188.821C216.493 164.719 213.211 135.23 199.804 107.914C194.154 96.3984 186.035 88.2715 177.447 79.669L177.374 79.5964C173.575 75.7945 165.681 67.8839 158.429 65.6941C154.169 64.408 150.905 65.2896 148.448 68.3907C145.347 72.3037 143.621 77.0361 141.954 81.6144C140.97 84.3125 139.955 87.101 138.662 89.7265C136.293 94.5359 132.683 98.3734 129.194 102.085C127.586 103.795 125.924 105.561 124.395 107.41L53.7201 192.798C53.3141 195.585 52.8074 198.462 52.2725 201.504C50.8383 209.66 49.3551 218.097 49.4455 226.536C49.5122 232.577 50.6886 238.616 52.9452 244.494C53.7838 246.682 54.4772 248.936 55.1469 251.123C56.2285 254.645 57.2494 257.974 58.8496 261.111C60.1712 263.701 61.9433 266.34 63.6575 268.888C66.1615 272.608 68.7515 276.455 70.1872 280.475C70.7621 282.085 70.5369 283.395 70.3561 284.447C70.1561 285.607 70.0242 286.376 70.8139 287.259C72.2082 288.834 76.219 289.044 78.8726 289.188C79.5675 289.224 80.2224 289.261 80.7558 289.308C89.382 290.167 100.377 290.12 102.97 287.18C104.31 285.66 104.197 283.827 102.604 281.249C101.133 278.87 100.188 277.216 99.4513 274.404C97.9549 268.676 97.0125 262.775 96.654 256.861C96.5858 255.744 96.5339 254.637 96.4821 253.532C96.3813 251.399 96.2776 249.194 96.0583 247.017C95.7605 244.048 95.6672 240.563 97.2362 237.215C98.9224 233.614 101.74 230.346 105.614 227.485C107.341 226.21 108.855 225.327 110.377 224.714C112.201 223.981 114.158 223.621 116.118 223.621L116.121 223.619ZM136.996 292.774C130.754 292.774 123.937 291.716 119.82 288.693C117.243 286.806 115.948 285.002 115.861 283.189C115.733 280.52 118.213 278.308 120.84 275.966C121.409 275.461 121.99 274.938 122.559 274.403C125.995 271.176 126.542 264.276 127.071 257.599C127.351 254.06 127.615 250.718 128.307 248.007C128.424 247.551 128.542 247.1 128.659 246.648C130.452 239.768 131.999 233.823 125.791 228.372C121.786 224.856 115.775 223.835 110.829 225.83C109.404 226.4 107.974 227.236 106.331 228.449C102.619 231.19 99.9269 234.309 98.3267 237.723C96.8821 240.806 96.9755 244.087 97.257 246.894C97.4792 249.099 97.583 251.323 97.6852 253.474C97.737 254.574 97.7889 255.673 97.8556 256.78C98.2097 262.622 99.1387 268.445 100.616 274.095C101.324 276.804 102.221 278.338 103.627 280.615C104.311 281.727 106.399 285.105 103.873 287.972C100.14 292.202 83.8628 290.827 80.6373 290.502C80.132 290.455 79.489 290.418 78.8089 290.382C75.7849 290.227 71.6451 290.003 69.916 288.056C68.7441 286.74 68.9619 285.466 69.1737 284.239C69.3471 283.23 69.5264 282.19 69.0567 280.875C67.6713 276.999 65.1244 273.211 62.6619 269.552C60.9269 266.974 59.1341 264.311 57.7798 261.655C56.1322 258.422 55.0477 254.888 53.9986 251.468C53.3349 249.305 52.6489 247.069 51.8236 244.924C49.5166 238.908 48.3121 232.73 48.2439 226.545C48.152 217.995 49.6441 209.503 51.0887 201.292C51.6324 198.198 52.1466 195.275 52.554 192.454L52.5777 192.288L52.6859 192.158L123.469 106.64C125.023 104.762 126.697 102.981 128.318 101.258C131.904 97.4429 135.293 93.8395 137.582 89.1916C138.846 86.6254 139.852 83.8665 140.824 81.1996C142.524 76.5324 144.283 71.7051 147.506 67.641C150.265 64.1591 154.056 63.116 158.777 64.5413C166.318 66.8186 174.358 74.8744 178.222 78.7445L178.295 78.8171C186.961 87.4936 195.145 95.6872 200.885 107.382C214.425 134.973 217.73 164.789 209.954 189.184C202.887 211.369 188.253 232.55 176.294 248.53C173.801 251.859 171.054 255.195 168.399 258.422C162.822 265.2 157.052 272.208 153.105 279.762C152.38 281.15 152.043 282.635 151.717 284.07C151.426 285.351 151.127 286.672 150.557 287.911C148.693 291.95 145.977 292.19 141.865 292.556C140.327 292.694 138.683 292.772 136.995 292.772L136.996 292.774Z" fill="#76583B"/>
<path d="M57.1426 271.734C61.2142 277.094 67.0919 285.772 58.2701 288.555C49.6558 291.277 40.0191 289.751 31.1944 289.288C23.8528 288.897 14.222 290.887 7.5309 287.143C-2.77993 281.367 -0.107023 270.339 4.6239 261.919C9.663 252.952 19.5353 250.958 29.0638 252.785C39.8828 254.858 50.5833 263.097 57.1426 271.734V271.734Z" fill="#685039"/>
<path d="M115.881 197.113C98.3458 201.413 71.6064 204.268 56.5677 192C43.9277 181.688 40.0428 163.244 36.4898 148.248C33.6317 136.179 34.2406 122.927 33.6983 110.663C33.4168 104.335 34.4777 98.1374 36.1771 92.1975C29.6949 92.4523 22.5859 92.6212 18.9011 85.7804C15.4459 79.3723 16.8564 71.8322 20.845 66.1233C25.5522 59.3863 33.1783 58.564 40.2606 61.908C43.3498 63.366 46.3857 65.6137 49.2453 67.4761C50.3966 63.6668 56.7425 59.5226 59.9414 57.4483C68.3231 52.0106 78.8858 50.849 88.521 49.3051C99.3193 47.576 110.703 47.2901 121.206 50.7349C120.517 50.5082 125.161 43.1162 125.727 42.3058C128.028 39.0135 131.222 36.3021 134.975 34.7894C142.699 31.6764 150.93 35.1049 156.141 41.1412C161.495 47.3419 158.999 56.3756 155.234 62.9171C153.065 66.6864 152.222 66.8375 154.939 70.0675C160.011 76.0934 164.259 79.5856 167.189 87.3584C170.609 96.4335 171.12 105.692 173.218 114.988C174.06 118.71 174.42 122.656 174.901 126.44C175.869 134.017 176.482 141.769 175.298 149.358C174.541 154.218 172.913 158.912 170.648 163.269C166.211 171.808 159.439 178.985 151.902 184.878C142.656 192.107 127.133 194.355 115.883 197.112L115.881 197.113Z" fill="#906A44"/>
<path d="M130.028 57.1466L146.121 63.4318C146.121 63.4318 152.564 54.3196 143.44 49.3383C134.312 44.3555 130.028 57.1466 130.028 57.1466Z" fill="#42372F"/>
<path d="M130.489 56.9402L145.98 62.9898C146.567 62.0578 148.593 58.5019 147.777 54.9918C147.269 52.8079 145.753 51.0121 143.268 49.6564C141.073 48.4577 138.988 48.2325 137.068 48.9852C133.18 50.5113 131.002 55.6037 130.491 56.9402H130.489ZM146.252 63.8714L129.576 57.358L129.685 57.0321C129.778 56.7535 132.026 50.1868 136.801 48.3125C138.929 47.4784 141.219 47.7169 143.611 49.0222C146.285 50.4832 147.924 52.4375 148.478 54.8318C149.494 59.216 146.538 63.4624 146.412 63.6402L146.249 63.8714H146.252Z" fill="#42372F"/>
<path d="M38.9792 86.7336L46.1889 73.9706C46.1889 73.9706 36.8234 64.654 33.0482 77.0539C29.9026 87.387 38.9792 86.7336 38.9792 86.7336V86.7336Z" fill="#42372F"/>
<path d="M39.2934 70.9729C38.9096 70.9729 38.5259 71.0159 38.1451 71.1122C36.053 71.6382 34.4543 73.674 33.3949 77.1588C32.4096 80.3932 32.5474 82.832 33.8024 84.4041C35.3092 86.2932 38.0236 86.3895 38.7644 86.3806L45.7356 74.0414C44.974 73.3495 42.1485 70.9744 39.2934 70.9744V70.9729ZM38.6414 87.1037C37.6487 87.1037 34.8766 86.9096 33.2379 84.8545C31.8244 83.0854 31.6451 80.4258 32.703 76.9499C33.8438 73.2028 35.6159 71.004 37.9717 70.4113C42.0359 69.389 46.2645 73.5376 46.4423 73.7154L46.6379 73.9095L39.1971 87.0799L39.003 87.0948C38.9778 87.0962 38.8474 87.1037 38.64 87.1037H38.6414Z" fill="#42372F"/>
<path d="M102.959 284.932C101.193 284.541 98.6204 285.941 96.998 286.434C94.8407 287.083 92.6656 287.276 90.3276 287.51C87.1627 287.822 83.8246 287.96 80.6864 287.342C78.4565 286.898 76.643 285.167 74.5805 284.752C70.7979 283.984 68.7132 288.863 72.5447 290.473C73.2693 290.774 74.1523 290.978 75.0858 291.134C75.6444 292.762 76.1141 294.506 77.1349 295.726C78.2284 294.428 79.4804 293.165 80.5442 291.928C80.9783 292.001 81.4124 292.078 81.8495 292.139C83.2186 293.959 84.7506 296.02 85.7418 298.034C86.5449 296.14 87.6384 293.582 89.4 292.439C90.7306 293.894 91.7529 296.195 93.2094 297.253C94.2362 295.666 94.9177 293.719 96.0645 292.361C97.7047 293.287 98.6707 295.155 100.318 295.81C100.669 294.223 100.966 292.463 101.219 290.786C101.756 290.552 102.265 290.257 102.735 289.889C104.784 288.279 106.122 285.634 102.957 284.932H102.959Z" fill="#34302F"/>
<path d="M80.5468 291.537L80.6135 291.543L80.7513 291.566C81.1336 291.633 81.5158 291.698 81.9011 291.753C82.0048 291.765 82.0981 291.82 82.1618 291.903C83.3012 293.417 84.6866 295.267 85.7089 297.131C86.4957 295.322 87.5565 293.171 89.1908 292.113C89.3493 292.011 89.5597 292.034 89.6872 292.174C90.2517 292.793 90.7599 293.55 91.2533 294.29C91.84 295.167 92.443 296.069 93.1157 296.669C93.4343 296.14 93.7261 295.57 94.0106 295.01C94.5292 293.995 95.0656 292.949 95.7723 292.107C95.8923 291.969 96.0968 291.926 96.2583 292.023C97.0613 292.473 97.6985 293.128 98.3148 293.759C98.8808 294.335 99.4201 294.89 100.047 295.244C100.315 293.969 100.576 292.485 100.84 290.725C100.859 290.593 100.945 290.485 101.068 290.43C101.609 290.196 102.077 289.919 102.5 289.582C103.825 288.542 104.621 287.238 104.433 286.415C104.313 285.886 103.788 285.514 102.877 285.309C101.699 285.051 99.9861 285.718 98.6112 286.259C98.0704 286.469 97.5607 286.668 97.1117 286.8C95.0344 287.431 92.9512 287.635 90.7436 287.858L90.3672 287.893C87.6203 288.17 84.0272 288.398 80.612 287.718C79.4134 287.478 78.3481 286.901 77.3198 286.336C76.3612 285.813 75.4559 285.321 74.5061 285.128C72.7059 284.761 71.3858 285.813 71.008 287.034C70.6968 288.049 70.9754 289.39 72.697 290.111C73.3105 290.371 74.0898 290.575 75.1521 290.754C75.2914 290.778 75.407 290.874 75.4544 291.012C75.5374 291.252 75.6204 291.5 75.7018 291.746C76.0974 292.935 76.5034 294.162 77.1568 295.104C77.6487 294.54 78.1658 293.98 78.6681 293.433C79.2282 292.826 79.7571 292.249 80.255 291.673C80.329 291.583 80.4372 291.535 80.5483 291.535L80.5468 291.537ZM85.743 298.417C85.5963 298.417 85.4615 298.333 85.3963 298.201C84.4154 296.211 82.8908 294.162 81.6388 292.498C81.3232 292.457 81.0091 292.402 80.6965 292.343C80.2298 292.883 79.7245 293.43 79.2356 293.959C78.6296 294.614 78.0043 295.294 77.4324 295.973C77.3583 296.063 77.2502 296.11 77.1361 296.11H77.1346C77.0205 296.11 76.9124 296.062 76.8383 295.973C75.9226 294.879 75.4351 293.412 74.964 291.994C74.9077 291.82 74.8514 291.652 74.7936 291.477C73.7861 291.297 73.02 291.092 72.3963 290.828C70.196 289.902 69.873 288.087 70.2657 286.807C70.7457 285.25 72.4081 283.911 74.6573 284.367C75.7226 284.583 76.7212 285.13 77.6887 285.659C78.6666 286.194 79.6786 286.746 80.7602 286.957C84.0761 287.618 87.5921 287.389 90.2872 287.126L90.6636 287.084C92.8327 286.874 94.8804 286.669 96.885 286.062C97.3029 285.936 97.7992 285.743 98.3252 285.533C99.875 284.931 101.632 284.241 103.041 284.554C104.572 284.896 105.05 285.66 105.184 286.243C105.499 287.631 104.191 289.242 102.975 290.197C102.557 290.522 102.086 290.811 101.57 291.051C101.28 292.956 100.994 294.543 100.696 295.894C100.672 296.002 100.6 296.099 100.499 296.152C100.4 296.207 100.28 296.213 100.174 296.17C99.2098 295.785 98.4704 295.027 97.7562 294.3C97.2555 293.783 96.7413 293.26 96.1516 292.864C95.6019 293.592 95.1604 294.451 94.6951 295.364C94.3351 296.067 93.9632 296.794 93.5335 297.454C93.4758 297.545 93.3839 297.61 93.2787 297.629C93.175 297.647 93.0668 297.623 92.9809 297.562C92.0637 296.896 91.3229 295.789 90.6058 294.719C90.1983 294.106 89.7775 293.482 89.336 292.953C87.8218 294.119 86.8305 296.451 86.0956 298.182C86.0364 298.32 85.9015 298.416 85.7504 298.416H85.7386L85.743 298.417Z" fill="#34302F"/>
<path d="M147.531 289.017C145.87 288.302 143.08 289.186 141.394 289.365C139.154 289.594 136.982 289.371 134.641 289.161C131.473 288.872 128.169 288.38 125.204 287.179C123.097 286.319 121.644 284.276 119.697 283.482C116.127 282.015 113.16 286.408 116.619 288.711C117.273 289.149 118.101 289.517 118.988 289.847C119.23 291.554 119.362 293.351 120.135 294.739C121.455 293.676 122.922 292.673 124.201 291.65C124.611 291.812 125.023 291.969 125.443 292.107C126.443 294.156 127.557 296.47 128.151 298.633C129.298 296.926 130.854 294.618 132.8 293.825C133.832 295.502 134.402 297.961 135.633 299.27C136.94 297.912 137.977 296.128 139.361 295.009C140.795 296.223 141.393 298.248 142.887 299.198C143.531 297.701 144.154 296.036 144.72 294.431C145.291 294.305 145.846 294.113 146.378 293.843C148.694 292.647 150.508 290.303 147.532 289.017H147.531Z" fill="#34302F"/>
<path d="M132.802 293.44C132.934 293.44 133.06 293.505 133.133 293.627C133.57 294.337 133.925 295.178 134.27 295.995C134.681 296.962 135.103 297.965 135.65 298.687C136.065 298.223 136.459 297.713 136.843 297.226C137.543 296.325 138.269 295.393 139.121 294.707C139.267 294.587 139.474 294.593 139.615 294.713C140.319 295.307 140.821 296.066 141.305 296.805C141.753 297.478 142.178 298.127 142.726 298.59C143.231 297.383 143.768 295.977 144.358 294.305C144.402 294.18 144.507 294.083 144.638 294.054C145.201 293.934 145.727 293.741 146.204 293.495C147.702 292.726 148.728 291.596 148.7 290.748C148.682 290.207 148.238 289.745 147.382 289.372C146.272 288.89 144.466 289.226 143.014 289.498C142.443 289.6 141.902 289.702 141.437 289.749C139.289 289.972 137.211 289.779 135.013 289.582L134.611 289.546C131.861 289.3 128.292 288.849 125.063 287.533C123.933 287.076 122.997 286.3 122.093 285.555C121.25 284.864 120.453 284.202 119.555 283.836C117.86 283.138 116.362 283.921 115.76 285.05C115.262 285.987 115.285 287.357 116.839 288.391C117.393 288.757 118.12 289.106 119.128 289.484C119.261 289.533 119.356 289.653 119.377 289.791C119.412 290.043 119.446 290.302 119.479 290.554C119.642 291.799 119.811 293.085 120.273 294.135C120.86 293.673 121.47 293.222 122.063 292.782C122.731 292.289 123.362 291.827 123.964 291.347C124.071 291.262 124.216 291.238 124.345 291.286C124.721 291.43 125.146 291.593 125.567 291.736C125.666 291.766 125.749 291.839 125.795 291.935C126.584 293.545 127.63 295.691 128.292 297.734C129.405 296.106 130.851 294.2 132.658 293.467L132.804 293.437L132.802 293.44ZM135.635 299.66H135.634C135.527 299.654 135.426 299.611 135.354 299.534C134.577 298.71 134.059 297.485 133.556 296.295C133.272 295.623 132.977 294.925 132.644 294.325C130.934 295.184 129.522 297.288 128.476 298.85C128.39 298.97 128.24 299.036 128.092 299.011C127.942 298.987 127.821 298.879 127.779 298.734C127.191 296.595 126.038 294.203 125.167 292.418C124.857 292.316 124.552 292.202 124.269 292.093C123.706 292.532 123.105 292.976 122.519 293.409C121.805 293.938 121.066 294.485 120.38 295.037C120.291 295.11 120.174 295.134 120.063 295.116C119.952 295.092 119.854 295.026 119.799 294.923C119.104 293.673 118.904 292.141 118.71 290.656C118.688 290.475 118.663 290.302 118.639 290.127C117.685 289.761 116.971 289.412 116.408 289.034C114.421 287.712 114.447 285.866 115.076 284.688C115.84 283.245 117.725 282.248 119.847 283.12C120.853 283.535 121.733 284.255 122.583 284.959C123.444 285.669 124.331 286.401 125.354 286.816C128.488 288.09 131.984 288.529 134.679 288.774L135.082 288.81C137.243 289.009 139.284 289.188 141.357 288.979C141.793 288.932 142.317 288.835 142.873 288.733C144.509 288.432 146.362 288.084 147.687 288.66C149.125 289.286 149.451 290.127 149.472 290.721C149.52 292.139 147.931 293.474 146.556 294.182C146.082 294.428 145.564 294.621 145.015 294.759C144.374 296.568 143.793 298.07 143.245 299.345C143.2 299.453 143.111 299.531 143.003 299.561C142.895 299.596 142.778 299.579 142.682 299.519C141.806 298.967 141.224 298.084 140.659 297.229C140.264 296.627 139.858 296.015 139.354 295.522C138.678 296.123 138.081 296.892 137.453 297.697C136.967 298.322 136.465 298.965 135.915 299.536C135.842 299.608 135.742 299.656 135.636 299.656L135.635 299.66Z" fill="#34302F"/>
<path d="M55.2668 82.8866C43.6358 100.24 42.892 123.244 49.192 143.162C51.2989 149.825 54.1955 156.357 58.7324 161.674C62.0202 165.529 66.0991 168.655 70.4582 171.236C87.1831 181.138 109.381 182.593 125.916 172.377C133.593 167.634 139.727 160.724 144.776 153.246C154.754 138.463 160.892 119.935 156.431 102.668C153.912 92.9189 148.125 84.1549 140.631 77.4282C133.137 70.7015 123.993 65.9528 114.383 62.945C111.826 62.145 109.22 61.4604 106.554 61.176C101.995 60.6885 96.879 61.7034 92.2888 61.976C86.703 62.3079 81.2342 63.9718 76.0173 65.9128C67.5067 69.0806 60.2866 75.3983 55.2668 82.8881V82.8866Z" fill="#C19969"/>
<path d="M109.417 102.381C109.089 102.052 108.734 101.745 108.347 101.463C102.868 97.463 94.876 98.5624 89.219 101.284C82.8864 104.332 81.8493 108.252 81.0433 114.798C80.4995 119.221 81.1796 123.466 81.1618 127.821C81.1485 131.563 79.6416 134.575 78.6548 138.189C76.2412 147.029 79.6253 156.338 88.7938 159.272C97.337 162.005 118.295 160.282 121.498 149.871C124.642 139.653 112.474 131.371 112.84 121.377C113.057 115.452 113.883 106.863 109.415 102.378L109.417 102.381Z" fill="#E7CDAF"/>
<path d="M99.2558 123.6C110.715 125.979 111.831 135.782 100.291 138.545C94.3219 139.975 83.5843 139.058 85.6009 130.325C87.0144 124.204 93.8522 122.477 99.2558 123.6Z" fill="#34302F"/>
<path d="M96.1293 124.003C91.7007 124.003 87.3357 126.021 86.3045 130.49C85.7696 132.801 86.1741 134.644 87.5046 135.963C90.0901 138.529 95.9367 138.848 100.124 137.845C104.837 136.716 107.74 134.207 107.695 131.299C107.648 128.125 104.277 125.381 99.1104 124.308C98.1399 124.107 97.1339 124.003 96.1308 124.003H96.1293ZM95.4463 139.806C92.1689 139.806 88.6159 139.1 86.4867 136.988C84.7784 135.293 84.2435 132.997 84.8984 130.165C86.3697 123.791 93.4712 121.663 99.4038 122.895C105.259 124.11 109.08 127.4 109.14 131.276C109.195 134.899 105.868 137.953 100.462 139.249C99.0882 139.578 97.3132 139.806 95.4478 139.806H95.4463Z" fill="#34302F"/>
<path d="M89.5937 130.097C89.1033 127.722 91.6976 125.978 93.8445 126.067C94.249 126.085 94.7365 125.959 94.9276 125.558C95.0965 125.201 94.778 124.872 94.4194 124.857C91.3628 124.729 87.1875 126.949 87.9313 130.542C88.0913 131.315 89.7567 130.884 89.5937 130.096V130.097Z" fill="#FEFEFE"/>
<path d="M81.7814 98.3566C81.7814 103.142 77.9025 107.021 73.1167 107.021C68.331 107.021 64.452 103.142 64.452 98.3566C64.452 93.5724 68.331 89.6919 73.1167 89.6919C77.9025 89.6919 81.7814 93.5709 81.7814 98.3566Z" fill="#34302F"/>
<path d="M129.207 94.4049C129.207 99.1892 125.328 103.07 120.543 103.07C115.758 103.07 111.878 99.1907 111.878 94.4049C111.878 89.6207 115.757 85.7402 120.543 85.7402C125.328 85.7402 129.207 89.6192 129.207 94.4049Z" fill="#34302F"/>
<path d="M95.6938 134.23C95.4241 140.99 96.2686 147.672 98.2081 154.153C98.46 154.994 99.7802 154.636 99.5268 153.79C97.6214 147.42 96.7976 140.873 97.0613 134.23C97.0969 133.35 95.7278 133.352 95.6938 134.23Z" fill="#34302F"/>
<path d="M85.2513 142.329C86.1833 149.325 91.412 156.361 99.2441 155.192C106.507 154.108 112.037 146.897 111.974 139.73C111.967 138.851 110.598 138.848 110.605 139.73C110.66 145.889 106.3 151.897 100.303 153.572C92.907 155.635 87.5094 148.999 86.6204 142.329C86.5063 141.469 85.1358 141.458 85.2528 142.329H85.2513Z" fill="#34302F"/>
<path d="M114.852 78.4912C117.236 73.541 123.393 72.6876 127.013 76.8347C128.173 78.1638 130.102 76.2213 128.948 74.8997C124.224 69.4902 115.609 70.634 112.488 77.1103C111.727 78.6897 114.086 80.0795 114.85 78.4912H114.852Z" fill="#34302F"/>
<path d="M64.5761 82.1756C65.4992 79.5842 67.3172 76.9676 70.0938 76.1661C72.5356 75.4608 75.5478 76.4994 76.4916 78.9871C77.1094 80.6184 79.7557 79.9102 79.1304 78.2596C77.8043 74.7585 74.2143 72.7775 70.5087 73.2976C66.203 73.9036 63.3167 77.5825 61.9403 81.4482C61.3476 83.1091 63.9909 83.8247 64.5791 82.1756H64.5761Z" fill="#34302F"/>
<path d="M78.0561 95.0126C78.0561 96.6498 76.7286 97.9774 75.0928 97.9774C73.4556 97.9774 72.1295 96.6498 72.1295 95.0126C72.1295 93.3769 73.4571 92.0493 75.0928 92.0493C76.73 92.0493 78.0561 93.3769 78.0561 95.0126Z" fill="#FEFEFE"/>
<path d="M125.483 91.1371C125.483 92.7744 124.155 94.1019 122.518 94.1019C120.882 94.1019 119.555 92.7744 119.555 91.1371C119.555 89.4999 120.882 88.1738 122.518 88.1738C124.155 88.1738 125.483 89.5014 125.483 91.1371Z" fill="#FEFEFE"/>
<path d="M59.1933 183.332C59.7119 182.324 60.232 181.318 60.7506 180.311C61.1536 179.53 59.9727 178.837 59.5697 179.62C59.0511 180.628 58.5325 181.635 58.0125 182.641C57.6109 183.422 58.7903 184.116 59.1933 183.332Z" fill="#7A5B3C"/>
<path d="M65.6502 186.409C66.2874 185.547 66.7215 184.56 66.9348 183.51C67.1097 182.65 65.7925 182.283 65.6162 183.147C65.4221 184.099 65.0457 184.937 64.4694 185.719C63.9463 186.429 65.1331 187.11 65.6502 186.409V186.409Z" fill="#7A5B3C"/>
<path d="M75.4146 184.714C75.7227 183.905 76.0324 183.096 76.3406 182.287C76.6547 181.463 75.3331 181.107 75.0219 181.924C74.7137 182.733 74.4041 183.542 74.0959 184.351C73.7818 185.174 75.1034 185.53 75.4146 184.714Z" fill="#7A5B3C"/>
<path d="M80.8357 195.645C81.2521 194.331 81.6684 193.017 82.0833 191.703C82.35 190.861 81.0298 190.501 80.7646 191.34C80.3483 192.654 79.9319 193.968 79.5171 195.281C79.2504 196.122 80.5705 196.483 80.8357 195.645Z" fill="#7A5B3C"/>
<path d="M91.2814 188.194C91.2814 187.282 91.2814 186.37 91.2814 185.457C91.2814 184.577 89.9124 184.575 89.9124 185.457C89.9124 186.37 89.9124 187.281 89.9124 188.194C89.9124 189.074 91.2814 189.075 91.2814 188.194Z" fill="#7A5B3C"/>
<path d="M100.705 192.753C100.705 191.942 100.705 191.132 100.705 190.32C100.705 189.44 99.3374 189.438 99.3374 190.32C99.3374 191.13 99.3374 191.941 99.3374 192.753C99.3374 193.633 100.705 193.634 100.705 192.753Z" fill="#7A5B3C"/>
<path d="M119.188 187.93C119.494 188.64 119.797 189.348 120.103 190.058C120.248 190.397 120.747 190.473 121.038 190.303C121.389 190.097 121.43 189.708 121.284 189.366C120.98 188.656 120.676 187.948 120.371 187.238C120.226 186.899 119.726 186.824 119.434 186.993C119.083 187.198 119.043 187.587 119.188 187.929V187.93Z" fill="#7A5B3C"/>
<path d="M129.557 175.752C129.855 176.262 130.152 176.773 130.452 177.282C130.895 178.042 132.079 177.355 131.633 176.592C131.335 176.082 131.037 175.571 130.739 175.061C130.296 174.301 129.112 174.989 129.558 175.752H129.557Z" fill="#7A5B3C"/>
<path d="M140.683 179.26C140.869 179.929 141.418 180.477 142.102 180.621C142.452 180.695 142.858 180.518 142.944 180.143C143.022 179.8 142.84 179.38 142.465 179.302L142.339 179.271C142.29 179.259 142.259 179.237 142.323 179.268L142.21 179.204C142.111 179.145 142.216 179.219 142.17 179.172L142.08 179.078C142.012 179 142.121 179.151 142.073 179.06C142.067 179.05 142.004 178.939 142.033 178.998C142.062 179.062 142.003 178.897 142.001 178.897C141.902 178.542 141.518 178.321 141.16 178.42C140.803 178.518 140.582 178.905 140.681 179.262L140.683 179.26Z" fill="#7A5B3C"/>
<path d="M145.765 162.213C146.479 162.918 147.193 163.622 147.907 164.327C148.534 164.946 149.503 163.979 148.875 163.359C148.161 162.656 147.447 161.95 146.733 161.245C146.106 160.626 145.137 161.593 145.765 162.213Z" fill="#7A5B3C"/>
<path d="M155.958 167.282L156.095 167.276C156.141 167.273 156.191 167.283 156.117 167.271L156.249 167.304L156.314 167.326H156.307L156.424 167.396C156.514 167.455 156.37 167.34 156.446 167.415L156.508 167.471L156.569 167.571C156.757 167.889 157.187 168.002 157.505 167.815C157.824 167.628 157.939 167.199 157.75 166.879C157.387 166.261 156.682 165.856 155.957 165.914C155.59 165.944 155.272 166.208 155.272 166.599C155.272 166.945 155.587 167.311 155.957 167.282H155.958Z" fill="#7A5B3C"/>
<path d="M153.225 151.462C153.862 151.498 154.45 151.687 154.999 152.012C155.759 152.461 156.448 151.278 155.689 150.831C154.931 150.383 154.102 150.143 153.225 150.096C152.345 150.047 152.348 151.416 153.225 151.464V151.462Z" fill="#7A5B3C"/>
<path d="M162.344 154.22C162.75 154.22 163.156 154.22 163.559 154.22C163.93 154.22 164.244 153.906 164.244 153.535C164.244 153.165 163.931 152.851 163.559 152.851C163.155 152.851 162.749 152.851 162.344 152.851C161.976 152.851 161.66 153.165 161.66 153.535C161.66 153.906 161.973 154.22 162.344 154.22Z" fill="#7A5B3C"/>
<path d="M158.59 140.868C159.399 140.636 160.159 140.796 160.838 141.289C161.55 141.808 162.233 140.622 161.528 140.108C160.575 139.415 159.355 139.227 158.227 139.551C157.382 139.794 157.743 141.114 158.59 140.87V140.868Z" fill="#7A5B3C"/>
<path d="M162.345 147.228C163.054 147.228 163.764 147.228 164.472 147.228C165.352 147.228 165.354 145.86 164.472 145.86C163.763 145.86 163.054 145.86 162.345 145.86C161.465 145.86 161.463 147.228 162.345 147.228Z" fill="#7A5B3C"/>
<path d="M167.699 137.193C168.609 137.061 169.511 137.157 170.388 137.424C171.23 137.68 171.59 136.36 170.748 136.104C169.625 135.763 168.495 135.705 167.335 135.874C166.466 135.998 166.835 137.317 167.698 137.193H167.699Z" fill="#7A5B3C"/>
<path d="M162.648 127.162C163.358 127.162 164.068 127.162 164.776 127.162C165.656 127.162 165.658 125.794 164.776 125.794C164.066 125.794 163.357 125.794 162.648 125.794C161.768 125.794 161.767 127.162 162.648 127.162Z" fill="#7A5B3C"/>
<path d="M167.21 120.463C168.096 120.552 168.984 120.443 169.824 120.147C170.646 119.857 170.294 118.535 169.461 118.828C168.72 119.089 167.991 119.174 167.21 119.095C166.335 119.006 166.341 120.375 167.21 120.463Z" fill="#7A5B3C"/>
<path d="M161.626 108.627C162.538 108.325 163.451 108.021 164.362 107.719C165.194 107.443 164.838 106.122 163.999 106.4C163.087 106.702 162.174 107.005 161.261 107.308C160.43 107.584 160.787 108.906 161.626 108.627Z" fill="#7A5B3C"/>
<path d="M163.447 99.837C164.157 99.7378 164.866 99.64 165.576 99.5407C165.942 99.4903 166.142 99.0221 166.055 98.6991C165.946 98.305 165.58 98.1702 165.213 98.222C164.503 98.3198 163.794 98.4191 163.084 98.5169C162.718 98.5673 162.518 99.0355 162.607 99.3585C162.715 99.7526 163.081 99.8874 163.448 99.837H163.447Z" fill="#7A5B3C"/>
<path d="M53.3483 171.927C53.9587 171.22 54.5692 170.512 55.1811 169.805C55.7545 169.142 54.79 168.17 54.2136 168.838C53.6032 169.545 52.9912 170.253 52.3808 170.96C51.8074 171.623 52.7719 172.595 53.3483 171.927Z" fill="#7A5B3C"/>
<path d="M46.8185 166.685C47.469 166.621 48.0705 166.366 48.5136 165.872C48.7595 165.596 48.7847 165.175 48.5136 164.904C48.2632 164.654 47.7935 164.627 47.546 164.904C47.3934 165.076 47.3519 165.1 47.1727 165.206C47.0971 165.242 47.0852 165.249 47.1371 165.228L46.9978 165.276C46.9697 165.285 46.7237 165.326 46.82 165.317C46.4526 165.353 46.1355 165.606 46.1355 166.002C46.1355 166.344 46.4496 166.722 46.82 166.686L46.8185 166.685Z" fill="#7A5B3C"/>
<path d="M49.4173 156.133C49.9255 155.73 50.4322 155.325 50.9404 154.921C51.2293 154.691 51.1804 154.195 50.9404 153.953C50.6545 153.667 50.2633 153.722 49.9729 153.953C49.4662 154.356 48.958 154.761 48.4498 155.165C48.1608 155.395 48.2097 155.893 48.4498 156.133C48.7357 156.419 49.1269 156.362 49.4173 156.133Z" fill="#7A5B3C"/>
<path d="M42.6402 152.976C43.4314 152.536 44.2226 152.094 45.0138 151.654C45.7828 151.226 45.0938 150.044 44.3233 150.473C43.5321 150.913 42.7409 151.355 41.9497 151.795C41.1807 152.223 41.8697 153.406 42.6402 152.976Z" fill="#7A5B3C"/>
<path d="M40.1747 135.282C40.8844 134.978 41.5941 134.675 42.3038 134.372C42.6431 134.227 42.7187 133.726 42.5498 133.436C42.3438 133.085 41.9557 133.045 41.6134 133.191C40.9037 133.495 40.194 133.797 39.4843 134.101C39.145 134.246 39.0694 134.747 39.2398 135.038C39.4457 135.389 39.8339 135.429 40.1762 135.283L40.1747 135.282Z" fill="#7A5B3C"/>
<path d="M41.6505 120.169C42.3602 120.169 43.0684 120.169 43.7782 120.169C44.6583 120.169 44.6597 118.8 43.7782 118.8C43.0684 118.8 42.3587 118.8 41.6505 118.8C40.7704 118.8 40.7689 120.169 41.6505 120.169Z" fill="#7A5B3C"/>
<path d="M39.4045 101.312C40.1186 101.194 40.8135 101.308 41.4817 101.572C42.2996 101.896 42.6567 100.573 41.8447 100.253C40.9394 99.896 39.9956 99.8352 39.04 99.9938C38.1732 100.137 38.5407 101.456 39.4045 101.314V101.312Z" fill="#7A5B3C"/>
<path d="M44.5015 91.5977C44.9074 91.6999 45.3119 91.8007 45.7179 91.9029C46.0765 91.9933 46.4602 91.7873 46.5595 91.4258C46.6558 91.0746 46.441 90.6746 46.0809 90.5842C45.6764 90.482 45.2704 90.3798 44.8645 90.279C44.5074 90.1901 44.1236 90.3946 44.0229 90.7576C43.9266 91.1087 44.1414 91.5088 44.5015 91.5991V91.5977Z" fill="#7A5B3C"/>
<path d="M29.1633 88.8173C29.5692 88.2098 29.9752 87.6009 30.3812 86.9949C30.8716 86.26 29.6863 85.5754 29.2003 86.3044C28.7943 86.9119 28.3884 87.5208 27.9824 88.1283C27.492 88.8617 28.6758 89.5478 29.1633 88.8188V88.8173Z" fill="#7A5B3C"/>
<path d="M24.253 85.3737C25.2086 84.5365 26.305 83.9468 27.5244 83.5942C28.3675 83.3497 28.0089 82.0296 27.1614 82.2755C25.7124 82.6948 24.4189 83.4149 23.2854 84.4076C22.6217 84.9884 23.5921 85.953 24.253 85.3751V85.3737Z" fill="#7A5B3C"/>
<path d="M20.9769 77.0004C21.8896 77.0004 22.8008 77.0004 23.7135 77.0004C24.5936 77.0004 24.5951 75.6313 23.7135 75.6313C22.8023 75.6313 21.8896 75.6313 20.9769 75.6313C20.0968 75.6313 20.0953 77.0004 20.9769 77.0004Z" fill="#7A5B3C"/>
<path d="M23.2321 69.3526C23.7358 69.4608 24.1181 69.7126 24.4367 70.1171C24.6648 70.4075 25.1642 70.3572 25.4042 70.1171C25.6916 69.8297 25.6324 69.4415 25.4042 69.1496C24.9582 68.5821 24.3004 68.1836 23.5951 68.0325C23.2336 67.9554 22.8557 68.1391 22.7535 68.511C22.6602 68.8518 22.8676 69.2741 23.2306 69.3526H23.2321Z" fill="#7A5B3C"/>
<path d="M27.8535 74.2603C28.1187 74.1892 28.4328 74.2678 28.6017 74.5285C29.0818 75.2634 30.2656 74.5774 29.7826 73.8381C29.2848 73.075 28.3751 72.7046 27.489 72.9417C26.6386 73.1698 27.0001 74.4885 27.852 74.2603H27.8535Z" fill="#7A5B3C"/>
<path d="M32.3398 67.9113C32.1249 67.0016 31.9116 66.0918 31.6968 65.1836C31.4952 64.3272 30.1751 64.6887 30.3781 65.5466C30.5914 66.4563 30.8063 67.3646 31.0196 68.2743C31.2211 69.1307 32.5413 68.7677 32.3398 67.9113Z" fill="#7A5B3C"/>
<path d="M38.3568 67.0729C38.459 66.7692 38.5597 66.4654 38.6605 66.1602C38.7746 65.8209 38.5301 65.3986 38.1834 65.3186C37.8056 65.2327 37.4633 65.4327 37.3418 65.7957C37.2396 66.0995 37.1388 66.4047 37.0381 66.7084C36.9255 67.0477 37.1685 67.47 37.5167 67.55C37.8945 67.6359 38.2367 67.4359 38.3568 67.0714V67.0729Z" fill="#7A5B3C"/>
<path d="M47.1224 70.0072C48.0025 70.0072 48.004 68.6396 47.1224 68.6396C46.2423 68.6396 46.2408 70.0072 47.1224 70.0072Z" fill="#7A5B3C"/>
<path d="M49.0647 81.248C49.6855 81.4465 50.1863 81.8599 50.5167 82.42C50.9627 83.1786 52.1451 82.4911 51.6976 81.7295C51.1864 80.8598 50.3878 80.2345 49.4277 79.9293C48.5876 79.6611 48.2276 80.9813 49.0647 81.248V81.248Z" fill="#7A5B3C"/>
<path d="M52.2487 66.7662C52.4265 67.4655 52.7984 68.0997 53.3229 68.5945C53.963 69.199 54.932 68.233 54.2904 67.627C53.9274 67.2847 53.6904 66.8847 53.5674 66.4017C53.3496 65.5482 52.0294 65.9098 52.2487 66.7647V66.7662Z" fill="#7A5B3C"/>
<path d="M52.8518 73.5715C53.2563 73.8752 53.6623 74.179 54.0667 74.4827C54.3631 74.705 54.8313 74.5316 55.0032 74.2382C55.2076 73.8886 55.0535 73.5241 54.7572 73.3018C54.3527 72.9981 53.9467 72.6944 53.5408 72.3906C53.2444 72.1684 52.7762 72.3432 52.6044 72.6351C52.3999 72.9848 52.554 73.3492 52.8503 73.5715H52.8518Z" fill="#7A5B3C"/>
<path d="M60.8069 61.3319C61.2307 61.6267 61.5403 62.1216 61.5981 62.6372C61.6381 63.0047 61.8841 63.3217 62.2827 63.3217C62.6205 63.3217 63.0087 63.0062 62.9672 62.6372C62.8516 61.603 62.3567 60.7466 61.4989 60.1495C61.1951 59.9391 60.7388 60.0947 60.5639 60.3955C60.3654 60.7363 60.5047 61.12 60.8084 61.3319H60.8069Z" fill="#7A5B3C"/>
<path d="M66.8772 63.904C67.0802 64.3085 67.2832 64.7145 67.4847 65.1204C67.6507 65.4508 68.1174 65.5442 68.4211 65.3664C68.7575 65.1693 68.8315 64.7619 68.6671 64.43C68.4641 64.0255 68.2611 63.6195 68.0581 63.2135C67.8936 62.8831 67.4269 62.7898 67.1232 62.9676C66.7869 63.1646 66.7113 63.5721 66.8772 63.904Z" fill="#7A5B3C"/>
<path d="M70.1978 57.0315C70.4008 57.5382 70.6053 58.0435 70.8082 58.5502C70.946 58.8939 71.2646 59.134 71.6498 59.0273C71.9743 58.9384 72.2662 58.5309 72.1284 58.1857C71.9239 57.6805 71.7209 57.1737 71.5165 56.667C71.3787 56.3248 71.0601 56.0833 70.6749 56.1885C70.3504 56.2773 70.057 56.6848 70.1978 57.03V57.0315Z" fill="#7A5B3C"/>
<path d="M64.4146 173.633C64.7183 173.026 65.0221 172.417 65.3273 171.809C65.7199 171.024 64.5405 170.331 64.1464 171.119C63.8427 171.728 63.5389 172.335 63.2337 172.943C62.8411 173.728 64.0205 174.421 64.4146 173.633Z" fill="#7A5B3C"/>
<path d="M79.7616 60.6188C79.6594 60.0113 79.5557 59.4024 79.4534 58.7949C79.3927 58.4304 78.9423 58.2259 78.6118 58.3178C78.2251 58.423 78.0725 58.7934 78.1333 59.1579C78.2355 59.7654 78.3392 60.3743 78.4415 60.9818C78.5022 61.3463 78.9526 61.5508 79.283 61.4604C79.6698 61.3537 79.8224 60.9848 79.7616 60.6203V60.6188Z" fill="#7A5B3C"/>
<path d="M84.8971 54.4264C84.8971 53.819 84.8971 53.21 84.8971 52.6025C84.8971 51.7224 83.5281 51.7209 83.5281 52.6025C83.5281 53.21 83.5281 53.819 83.5281 54.4264C83.5281 55.3065 84.8971 55.308 84.8971 54.4264Z" fill="#7A5B3C"/>
<path d="M90.5898 58.2486C90.6891 57.5389 90.7869 56.8292 90.8861 56.1195C90.9365 55.7535 90.7972 55.3846 90.4076 55.2779C90.0875 55.1905 89.6164 55.3875 89.566 55.7565C89.4667 56.4662 89.3689 57.1759 89.2711 57.8856C89.2208 58.2516 89.36 58.6205 89.7482 58.7272C90.0668 58.8146 90.5379 58.6175 90.5898 58.2486Z" fill="#7A5B3C"/>
<path d="M99.4825 58.6827C99.4603 57.5966 99.73 56.6039 100.299 55.6764C100.76 54.9237 99.5788 54.2362 99.1181 54.9859C98.4306 56.1046 98.0883 57.3684 98.115 58.6812C98.1328 59.5598 99.5018 59.5642 99.484 58.6812L99.4825 58.6827Z" fill="#7A5B3C"/>
<path d="M105.27 54.2147C105.617 53.5746 105.963 52.936 106.31 52.2944C106.729 51.5195 105.548 50.8291 105.129 51.604C104.782 52.2441 104.437 52.8841 104.091 53.5242C103.671 54.2976 104.852 54.9896 105.271 54.2147H105.27Z" fill="#7A5B3C"/>
<path d="M111.34 58.2632C111.642 57.4513 111.945 56.6408 112.247 55.8289C112.554 55.0036 111.232 54.6465 110.927 55.4659C110.624 56.2763 110.322 57.0883 110.02 57.8988C109.713 58.7255 111.035 59.0811 111.34 58.2632Z" fill="#7A5B3C"/>
<path d="M121.626 60.3712C122.127 59.1518 122.628 57.9339 123.128 56.716C123.463 55.9011 122.14 55.547 121.81 56.3515C121.309 57.5709 120.808 58.7888 120.307 60.0068C119.972 60.8202 121.296 61.1758 121.626 60.3712Z" fill="#7A5B3C"/>
<path d="M130.99 66.3117C131.193 65.9072 131.394 65.5012 131.597 65.0952C131.762 64.7648 131.685 64.3544 131.353 64.1588C131.049 63.981 130.582 64.0729 130.417 64.4048C130.214 64.8093 130.011 65.2153 129.809 65.6198C129.643 65.9502 129.722 66.3606 130.055 66.5562C130.359 66.734 130.825 66.6421 130.991 66.3102L130.99 66.3117Z" fill="#7A5B3C"/>
<path d="M138.906 72.3975C139.32 71.4892 139.734 70.581 140.148 69.6727C140.511 68.8771 139.331 68.1807 138.967 68.9823C138.552 69.8905 138.139 70.7988 137.725 71.707C137.364 72.5027 138.542 73.1991 138.906 72.3975Z" fill="#7A5B3C"/>
<path d="M146.88 71.8249C147.177 71.213 147.475 70.6026 147.771 69.9906C147.932 69.6588 147.861 69.2513 147.526 69.0542C147.226 68.8794 146.753 68.9653 146.59 69.2987C146.294 69.9106 145.996 70.5211 145.699 71.133C145.538 71.4649 145.609 71.8723 145.945 72.0694C146.246 72.2457 146.719 72.1583 146.882 71.8235L146.88 71.8249Z" fill="#7A5B3C"/>
<path d="M150.536 80.7513C150.684 80.2031 150.987 79.6904 151.445 79.3437C151.739 79.12 151.893 78.754 151.69 78.4073C151.521 78.1184 151.051 77.9376 150.755 78.1628C150.002 78.7318 149.463 79.4711 149.215 80.3883C148.986 81.2387 150.306 81.6017 150.536 80.7513Z" fill="#7A5B3C"/>
<path d="M156.719 87.1002C157.32 86.5861 157.922 86.0719 158.523 85.5578C158.803 85.3178 158.769 84.8377 158.523 84.5903C158.245 84.3117 157.837 84.3488 157.556 84.5903C156.954 85.1044 156.353 85.6186 155.751 86.1327C155.471 86.3727 155.505 86.8528 155.751 87.1002C156.03 87.3788 156.437 87.3417 156.719 87.1002Z" fill="#7A5B3C"/>
<path d="M157.024 92.8771C157.523 92.4623 158.022 92.0489 158.522 91.634C158.806 91.3984 158.766 90.911 158.522 90.6665C158.24 90.385 157.84 90.4294 157.554 90.6665C157.055 91.0814 156.556 91.4947 156.056 91.9081C155.772 92.1452 155.812 92.6312 156.056 92.8757C156.338 93.1557 156.738 93.1112 157.024 92.8757V92.8771Z" fill="#7A5B3C"/>
<path d="M146.39 172.232C146.99 172.948 147.59 173.664 148.19 174.379C148.758 175.055 149.719 174.083 149.158 173.412C148.558 172.696 147.958 171.98 147.357 171.263C146.792 170.588 145.828 171.56 146.39 172.232Z" fill="#7A5B3C"/>
<path d="M21.9133 287.148C19.4774 286.926 16.9971 286.619 14.7895 285.567C12.5803 284.516 10.6572 282.592 10.1993 280.195C9.74445 277.798 10.7831 275.375 11.9951 273.259C13.6901 270.296 15.8622 267.484 18.8388 265.813C23.4557 263.229 29.3393 263.836 34.1058 266.137C38.8723 268.438 42.7379 272.225 46.4228 276.023C60.3799 290.41 29.0311 287.784 21.9118 287.147L21.9133 287.148Z" fill="#B99466"/>
<path d="M151.517 60.4741C151.926 60.4741 152.334 60.4741 152.743 60.4741C153.215 60.4741 153.668 60.0592 153.644 59.5732C153.622 59.0843 153.249 58.6724 152.743 58.6724C152.334 58.6724 151.926 58.6724 151.517 58.6724C151.045 58.6724 150.594 59.0872 150.616 59.5732C150.638 60.0607 151.013 60.4741 151.517 60.4741V60.4741Z" fill="#7A5B3C"/>
<path d="M71.5207 127.737C71.5207 133.057 67.2076 137.37 61.887 137.37C56.5679 137.37 52.2548 133.057 52.2548 127.737C52.2548 122.418 56.5679 118.104 61.887 118.104C67.2061 118.104 71.5207 122.418 71.5207 127.737Z" fill="#F7C1C3"/>
<path d="M145.24 119.722C145.24 125.043 140.927 129.356 135.608 129.356C130.288 129.356 125.976 125.043 125.976 119.722C125.976 114.403 130.289 110.09 135.608 110.09C140.927 110.09 145.24 114.403 145.24 119.722Z" fill="#F7C1C3"/>
<path d="M62.5714 206.246C62.5714 207.447 62.5714 208.649 62.5714 209.852C62.5714 211.012 64.3746 211.014 64.3746 209.852C64.3746 208.65 64.3746 207.449 64.3746 206.246C64.3746 205.086 62.5714 205.084 62.5714 206.246Z" fill="#A6835A"/>
<path d="M67.9248 217.269C68.2715 218.355 68.6197 219.439 68.9664 220.525C69.319 221.626 71.06 221.157 70.7059 220.045C70.3577 218.959 70.011 217.875 69.6643 216.789C69.3116 215.688 67.5707 216.158 67.9263 217.269H67.9248Z" fill="#A6835A"/>
<path d="M77.8295 209.691C78.1302 211.018 78.431 212.347 78.7303 213.675C78.9866 214.805 80.7246 214.327 80.4683 213.196C80.1675 211.869 79.8667 210.54 79.5674 209.212C79.3111 208.08 77.5716 208.56 77.8295 209.691Z" fill="#A6835A"/>
<path d="M83.3679 219.718C83.5042 220.653 83.6405 221.586 83.7783 222.52C83.848 223.006 84.4599 223.271 84.8866 223.151C85.4037 223.007 85.5874 222.526 85.5163 222.043C85.38 221.108 85.2437 220.173 85.1059 219.239C85.0362 218.758 84.4258 218.492 83.9976 218.61C83.479 218.752 83.2968 219.235 83.3679 219.719V219.718Z" fill="#A6835A"/>
<path d="M97.8881 208.015C97.6599 209.268 97.7355 210.525 98.2096 211.716C98.3919 212.171 98.8097 212.479 99.3179 212.346C99.749 212.232 100.127 211.689 99.9476 211.237C99.595 210.353 99.4542 209.439 99.6261 208.495C99.832 207.361 98.094 206.874 97.8881 208.016V208.015Z" fill="#A6835A"/>
<path d="M100.228 215.316C100.533 216.103 100.84 216.888 101.145 217.675C101.321 218.128 101.751 218.442 102.255 218.304C102.687 218.184 103.061 217.652 102.884 217.195C102.579 216.408 102.272 215.623 101.967 214.836C101.791 214.382 101.363 214.068 100.857 214.206C100.425 214.326 100.051 214.858 100.229 215.316H100.228Z" fill="#A6835A"/>
<path d="M118.743 203.264C119.005 204.067 119.267 204.87 119.529 205.673C119.888 206.771 121.629 206.302 121.267 205.193C121.007 204.39 120.744 203.587 120.482 202.784C120.123 201.686 118.383 202.156 118.743 203.264Z" fill="#A6835A"/>
<path d="M126.653 212.907C126.797 213.705 126.939 214.505 127.083 215.306C127.169 215.786 127.754 216.055 128.192 215.935C128.698 215.796 128.908 215.307 128.822 214.827C128.678 214.027 128.535 213.227 128.392 212.428C128.306 211.948 127.723 211.678 127.284 211.798C126.779 211.938 126.569 212.427 126.654 212.908L126.653 212.907Z" fill="#A6835A"/>
<path d="M138.632 201.298C138.917 202.63 139.201 203.962 139.487 205.294C139.729 206.427 141.468 205.947 141.225 204.814C140.941 203.483 140.655 202.151 140.37 200.819C140.129 199.686 138.391 200.164 138.632 201.298Z" fill="#A6835A"/>
<path d="M145.105 215.862C145.105 216.93 145.105 217.998 145.105 219.067C145.105 220.227 146.909 220.228 146.909 219.067C146.909 217.998 146.909 216.93 146.909 215.862C146.909 214.702 145.105 214.7 145.105 215.862Z" fill="#A6835A"/>
<path d="M157.125 205.044C157.125 205.846 157.125 206.648 157.125 207.448C157.125 208.608 158.928 208.609 158.928 207.448C158.928 206.646 158.928 205.845 158.928 205.044C158.928 203.884 157.125 203.883 157.125 205.044Z" fill="#A6835A"/>
<path d="M163.527 187.267C163.826 188.192 164.126 189.116 164.425 190.041C164.782 191.14 166.523 190.671 166.163 189.561C165.864 188.636 165.564 187.712 165.265 186.787C164.909 185.688 163.168 186.158 163.527 187.267Z" fill="#A6835A"/>
<path d="M165.998 201.274C166.145 202.205 166.292 203.139 166.439 204.072C166.514 204.554 167.116 204.821 167.547 204.702C168.061 204.561 168.252 204.075 168.177 203.592C168.03 202.659 167.883 201.727 167.738 200.793C167.662 200.312 167.061 200.045 166.628 200.164C166.116 200.305 165.923 200.79 165.998 201.274Z" fill="#A6835A"/>
<path d="M174.858 189.885C175.13 190.287 175.393 190.688 175.657 191.091C175.921 191.497 176.45 191.67 176.89 191.416C177.293 191.18 177.485 190.59 177.214 190.183C176.951 189.781 176.685 189.378 176.416 188.977C176.152 188.571 175.623 188.397 175.183 188.654C174.78 188.889 174.595 189.479 174.858 189.886V189.885Z" fill="#A6835A"/>
<path d="M174.504 169.419C175.183 170.347 175.863 171.276 176.536 172.203C176.825 172.596 177.322 172.79 177.774 172.526C178.16 172.3 178.382 171.688 178.093 171.292C177.42 170.365 176.74 169.436 176.062 168.508C175.779 168.115 175.281 167.921 174.829 168.185C174.444 168.412 174.215 169.024 174.504 169.419Z" fill="#A6835A"/>
<path d="M183.092 181.986C183.735 182.726 183.999 183.641 183.952 184.61C183.892 185.77 185.694 185.767 185.755 184.61C185.827 183.155 185.31 181.806 184.367 180.711C183.609 179.831 182.341 181.111 183.092 181.986V181.986Z" fill="#A6835A"/>
<path d="M182.413 163.866C182.96 164.979 183.723 165.977 184.649 166.798C185.514 167.566 186.795 166.296 185.923 165.524C185.1 164.792 184.457 163.947 183.977 162.956C183.465 161.915 181.91 162.826 182.413 163.866V163.866Z" fill="#A6835A"/>
<path d="M181.602 143.734C182.263 144.165 182.66 144.821 182.821 145.583C183.067 146.716 184.805 146.238 184.558 145.103C184.3 143.882 183.549 142.858 182.514 142.176C181.541 141.536 180.633 143.098 181.6 143.734H181.602Z" fill="#A6835A"/>
<path d="M181.002 120.093C181.645 121.176 182.288 122.26 182.925 123.345C183.519 124.342 185.076 123.437 184.482 122.435C183.845 121.351 183.202 120.267 182.559 119.183C181.971 118.184 180.408 119.091 181.002 120.093Z" fill="#A6835A"/>
<path d="M186.47 151.023C186.873 151.825 187.269 152.626 187.672 153.427C188.189 154.465 189.745 153.553 189.229 152.517C188.826 151.715 188.43 150.914 188.027 150.114C187.51 149.075 185.955 149.988 186.47 151.023V151.023Z" fill="#A6835A"/>
<path d="M190.197 135.514C190.93 135.799 191.537 136.547 191.64 137.329C191.699 137.812 192.012 138.23 192.54 138.23C192.979 138.23 193.508 137.815 193.441 137.329C193.225 135.674 192.24 134.384 190.677 133.776C190.226 133.6 189.691 133.97 189.571 134.406C189.428 134.916 189.746 135.338 190.197 135.514V135.514Z" fill="#A6835A"/>
<path d="M128.487 48.6997C128.898 49.2242 129.307 49.7487 129.717 50.2732C130.017 50.6584 130.677 50.5888 130.991 50.2732C131.371 49.8939 131.292 49.3827 130.991 48.999C130.581 48.4744 130.172 47.9499 129.762 47.4254C129.462 47.0417 128.802 47.1113 128.487 47.4254C128.108 47.8047 128.187 48.3144 128.487 48.6997Z" fill="#7A5B3C"/>
<path d="M131.818 42.8503C132.092 43.6163 132.366 44.3823 132.64 45.1483C132.805 45.6061 133.255 45.9128 133.75 45.778C134.193 45.655 134.544 45.129 134.38 44.6682C134.106 43.9022 133.832 43.1362 133.557 42.3717C133.393 41.9138 132.944 41.6057 132.449 41.742C132.006 41.8635 131.655 42.3909 131.819 42.8503H131.818Z" fill="#7A5B3C"/>
<path d="M138.208 37.9018C138.208 38.4263 138.208 38.9523 138.208 39.4783C138.208 39.9658 138.622 40.3791 139.109 40.3791C139.598 40.3791 140.01 39.9672 140.01 39.4783C140.01 38.9523 140.01 38.4263 140.01 37.9018C140.01 37.4144 139.595 37.001 139.109 37.001C138.62 37.001 138.208 37.4144 138.208 37.9018Z" fill="#7A5B3C"/>
<path d="M142.942 42.8066C143.012 43.623 143.08 44.4394 143.15 45.2558C143.191 45.7418 143.535 46.1566 144.05 46.1566C144.507 46.1566 144.993 45.7432 144.951 45.2558C144.882 44.4394 144.814 43.623 144.744 42.8066C144.702 42.3206 144.359 41.9058 143.843 41.9058C143.388 41.9058 142.901 42.3191 142.942 42.8066V42.8066Z" fill="#7A5B3C"/>
<path d="M149.716 40.9942C149.888 40.6993 150.06 40.406 150.232 40.1126C150.477 39.6918 150.328 39.1243 149.909 38.8784C149.487 38.6324 148.922 38.7806 148.675 39.2014C148.503 39.4947 148.331 39.7896 148.159 40.0844C147.915 40.5052 148.063 41.0712 148.482 41.3172C148.905 41.5631 149.469 41.4165 149.715 40.9942H149.716Z" fill="#7A5B3C"/>
<path d="M150.469 48.061C151.434 47.6239 152.219 46.9098 152.81 46.0371C153.083 45.6341 152.887 45.0384 152.487 44.8043C152.043 44.545 151.527 44.7243 151.253 45.1273C150.831 45.7526 150.242 46.1956 149.559 46.5053C149.115 46.7053 149.008 47.3498 149.235 47.7395C149.502 48.1958 150.023 48.264 150.468 48.0625L150.469 48.061Z" fill="#7A5B3C"/>
<path d="M154.354 53.3435C155.185 53.4324 155.994 53.2428 156.737 52.8724C157.172 52.6561 157.294 52.0382 157.06 51.6382C156.8 51.1951 156.264 51.0974 155.827 51.3152C155.359 51.5493 154.868 51.5952 154.354 51.5404C153.87 51.49 153.453 51.9923 153.453 52.4412C153.453 52.9716 153.868 53.2917 154.354 53.3421V53.3435Z" fill="#7A5B3C"/>
<path d="M73.3001 6.56533C95.8701 -11.6634 129.775 11.7363 141.047 32.0898C148.298 45.1817 153.581 59.4692 155.532 74.3065C155.807 76.409 155.345 79.3575 153.226 79.4197C152.29 79.4479 151.478 78.8137 150.761 78.2092C143.815 72.3626 137.115 66.2211 130.686 59.8085C125.616 54.7502 121.242 46.5448 113.752 46.7033C96.2672 47.0752 78.5363 50.6801 61.9966 56.2333C54.5053 58.7492 48.9017 60.5686 48.9165 50.283C48.9254 43.8067 52.0843 37.3452 54.5764 31.5134C58.7014 21.8604 65.1258 13.1691 73.3016 6.56533H73.3001Z" fill="#E21E26"/>
<path d="M148.601 75.8359C145.448 76.4686 143.565 77.9962 142.683 81.041C142.242 82.5685 142.476 84.0117 143.145 85.434C143.474 86.1349 144.941 88.8952 145.651 88.9989C144.955 88.8967 144.325 89.4286 143.908 89.9975C140.687 94.3892 144.469 100.754 149.688 100.738C152.624 100.728 155.431 98.64 156.288 95.8353C156.596 99.2416 160.716 101.445 163.976 100.409C167.236 99.372 169.303 95.8916 169.43 92.4734C169.463 91.6303 169.381 90.7413 168.917 90.0375C168.454 89.3323 167.513 88.8863 166.736 89.2167C169.323 88.1307 172.244 86.6549 172.814 83.9079C173.282 81.6381 171.762 79.2645 169.666 78.2821C167.566 77.2998 165.062 77.5161 162.902 78.3532C163.681 77.162 163.551 75.5173 162.789 74.3142C162.028 73.1126 160.725 72.3244 159.355 71.9451C155.341 70.8338 154.006 72.9867 153.241 76.3649C151.748 75.6581 150.14 75.5277 148.601 75.8359V75.8359Z" fill="#FEFEFE"/>
<path d="M69.2596 16.868C70.679 14.1684 72.6778 11.9163 75.2188 10.2257C76.1804 9.58567 75.2796 8.024 74.3091 8.66852C71.5147 10.528 69.2655 12.9861 67.7024 15.9583C67.1631 16.9836 68.7188 17.8977 69.2596 16.868V16.868Z" fill="#FEFEFE"/>
<path d="M147.381 81.5863C148.027 82.0945 148.672 82.6012 149.316 83.1109C149.699 83.4117 150.219 83.4828 150.592 83.1109C150.905 82.7983 150.977 82.1374 150.592 81.8367C149.946 81.3285 149.302 80.8202 148.656 80.312C148.273 80.0113 147.755 79.9401 147.381 80.312C147.069 80.6247 146.996 81.2855 147.381 81.5877V81.5863Z" fill="#F6F8F9"/>
<path d="M156.131 81.2478C156.111 80.5233 156.144 79.8003 156.258 79.0846C156.336 78.6046 156.134 78.1141 155.628 77.9763C155.199 77.8578 154.597 78.123 154.52 78.606C154.378 79.4832 154.304 80.3588 154.327 81.2478C154.358 82.4065 156.162 82.4109 156.131 81.2478Z" fill="#F6F8F9"/>
<path d="M160.687 83.6958C161.081 83.189 161.53 82.7371 162.03 82.3386C162.413 82.0363 162.347 81.3814 162.03 81.0643C161.654 80.688 161.138 80.7606 160.756 81.0643C160.254 81.4629 159.806 81.9148 159.411 82.4215C159.112 82.8053 159.037 83.3224 159.411 83.6958C159.723 84.0084 160.384 84.081 160.687 83.6958Z" fill="#F6F8F9"/>
<path d="M148.207 91.801C148.608 91.3416 149.066 90.9135 149.527 90.589C149.924 90.3089 150.111 89.8007 149.85 89.3562C149.62 88.9636 149.016 88.7517 148.617 89.0332C147.999 89.4688 147.43 89.9578 146.932 90.5267C146.612 90.8927 146.572 91.4409 146.932 91.8024C147.26 92.1284 147.885 92.1699 148.208 91.8024L148.207 91.801Z" fill="#F6F8F9"/>
<path d="M154.452 91.6085C154.037 92.2708 153.745 93.0087 153.613 93.7792C153.53 94.2577 153.74 94.7496 154.243 94.8874C154.677 95.0074 155.268 94.7408 155.351 94.2577C155.461 93.6236 155.665 93.0635 156.009 92.5198C156.627 91.5345 155.068 90.6277 154.452 91.61V91.6085Z" fill="#F6F8F9"/>
<path d="M159.998 91.8048C160.595 92.4597 161.192 93.1146 161.787 93.7695C162.116 94.1295 162.73 94.1029 163.063 93.7695C163.422 93.4109 163.392 92.8553 163.063 92.4953C162.466 91.8404 161.869 91.1855 161.272 90.5321C160.943 90.1721 160.329 90.1987 159.998 90.5321C159.639 90.8907 159.669 91.4463 159.998 91.8063V91.8048Z" fill="#F6F8F9"/>
<path d="M161.925 88.093C162.476 87.9952 163.029 87.8989 163.58 87.8026C164.059 87.7182 164.33 87.1314 164.209 86.6929C164.069 86.1876 163.582 85.9802 163.1 86.0632C162.549 86.1595 161.998 86.2573 161.445 86.3536C160.965 86.438 160.696 87.0248 160.816 87.4618C160.955 87.9686 161.442 88.176 161.924 88.0916L161.925 88.093Z" fill="#F6F8F9"/>
</svg>
