<svg width="102" height="115" viewBox="0 0 102 115" fill="none" xmlns="http://www.w3.org/2000/svg">
<path d="M92.6182 106.1C91.5805 109.668 89.3061 114.382 85.0028 113.981C79.6311 113.481 73.8956 113.684 68.6115 112.579C66.9022 112.221 65.2788 111.559 63.5531 111.225C60.4735 110.63 57.2267 110.664 54.0982 110.561C46.8353 110.319 39.8215 110.337 32.6206 110.722C27.9228 110.971 23.1072 111.562 18.4651 110.279C15.3656 109.421 12.8324 105.897 12.4759 102.784C12.158 100.014 15.0909 96.2523 17.8993 95.6735C16.5812 88.1087 27.3888 84.1989 33.1079 83.2692C38.5598 82.3827 43.7205 80.309 49.1382 79.1775C53.056 78.3598 56.9708 77.9732 60.8658 76.9929C64.0836 76.1832 68.2936 75.7635 70.7455 73.3907C74.0275 70.2145 74.3732 65.168 75.905 60.9666C77.1759 57.4832 79.8074 53.7714 81.8163 58.9014C83.0525 62.0606 83.6501 65.0736 84.2011 68.6053C85.1467 74.665 85.3753 80.8668 85.8063 86.939C86.0712 90.6543 89.3811 93.4013 91.5908 96.0351C93.7566 98.6183 93.5235 102.998 92.6194 106.1H92.6182Z" fill="#7F5F40"/>
<path d="M28.0882 98.0161C28.8507 101.19 30.8545 104.124 33.7362 105.657C34.9445 106.298 36.2722 106.686 37.6067 106.993C39.1693 107.35 40.7608 107.602 42.3632 107.639C47.0582 107.742 51.7674 105.898 55.1439 102.634C58.5197 99.3682 60.5201 94.7227 60.5724 90.0271C60.594 88.1103 60.2841 86.1361 59.2873 84.4985C58.1285 82.5942 56.1452 81.3182 54.0629 80.5216C48.0231 78.2091 39.6151 78.9773 33.7908 81.7265C28.5147 84.2176 26.8583 92.9009 28.0876 98.0161H28.0882Z" fill="#B99466"/>
<path d="M98.7883 96.8169C97.3332 98.2976 95.276 96.8493 93.7191 96.1573C91.4014 95.1241 90.677 94.0472 91.2121 91.427C91.3434 90.7834 91.3554 90.0823 91.5834 89.4346C92.1048 89.9395 92.6075 90.5281 93.1289 91.0421C93.95 90.3615 95.0616 89.7667 96.0186 89.3721C96.0578 90.221 95.9333 91.1296 95.9981 91.978C96.8561 91.6852 97.887 91.5282 98.807 91.4776C98.6177 92.1003 98.3067 92.6586 98.0968 93.2881C99.0311 93.4382 100.136 93.4519 101.167 93.5787C100.399 94.5612 99.6213 95.9725 98.7888 96.8169H98.7883Z" fill="#34302F"/>
<path d="M91.6521 89.711C91.5622 90.043 91.5162 90.3887 91.4701 90.7259C91.44 90.9682 91.4053 91.2172 91.357 91.4572C90.8566 93.9067 91.4241 94.9723 93.7787 96.0214C94.0346 96.1346 94.2956 96.2659 94.5742 96.4041C95.9627 97.0938 97.5378 97.8779 98.6818 96.7128C99.1799 96.2079 99.6644 95.4835 100.135 94.7824C100.381 94.4134 100.637 94.0352 100.889 93.6964C100.517 93.6571 100.137 93.6293 99.7679 93.6042C99.168 93.5605 98.6011 93.5212 98.0728 93.4359C98.0291 93.4291 97.9921 93.4035 97.9688 93.3643C97.946 93.3273 97.9409 93.2835 97.9551 93.242C98.0541 92.9424 98.1786 92.6564 98.2963 92.3817C98.4049 92.1304 98.5084 91.8904 98.596 91.6414C97.6595 91.7062 96.7622 91.8745 96.0452 92.119C96.0014 92.1349 95.9553 92.1281 95.9161 92.1031C95.8769 92.0775 95.8541 92.036 95.849 91.99C95.8143 91.5265 95.8354 91.0421 95.8536 90.5735C95.8672 90.2483 95.8814 89.9162 95.8763 89.5933C94.8522 90.0362 93.893 90.5991 93.2214 91.1547C93.164 91.203 93.0759 91.2007 93.023 91.1478C92.7717 90.8988 92.5204 90.631 92.2781 90.3728C92.0729 90.1516 91.863 89.9253 91.6509 89.711H91.6521ZM97.2705 97.6056C96.3227 97.6056 95.3145 97.1052 94.4406 96.6691C94.1659 96.5332 93.9078 96.4041 93.6587 96.2932C91.1654 95.1838 90.5359 93.9937 91.0664 91.3969C91.1125 91.1683 91.1426 90.9357 91.1773 90.689C91.2324 90.2574 91.2927 89.8127 91.4423 89.3857C91.4582 89.3374 91.4974 89.3004 91.5486 89.2891C91.5992 89.2777 91.6498 89.2913 91.6868 89.3283C91.9614 89.5933 92.2332 89.8867 92.4987 90.1704C92.7063 90.3939 92.9229 90.6247 93.1379 90.8414C93.8691 90.2602 94.8909 89.6791 95.961 89.2362C96.0071 89.218 96.0577 89.2225 96.0992 89.2475C96.1384 89.2731 96.164 89.3169 96.1663 89.3652C96.1873 89.7667 96.1686 90.1818 96.1526 90.5855C96.1367 90.9824 96.118 91.3884 96.1367 91.7779C96.8998 91.5402 97.8386 91.381 98.7984 91.3304C98.849 91.3281 98.8928 91.3486 98.9229 91.3855C98.9531 91.4248 98.9622 91.4754 98.9485 91.5214C98.8473 91.8626 98.7063 92.1856 98.5704 92.4994C98.4783 92.7161 98.381 92.9401 98.298 93.1681C98.7637 93.2329 99.2641 93.2693 99.79 93.3063C100.249 93.341 100.727 93.3734 101.185 93.4308C101.238 93.4354 101.282 93.47 101.303 93.5207C101.324 93.569 101.317 93.627 101.285 93.6685C100.988 94.0489 100.695 94.4873 100.383 94.9484C99.9055 95.6609 99.4119 96.3967 98.8956 96.9204C98.4043 97.4208 97.8511 97.6056 97.2717 97.6056H97.2705Z" fill="#34302F"/>
<path d="M99.5513 102.951C98.9793 106.778 98.2111 109.672 94.7795 111.787C91.9427 113.533 88.5708 113.863 85.3121 113.863C82.5515 113.863 78.4967 114.493 77.3413 111.386C75.586 106.654 79.8227 102.664 82.0489 98.9968C83.9167 95.92 85.6192 93.0582 89.3095 92.1837C92.31 91.4758 95.0848 92.0939 97.3701 94.204C99.9994 96.6348 100.045 99.6655 99.5519 102.952L99.5513 102.951Z" fill="#685039"/>
<path d="M85.3462 112.759C84.9886 112.759 84.6429 112.743 84.3108 112.706C83.123 112.577 82.3229 112.122 81.9351 111.354C81.2824 110.053 81.8197 107.911 83.5358 104.989C83.72 104.672 83.9025 104.354 84.0845 104.041C85.5492 101.485 86.9327 99.0728 89.8434 97.8133C92.21 96.7893 95.1366 97.827 96.6497 100.228C98.1605 102.62 98.2503 105.019 96.9124 107.161C94.7903 110.561 89.3521 112.759 85.3462 112.759Z" fill="#B99466"/>
<path d="M10.4613 97.7121C10.5688 99.7853 8.1118 100.323 6.54983 101.003C4.22136 102.016 2.93801 101.82 1.36807 99.6539C0.98312 99.1234 0.474213 98.6412 0.149536 98.0351C0.875084 97.9936 1.64726 98.0192 2.37963 97.9822C2.43194 96.9189 2.74695 95.6941 3.10177 94.7235C3.7534 95.2677 4.33963 95.9733 5.01003 96.4993C5.37337 95.6714 5.95392 94.802 6.53788 94.0912C6.87052 94.6519 7.06954 95.2557 7.39251 95.8368C8.13511 95.2489 8.8908 94.446 9.68003 93.7705C9.8853 94.9998 10.4005 96.5266 10.4619 97.7121H10.4613Z" fill="#34302F"/>
<path d="M0.400806 98.1707C0.584467 98.4635 0.809069 98.7313 1.02798 98.9917C1.18378 99.1788 1.34527 99.3699 1.48799 99.566C2.95671 101.591 4.12521 101.893 6.49063 100.867C6.74594 100.756 7.01944 100.65 7.30887 100.539C8.75655 99.9811 10.3976 99.3517 10.3128 97.7186C10.2764 97.013 10.0706 96.1663 9.87273 95.3452C9.76754 94.9137 9.66007 94.469 9.5799 94.0539C9.30071 94.3007 9.0238 94.5634 8.75371 94.8176C8.31701 95.2326 7.9042 95.6227 7.484 95.9548C7.44988 95.9826 7.40553 95.9917 7.36288 95.9826C7.32024 95.9758 7.28328 95.948 7.26224 95.911C7.10815 95.6341 6.98191 95.3503 6.85909 95.0763C6.74708 94.8272 6.64018 94.5873 6.51565 94.3564C5.93226 95.0899 5.44951 95.8649 5.14587 96.5592C5.12767 96.6007 5.09071 96.6331 5.04579 96.6445C5.00144 96.6559 4.95425 96.6445 4.91785 96.6166C4.55167 96.3284 4.20823 95.9872 3.87616 95.6574C3.64644 95.4265 3.4099 95.1917 3.16881 94.979C2.80319 96.031 2.5712 97.117 2.52798 97.9887C2.524 98.0649 2.46316 98.1269 2.38697 98.1292C2.03443 98.1479 1.66881 98.1502 1.31513 98.1547C1.0132 98.157 0.703307 98.1593 0.401374 98.1707H0.400806ZM4.28556 101.741C3.12616 101.741 2.23799 101.107 1.2469 99.7412C1.11043 99.5518 0.959182 99.3721 0.799971 99.1828C0.520783 98.8484 0.231928 98.505 0.0175615 98.1058C-0.00632016 98.0598 -0.00575155 98.0069 0.0186987 97.9625C0.0437176 97.9188 0.0892065 97.8886 0.139813 97.8864C0.523057 97.8636 0.923928 97.8585 1.31172 97.8562C1.61763 97.8539 1.93264 97.8494 2.23799 97.8375C2.30224 96.9055 2.56267 95.7592 2.96126 94.6709C2.97775 94.6271 3.01585 94.5924 3.06248 94.5787C3.1091 94.5674 3.15914 94.5765 3.19667 94.6089C3.50372 94.8648 3.7994 95.1599 4.08541 95.4436C4.36573 95.7228 4.65402 96.0111 4.95368 96.2624C5.29484 95.5357 5.81114 94.738 6.4224 93.9953C6.4531 93.9584 6.50087 93.9379 6.54863 93.9425C6.59696 93.947 6.64018 93.9726 6.6652 94.0141C6.84715 94.3206 6.99101 94.6436 7.13089 94.9552C7.22755 95.1695 7.32649 95.3913 7.43851 95.6079C7.80185 95.3083 8.16633 94.9643 8.54958 94.6026C8.88506 94.2842 9.23191 93.9567 9.58331 93.657C9.62425 93.6223 9.67997 93.6132 9.73115 93.6292C9.78119 93.6474 9.81815 93.6911 9.82668 93.7446C9.90571 94.2222 10.0297 94.734 10.1616 95.2759C10.3634 96.1083 10.5721 96.9686 10.6102 97.7044C10.7057 99.5495 8.88164 100.253 7.41633 100.816C7.12975 100.927 6.85909 101.03 6.61004 101.139C5.70026 101.533 4.94913 101.741 4.2867 101.741H4.28556Z" fill="#34302F"/>
<path d="M60.8681 24.9895C63.7248 25.852 66.8129 28.9589 68.2612 30.4106C71.6632 33.8166 74.728 36.9121 76.887 41.312C81.4859 50.6833 83.6103 62.3251 80.3555 72.5328C77.7655 80.6611 72.544 88.4635 67.4719 95.2397C64.518 99.1859 60.8067 102.946 58.5533 107.256C58.0091 108.298 58.0205 109.417 57.5696 110.395C56.9123 111.82 55.9826 111.906 54.4234 112.046C51.9255 112.27 48.134 112.083 46.1194 110.605C43.2093 108.471 45.3586 107.198 47.1924 105.475C49.2951 103.501 48.7021 98.2169 49.4635 95.2351C50.1958 92.3705 51.0777 89.7969 48.4269 87.4696C46.8274 86.0651 44.4204 85.6546 42.4468 86.4524C41.8094 86.7082 41.2226 87.0773 40.6699 87.4855C39.3649 88.4493 38.2146 89.665 37.5266 91.1343C36.9824 92.2943 36.9699 93.5213 37.0956 94.774C37.223 96.038 37.2474 97.2901 37.3247 98.5609C37.4618 100.817 37.8194 103.061 38.3914 105.247C38.6667 106.301 39.0192 106.915 39.5742 107.812C40.0779 108.628 40.4049 109.553 39.6913 110.362C38.4017 111.825 32.6888 111.428 30.9699 111.257C29.9487 111.156 27.7499 111.232 27.005 110.395C26.3011 109.602 27.1506 108.919 26.7201 107.715C25.7996 105.136 23.6269 102.756 22.3805 100.312C21.3604 98.3096 20.9254 96.0471 20.1049 93.9114C19.256 91.6995 18.7727 89.3261 18.7465 86.9391C18.6982 82.4323 19.8308 77.818 20.3983 73.8912C25.3299 67.9327 30.2626 61.9736 35.1941 56.0146C39.3172 51.0336 43.4396 46.0525 47.5626 41.0721C49.4327 38.8124 51.7004 36.986 53.0082 34.3306C54.3455 31.6161 54.8738 28.5194 56.7906 26.1011C57.8965 24.7057 59.3499 24.5306 60.8681 24.9889V24.9895Z" fill="#7F5F40"/>
<path d="M44.5637 85.8179C46.0205 85.8179 47.4807 86.3325 48.5787 87.2963C51.175 89.5747 50.5171 92.1004 49.8211 94.7712C49.7762 94.9441 49.7307 95.1169 49.6863 95.2926C49.431 96.2934 49.331 97.5574 49.2246 98.8954C49.0148 101.543 48.7982 104.283 47.3493 105.644C47.1282 105.851 46.9018 106.054 46.6807 106.25C45.7174 107.111 44.885 107.853 44.9236 108.658C44.9498 109.205 45.3854 109.781 46.2553 110.421C48.1607 111.818 51.8345 112.047 54.4018 111.816C55.92 111.68 56.7564 111.606 57.3592 110.298C57.5582 109.867 57.6628 109.406 57.7737 108.917C57.9056 108.336 58.0415 107.736 58.348 107.15C59.8849 104.21 62.1139 101.502 64.2695 98.8823C65.2851 97.6484 66.3364 96.373 67.2866 95.1022C71.8531 88.9993 77.4414 80.9113 80.1355 72.4635C83.0832 63.2139 81.8237 51.8968 76.6783 41.4139C74.5102 36.9946 71.3942 33.8758 68.0985 30.5744L68.0707 30.5466C66.6128 29.0875 63.5832 26.0517 60.7998 25.2113C59.1651 24.7177 57.9124 25.0561 56.9697 26.2462C55.7796 27.7479 55.1171 29.564 54.4775 31.321C54.0999 32.3565 53.7104 33.4266 53.214 34.4342C52.3048 36.2799 50.9197 37.7526 49.5806 39.1769C48.9636 39.8331 48.3256 40.5109 47.7388 41.2205L20.6161 73.9896C20.4603 75.0592 20.2658 76.1634 20.0605 77.3308C19.5101 80.461 18.9409 83.6987 18.9756 86.9375C19.0012 89.2557 19.4527 91.5733 20.3187 93.829C20.6405 94.6689 20.9066 95.5337 21.1636 96.373C21.5787 97.7246 21.9705 99.0023 22.5846 100.206C23.0918 101.2 23.7719 102.213 24.4298 103.191C25.3907 104.618 26.3846 106.095 26.9356 107.637C27.1562 108.255 27.0698 108.758 27.0004 109.162C26.9237 109.607 26.8731 109.902 27.1761 110.241C27.7112 110.845 29.2504 110.926 30.2688 110.981C30.5355 110.995 30.7868 111.009 30.9915 111.027C34.302 111.357 38.5217 111.339 39.5167 110.211C40.0307 109.627 39.9875 108.924 39.3763 107.935C38.8116 107.021 38.4489 106.387 38.1663 105.308C37.592 103.109 37.2303 100.845 37.0927 98.5752C37.0666 98.1465 37.0467 97.7217 37.0268 97.2976C36.9881 96.4788 36.9483 95.6327 36.8641 94.7974C36.7499 93.6579 36.714 92.3205 37.3162 91.0354C37.9633 89.6537 39.0448 88.3994 40.5311 87.3014C41.1941 86.8124 41.7752 86.4735 42.3592 86.2381C43.0592 85.9566 43.8103 85.8184 44.5626 85.8184L44.5637 85.8179ZM52.5749 112.357C50.1793 112.357 47.5631 111.951 45.983 110.791C44.9942 110.067 44.4972 109.375 44.4636 108.679C44.4147 107.655 45.3666 106.806 46.3747 105.907C46.5931 105.713 46.816 105.512 47.0343 105.307C48.3529 104.069 48.5628 101.421 48.7658 98.8584C48.8732 97.5 48.9744 96.2178 49.24 95.1772C49.2849 95.0021 49.3304 94.8292 49.3753 94.6558C50.0633 92.0152 50.657 89.7339 48.2745 87.642C46.7375 86.2927 44.4307 85.9009 42.5326 86.6662C41.9856 86.8852 41.4369 87.2058 40.8063 87.6715C39.382 88.7235 38.3488 89.9204 37.7347 91.2305C37.1803 92.4138 37.2161 93.6727 37.3242 94.7502C37.4094 95.5963 37.4492 96.4498 37.4885 97.2754C37.5084 97.6973 37.5283 98.1192 37.5539 98.544C37.6898 100.786 38.0463 103.021 38.6132 105.189C38.885 106.229 39.229 106.817 39.7686 107.691C40.0313 108.118 40.8325 109.414 39.863 110.514C38.4307 112.138 32.1839 111.61 30.946 111.486C30.7521 111.467 30.5054 111.453 30.2444 111.439C29.0838 111.38 27.4951 111.294 26.8316 110.547C26.3818 110.042 26.4654 109.553 26.5467 109.082C26.6132 108.695 26.682 108.296 26.5018 107.791C25.9701 106.303 24.9927 104.85 24.0476 103.445C23.3818 102.456 22.6938 101.434 22.1741 100.415C21.5418 99.174 21.1256 97.8178 20.723 96.5055C20.4682 95.6753 20.205 94.8173 19.8883 93.9939C19.0029 91.6854 18.5406 89.3143 18.5145 86.9409C18.4792 83.6594 19.0518 80.4007 19.6062 77.2495C19.8149 76.0622 20.0122 74.9403 20.1686 73.8577L20.1777 73.794L20.2192 73.744L47.3835 40.9249C47.9799 40.2044 48.6225 39.521 49.2445 38.8597C50.6206 37.3955 51.921 36.0126 52.7995 34.2289C53.2845 33.2441 53.6706 32.1853 54.0436 31.1618C54.6964 29.3707 55.3713 27.5181 56.608 25.9584C57.6668 24.6222 59.1219 24.2219 60.9335 24.7689C63.8277 25.6429 66.913 28.7344 68.3959 30.2196L68.4238 30.2475C71.7496 33.5773 74.8906 36.7217 77.0934 41.2097C82.2894 51.7984 83.5579 63.2406 80.5739 72.6028C77.8616 81.1166 72.2454 89.2455 67.6562 95.3779C66.6992 96.6556 65.645 97.9355 64.626 99.174C62.4858 101.775 60.2716 104.465 58.7568 107.364C58.4788 107.896 58.3491 108.466 58.224 109.017C58.1126 109.508 57.9977 110.016 57.7788 110.491C57.0635 112.041 56.0212 112.133 54.4433 112.274C53.8531 112.327 53.222 112.357 52.5743 112.357L52.5749 112.357Z" fill="#76583B"/>
<path d="M21.9295 104.283C23.4921 106.34 25.7477 109.67 22.3622 110.738C19.0563 111.783 15.3581 111.197 11.9714 111.02C9.15395 110.87 5.45797 111.633 2.89012 110.196C-1.06684 107.98 -0.0410687 103.748 1.77451 100.516C3.70835 97.0751 7.49701 96.3097 11.1538 97.0108C15.3058 97.8063 19.4123 100.968 21.9295 104.283Z" fill="#685039"/>
<path d="M44.4715 75.6459C37.742 77.296 27.4803 78.3917 21.7089 73.6836C16.8581 69.7261 15.3672 62.648 14.0036 56.8931C12.9068 52.2612 13.1405 47.1755 12.9324 42.4692C12.8243 40.0406 13.2315 37.6621 13.8837 35.3825C11.396 35.4803 8.66778 35.5452 7.25364 32.9199C5.92764 30.4606 6.46896 27.567 7.99966 25.3761C9.80614 22.7906 12.7328 22.4751 15.4507 23.7584C16.6363 24.3179 17.8014 25.1805 18.8988 25.8953C19.3406 24.4334 21.776 22.843 23.0036 22.0469C26.2202 19.9601 30.2739 19.5143 33.9716 18.9218C38.1156 18.2582 42.4842 18.1485 46.5151 19.4705C46.2507 19.3835 48.0327 16.5467 48.25 16.2357C49.133 14.9722 50.3589 13.9317 51.7992 13.3511C54.7634 12.1565 57.922 13.4722 59.9218 15.7888C61.9768 18.1684 61.0187 21.6352 59.5738 24.1457C58.7414 25.5922 58.4179 25.6502 59.4607 26.8898C61.4071 29.2023 63.0373 30.5425 64.162 33.5255C65.4743 37.0082 65.6705 40.5615 66.4757 44.1289C66.7986 45.5573 66.9368 47.0715 67.1216 48.5237C67.4929 51.4316 67.7283 54.4066 67.274 57.319C66.9834 59.1841 66.3585 60.9854 65.4891 62.6577C63.7867 65.9346 61.1876 68.689 58.295 70.9503C54.7469 73.7246 48.7896 74.5872 44.4721 75.6454L44.4715 75.6459Z" fill="#906A44"/>
<path d="M49.9008 21.931L56.0764 24.343C56.0764 24.343 58.5493 20.8461 55.0478 18.9344C51.5446 17.0221 49.9008 21.931 49.9008 21.931Z" fill="#42372F"/>
<path d="M50.0776 21.8519L56.0224 24.1735C56.2476 23.8159 57.0254 22.4512 56.7121 21.1041C56.5171 20.266 55.9354 19.5769 54.9818 19.0566C54.1391 18.5966 53.3391 18.5101 52.6022 18.799C51.1102 19.3847 50.2743 21.339 50.0781 21.8519H50.0776ZM56.127 24.5118L49.7273 22.0122L49.7688 21.8871C49.8046 21.7802 50.6672 19.2601 52.4998 18.5408C53.3164 18.2207 54.1954 18.3123 55.1132 18.8132C56.1395 19.3739 56.7684 20.1239 56.9811 21.0427C57.3711 22.7253 56.2368 24.3549 56.1884 24.4231L56.1259 24.5118H56.127Z" fill="#42372F"/>
<path d="M14.959 33.2857L17.7259 28.3876C17.7259 28.3876 14.1317 24.8122 12.6828 29.5709C11.4757 33.5364 14.959 33.2857 14.959 33.2857Z" fill="#42372F"/>
<path d="M15.0796 27.2371C14.9323 27.2371 14.785 27.2536 14.6389 27.2905C13.836 27.4924 13.2225 28.2737 12.8159 29.611C12.4378 30.8523 12.4907 31.7882 12.9723 32.3915C13.5506 33.1165 14.5923 33.1535 14.8766 33.1501L17.5519 28.4147C17.2596 28.1491 16.1753 27.2377 15.0796 27.2377V27.2371ZM14.8294 33.4276C14.4484 33.4276 13.3845 33.3531 12.7556 32.5644C12.2132 31.8855 12.1444 30.8648 12.5504 29.5309C12.9882 28.0928 13.6683 27.249 14.5724 27.0216C16.1321 26.6292 17.7549 28.2214 17.8231 28.2896L17.8982 28.3641L15.0426 33.4185L14.9681 33.4241C14.9584 33.4247 14.9084 33.4276 14.8288 33.4276H14.8294Z" fill="#42372F"/>
<path d="M39.5122 109.348C38.8345 109.198 37.8473 109.735 37.2247 109.924C36.3968 110.173 35.5621 110.247 34.6648 110.337C33.4503 110.457 32.1692 110.51 30.9649 110.273C30.1091 110.102 29.4131 109.438 28.6216 109.279C27.17 108.984 26.3699 110.856 27.8404 111.474C28.1184 111.59 28.4573 111.668 28.8155 111.728C29.0299 112.353 29.2101 113.022 29.6019 113.49C30.0215 112.992 30.502 112.507 30.9103 112.033C31.0769 112.061 31.2435 112.09 31.4112 112.113C31.9366 112.812 32.5246 113.603 32.905 114.376C33.2132 113.649 33.6328 112.667 34.3089 112.229C34.8195 112.787 35.2118 113.67 35.7708 114.076C36.1648 113.467 36.4264 112.72 36.8665 112.199C37.4959 112.554 37.8667 113.271 38.499 113.522C38.6337 112.913 38.7475 112.238 38.8447 111.594C39.0505 111.504 39.2461 111.391 39.4264 111.25C40.2128 110.632 40.7262 109.617 39.5117 109.348H39.5122Z" fill="#34302F"/>
<path d="M30.9113 111.882L30.9369 111.885L30.9898 111.894C31.1365 111.919 31.2832 111.944 31.431 111.965C31.4708 111.97 31.5067 111.991 31.5311 112.023C31.9684 112.604 32.5 113.314 32.8924 114.03C33.1943 113.335 33.6014 112.51 34.2286 112.104C34.2894 112.064 34.3702 112.073 34.4191 112.127C34.6357 112.365 34.8308 112.655 35.0201 112.939C35.2453 113.276 35.4767 113.622 35.7349 113.852C35.8571 113.649 35.9691 113.43 36.0783 113.215C36.2773 112.826 36.4831 112.424 36.7544 112.101C36.8004 112.048 36.8789 112.032 36.9409 112.069C37.2491 112.242 37.4936 112.493 37.7301 112.735C37.9473 112.957 38.1543 113.169 38.3948 113.305C38.4977 112.816 38.5978 112.246 38.699 111.571C38.7064 111.52 38.7394 111.479 38.7866 111.458C38.9941 111.368 39.1738 111.262 39.3364 111.132C39.8448 110.733 40.1501 110.233 40.0779 109.917C40.0318 109.714 39.8306 109.571 39.4809 109.493C39.0288 109.394 38.3715 109.65 37.8438 109.857C37.6363 109.938 37.4407 110.014 37.2684 110.065C36.4712 110.307 35.6717 110.385 34.8245 110.471L34.6801 110.484C33.6259 110.591 32.247 110.678 30.9363 110.417C30.4763 110.325 30.0675 110.103 29.6729 109.887C29.305 109.686 28.9576 109.497 28.5931 109.423C27.9022 109.282 27.3956 109.686 27.2506 110.154C27.1312 110.544 27.2381 111.059 27.8988 111.335C28.1342 111.435 28.4333 111.513 28.841 111.582C28.8945 111.591 28.9388 111.628 28.957 111.681C28.9888 111.773 29.0207 111.868 29.052 111.963C29.2038 112.419 29.3596 112.89 29.6103 113.252C29.7991 113.035 29.9976 112.82 30.1903 112.61C30.4053 112.377 30.6083 112.156 30.7993 111.935C30.8277 111.9 30.8692 111.882 30.9119 111.882L30.9113 111.882ZM32.9054 114.523C32.8492 114.523 32.7974 114.491 32.7724 114.44C32.396 113.676 31.8109 112.89 31.3304 112.251C31.2093 112.236 31.0887 112.215 30.9688 112.192C30.7896 112.399 30.5957 112.609 30.4081 112.812C30.1755 113.063 29.9356 113.324 29.7161 113.585C29.6877 113.62 29.6462 113.638 29.6024 113.638H29.6018C29.558 113.638 29.5165 113.619 29.4881 113.585C29.1367 113.165 28.9496 112.602 28.7688 112.058C28.7472 111.991 28.7256 111.927 28.7034 111.86C28.3167 111.79 28.0228 111.712 27.7834 111.611C26.939 111.255 26.815 110.559 26.9657 110.067C27.15 109.47 27.7879 108.956 28.6511 109.131C29.0599 109.214 29.4432 109.424 29.8145 109.627C30.1898 109.832 30.5781 110.044 30.9932 110.125C32.2658 110.378 33.6151 110.291 34.6494 110.19L34.7938 110.174C35.6262 110.093 36.4121 110.015 37.1814 109.781C37.3418 109.733 37.5322 109.659 37.7341 109.578C38.3289 109.348 39.0032 109.083 39.544 109.203C40.1314 109.334 40.315 109.627 40.3662 109.851C40.4873 110.384 39.9852 111.002 39.5184 111.368C39.358 111.493 39.1772 111.604 38.9794 111.696C38.8679 112.427 38.7582 113.036 38.6439 113.555C38.6348 113.596 38.6069 113.633 38.5682 113.654C38.5301 113.675 38.4841 113.677 38.4437 113.66C38.0736 113.513 37.7898 113.222 37.5157 112.943C37.3236 112.744 37.1262 112.544 36.8999 112.392C36.689 112.671 36.5195 113.001 36.341 113.351C36.2028 113.621 36.0601 113.9 35.8952 114.153C35.873 114.188 35.8378 114.213 35.7974 114.221C35.7576 114.227 35.7161 114.218 35.6831 114.195C35.3311 113.939 35.0468 113.514 34.7716 113.104C34.6153 112.868 34.4538 112.629 34.2843 112.426C33.7032 112.874 33.3228 113.769 33.0408 114.433C33.018 114.486 32.9663 114.523 32.9083 114.523H32.9037L32.9054 114.523Z" fill="#34302F"/>
<path d="M56.6177 110.916C55.9803 110.641 54.9096 110.98 54.2625 111.049C53.4028 111.137 52.5692 111.052 51.6708 110.971C50.4551 110.86 49.1871 110.671 48.0493 110.21C47.2407 109.88 46.6829 109.096 45.9358 108.791C44.566 108.228 43.427 109.914 44.7547 110.798C45.0055 110.966 45.3234 111.107 45.664 111.234C45.7566 111.889 45.8072 112.579 46.1041 113.112C46.6107 112.703 47.1736 112.318 47.6643 111.926C47.8218 111.988 47.9799 112.048 48.1408 112.101C48.5246 112.888 48.9522 113.776 49.1802 114.606C49.6204 113.951 50.2174 113.065 50.9645 112.761C51.3603 113.404 51.5792 114.348 52.0517 114.85C52.5532 114.329 52.9513 113.644 53.4824 113.215C54.0328 113.681 54.2619 114.458 54.8357 114.823C55.0824 114.248 55.3218 113.609 55.539 112.993C55.7579 112.945 55.9712 112.871 56.1753 112.768C57.064 112.309 57.76 111.409 56.6183 110.916H56.6177Z" fill="#34302F"/>
<path d="M50.9652 112.613C51.0158 112.613 51.0642 112.638 51.092 112.685C51.2598 112.957 51.3962 113.28 51.5287 113.593C51.6862 113.965 51.8483 114.35 52.0581 114.626C52.2173 114.449 52.3685 114.253 52.5158 114.066C52.7848 113.72 53.0634 113.362 53.3903 113.099C53.4461 113.053 53.5257 113.055 53.5797 113.101C53.8498 113.329 54.0425 113.621 54.2285 113.904C54.4002 114.162 54.5634 114.412 54.7738 114.59C54.9677 114.126 55.1735 113.586 55.3998 112.945C55.4169 112.897 55.4572 112.86 55.5073 112.848C55.7234 112.802 55.9252 112.728 56.1083 112.634C56.6832 112.339 57.0772 111.905 57.0664 111.58C57.0596 111.372 56.889 111.195 56.5603 111.052C56.1345 110.867 55.4413 110.996 54.8841 111.1C54.6652 111.139 54.4576 111.178 54.2791 111.197C53.4546 111.282 52.6574 111.208 51.8136 111.132L51.6595 111.119C50.6041 111.024 49.2344 110.851 47.9954 110.346C47.5615 110.171 47.2021 109.873 46.8553 109.587C46.5318 109.322 46.2258 109.068 45.8813 108.927C45.2308 108.659 44.6559 108.96 44.425 109.393C44.234 109.753 44.2425 110.278 44.839 110.675C45.0517 110.816 45.3308 110.95 45.7175 111.095C45.7687 111.114 45.8051 111.16 45.813 111.213C45.8267 111.309 45.8397 111.409 45.8523 111.505C45.9148 111.983 45.9796 112.477 46.157 112.88C46.3822 112.702 46.6165 112.529 46.8439 112.361C47.1004 112.171 47.3426 111.994 47.5734 111.81C47.6144 111.777 47.6701 111.768 47.7196 111.786C47.864 111.841 48.0272 111.904 48.1887 111.959C48.2268 111.971 48.2586 111.998 48.2762 112.035C48.5788 112.653 48.9802 113.477 49.2344 114.261C49.6614 113.636 50.2164 112.905 50.9101 112.623L50.9658 112.612L50.9652 112.613ZM52.0524 115H52.0518C52.0109 114.998 51.9722 114.981 51.9444 114.952C51.6464 114.636 51.4474 114.165 51.2546 113.709C51.1455 113.451 51.0323 113.183 50.9044 112.952C50.2482 113.282 49.7063 114.09 49.3049 114.689C49.2719 114.735 49.2145 114.761 49.1576 114.751C49.1002 114.742 49.0535 114.7 49.0376 114.645C48.8119 113.824 48.3695 112.906 48.0352 112.221C47.9163 112.181 47.7992 112.138 47.6906 112.096C47.4745 112.264 47.2437 112.435 47.0191 112.601C46.745 112.804 46.4612 113.014 46.198 113.226C46.1639 113.254 46.1189 113.263 46.0763 113.256C46.0336 113.247 45.9961 113.221 45.9751 113.182C45.7084 112.702 45.6316 112.114 45.5571 111.545C45.5486 111.475 45.539 111.409 45.5299 111.342C45.1637 111.201 44.8896 111.067 44.6735 110.922C43.911 110.415 43.9213 109.706 44.1623 109.254C44.4557 108.7 45.179 108.318 45.9933 108.653C46.3794 108.812 46.7171 109.088 47.0435 109.358C47.3739 109.631 47.7145 109.912 48.1068 110.071C49.3094 110.56 50.6513 110.728 51.6856 110.822L51.8403 110.836C52.6693 110.912 53.4529 110.981 54.2484 110.901C54.4155 110.883 54.6168 110.846 54.8301 110.807C55.4578 110.691 56.1691 110.558 56.6775 110.779C57.2296 111.019 57.3547 111.342 57.3627 111.57C57.3809 112.114 56.7713 112.626 56.2436 112.898C56.0617 112.992 55.8627 113.066 55.6523 113.119C55.4061 113.813 55.1832 114.39 54.9728 114.879C54.9557 114.92 54.9216 114.951 54.8801 114.962C54.8386 114.976 54.7937 114.969 54.7567 114.946C54.4207 114.734 54.1972 114.395 53.9806 114.067C53.8287 113.836 53.6729 113.601 53.4796 113.412C53.2203 113.643 52.9912 113.938 52.7501 114.247C52.5636 114.487 52.3708 114.733 52.1599 114.952C52.132 114.98 52.0933 114.998 52.053 114.998L52.0524 115Z" fill="#34302F"/>
<path d="M21.2096 31.8092C16.746 38.4688 16.4606 47.297 18.8783 54.9409C19.6869 57.4979 20.7985 60.0049 22.5396 62.0451C23.8014 63.5246 25.3668 64.7244 27.0396 65.7149C33.4581 69.515 41.977 70.0733 48.3227 66.1528C51.2687 64.3326 53.6228 61.6806 55.5606 58.8109C59.3896 53.1378 61.7454 46.0273 60.0333 39.4007C59.0667 35.6593 56.8457 32.2959 53.9696 29.7144C51.0936 27.1329 47.5847 25.3105 43.8967 24.1563C42.9152 23.8492 41.9151 23.5865 40.8921 23.4773C39.1425 23.2903 37.1791 23.6798 35.4175 23.7844C33.2739 23.9118 31.1751 24.5503 29.173 25.2952C25.9069 26.5109 23.1361 28.9354 21.2096 31.8098V31.8092Z" fill="#C19969"/>
<path d="M41.9908 39.2904C41.8651 39.1642 41.7286 39.0465 41.5802 38.9384C39.4775 37.4032 36.4104 37.8251 34.2395 38.8696C31.8092 40.0393 31.4112 41.5438 31.1019 44.0559C30.8932 45.7532 31.1542 47.3823 31.1473 49.0535C31.1422 50.4898 30.5639 51.6458 30.1852 53.0326C29.259 56.4249 30.5577 59.9975 34.0763 61.1234C37.3549 62.1725 45.3979 61.5112 46.6272 57.5155C47.8338 53.5944 43.1638 50.4159 43.3043 46.5806C43.3878 44.3067 43.7046 41.0104 41.9902 39.2893L41.9908 39.2904Z" fill="#E7CDAF"/>
<path d="M38.0912 47.4337C42.4889 48.3469 42.917 52.1088 38.4887 53.1693C36.1977 53.718 32.077 53.366 32.8509 50.0146C33.3933 47.6657 36.0175 47.0027 38.0912 47.4337Z" fill="#34302F"/>
<path d="M36.8914 47.5884C35.1918 47.5884 33.5167 48.3628 33.1209 50.0777C32.9156 50.9648 33.0709 51.6721 33.5815 52.1782C34.5737 53.163 36.8175 53.2853 38.4244 52.9003C40.2331 52.467 41.347 51.5044 41.33 50.3882C41.3118 49.1702 40.0182 48.1172 38.0354 47.7055C37.663 47.6282 37.2769 47.5884 36.8919 47.5884H36.8914ZM36.6292 53.6532C35.3715 53.6532 34.0079 53.3819 33.1909 52.5717C32.5352 51.9212 32.33 51.0398 32.5813 49.9532C33.1459 47.507 35.8713 46.6905 38.148 47.163C40.3952 47.6293 41.8616 48.8922 41.8844 50.3797C41.9054 51.7699 40.6289 52.9418 38.554 53.4394C38.0269 53.5656 37.3457 53.6532 36.6298 53.6532H36.6292Z" fill="#34302F"/>
<path d="M34.3832 49.9272C34.195 49.0158 35.1906 48.3465 36.0146 48.3806C36.1698 48.3874 36.3569 48.3391 36.4302 48.185C36.495 48.048 36.3728 47.9217 36.2352 47.9161C35.0621 47.8672 33.4598 48.7189 33.7452 50.0978C33.8067 50.3946 34.4458 50.2292 34.3832 49.9267V49.9272Z" fill="#FEFEFE"/>
<path d="M31.3851 37.7461C31.3851 39.5828 29.8965 41.0714 28.0599 41.0714C26.2232 41.0714 24.7346 39.5828 24.7346 37.7461C24.7346 35.9101 26.2232 34.4209 28.0599 34.4209C29.8965 34.4209 31.3851 35.9095 31.3851 37.7461Z" fill="#34302F"/>
<path d="M49.5857 36.2295C49.5857 38.0656 48.097 39.5548 46.2604 39.5548C44.4244 39.5548 42.9352 38.0661 42.9352 36.2295C42.9352 34.3935 44.4238 32.9043 46.2604 32.9043C48.097 32.9043 49.5857 34.3929 49.5857 36.2295Z" fill="#34302F"/>
<path d="M36.7242 51.5134C36.6208 54.1074 36.9449 56.6718 37.6892 59.1589C37.7858 59.4819 38.2925 59.3443 38.1952 59.0196C37.464 56.5751 37.1479 54.0624 37.2491 51.5134C37.2627 51.1756 36.7373 51.1762 36.7242 51.5134Z" fill="#34302F"/>
<path d="M32.7167 54.6213C33.0744 57.3062 35.081 60.0066 38.0867 59.558C40.874 59.1417 42.9961 56.3743 42.9722 53.6239C42.9694 53.2867 42.444 53.2856 42.4468 53.6239C42.4679 55.9876 40.7944 58.2934 38.4933 58.9359C35.6548 59.728 33.5833 57.1812 33.2421 54.6213C33.1984 54.2915 32.6724 54.2869 32.7173 54.6213H32.7167Z" fill="#34302F"/>
<path d="M44.0763 30.1224C44.9912 28.2227 47.3544 27.8951 48.7435 29.4867C49.1887 29.9967 49.9291 29.2513 49.4861 28.7441C47.6734 26.6681 44.3669 27.107 43.1694 29.5924C42.8771 30.1986 43.7824 30.7319 44.0758 30.1224H44.0763Z" fill="#34302F"/>
<path d="M24.7822 31.5363C25.1365 30.5418 25.8342 29.5377 26.8997 29.23C27.8368 28.9594 28.9928 29.358 29.355 30.3127C29.5921 30.9387 30.6077 30.6669 30.3677 30.0335C29.8588 28.6899 28.4811 27.9296 27.059 28.1292C25.4066 28.3618 24.2989 29.7736 23.7707 31.2572C23.5432 31.8946 24.5576 32.1692 24.7834 31.5363H24.7822Z" fill="#34302F"/>
<path d="M29.9555 36.4629C29.9555 37.0912 29.446 37.6007 28.8183 37.6007C28.1899 37.6007 27.681 37.0912 27.681 36.4629C27.681 35.8352 28.1905 35.3257 28.8183 35.3257C29.4466 35.3257 29.9555 35.8352 29.9555 36.4629Z" fill="#FEFEFE"/>
<path d="M48.1562 34.9756C48.1562 35.6039 47.6468 36.1134 47.0184 36.1134C46.3907 36.1134 45.8812 35.6039 45.8812 34.9756C45.8812 34.3473 46.3907 33.8384 47.0184 33.8384C47.6468 33.8384 48.1562 34.3479 48.1562 34.9756Z" fill="#FEFEFE"/>
<path d="M22.7165 70.3569C22.9155 69.9702 23.1151 69.5841 23.3141 69.1975C23.4688 68.8978 23.0156 68.6317 22.861 68.9325C22.6619 69.3191 22.4629 69.7058 22.2633 70.0919C22.1093 70.3915 22.5619 70.6576 22.7165 70.3569Z" fill="#7A5B3C"/>
<path d="M25.1945 71.5379C25.439 71.207 25.6056 70.8283 25.6874 70.4251C25.7545 70.0954 25.249 69.9543 25.1814 70.2858C25.1069 70.6514 24.9625 70.9727 24.7413 71.2729C24.5406 71.5453 24.996 71.8069 25.1945 71.5379Z" fill="#7A5B3C"/>
<path d="M28.9417 70.8872C29.06 70.5768 29.1788 70.2663 29.2971 69.9559C29.4176 69.6397 28.9104 69.5032 28.791 69.8165C28.6727 70.127 28.5539 70.4375 28.4356 70.7479C28.3151 71.0641 28.8223 71.2005 28.9417 70.8872Z" fill="#7A5B3C"/>
<path d="M31.0222 75.0825C31.182 74.5781 31.3418 74.0738 31.501 73.5694C31.6033 73.2464 31.0967 73.1083 30.9949 73.4301C30.8351 73.9345 30.6754 74.4388 30.5161 74.9426C30.4138 75.2656 30.9204 75.4037 31.0222 75.0825Z" fill="#7A5B3C"/>
<path d="M35.0309 72.2227C35.0309 71.873 35.0309 71.5227 35.0309 71.1725C35.0309 70.8347 34.5055 70.8342 34.5055 71.1725C34.5055 71.5227 34.5055 71.8724 34.5055 72.2227C34.5055 72.5605 35.0309 72.561 35.0309 72.2227Z" fill="#7A5B3C"/>
<path d="M38.6474 73.9723C38.6474 73.6613 38.6474 73.3503 38.6474 73.0387C38.6474 72.7009 38.1226 72.7004 38.1226 73.0387C38.1226 73.3497 38.1226 73.6607 38.1226 73.9723C38.1226 74.3101 38.6474 74.3107 38.6474 73.9723Z" fill="#7A5B3C"/>
<path d="M45.7408 72.1217C45.8579 72.3941 45.9745 72.6659 46.0916 72.9383C46.1473 73.0685 46.3389 73.0975 46.4504 73.0321C46.5852 72.953 46.6011 72.8041 46.5448 72.6727C46.4282 72.4004 46.3117 72.1286 46.1945 71.8562C46.1388 71.726 45.9472 71.697 45.8352 71.7618C45.7004 71.8408 45.685 71.9898 45.7408 72.1212V72.1217Z" fill="#7A5B3C"/>
<path d="M49.7198 67.4479C49.8341 67.6435 49.9484 67.8397 50.0633 68.0353C50.2333 68.327 50.6876 68.0632 50.5164 67.7703C50.4022 67.5747 50.2879 67.3786 50.1736 67.183C50.0036 66.8913 49.5492 67.1551 49.7204 67.4479H49.7198Z" fill="#7A5B3C"/>
<path d="M53.9896 68.7944C54.0612 69.0509 54.2716 69.2613 54.5343 69.3164C54.6685 69.3449 54.8243 69.2772 54.8573 69.1333C54.8874 69.0014 54.8175 68.8405 54.6736 68.8104L54.6253 68.7984C54.6065 68.7939 54.5946 68.7853 54.619 68.7973L54.5758 68.7728C54.5377 68.7501 54.5781 68.7785 54.5605 68.7603L54.5258 68.7245C54.4996 68.6944 54.5417 68.7524 54.5229 68.7177C54.5207 68.7137 54.4968 68.6711 54.5076 68.6938C54.5189 68.7182 54.4962 68.6551 54.4956 68.6551C54.4575 68.5187 54.3103 68.4339 54.1727 68.472C54.0356 68.5096 53.9509 68.658 53.989 68.795L53.9896 68.7944Z" fill="#7A5B3C"/>
<path d="M55.94 62.2519C56.214 62.5226 56.4881 62.7927 56.7622 63.0633C57.0027 63.301 57.3746 62.9297 57.1335 62.692C56.8594 62.4219 56.5853 62.1513 56.3113 61.8806C56.0707 61.6429 55.6989 62.0142 55.94 62.2519Z" fill="#7A5B3C"/>
<path d="M59.8519 64.1973L59.9042 64.1951C59.9218 64.1939 59.9412 64.1979 59.9127 64.1934L59.9633 64.2059L59.9884 64.2144H59.9855L60.0304 64.2411C60.0651 64.2639 60.01 64.2195 60.039 64.2485L60.0628 64.2701L60.0862 64.3082C60.1584 64.4305 60.3233 64.4737 60.4455 64.402C60.5678 64.3304 60.6121 64.1655 60.5393 64.0427C60.4 63.8056 60.1294 63.6503 59.8513 63.6725C59.7103 63.6839 59.5886 63.7851 59.5886 63.9352C59.5886 64.0683 59.7092 64.2087 59.8513 64.1973H59.8519Z" fill="#7A5B3C"/>
<path d="M58.8029 58.1263C59.0474 58.14 59.2732 58.2127 59.4836 58.3373C59.7753 58.5096 60.0397 58.0558 59.7485 57.8841C59.4574 57.7124 59.1396 57.6202 58.8029 57.6021C58.4652 57.5833 58.4663 58.1087 58.8029 58.1269V58.1263Z" fill="#7A5B3C"/>
<path d="M62.3026 59.1846C62.4584 59.1846 62.6142 59.1846 62.7689 59.1846C62.911 59.1846 63.0316 59.064 63.0316 58.9219C63.0316 58.7797 62.9116 58.6592 62.7689 58.6592C62.6136 58.6592 62.4578 58.6592 62.3026 58.6592C62.161 58.6592 62.0399 58.7797 62.0399 58.9219C62.0399 59.064 62.1599 59.1846 62.3026 59.1846Z" fill="#7A5B3C"/>
<path d="M60.8618 54.0608C61.1723 53.9715 61.464 54.0329 61.7244 54.2223C61.9979 54.4213 62.26 53.9664 61.9894 53.7691C61.6237 53.503 61.1552 53.4308 60.7225 53.5553C60.3984 53.6486 60.5366 54.1552 60.8618 54.0614V54.0608Z" fill="#7A5B3C"/>
<path d="M62.3027 56.5014C62.5751 56.5014 62.8475 56.5014 63.1193 56.5014C63.457 56.5014 63.4576 55.9766 63.1193 55.9766C62.8469 55.9766 62.5751 55.9766 62.3027 55.9766C61.965 55.9766 61.9644 56.5014 62.3027 56.5014Z" fill="#7A5B3C"/>
<path d="M64.3576 52.6501C64.7067 52.5995 65.053 52.6365 65.3896 52.7388C65.7126 52.8372 65.8507 52.3306 65.5278 52.2322C65.0968 52.1014 64.6629 52.0792 64.2177 52.1441C63.8845 52.1918 64.0261 52.6979 64.357 52.6501H64.3576Z" fill="#7A5B3C"/>
<path d="M62.4193 48.8007C62.6917 48.8007 62.964 48.8007 63.2358 48.8007C63.5736 48.8007 63.5742 48.2759 63.2358 48.2759C62.9635 48.2759 62.6911 48.2759 62.4193 48.2759C62.0815 48.2759 62.081 48.8007 62.4193 48.8007Z" fill="#7A5B3C"/>
<path d="M64.17 46.2298C64.51 46.2639 64.8506 46.2224 65.173 46.1087C65.4886 45.9972 65.3533 45.49 65.0337 45.6026C64.7494 45.7027 64.4697 45.7351 64.17 45.705C63.834 45.6709 63.8362 46.1963 64.17 46.2298Z" fill="#7A5B3C"/>
<path d="M62.0268 41.6877C62.3771 41.5717 62.7274 41.4551 63.0771 41.3391C63.3961 41.2334 63.2596 40.7262 62.9377 40.8331C62.5875 40.9491 62.2372 41.0651 61.887 41.1816C61.568 41.2874 61.705 41.7946 62.0268 41.6877Z" fill="#7A5B3C"/>
<path d="M62.7257 38.3143C62.9981 38.2762 63.2705 38.2387 63.5428 38.2006C63.6833 38.1812 63.76 38.0016 63.7265 37.8776C63.685 37.7263 63.5445 37.6746 63.4035 37.6945C63.1311 37.732 62.8588 37.7701 62.5864 37.8077C62.446 37.827 62.3692 38.0067 62.4033 38.1306C62.4448 38.2819 62.5853 38.3336 62.7263 38.3143H62.7257Z" fill="#7A5B3C"/>
<path d="M20.4734 65.9803C20.7077 65.709 20.9419 65.4372 21.1768 65.166C21.3968 64.9113 21.0267 64.5383 20.8055 64.7947C20.5712 65.0659 20.3364 65.3377 20.1021 65.609C19.882 65.8637 20.2522 66.2367 20.4734 65.9803Z" fill="#7A5B3C"/>
<path d="M17.9675 63.9684C18.2171 63.944 18.4479 63.8462 18.6179 63.6562C18.7123 63.5505 18.722 63.389 18.6179 63.2849C18.5218 63.1888 18.3416 63.1786 18.2466 63.2849C18.1881 63.3509 18.1722 63.36 18.1034 63.4009C18.0744 63.4146 18.0698 63.4174 18.0897 63.4095L18.0363 63.4277C18.0255 63.4311 17.9311 63.447 17.968 63.4436C17.827 63.4572 17.7053 63.5545 17.7053 63.7063C17.7053 63.8376 17.8259 63.9826 17.968 63.969L17.9675 63.9684Z" fill="#7A5B3C"/>
<path d="M18.9648 59.9189C19.1598 59.7642 19.3543 59.609 19.5493 59.4537C19.6602 59.3656 19.6414 59.1751 19.5493 59.0824C19.4396 58.9727 19.2895 58.9937 19.178 59.0824C18.9836 59.2371 18.7885 59.3923 18.5935 59.5476C18.4826 59.6357 18.5014 59.8267 18.5935 59.9189C18.7032 60.0286 18.8534 60.007 18.9648 59.9189Z" fill="#7A5B3C"/>
<path d="M16.3639 58.7073C16.6676 58.5384 16.9712 58.369 17.2749 58.2001C17.57 58.0358 17.3056 57.582 17.0099 57.7469C16.7063 57.9158 16.4026 58.0853 16.099 58.2541C15.8039 58.4185 16.0683 58.8722 16.3639 58.7073Z" fill="#7A5B3C"/>
<path d="M15.4178 51.917C15.6901 51.8005 15.9625 51.6839 16.2349 51.5679C16.3651 51.5122 16.3941 51.32 16.3292 51.2085C16.2502 51.0738 16.1012 51.0584 15.9699 51.1147C15.6975 51.2313 15.4252 51.3473 15.1528 51.4638C15.0226 51.5196 14.9936 51.7118 15.059 51.8232C15.138 51.958 15.287 51.9733 15.4183 51.9176L15.4178 51.917Z" fill="#7A5B3C"/>
<path d="M15.9841 46.1172C16.2565 46.1172 16.5283 46.1172 16.8006 46.1172C17.1384 46.1172 17.139 45.5918 16.8006 45.5918C16.5283 45.5918 16.2559 45.5918 15.9841 45.5918C15.6464 45.5918 15.6458 46.1172 15.9841 46.1172Z" fill="#7A5B3C"/>
<path d="M15.1222 38.8806C15.3962 38.8351 15.6629 38.8788 15.9194 38.9801C16.2332 39.1046 16.3703 38.5968 16.0587 38.474C15.7113 38.337 15.349 38.3136 14.9823 38.3745C14.6497 38.4296 14.7907 38.9357 15.1222 38.8811V38.8806Z" fill="#7A5B3C"/>
<path d="M17.0782 35.1522C17.234 35.1914 17.3893 35.2301 17.5451 35.2693C17.6827 35.304 17.8299 35.225 17.868 35.0862C17.905 34.9515 17.8225 34.7979 17.6844 34.7633C17.5291 34.724 17.3733 34.6848 17.2175 34.6461C17.0805 34.612 16.9332 34.6905 16.8946 34.8298C16.8576 34.9645 16.9401 35.1181 17.0782 35.1528V35.1522Z" fill="#7A5B3C"/>
<path d="M11.1919 34.0853C11.3477 33.8521 11.5035 33.6184 11.6593 33.3859C11.8475 33.1039 11.3926 32.8412 11.2061 33.1209C11.0503 33.354 10.8945 33.5877 10.7387 33.8209C10.5505 34.1023 11.0049 34.3656 11.1919 34.0858V34.0853Z" fill="#7A5B3C"/>
<path d="M9.3075 32.7636C9.67425 32.4424 10.095 32.216 10.563 32.0807C10.8865 31.9869 10.7489 31.4803 10.4237 31.5747C9.86758 31.7356 9.37118 32.0119 8.9362 32.3929C8.68146 32.6158 9.0539 32.9859 9.3075 32.7642V32.7636Z" fill="#7A5B3C"/>
<path d="M8.05028 29.5503C8.40055 29.5503 8.75024 29.5503 9.10051 29.5503C9.43826 29.5503 9.43883 29.0249 9.10051 29.0249C8.75081 29.0249 8.40055 29.0249 8.05028 29.0249C7.71253 29.0249 7.71196 29.5503 8.05028 29.5503Z" fill="#7A5B3C"/>
<path d="M8.91573 26.6153C9.10906 26.6568 9.25576 26.7535 9.37801 26.9087C9.46558 27.0202 9.6572 27.0008 9.74932 26.9087C9.85963 26.7984 9.83688 26.6494 9.74932 26.5374C9.57816 26.3197 9.3257 26.1667 9.05504 26.1087C8.9163 26.0791 8.7713 26.1496 8.73207 26.2924C8.69625 26.4231 8.77585 26.5852 8.91516 26.6153H8.91573Z" fill="#7A5B3C"/>
<path d="M10.6893 28.4987C10.7911 28.4714 10.9116 28.5015 10.9764 28.6016C11.1607 28.8836 11.615 28.6204 11.4296 28.3366C11.2386 28.0438 10.8894 27.9016 10.5494 27.9926C10.223 28.0802 10.3618 28.5862 10.6887 28.4987H10.6893Z" fill="#7A5B3C"/>
<path d="M12.411 26.0622C12.3285 25.7131 12.2467 25.364 12.1642 25.0154C12.0869 24.6867 11.5802 24.8255 11.6581 25.1547C11.74 25.5038 11.8225 25.8524 11.9043 26.2015C11.9817 26.5302 12.4883 26.3909 12.411 26.0622Z" fill="#7A5B3C"/>
<path d="M14.7201 25.7404C14.7593 25.6238 14.798 25.5073 14.8367 25.3901C14.8805 25.2599 14.7866 25.0979 14.6536 25.0672C14.5086 25.0342 14.3772 25.111 14.3306 25.2503C14.2914 25.3668 14.2527 25.484 14.2141 25.6005C14.1708 25.7307 14.2641 25.8928 14.3977 25.9235C14.5427 25.9565 14.6741 25.8797 14.7201 25.7398V25.7404Z" fill="#7A5B3C"/>
<path d="M18.0841 26.8666C18.4219 26.8666 18.4224 26.3418 18.0841 26.3418C17.7463 26.3418 17.7458 26.8666 18.0841 26.8666Z" fill="#7A5B3C"/>
<path d="M18.8295 31.1804C19.0677 31.2566 19.2599 31.4153 19.3867 31.6302C19.5579 31.9213 20.0116 31.6575 19.8399 31.3652C19.6437 31.0314 19.3372 30.7915 18.9688 30.6744C18.6464 30.5714 18.5082 31.0781 18.8295 31.1804Z" fill="#7A5B3C"/>
<path d="M20.0514 25.6227C20.1196 25.8911 20.2623 26.1345 20.4636 26.3244C20.7093 26.5564 21.0811 26.1856 20.8349 25.9531C20.6956 25.8217 20.6046 25.6682 20.5575 25.4828C20.4739 25.1553 19.9672 25.2941 20.0514 25.6222V25.6227Z" fill="#7A5B3C"/>
<path d="M20.2828 28.2345C20.4381 28.351 20.5939 28.4676 20.7491 28.5842C20.8628 28.6694 21.0425 28.6029 21.1085 28.4903C21.1869 28.3561 21.1278 28.2163 21.0141 28.131C20.8588 28.0144 20.703 27.8978 20.5472 27.7813C20.4335 27.696 20.2538 27.7631 20.1879 27.8751C20.1094 28.0093 20.1686 28.1492 20.2823 28.2345H20.2828Z" fill="#7A5B3C"/>
<path d="M23.3358 23.5373C23.4984 23.6504 23.6172 23.8404 23.6394 24.0382C23.6548 24.1792 23.7492 24.3009 23.9021 24.3009C24.0318 24.3009 24.1807 24.1798 24.1648 24.0382C24.1205 23.6413 23.9306 23.3127 23.6013 23.0835C23.4848 23.0028 23.3096 23.0625 23.2425 23.1779C23.1663 23.3087 23.2198 23.456 23.3364 23.5373H23.3358Z" fill="#7A5B3C"/>
<path d="M25.6653 24.5243C25.7432 24.6795 25.8211 24.8353 25.8985 24.9911C25.9622 25.1179 26.1413 25.1537 26.2578 25.0855C26.3869 25.0098 26.4153 24.8535 26.3522 24.7261C26.2743 24.5709 26.1964 24.4151 26.1185 24.2593C26.0554 24.1325 25.8763 24.0967 25.7597 24.1649C25.6307 24.2405 25.6017 24.3969 25.6653 24.5243Z" fill="#7A5B3C"/>
<path d="M26.9397 21.8868C27.0176 22.0813 27.096 22.2752 27.1739 22.4696C27.2268 22.6015 27.3491 22.6937 27.4969 22.6527C27.6214 22.6186 27.7334 22.4622 27.6806 22.3297C27.6021 22.1358 27.5242 21.9414 27.4457 21.7469C27.3928 21.6156 27.2706 21.5229 27.1228 21.5633C26.9982 21.5974 26.8856 21.7537 26.9397 21.8862V21.8868Z" fill="#7A5B3C"/>
<path d="M24.7203 66.6348C24.8369 66.4017 24.9534 66.168 25.0706 65.9349C25.2212 65.6335 24.7686 65.3674 24.6174 65.6699C24.5008 65.9036 24.3842 66.1367 24.2671 66.3699C24.1164 66.6712 24.569 66.9373 24.7203 66.6348Z" fill="#7A5B3C"/>
<path d="M30.61 23.2635C30.5707 23.0304 30.5309 22.7967 30.4917 22.5636C30.4684 22.4237 30.2955 22.3452 30.1687 22.3805C30.0203 22.4208 29.9617 22.563 29.9851 22.7029C30.0243 22.936 30.0641 23.1697 30.1033 23.4028C30.1266 23.5427 30.2995 23.6212 30.4263 23.5865C30.5747 23.5456 30.6333 23.404 30.61 23.2641V23.2635Z" fill="#7A5B3C"/>
<path d="M32.5808 20.8871C32.5808 20.654 32.5808 20.4203 32.5808 20.1871C32.5808 19.8494 32.0554 19.8488 32.0554 20.1871C32.0554 20.4203 32.0554 20.654 32.0554 20.8871C32.0554 21.2248 32.5808 21.2254 32.5808 20.8871Z" fill="#7A5B3C"/>
<path d="M34.7655 22.354C34.8036 22.0817 34.8411 21.8093 34.8792 21.5369C34.8985 21.3965 34.8451 21.2549 34.6955 21.214C34.5727 21.1804 34.3919 21.256 34.3726 21.3976C34.3345 21.67 34.2969 21.9423 34.2594 22.2147C34.2401 22.3552 34.2935 22.4967 34.4425 22.5377C34.5648 22.5712 34.7456 22.4956 34.7655 22.354Z" fill="#7A5B3C"/>
<path d="M38.1782 22.5205C38.1697 22.1037 38.2732 21.7227 38.4915 21.3668C38.6684 21.0779 38.2152 20.8141 38.0383 21.1018C37.7745 21.5311 37.6432 22.0161 37.6534 22.5199C37.6602 22.8571 38.1856 22.8588 38.1788 22.5199L38.1782 22.5205Z" fill="#7A5B3C"/>
<path d="M40.3992 20.8059C40.5323 20.5603 40.6654 20.3152 40.7984 20.069C40.9593 19.7716 40.5061 19.5067 40.3452 19.8041C40.2122 20.0497 40.0797 20.2953 39.9466 20.541C39.7857 20.8378 40.2389 21.1033 40.3998 20.8059H40.3992Z" fill="#7A5B3C"/>
<path d="M42.7288 22.3595C42.8448 22.0479 42.9608 21.7369 43.0768 21.4253C43.1945 21.1085 42.6873 20.9715 42.5702 21.2859C42.4542 21.597 42.3382 21.9086 42.2222 22.2196C42.1045 22.5369 42.6117 22.6734 42.7288 22.3595Z" fill="#7A5B3C"/>
<path d="M46.6761 23.1686C46.8683 22.7006 47.0605 22.2332 47.2527 21.7658C47.3812 21.4531 46.8735 21.3172 46.7467 21.6259C46.5545 22.0939 46.3623 22.5613 46.1701 23.0287C46.0416 23.3408 46.5493 23.4773 46.6761 23.1686Z" fill="#7A5B3C"/>
<path d="M50.2698 25.4482C50.3477 25.293 50.425 25.1372 50.5029 24.9814C50.566 24.8546 50.5364 24.6971 50.4091 24.6221C50.2925 24.5538 50.1134 24.5891 50.0497 24.7164C49.9718 24.8717 49.8939 25.0275 49.8166 25.1827C49.7529 25.3095 49.783 25.467 49.911 25.5421C50.0275 25.6103 50.2066 25.575 50.2703 25.4477L50.2698 25.4482Z" fill="#7A5B3C"/>
<path d="M53.3078 27.7839C53.4665 27.4354 53.6257 27.0868 53.7843 26.7382C53.9236 26.4329 53.471 26.1657 53.3311 26.4733C53.1719 26.8218 53.0133 27.1704 52.8546 27.5189C52.7159 27.8243 53.1679 28.0915 53.3078 27.7839Z" fill="#7A5B3C"/>
<path d="M56.368 27.564C56.4817 27.3292 56.596 27.0949 56.7097 26.8601C56.7717 26.7327 56.7444 26.5764 56.6159 26.5007C56.5005 26.4336 56.3191 26.4666 56.2566 26.5946C56.1428 26.8294 56.0285 27.0637 55.9148 27.2985C55.8528 27.4259 55.8801 27.5822 56.0092 27.6579C56.1246 27.7255 56.306 27.692 56.3686 27.5635L56.368 27.564Z" fill="#7A5B3C"/>
<path d="M57.7708 30.9898C57.8277 30.7794 57.9442 30.5826 58.1199 30.4496C58.2325 30.3637 58.2916 30.2233 58.2137 30.0902C58.1489 29.9793 57.9687 29.91 57.8549 29.9964C57.5661 30.2147 57.3591 30.4985 57.2642 30.8504C57.176 31.1768 57.6827 31.3161 57.7708 30.9898Z" fill="#7A5B3C"/>
<path d="M60.1436 33.4263C60.3745 33.229 60.6053 33.0317 60.8362 32.8344C60.9437 32.7423 60.9306 32.5581 60.8362 32.4631C60.7293 32.3562 60.5729 32.3704 60.4649 32.4631C60.234 32.6604 60.0032 32.8577 59.7723 33.055C59.6648 33.1472 59.6779 33.3314 59.7723 33.4263C59.8792 33.5332 60.0356 33.519 60.1436 33.4263Z" fill="#7A5B3C"/>
<path d="M60.2608 35.6433C60.4524 35.4841 60.644 35.3255 60.8356 35.1663C60.9448 35.0759 60.9295 34.8888 60.8356 34.795C60.7276 34.6869 60.5741 34.704 60.4643 34.795C60.2727 34.9542 60.0811 35.1128 59.8895 35.2715C59.7803 35.3625 59.7956 35.549 59.8895 35.6428C59.9975 35.7503 60.151 35.7332 60.2608 35.6428V35.6433Z" fill="#7A5B3C"/>
<path d="M56.1798 66.0973C56.4101 66.372 56.6404 66.6466 56.8707 66.9212C57.0885 67.1805 57.4575 66.8075 57.242 66.5499C57.0117 66.2753 56.7814 66.0007 56.5511 65.7255C56.3339 65.4662 55.9643 65.8392 56.1798 66.0973Z" fill="#7A5B3C"/>
<path d="M8.40963 110.198C7.47483 110.113 6.52298 109.995 5.67575 109.592C4.82795 109.188 4.08989 108.45 3.91419 107.53C3.73962 106.61 4.13822 105.68 4.60334 104.868C5.25384 103.731 6.08742 102.652 7.22976 102.01C9.00155 101.019 11.2595 101.252 13.0887 102.135C14.918 103.018 16.4015 104.471 17.8156 105.929C23.1719 111.45 11.1412 110.442 8.40906 110.198L8.40963 110.198Z" fill="#B99466"/>
<path d="M58.1473 23.208C58.3042 23.208 58.4612 23.208 58.6181 23.208C58.7989 23.208 58.9729 23.0488 58.9638 22.8623C58.9553 22.6747 58.812 22.5166 58.6181 22.5166C58.4612 22.5166 58.3042 22.5166 58.1473 22.5166C57.9665 22.5166 57.793 22.6758 57.8016 22.8623C57.8101 23.0494 57.954 23.208 58.1473 23.208Z" fill="#7A5B3C"/>
<path d="M27.4474 49.0213C27.4474 51.0631 25.7921 52.7184 23.7503 52.7184C21.7089 52.7184 20.0537 51.0631 20.0537 49.0213C20.0537 46.9799 21.7089 45.3247 23.7503 45.3247C25.7916 45.3247 27.4474 46.9799 27.4474 49.0213Z" fill="#F7C1C3"/>
<path d="M55.7387 45.9456C55.7387 47.9874 54.0834 49.6427 52.0421 49.6427C50.0002 49.6427 48.3456 47.9874 48.3456 45.9456C48.3456 43.9043 50.0008 42.249 52.0421 42.249C54.0834 42.249 55.7387 43.9043 55.7387 45.9456Z" fill="#F7C1C3"/>
<path d="M24.0129 79.1505C24.0129 79.6117 24.0129 80.0728 24.0129 80.5345C24.0129 80.9798 24.7049 80.9803 24.7049 80.5345C24.7049 80.0734 24.7049 79.6122 24.7049 79.1505C24.7049 78.7053 24.0129 78.7047 24.0129 79.1505Z" fill="#A6835A"/>
<path d="M26.0674 83.3808C26.2004 83.7976 26.3341 84.2138 26.4671 84.6306C26.6025 85.0531 27.2706 84.8728 27.1347 84.4464C27.0011 84.0296 26.868 83.6133 26.7349 83.1965C26.5996 82.7741 25.9315 82.9543 26.068 83.3808H26.0674Z" fill="#A6835A"/>
<path d="M29.8685 80.4726C29.9839 80.9821 30.0993 81.4922 30.2142 82.0016C30.3126 82.4355 30.9796 82.2518 30.8812 81.818C30.7658 81.3085 30.6503 80.7985 30.5355 80.289C30.4371 79.8546 29.7696 80.0388 29.8685 80.4726Z" fill="#A6835A"/>
<path d="M31.9939 84.3206C32.0463 84.6794 32.0986 85.0377 32.1514 85.3959C32.1782 85.5824 32.413 85.6842 32.5768 85.6381C32.7752 85.583 32.8457 85.3982 32.8184 85.2128C32.7661 84.854 32.7138 84.4952 32.6609 84.137C32.6342 83.9522 32.3999 83.8504 32.2356 83.8953C32.0366 83.9499 31.9666 84.1353 31.9939 84.3212V84.3206Z" fill="#A6835A"/>
<path d="M37.5664 79.8295C37.4788 80.3106 37.5078 80.7928 37.6897 81.2499C37.7597 81.4245 37.92 81.5428 38.1151 81.4916C38.2805 81.4478 38.4255 81.2397 38.3567 81.0663C38.2214 80.7268 38.1674 80.376 38.2333 80.0138C38.3124 79.5788 37.6454 79.3917 37.5664 79.8301V79.8295Z" fill="#A6835A"/>
<path d="M38.4642 82.6313C38.5814 82.9332 38.6991 83.2346 38.8162 83.5365C38.8839 83.7105 39.0488 83.8311 39.2421 83.7782C39.4081 83.7322 39.5514 83.528 39.4837 83.3523C39.3666 83.0504 39.2489 82.749 39.1318 82.4471C39.0641 82.2731 38.8998 82.1525 38.7059 82.2054C38.5398 82.2515 38.3966 82.4556 38.4648 82.6313H38.4642Z" fill="#A6835A"/>
<path d="M45.5696 78.0064C45.6703 78.3146 45.7709 78.6228 45.8715 78.931C46.0091 79.3523 46.6773 79.1721 46.5385 78.7468C46.4384 78.4386 46.3378 78.1304 46.2372 77.8222C46.0996 77.4009 45.4314 77.5811 45.5696 78.0064Z" fill="#A6835A"/>
<path d="M48.6054 81.7067C48.6605 82.0132 48.7151 82.3203 48.7703 82.6273C48.8032 82.8115 49.0278 82.915 49.1961 82.869C49.39 82.8155 49.4708 82.6279 49.4378 82.4437C49.3827 82.1366 49.3275 81.8296 49.2729 81.5231C49.2399 81.3388 49.0159 81.2354 48.8476 81.2814C48.6537 81.3349 48.573 81.5225 48.6059 81.7073L48.6054 81.7067Z" fill="#A6835A"/>
<path d="M53.2027 77.2515C53.3118 77.7627 53.421 78.2739 53.5307 78.7851C53.6234 79.2201 54.291 79.0358 54.1977 78.6009C54.0886 78.0902 53.9788 77.5791 53.8696 77.0679C53.777 76.6329 53.11 76.8166 53.2027 77.2515Z" fill="#A6835A"/>
<path d="M55.6869 82.841C55.6869 83.2509 55.6869 83.6609 55.6869 84.0709C55.6869 84.5161 56.3789 84.5167 56.3789 84.0709C56.3789 83.6609 56.3789 83.2509 56.3789 82.841C56.3789 82.3957 55.6869 82.3952 55.6869 82.841Z" fill="#A6835A"/>
<path d="M60.2994 78.6896C60.2994 78.9972 60.2994 79.3048 60.2994 79.6119C60.2994 80.0571 60.9914 80.0577 60.9914 79.6119C60.9914 79.3043 60.9914 78.9966 60.9914 78.6896C60.9914 78.2444 60.2994 78.2438 60.2994 78.6896Z" fill="#A6835A"/>
<path d="M62.7565 71.8672C62.8713 72.222 62.9862 72.5768 63.1011 72.9316C63.2381 73.3535 63.9062 73.1733 63.768 72.7474C63.6532 72.3926 63.5383 72.0378 63.4235 71.683C63.287 71.261 62.6189 71.4413 62.7565 71.8672Z" fill="#A6835A"/>
<path d="M63.7049 77.2423C63.7612 77.6 63.8175 77.9582 63.8738 78.3164C63.9028 78.5012 64.1337 78.6036 64.2991 78.5581C64.4964 78.5041 64.5698 78.3175 64.5408 78.1322C64.4845 77.774 64.4282 77.4163 64.3725 77.0581C64.3435 76.8733 64.1126 76.7709 63.9466 76.8164C63.7498 76.8704 63.6759 77.0569 63.7049 77.2423Z" fill="#A6835A"/>
<path d="M67.1051 72.8718C67.2092 73.0259 67.3104 73.18 67.4116 73.3346C67.5128 73.4904 67.7158 73.557 67.8847 73.4592C68.0394 73.3688 68.1133 73.1425 68.0092 72.9861C67.908 72.832 67.8062 72.6773 67.7027 72.5232C67.6015 72.3674 67.3985 72.3009 67.2297 72.3993C67.075 72.4897 67.0039 72.716 67.1051 72.8724V72.8718Z" fill="#A6835A"/>
<path d="M66.9692 65.0177C67.2296 65.3736 67.4906 65.7301 67.7488 66.0861C67.8597 66.2368 68.0507 66.3113 68.2241 66.21C68.372 66.123 68.4573 65.8882 68.3464 65.7364C68.0882 65.3804 67.8273 65.0239 67.5668 64.668C67.4582 64.5173 67.2672 64.4428 67.0937 64.544C66.9459 64.631 66.8583 64.8658 66.9692 65.0177Z" fill="#A6835A"/>
<path d="M70.265 69.8404C70.5118 70.1247 70.613 70.4755 70.5948 70.8474C70.5721 71.2926 71.2635 71.2914 71.2868 70.8474C71.3147 70.289 71.1162 69.7716 70.754 69.3513C70.4634 69.0136 69.9767 69.5049 70.265 69.8404Z" fill="#A6835A"/>
<path d="M70.0044 62.8865C70.2143 63.3135 70.5071 63.6968 70.8625 64.0118C71.1946 64.3063 71.6858 63.819 71.3515 63.5228C71.0353 63.2419 70.7886 62.9178 70.6043 62.5374C70.4082 62.1377 69.8111 62.4874 70.0044 62.8865Z" fill="#A6835A"/>
<path d="M69.693 55.1605C69.9466 55.3259 70.0989 55.5778 70.1609 55.8701C70.2553 56.3051 70.9223 56.1214 70.8273 55.6859C70.7284 55.2173 70.4401 54.8244 70.0432 54.5629C69.6696 54.3172 69.3211 54.9165 69.6924 55.1605H69.693Z" fill="#A6835A"/>
<path d="M69.4627 46.0877C69.7095 46.5034 69.9563 46.9196 70.2008 47.3358C70.4288 47.7185 71.0264 47.3711 70.7984 46.9867C70.5539 46.5705 70.3071 46.1548 70.0603 45.7386C69.8346 45.3553 69.2347 45.7033 69.4627 46.0877Z" fill="#A6835A"/>
<path d="M71.5614 57.9579C71.716 58.2656 71.8679 58.5732 72.0225 58.8802C72.221 59.2788 72.818 58.9286 72.6201 58.5311C72.4655 58.2235 72.3136 57.9159 72.159 57.6088C71.9605 57.2102 71.3635 57.5605 71.5614 57.9579Z" fill="#A6835A"/>
<path d="M72.9914 52.006C73.2728 52.1152 73.506 52.4023 73.5452 52.7025C73.5679 52.8879 73.6879 53.0483 73.8909 53.0483C74.0592 53.0483 74.2622 52.889 74.2366 52.7025C74.1536 52.0674 73.7755 51.5721 73.1756 51.339C73.0027 51.2714 72.7975 51.4135 72.7514 51.5807C72.6963 51.7763 72.8185 51.9383 72.9914 52.006Z" fill="#A6835A"/>
<path d="M49.3094 18.6893C49.4669 18.8906 49.6238 19.0919 49.7813 19.2932C49.8962 19.441 50.1498 19.4143 50.2703 19.2932C50.4159 19.1476 50.3858 18.9514 50.2703 18.8042C50.1128 18.6029 49.9559 18.4016 49.7984 18.2003C49.6835 18.053 49.4299 18.0797 49.3094 18.2003C49.1638 18.3459 49.1939 18.5415 49.3094 18.6893Z" fill="#7A5B3C"/>
<path d="M50.5875 16.4446C50.6927 16.7386 50.7979 17.0326 50.9031 17.3265C50.9662 17.5022 51.1391 17.62 51.329 17.5682C51.499 17.521 51.6338 17.3192 51.5707 17.1423C51.4655 16.8483 51.3603 16.5544 51.2551 16.261C51.192 16.0853 51.0197 15.967 50.8298 16.0193C50.6597 16.0659 50.525 16.2684 50.5881 16.4446H50.5875Z" fill="#7A5B3C"/>
<path d="M53.04 14.5454C53.04 14.7467 53.04 14.9486 53.04 15.1504C53.04 15.3375 53.1987 15.4961 53.3858 15.4961C53.5734 15.4961 53.7315 15.3381 53.7315 15.1504C53.7315 14.9486 53.7315 14.7467 53.7315 14.5454C53.7315 14.3583 53.5723 14.1997 53.3858 14.1997C53.1981 14.1997 53.04 14.3583 53.04 14.5454Z" fill="#7A5B3C"/>
<path d="M54.8567 16.4277C54.8834 16.7411 54.9095 17.0544 54.9363 17.3677C54.9522 17.5542 55.0841 17.7134 55.282 17.7134C55.4571 17.7134 55.6436 17.5547 55.6277 17.3677C55.601 17.0544 55.5748 16.7411 55.5481 16.4277C55.5322 16.2412 55.4003 16.082 55.2024 16.082C55.0278 16.082 54.8407 16.2407 54.8567 16.4277Z" fill="#7A5B3C"/>
<path d="M57.4564 15.7322C57.5224 15.619 57.5883 15.5065 57.6543 15.3939C57.7481 15.2324 57.6913 15.0146 57.5303 14.9202C57.3683 14.8258 57.1516 14.8827 57.0567 15.0442C56.9907 15.1568 56.9248 15.2699 56.8588 15.3831C56.765 15.5446 56.8218 15.7618 56.9828 15.8562C57.1448 15.9505 57.3615 15.8943 57.4559 15.7322H57.4564Z" fill="#7A5B3C"/>
<path d="M57.7452 18.4443C58.1154 18.2765 58.4168 18.0025 58.6437 17.6676C58.7483 17.5129 58.6732 17.2843 58.5197 17.1945C58.3491 17.095 58.1512 17.1638 58.046 17.3184C57.884 17.5584 57.6583 17.7284 57.3961 17.8472C57.2255 17.924 57.1846 18.1713 57.2716 18.3209C57.3739 18.496 57.5741 18.5222 57.7447 18.4448L57.7452 18.4443Z" fill="#7A5B3C"/>
<path d="M59.2362 20.4716C59.5552 20.5057 59.8657 20.433 60.1505 20.2908C60.3177 20.2078 60.3643 19.9707 60.2745 19.8172C60.175 19.6471 59.9692 19.6096 59.8014 19.6932C59.6217 19.783 59.4335 19.8007 59.2362 19.7796C59.0503 19.7603 58.8905 19.9531 58.8905 20.1253C58.8905 20.3289 59.0497 20.4517 59.2362 20.4711V20.4716Z" fill="#7A5B3C"/>
<path d="M28.1302 2.51957C36.7919 -4.47606 49.8034 4.50402 54.1294 12.315C56.9122 17.3393 58.9393 22.8224 59.6882 28.5165C59.7939 29.3233 59.6165 30.4549 58.8034 30.4788C58.444 30.4896 58.1324 30.2462 57.8572 30.0142C55.1916 27.7705 52.6203 25.4136 50.1531 22.9526C48.2073 21.0114 46.5288 17.8624 43.6545 17.9232C36.9443 18.066 30.1397 19.4494 23.7923 21.5806C20.9174 22.5461 18.7669 23.2443 18.7726 19.297C18.776 16.8116 19.9883 14.3319 20.9447 12.0938C22.5277 8.38934 24.9932 5.05387 28.1308 2.51957H28.1302Z" fill="#E21E26"/>
<path d="M57.0283 29.1033C55.8183 29.3461 55.0956 29.9324 54.7572 31.1009C54.5878 31.6871 54.6776 32.2409 54.9346 32.7868C55.0609 33.0558 55.6238 34.1151 55.8962 34.1549C55.6289 34.1156 55.3873 34.3198 55.2275 34.5381C53.9913 36.2235 55.4424 38.6662 57.4456 38.66C58.5721 38.656 59.6496 37.8548 59.9782 36.7785C60.0965 38.0857 61.6778 38.9312 62.9287 38.5338C64.1797 38.1357 64.9729 36.8001 65.0218 35.4883C65.0343 35.1647 65.003 34.8236 64.8251 34.5535C64.6471 34.2828 64.286 34.1117 63.9881 34.2385C64.9809 33.8217 66.1016 33.2553 66.3205 32.2011C66.5002 31.33 65.9168 30.4191 65.1122 30.0421C64.3065 29.6651 63.3455 29.7481 62.5165 30.0694C62.8156 29.6122 62.7656 28.9811 62.4733 28.5194C62.181 28.0582 61.6812 27.7557 61.1553 27.6102C59.6149 27.1837 59.1026 28.0099 58.8092 29.3063C58.236 29.0351 57.6191 28.9851 57.0283 29.1033Z" fill="#FEFEFE"/>
<path d="M26.5797 6.47344C27.1244 5.43743 27.8914 4.57314 28.8666 3.92435C29.2356 3.67871 28.8899 3.0794 28.5175 3.32674C27.4451 4.04035 26.5819 4.98368 25.982 6.12431C25.7751 6.51779 26.3721 6.86862 26.5797 6.47344Z" fill="#FEFEFE"/>
<path d="M56.5603 31.3102C56.8082 31.5052 57.0556 31.6997 57.3029 31.8953C57.4496 32.0107 57.6492 32.038 57.7925 31.8953C57.9125 31.7753 57.9403 31.5217 57.7925 31.4063C57.5446 31.2113 57.2972 31.0162 57.0493 30.8212C56.9026 30.7058 56.7036 30.6785 56.5603 30.8212C56.4403 30.9412 56.4125 31.1948 56.5603 31.3108V31.3102Z" fill="#F6F8F9"/>
<path d="M59.9179 31.1803C59.9105 30.9023 59.923 30.6248 59.9668 30.3502C59.997 30.1659 59.9191 29.9777 59.7252 29.9248C59.5603 29.8794 59.3294 29.9811 59.2998 30.1665C59.2453 30.5031 59.2168 30.8392 59.2259 31.1803C59.2379 31.625 59.9299 31.6267 59.9179 31.1803Z" fill="#F6F8F9"/>
<path d="M61.6664 32.1197C61.8176 31.9253 61.9899 31.7518 62.1821 31.5989C62.3288 31.4829 62.3038 31.2316 62.1821 31.1099C62.0377 30.9654 61.8398 30.9933 61.6931 31.1099C61.5003 31.2628 61.3286 31.4363 61.1768 31.6307C61.062 31.778 61.0335 31.9764 61.1768 32.1197C61.2968 32.2397 61.5504 32.2676 61.6664 32.1197Z" fill="#F6F8F9"/>
<path d="M56.877 35.2303C57.0311 35.054 57.2068 34.8897 57.3836 34.7652C57.536 34.6577 57.6077 34.4627 57.5076 34.2921C57.4195 34.1414 57.1875 34.0601 57.0345 34.1681C56.7974 34.3353 56.579 34.5229 56.388 34.7413C56.2652 34.8817 56.2498 35.0921 56.388 35.2309C56.5137 35.356 56.7536 35.3719 56.8776 35.2309L56.877 35.2303Z" fill="#F6F8F9"/>
<path d="M59.2737 35.1564C59.1144 35.4106 59.0024 35.6937 58.9518 35.9894C58.92 36.1731 59.0007 36.3619 59.1935 36.4147C59.3601 36.4608 59.587 36.3584 59.6188 36.1731C59.6609 35.9297 59.7394 35.7148 59.8713 35.5061C60.1084 35.128 59.5102 34.78 59.2737 35.157V35.1564Z" fill="#F6F8F9"/>
<path d="M61.402 35.2318C61.6311 35.4831 61.8603 35.7345 62.0888 35.9858C62.2151 36.124 62.4505 36.1137 62.5784 35.9858C62.716 35.8482 62.7047 35.635 62.5784 35.4968C62.3493 35.2455 62.1201 34.9941 61.891 34.7434C61.7647 34.6052 61.5293 34.6154 61.402 34.7434C61.2644 34.881 61.2757 35.0942 61.402 35.2324V35.2318Z" fill="#F6F8F9"/>
<path d="M62.1417 33.8073C62.3533 33.7698 62.5654 33.7328 62.7769 33.6958C62.9606 33.6634 63.0646 33.4383 63.018 33.27C62.9645 33.0761 62.7775 32.9965 62.5927 33.0283C62.3811 33.0653 62.1696 33.1028 61.9575 33.1397C61.7733 33.1722 61.6698 33.3973 61.7159 33.5651C61.7693 33.7595 61.9564 33.8391 62.1412 33.8067L62.1417 33.8073Z" fill="#F6F8F9"/>
</svg>
