<svg width="251" height="310" viewBox="0 0 251 310" fill="none" xmlns="http://www.w3.org/2000/svg">
<path d="M184.434 216.907L189.531 221.378C190.479 222.201 191.767 220.752 190.828 219.93L185.73 215.458C184.836 214.635 183.495 216.084 184.434 216.907Z" fill="white"/>
<path d="M187.769 215.44C189.433 217.399 191.362 219.114 193.502 220.538C194.548 221.235 195.416 219.5 194.396 218.812C192.529 217.559 190.844 216.054 189.388 214.34C188.592 213.401 186.964 214.465 187.778 215.422L187.769 215.44Z" fill="white"/>
<path d="M190.577 214.536L196.131 218.892C197.106 219.661 198.411 218.212 197.419 217.434L191.874 213.088C190.89 212.319 189.594 213.767 190.577 214.536Z" fill="white"/>
<path d="M194.137 213.33C196.293 215.004 198.558 216.533 200.916 217.909C201.998 218.544 202.874 216.809 201.81 216.183C199.592 214.891 197.462 213.454 195.434 211.881C194.45 211.112 193.153 212.561 194.146 213.33H194.137Z" fill="white"/>
<path d="M197.884 212.623C199.812 214.099 201.851 215.424 203.983 216.585C204.213 216.704 204.481 216.726 204.728 216.647C204.974 216.569 205.179 216.395 205.298 216.165C205.416 215.935 205.439 215.667 205.36 215.421C205.281 215.174 205.108 214.969 204.877 214.85C202.886 213.774 200.982 212.545 199.181 211.175C198.197 210.415 196.9 211.863 197.893 212.623H197.884Z" fill="white"/>
<path d="M200.576 211.336C202.816 213.032 205.338 214.318 208.025 215.137C209.224 215.504 209.617 213.599 208.428 213.232C206.061 212.511 203.839 211.379 201.864 209.888C200.871 209.136 199.574 210.576 200.576 211.336Z" fill="white"/>
<path d="M203.429 210.487L209.644 213C210.798 213.465 211.683 211.739 210.539 211.265L204.278 208.752C203.125 208.287 202.239 210.022 203.384 210.487H203.429Z" fill="white"/>
<path d="M158.695 180.401C159.929 187.5 162.635 194.262 166.639 200.252C170.644 206.242 175.859 211.328 181.948 215.18C182.774 215.773 183.72 216.176 184.72 216.361C185.762 216.403 186.8 216.226 187.77 215.842C193.517 213.982 199.202 211.946 204.824 209.734C204.94 209.691 205.042 209.615 205.116 209.516C205.19 209.417 205.234 209.298 205.243 209.174C205.251 209.051 205.224 208.927 205.164 208.818C205.104 208.71 205.014 208.621 204.905 208.563C192.066 201.292 182.101 189.85 176.662 176.135L158.695 180.401Z" fill="#D61921"/>
<path d="M170.831 205.719C177.846 204.044 184.59 201.389 190.864 197.831C189.934 196.889 189.039 195.923 188.181 194.933C181.903 198.373 175.153 200.871 168.148 202.347C168.989 203.51 169.883 204.633 170.831 205.719Z" fill="white"/>
<path d="M197.821 203.904C191.179 207.276 184.161 209.849 176.912 211.568C178.214 212.632 179.569 213.629 180.973 214.555C188.064 212.627 194.916 209.906 201.399 206.444C200.173 205.639 198.984 204.789 197.821 203.904Z" fill="white"/>
<path d="M161.691 190.936C162.204 192.188 162.762 193.416 163.364 194.62C170.266 193.804 176.933 191.605 182.967 188.154C182.252 187.09 181.581 185.999 180.928 184.89C175.026 188.267 168.464 190.329 161.691 190.936Z" fill="white"/>
<path d="M163.149 201.605C182.35 194.862 198.179 183.335 207.587 169.24C207.828 168.945 207.972 168.583 207.999 168.203C207.894 167.733 207.636 167.311 207.265 167.005C204.922 164.489 202.573 161.979 200.218 159.474C199.941 159.217 199.589 159.053 199.213 159.008C198.837 158.963 198.456 159.039 198.126 159.224C187.49 165.682 175.639 169.883 163.31 171.566L163.149 201.605Z" fill="#B09074"/>
<path d="M89.0999 200.631C88.3187 200.657 87.5369 200.606 86.7658 200.479C70.2836 197.635 52.5047 185.088 42.4079 172.129C42.1413 171.856 41.9689 171.505 41.916 171.127C41.9846 170.652 42.2077 170.212 42.551 169.875L49.0347 161.827C49.2885 161.544 49.6281 161.352 50.0013 161.281C50.3745 161.21 50.7607 161.263 51.1006 161.433C60.1224 166.083 69.8798 169.138 79.9422 170.466C87.6869 171.548 98.1235 169.357 104.089 175.831C112.924 185.526 100.136 200.309 89.0999 200.631Z" fill="#B09074"/>
<path d="M158.981 250.954C166.136 247.377 173.863 250.704 179.452 255.623C186.973 262.241 192.25 271.362 203.456 271.371C214.187 271.371 225.813 267.231 230.571 256.964C235.204 246.912 233.254 235.554 231.304 225.091C230.938 223.061 234.095 222.408 234.47 224.492C236.33 234.678 238.155 245.526 234.604 255.569C231.331 264.807 224.373 270.352 215.064 272.865C205.754 275.378 196.283 275.548 188.503 269.1C180.946 262.84 172.092 247.994 160.403 253.843C158.552 254.737 157.13 251.884 158.981 250.954V250.954Z" fill="#A18977"/>
<path d="M234.658 210.459C236.93 211.881 238.897 213.679 239.344 216.37C239.988 220.243 239.049 224.187 235.248 225.868C233.344 226.782 231.172 226.969 229.14 226.394C227.108 225.819 225.356 224.522 224.212 222.747C222.486 220.064 222.952 216.487 223.694 213.401C224.436 210.316 225.375 206.998 224.409 203.939C226.392 205.703 228.592 207.206 230.956 208.411C232.145 209.055 233.433 209.708 234.658 210.459Z" fill="#825532"/>
<path d="M136.713 259.209C136.23 262.59 135.819 266.015 135.077 269.324L131.499 284.625C129.872 291.482 128.25 298.338 126.634 305.195C126.599 305.339 126.619 305.491 126.69 305.622C126.761 305.753 126.878 305.852 127.019 305.901L139.485 309.845C139.584 309.881 139.692 309.884 139.793 309.856C139.894 309.827 139.984 309.767 140.049 309.684C146.81 301.707 152.668 292.549 158.15 283.588C163.972 274.055 176.93 256.329 167.889 245.133C162.38 238.3 150.271 239.168 144.091 243.568C141.107 245.618 138.969 248.681 138.072 252.189C137.482 254.5 137.029 256.844 136.713 259.209V259.209Z" fill="#B09074"/>
<path d="M140.004 309.72C139.939 309.803 139.85 309.863 139.748 309.891C139.647 309.92 139.54 309.917 139.441 309.881L127.01 305.937C126.869 305.888 126.751 305.789 126.679 305.659C126.606 305.528 126.584 305.376 126.616 305.231L128.02 299.301L143.868 304.971C141.945 307.404 140.541 309.094 140.004 309.72Z" fill="black"/>
<path d="M69.0138 234.784C66.3309 236.689 63.6479 238.683 60.8219 240.311L47.6218 247.85L29.8608 258C29.7355 258.072 29.643 258.189 29.6029 258.328C29.5628 258.467 29.5784 258.615 29.6462 258.743L35.7901 270.252C35.8379 270.345 35.9114 270.422 36.0017 270.475C36.0921 270.527 36.1956 270.552 36.2999 270.548C46.6381 270.091 57.1463 268.222 67.2699 266.201C78.0016 264.055 99.5187 261.578 100.896 247.725C101.737 239.273 92.5431 231.198 85.1025 229.695C81.6248 228.911 77.9807 229.413 74.8447 231.108C72.8267 232.211 70.8793 233.439 69.0138 234.784V234.784Z" fill="#B09074"/>
<path d="M36.2639 270.548C36.1596 270.553 36.0562 270.527 35.9658 270.475C35.8754 270.423 35.802 270.345 35.7542 270.253L29.646 258.743C29.5782 258.615 29.5626 258.467 29.6027 258.328C29.6428 258.19 29.7353 258.072 29.8606 258.001L34.985 255.076L42.2737 270.136C39.242 270.405 37.0778 270.512 36.2639 270.548Z" fill="black"/>
<path d="M94.3496 158.41C88.152 158.804 88.6796 163.624 88.4829 170.725C88.453 174.275 88.0908 177.814 87.4008 181.296C85.8357 188.754 81.8381 194.317 77.0178 199.969C67.4665 211.166 63.1292 226.092 68.2267 240.329C79.3073 271.29 127.081 277.416 153.964 267.767C182.94 257.357 184.103 227.29 176.796 201.722C174.238 192.779 170.974 184.077 167.996 175.277C165.671 168.382 162.702 157.328 153.687 157.203C145.361 157.078 136.981 157.623 128.646 157.829C118.281 158.088 107.29 159.43 96.9699 158.473C96.0992 158.387 95.2233 158.366 94.3496 158.41Z" fill="#B89779"/>
<path d="M124.47 203.063C83.4836 194.701 75.0592 231.09 73.4226 250.041C89.5202 271.773 127.636 276.047 151.639 268.544L151.791 268.464C158.15 249.272 165.063 211.326 124.47 203.063Z" fill="#C7AA93"/>
<path opacity="0.7" d="M176.796 201.722C174.238 192.778 170.974 184.077 167.996 175.277C165.93 169.133 163.337 159.698 156.37 157.623C159.053 161.451 160.627 166.7 161.942 170.608C164.92 179.408 168.202 188.11 170.742 197.053C178.048 222.622 176.886 252.688 147.91 263.098C128.521 270.065 98.2667 268.813 78.7438 255.944C97.5244 273.097 132.403 275.484 153.929 267.758C182.94 257.357 184.103 227.29 176.796 201.722Z" fill="#AB8D71"/>
<path d="M117.727 250.337C114.609 251.353 111.667 252.846 109.007 254.764C107.612 255.765 105.841 253.753 107.219 252.743C110.26 250.549 113.628 248.846 117.199 247.699C118.836 247.171 119.328 249.809 117.7 250.382L117.727 250.337Z" fill="#B89779"/>
<path d="M114.847 256.051C113.273 253.037 111.195 250.315 108.703 248.002C107.442 246.822 109.472 245.069 110.724 246.214C113.373 248.689 115.583 251.595 117.262 254.808C118.067 256.337 115.652 257.491 114.847 255.988V256.051Z" fill="#B89779"/>
<path d="M166.601 217.069L170.831 222.354C171.609 223.32 173.237 222.256 172.45 221.281L168.202 215.996C167.433 215.03 165.805 216.094 166.592 217.069H166.601Z" fill="white"/>
<path d="M170.259 216.405C171.523 218.55 173.079 220.51 174.882 222.227C175.777 223.122 177.073 221.646 176.17 220.779C174.496 219.169 173.051 217.336 171.877 215.332C171.242 214.25 169.624 215.332 170.259 216.405V216.405Z" fill="white"/>
<path d="M173.219 215.986L177.932 221.227C178.764 222.121 180.051 220.699 179.22 219.778L174.516 214.537C173.675 213.643 172.396 215.065 173.219 215.986Z" fill="white"/>
<path d="M176.93 215.387C178.707 217.351 180.613 219.195 182.636 220.904C183.593 221.718 184.89 220.26 183.933 219.456C181.909 217.743 180 215.9 178.218 213.938C177.386 213.043 176.098 214.474 176.93 215.387Z" fill="white"/>
<path d="M180.749 215.387C182.331 217.118 184.051 218.718 185.891 220.171C186.866 220.949 188.163 219.5 187.188 218.722C185.347 217.267 183.624 215.667 182.037 213.938C181.196 213.043 179.908 214.474 180.749 215.387Z" fill="white"/>
<path d="M183.62 214.565C185.476 216.56 187.671 218.21 190.104 219.439C190.33 219.535 190.584 219.542 190.815 219.459C191.046 219.376 191.237 219.208 191.35 218.99C191.463 218.772 191.49 218.519 191.425 218.282C191.359 218.045 191.207 217.842 190.998 217.713C188.713 216.551 186.654 214.991 184.917 213.107C184.022 212.213 182.788 213.653 183.629 214.565H183.62Z" fill="white"/>
<path d="M186.598 214.188L192.286 217.765C193.35 218.427 194.226 216.692 193.18 216.03L187.492 212.453C186.428 211.791 185.56 213.526 186.598 214.188Z" fill="white"/>
<path d="M147.579 176.717C147.565 183.923 149.06 191.052 151.966 197.646C154.873 204.239 159.127 210.152 164.455 215.003C165.171 215.724 166.034 216.282 166.986 216.64C168.005 216.859 169.06 216.859 170.08 216.64C176.042 215.805 182.004 214.788 187.966 213.59C188.087 213.564 188.197 213.505 188.286 213.42C188.374 213.334 188.436 213.225 188.465 213.105C188.494 212.985 188.489 212.86 188.45 212.743C188.41 212.626 188.339 212.523 188.243 212.445C176.861 203.054 169.031 190.053 166.055 175.6L147.579 176.717Z" fill="#E63A41"/>
<path d="M155.189 203.761C162.391 203.324 169.495 201.879 176.295 199.468C175.538 198.389 174.817 197.28 174.131 196.141C167.345 198.443 160.258 199.732 153.097 199.969C153.741 201.257 154.438 202.521 155.189 203.761Z" fill="white"/>
<path d="M182.082 206.65C174.952 208.817 167.592 210.132 160.153 210.567C161.253 211.839 162.417 213.054 163.641 214.207C170.959 213.536 178.178 212.036 185.158 209.736C184.094 208.761 183.074 207.715 182.082 206.65Z" fill="white"/>
<path d="M148.75 187.61C149.028 188.924 149.367 190.23 149.752 191.527C156.691 191.916 163.637 190.906 170.178 188.558C169.659 187.386 169.185 186.197 168.738 184.98C162.343 187.286 155.525 188.182 148.75 187.61V187.61Z" fill="white"/>
<path d="M83.7251 158.455C82.0617 163.186 76.5707 167.094 78.0552 171.87C78.6365 173.757 80.2194 175.143 81.7934 176.341C97.4975 188.227 118.612 190.346 138.296 188.96C149.573 188.164 161.548 185.973 169.597 178.014C170.867 176.873 171.835 175.435 172.414 173.828C173.899 168.874 169.087 163.696 170.429 158.697L83.7251 158.455Z" fill="#E21E26"/>
<path d="M118.183 188.924C119.367 178.832 119.579 168.65 118.818 158.518H115.071C115.851 168.526 115.656 178.587 114.489 188.558C115.697 188.692 116.94 188.817 118.183 188.924Z" fill="white"/>
<path d="M88.1877 178.022C88.2276 175.189 88.4337 172.361 88.8048 169.553C89.3031 165.797 90.1168 162.091 91.2373 158.472H87.3381C85.9984 163.054 85.1176 167.757 84.7088 172.513C84.5479 174.418 84.4763 176.332 84.4674 178.245C85.6598 179.05 86.9058 179.807 88.2056 180.517C88.1877 179.676 88.1788 178.854 88.1877 178.022Z" fill="white"/>
<path d="M104.724 158.518H100.833C98.4066 167.065 97.4154 175.956 97.9 184.828C99.161 185.266 100.44 185.669 101.728 186.036C101.032 176.757 102.047 167.429 104.724 158.518V158.518Z" fill="white"/>
<path d="M133.699 158.589H129.889C131.788 168.71 132.291 179.043 131.383 189.3C132.644 189.3 133.905 189.22 135.157 189.157C136.029 178.948 135.538 168.669 133.699 158.589V158.589Z" fill="white"/>
<path d="M160.761 158.67H156.71C159.973 166.551 161.747 174.968 161.941 183.496C163.212 182.847 164.439 182.118 165.617 181.314C165.216 173.555 163.577 165.911 160.761 158.67V158.67Z" fill="white"/>
<path d="M146.774 158.625H142.893C145.757 168.184 146.857 178.184 146.139 188.137C147.409 187.949 148.679 187.735 149.94 187.484C150.524 177.755 149.453 167.997 146.774 158.625V158.625Z" fill="white"/>
<path d="M101.406 84.2804C89.0183 80.1887 78.3046 72.166 70.892 61.4307C69.6171 59.8224 68.7875 57.9071 68.4863 55.877C68.4656 54.1082 68.8319 52.3561 69.5595 50.7437C71.0873 46.6895 72.8798 42.7401 74.9253 38.9209C75.6855 37.5079 76.4904 35.8355 75.8196 34.3867C75.1489 32.9379 73.2798 32.4371 71.7594 32.8396C70.266 33.3557 68.9172 34.2202 67.8245 35.3615C62.5123 40.1312 57.3342 45.035 52.2903 50.0729C50.3049 52.0583 48.2838 54.1421 47.2643 56.7624C45.3326 61.6722 47.2643 67.208 49.7057 71.9031C55.2548 82.6849 63.1369 92.0946 72.779 99.4479L101.406 84.2804Z" fill="#C9A047"/>
<path d="M58.0316 44.457C61.923 46.43 66.0198 47.9685 70.2479 49.0449C70.0154 49.6262 69.7739 50.1985 69.5593 50.7798C65.0781 49.6027 60.7343 47.954 56.6007 45.8611L58.0316 44.457Z" fill="#B08C3E"/>
<path d="M70.3283 60.5718C70.5072 60.858 70.704 61.1531 70.8918 61.4661L71.3926 62.1637C63.7015 65.4189 55.295 65.7409 46.9868 64.9807C46.8331 64.3557 46.7137 63.7228 46.6291 63.0848C54.7047 63.8807 62.8608 63.6482 70.3283 60.5718Z" fill="#B08C3E"/>
<path d="M63.1737 78.4858C68.7654 76.7633 74.022 74.0987 78.7169 70.6069C79.164 71.0362 79.6112 71.4565 80.0852 71.8679C74.9208 75.7923 69.075 78.7273 62.8428 80.5249C60.587 81.1821 58.2972 81.7165 55.9835 82.1257C55.5811 81.5712 55.1965 81.0078 54.8119 80.4444C57.6453 80.0067 60.4408 79.3519 63.1737 78.4858Z" fill="#B08C3E"/>
<path d="M145.334 81.3733C157.075 75.6802 166.637 66.3102 172.566 54.687C173.62 52.9251 174.194 50.9177 174.23 48.865C174.008 47.1109 173.413 45.4246 172.486 43.9195C170.431 40.102 168.13 36.4217 165.599 32.9016C164.705 31.6048 163.65 30.0577 164.115 28.5284C164.58 26.9991 166.378 26.2658 167.943 26.4625C169.491 26.7911 170.941 27.4805 172.173 28.4747C178.063 32.4872 183.843 36.6607 189.513 40.9951C191.749 42.7032 193.985 44.5008 195.38 46.9602C197.938 51.5748 196.721 57.3163 194.951 62.2887C190.874 73.7081 184.306 84.0766 175.723 92.6416L145.334 81.3733Z" fill="#C9A047"/>
<path d="M183.083 36.1675C179.483 38.626 175.623 40.6804 171.573 42.2935C171.878 42.8391 172.191 43.3756 172.468 43.9211C176.75 42.1601 180.836 39.9539 184.657 37.339L183.083 36.1675Z" fill="#B08C3E"/>
<path d="M173.022 53.7669C172.87 54.0799 172.727 54.384 172.566 54.6612C172.405 54.9384 172.298 55.171 172.164 55.4214C180.212 57.6303 188.574 56.8702 196.73 54.9921C196.802 54.3536 196.837 53.7117 196.838 53.0693C188.941 54.9832 180.821 55.8328 173.022 53.7669Z" fill="#B08C3E"/>
<path d="M182.457 70.5801C176.694 69.6061 171.138 67.6586 166.029 64.8208C165.635 65.3037 165.233 65.7777 164.83 66.2517C170.473 69.4558 176.657 71.5931 183.074 72.5566C185.397 72.912 187.738 73.1359 190.086 73.2273C190.399 72.6281 190.712 72.0289 190.98 71.4387C188.122 71.3658 185.273 71.0788 182.457 70.5801Z" fill="#B08C3E"/>
<path d="M193.386 161.952C195.013 161.093 196.593 160.184 198.126 159.224C198.456 159.039 198.837 158.963 199.213 159.008C199.589 159.053 199.941 159.217 200.218 159.474C202.573 161.979 204.922 164.489 207.265 167.005C207.636 167.311 207.894 167.733 207.999 168.203C207.972 168.583 207.828 168.945 207.587 169.24C206.074 171.496 204.426 173.658 202.651 175.715C199.152 171.417 196.051 166.81 193.386 161.952V161.952Z" fill="black"/>
<path d="M56.0282 163.821C54.3409 163.081 52.6984 162.291 51.1005 161.451C50.7606 161.281 50.3744 161.228 50.0012 161.299C49.628 161.37 49.2884 161.561 49.0347 161.844L42.5509 169.893C42.2077 170.229 41.9845 170.669 41.9159 171.145C41.9689 171.523 42.1413 171.874 42.4078 172.147C44.0698 174.288 45.8618 176.325 47.7737 178.246C50.954 173.696 53.7167 168.868 56.0282 163.821V163.821Z" fill="black"/>
<path opacity="0.71" d="M191.794 62.4603C193.582 57.488 194.781 51.7286 192.223 47.1318C190.864 44.6725 188.592 42.866 186.356 41.1578C180.692 36.8174 174.912 32.644 169.016 28.6375C167.998 27.8692 166.867 27.2656 165.662 26.8488C166.37 26.5063 167.162 26.3759 167.943 26.4732C169.49 26.7992 170.94 27.4855 172.173 28.4765C178.063 32.489 183.843 36.6624 189.513 40.9969C191.749 42.705 193.985 44.5026 195.38 46.9619C197.938 51.5766 196.721 57.318 194.951 62.2904C190.874 73.7099 184.306 84.0784 175.723 92.6434L173.532 91.8385C181.648 83.4631 187.876 73.4454 191.794 62.4603V62.4603Z" fill="#B89241"/>
<path d="M176.617 74.738C180.794 73.1283 185.444 73.5218 189.889 74.0405C193.889 74.5284 197.802 75.5698 201.515 77.1348C205.092 78.6462 208.374 80.7746 211.987 82.1966C219.581 85.0844 227.652 86.5106 235.776 86.3998C239.63 86.3998 243.521 86.1137 247.295 86.9006C248.176 87.0275 249.012 87.3718 249.727 87.9023C250.219 88.3731 250.587 88.9584 250.798 89.6061C251.009 90.2537 251.056 90.9435 250.935 91.6137C250.676 92.9538 250.156 94.23 249.405 95.3698C241.169 109.375 225.071 118.622 208.848 117.853C199.69 117.306 190.896 114.071 183.566 108.552C176.254 103.034 170.357 95.8582 166.359 87.6161L176.617 74.738Z" fill="#845943"/>
<path d="M173.147 82.2956C173.415 83.1184 182.403 100.593 188.028 111.504C189.967 112.639 191.981 113.64 194.056 114.5C196.998 106.827 205.074 93.5371 226.475 89.1371C226.475 89.1371 172.763 81.0972 173.147 82.2956Z" fill="#694635"/>
<path d="M250.926 91.6137C250.926 91.7747 250.872 91.9356 250.836 92.0877C250.8 92.2397 250.836 92.2844 250.765 92.3828C250.693 92.4812 250.765 92.4901 250.72 92.5438C250.675 92.5974 250.639 92.8031 250.595 92.9283C250.55 93.0535 250.595 92.9283 250.595 92.982L250.434 93.4023C243.887 90.5316 236.125 90.5048 228.863 90.782C223.275 90.8632 217.705 91.4408 212.22 92.508C209.537 93.0893 206.854 93.8852 204.171 94.4129C197.921 95.5686 191.488 95.2755 185.369 93.5561C179.25 91.8368 173.606 88.7369 168.872 84.495L176.608 74.738C180.785 73.1283 185.435 73.5218 189.88 74.0405C193.88 74.5284 197.793 75.5698 201.506 77.1348C205.083 78.6462 208.365 80.7746 211.978 82.1966C214.31 83.1177 216.7 83.8826 219.133 84.486C220.963 84.9919 222.828 85.3625 224.713 85.595H224.955L225.5 85.6754L226.395 85.8007L226.94 85.8633L227.834 85.9706L228.371 86.0242L229.265 86.1047H229.802L230.741 86.1673H231.269L232.225 86.212H232.735H233.755H235.651C238.03 86.212 241.911 85.6218 247.169 86.7129C247.92 86.8327 248.639 87.097 249.289 87.4909C249.399 87.5573 249.504 87.632 249.602 87.7145C249.732 87.8222 249.852 87.942 249.96 88.0722C250.015 88.1339 250.066 88.1996 250.112 88.2689C250.466 88.7427 250.721 89.2832 250.861 89.8581C251.001 90.4329 251.023 91.0301 250.926 91.6137V91.6137Z" fill="#B89679"/>
<path opacity="0.71" d="M52.8622 71.6625C50.4565 66.9763 48.489 61.4405 50.4117 56.5308C51.4402 53.9104 53.4524 51.8267 55.4378 49.8324C60.4817 44.7885 65.6598 39.8876 70.972 35.1299C71.8843 34.2468 72.9282 33.5107 74.0663 32.9478C73.3196 32.7052 72.5192 32.6804 71.759 32.8762C70.2649 33.3963 68.914 34.2602 67.8151 35.3982C62.5148 40.1678 57.3397 45.0717 52.2898 50.1096C50.3044 52.095 48.2833 54.1787 47.2638 56.7991C45.3321 61.7088 47.2638 67.2446 49.7052 71.9398C55.2543 82.7216 63.1365 92.1312 72.7785 99.4846L74.8354 98.3935C65.6834 91.1573 58.1904 82.0419 52.8622 71.6625V71.6625Z" fill="#B89241"/>
<path d="M71.6341 80.9546C67.2788 79.9083 62.6909 80.9099 58.3803 82.0099C54.4828 83.0202 50.7446 84.5672 47.273 86.6067C43.9283 88.5652 40.9591 91.0782 37.5607 93.001C30.4164 96.865 22.6062 99.344 14.5412 100.308C10.7135 100.808 6.8143 101.05 3.18339 102.329C2.32676 102.568 1.5431 103.017 0.902909 103.634C0.478218 104.168 0.191595 104.798 0.0683673 105.469C-0.054861 106.139 -0.0108768 106.83 0.196422 107.48C0.63017 108.772 1.31389 109.966 2.20862 110.995C12.2249 123.792 29.3957 130.857 45.386 127.933C54.3844 126.189 62.6703 121.834 69.2104 115.412C75.7113 108.974 80.5909 101.085 83.4479 92.3929L71.6341 80.9546Z" fill="#845943"/>
<path d="M73.9591 88.8678C73.807 89.7621 67.207 108.23 63.0753 119.784C61.2973 121.161 59.4301 122.419 57.4859 123.549C53.5598 116.332 43.8029 104.232 22.0085 102.694C22.0085 102.703 74.1826 87.6336 73.9591 88.8678Z" fill="#694635"/>
<path d="M0.196594 107.489C0.196594 107.641 0.294953 107.793 0.348611 107.945L0.455924 108.222C0.480636 108.274 0.501565 108.328 0.518533 108.383L0.697406 108.75V108.795L0.912032 109.197C7.02018 105.477 14.6934 104.43 21.9463 103.742C27.4958 103.09 33.092 102.928 38.6699 103.259C41.4154 103.482 44.1341 103.921 46.8797 104.09C53.2273 104.409 59.5636 103.269 65.4019 100.758C71.2403 98.2461 76.4256 94.4301 80.5594 89.6026L71.6163 80.9546C67.261 79.9083 62.6732 80.9099 58.3626 82.0099C54.4713 83.0217 50.7392 84.5687 47.2732 86.6067C43.9285 88.5652 40.9593 91.0782 37.5609 93.001C35.3606 94.2249 33.081 95.3005 30.7373 96.2205C28.9943 96.9601 27.2012 97.5757 25.3714 98.0628L25.139 98.1254L24.6113 98.2774L23.717 98.5189L23.1804 98.653L22.2861 98.8766L21.7584 99.0018L20.8641 99.2075L20.3365 99.3238L19.4421 99.5116L18.9145 99.61L17.9755 99.7888L17.4747 99.8782L16.4641 100.039L16.0348 100.111L14.6039 100.308C12.243 100.621 8.28115 100.558 3.24617 102.329C2.51931 102.55 1.84 102.905 1.24292 103.375C1.14455 103.455 1.05512 103.545 0.965689 103.634C0.854479 103.761 0.752818 103.895 0.661599 104.037C0.661599 104.108 0.572209 104.18 0.536436 104.251C0.0107842 105.247 -0.110941 106.406 0.196594 107.489V107.489Z" fill="#B89679"/>
<path d="M198.68 108.176C200.066 116.979 199.578 125.975 197.249 134.576C189.111 164.089 161.673 179.158 132.581 181.188C117.664 182.297 102.692 179.972 88.8135 174.391C48.5695 157.864 40.5207 104.957 70.659 73.799C92.8468 50.8778 131.052 45.3599 160.036 57.2185C181.017 65.8039 195.308 86.1674 198.68 108.176Z" fill="#C8A484"/>
<path d="M198.68 108.176C195.917 90.1202 185.793 73.173 170.67 62.9331C183.344 73.5607 191.702 88.4503 194.173 104.805C195.564 113.607 195.076 122.604 192.742 131.205C184.604 160.717 157.166 175.786 128.083 177.825C113.166 178.927 98.1956 176.602 84.3155 171.029C80.5727 169.491 76.9977 167.573 73.6463 165.305C78.2243 169.082 83.3508 172.14 88.8496 174.373C102.728 179.954 117.7 182.279 132.617 181.17C161.709 179.14 189.147 164.062 197.285 134.559C199.6 125.96 200.075 116.971 198.68 108.176V108.176Z" fill="#AB8D71"/>
<path d="M78.8869 73.7807C79.1454 73.0676 79.5498 72.4164 80.0745 71.8687C80.5991 71.3211 81.2324 70.889 81.9337 70.6002C82.635 70.3115 83.3889 70.1723 84.1471 70.1918C84.9053 70.2112 85.651 70.3888 86.3366 70.7132C87.1593 71.1156 87.6959 69.8189 86.8731 69.3985C86.0148 69.0032 85.0841 68.7895 84.1393 68.7709C83.1946 68.7522 82.2561 68.9289 81.3829 69.29C80.5096 69.6511 79.7203 70.1886 79.0646 70.8691C78.4089 71.5495 77.9008 72.3581 77.5723 73.2441C77.2682 74.1384 78.5829 74.6481 78.8869 73.7807V73.7807Z" fill="black"/>
<path d="M156.299 74.256C156.793 73.6666 157.428 73.2115 158.144 72.9328C158.861 72.6541 159.637 72.5608 160.399 72.6616C161.162 72.7623 161.886 73.0539 162.506 73.5093C163.126 73.9646 163.621 74.5691 163.945 75.2665C164.347 76.0804 165.734 75.6064 165.286 74.7836C164.874 73.8551 164.234 73.0464 163.424 72.4332C162.614 71.82 161.662 71.4223 160.656 71.2776C159.651 71.1328 158.625 71.2456 157.675 71.6054C156.726 71.9652 155.883 72.5603 155.225 73.3348C154.617 74.0145 155.69 74.9446 156.299 74.2291V74.256Z" fill="black"/>
<path d="M161.146 112.765C161.217 109.072 159.16 104.797 155.172 104.072C151.657 103.437 147.955 106.407 148.241 110.038C148.24 110.436 148.088 110.82 147.816 111.112C147.544 111.404 147.172 111.582 146.774 111.611C146.377 111.641 145.982 111.519 145.671 111.27C145.359 111.022 145.152 110.664 145.093 110.27C144.69 105.011 149.564 100.522 154.733 100.862C160.546 101.255 164.392 107.051 164.285 112.488C164.285 114.5 161.101 114.759 161.146 112.729V112.765Z" fill="black"/>
<path d="M84.5031 116.342C83.6893 112.764 84.843 108.141 88.608 106.629C91.917 105.306 96.1471 107.47 96.5942 111.101C96.6201 111.307 96.6861 111.505 96.7887 111.685C96.8912 111.865 97.0282 112.023 97.1918 112.15C97.3554 112.277 97.5424 112.371 97.7421 112.425C97.9419 112.48 98.1505 112.495 98.356 112.469C98.5616 112.443 98.76 112.377 98.94 112.275C99.12 112.172 99.278 112.035 99.405 111.872C99.5321 111.708 99.6257 111.521 99.6805 111.321C99.7353 111.122 99.7502 110.913 99.7243 110.708C99.0715 105.467 93.4641 102.042 88.3934 103.428C82.7771 104.975 80.1657 111.477 81.373 116.771C81.8202 118.729 84.9503 118.354 84.5031 116.368V116.342Z" fill="black"/>
<path d="M159.321 159.153C158.069 159.982 156.742 160.694 155.36 161.281C147.99 164.411 139.87 164.644 131.982 164.706C124.094 164.769 116.43 165.386 108.641 165.198C102.381 165.055 95.8788 164.501 90.2625 161.675C86.3633 159.646 83.0692 156.623 80.7136 152.912C78.358 149.201 77.0244 144.934 76.8479 140.542C76.0698 112.818 112.495 110.135 132.394 110.851C145.021 111.325 158.096 113.918 165.242 125.482C172.387 137.045 170.241 151.891 159.321 159.153Z" fill="#845943"/>
<path d="M165.206 125.481C163.255 122.291 160.652 119.548 157.568 117.432C159.342 119.074 160.883 120.952 162.147 123.013C169.239 134.496 167.182 149.386 156.263 156.683C155.015 157.521 153.688 158.234 152.301 158.812C144.932 161.942 136.811 162.175 128.932 162.246C121.054 162.318 113.371 162.917 105.582 162.729C99.3218 162.586 92.8201 162.031 87.2038 159.205C86.3475 158.774 85.52 158.287 84.7266 157.748C86.3761 159.303 88.2404 160.613 90.2624 161.638C95.8787 164.464 102.345 165.018 108.641 165.162C116.43 165.349 124.184 164.732 131.982 164.67C139.78 164.607 147.99 164.375 155.359 161.244C156.742 160.658 158.068 159.945 159.321 159.116C170.241 151.89 172.289 136.955 165.206 125.481Z" fill="#734D3A"/>
<path d="M84.2104 139.109C82.8026 134.282 84.1059 129.656 87.1216 128.776C90.1372 127.897 93.7232 131.097 95.131 135.924C96.5389 140.751 95.2355 145.377 92.2199 146.256C89.2042 147.136 85.6183 143.936 84.2104 139.109Z" fill="#593B22"/>
<path d="M156.424 135.865C155.207 140.748 151.746 144.092 148.697 143.332C145.647 142.572 144.163 137.966 145.379 133.119C146.595 128.272 150.047 124.892 153.097 125.652C156.146 126.412 157.64 130.991 156.424 135.865Z" fill="#593B22"/>
<path d="M94.573 121.797C96.5514 120.126 99.067 119.227 101.656 119.266C103.838 119.266 104.142 115.903 101.951 115.867C98.4483 115.779 95.0323 116.964 92.3372 119.203C90.647 120.607 92.8738 123.201 94.573 121.797Z" fill="white"/>
<path d="M116.064 167.827C117.682 176.475 129.854 176.574 131.678 168.006C131.929 166.852 130.158 166.369 129.89 167.523C129.635 168.954 128.879 170.248 127.757 171.174C126.636 172.099 125.222 172.595 123.768 172.573C122.314 172.552 120.916 172.014 119.822 171.056C118.729 170.098 118.011 168.782 117.799 167.344C117.584 166.191 115.822 166.674 116.01 167.827H116.064Z" fill="black"/>
<path d="M99.9837 40.0394C99.9731 39.8777 100.007 39.7161 100.081 39.5719C100.155 39.4278 100.267 39.3065 100.405 39.221C100.543 39.1356 100.701 39.0893 100.863 39.0869C101.025 39.0846 101.185 39.1263 101.325 39.2077C105.297 41.6718 109.572 43.6107 114.042 44.9761C112.85 43.0184 112.088 40.8296 111.806 38.5549C111.69 37.6606 113.067 37.285 113.497 38.0362C115.27 41.2243 117.685 44.0104 120.589 46.2191C120.088 43.6789 119.941 41.0818 120.15 38.5012C120.111 38.264 120.168 38.021 120.308 37.8256C120.448 37.6302 120.66 37.4985 120.897 37.4594C121.134 37.4202 121.377 37.4769 121.573 37.6169C121.768 37.757 121.9 37.9689 121.939 38.2061C123.086 41.8528 125.112 45.1619 127.838 47.8424C130.564 50.523 133.906 52.493 137.572 53.5793C138.689 53.9192 138.278 55.7078 137.151 55.368C136.498 55.1712 135.863 54.9387 135.228 54.6972L114.31 56.8346C114.305 56.992 114.262 57.1459 114.185 57.2835C114.109 57.421 114 57.5383 113.869 57.6257C113.738 57.7131 113.588 57.768 113.432 57.786C113.275 57.8039 113.116 57.7844 112.969 57.7289C109.363 56.2951 106.234 53.876 103.937 50.748C101.641 47.62 100.271 43.9091 99.9837 40.0394V40.0394Z" fill="#C8A484"/>
<path opacity="0.64" d="M62.1802 143.14C57.6329 141.886 54.9627 137.184 56.2161 132.637C57.4694 128.089 62.1718 125.419 66.7191 126.672C71.2665 127.926 73.9367 132.628 72.6833 137.176C71.43 141.723 66.7275 144.393 62.1802 143.14Z" fill="url(#paint0_radial)"/>
<path opacity="0.64" d="M175.239 138.662C171.013 136.566 169.287 131.442 171.382 127.216C173.478 122.99 178.603 121.264 182.828 123.359C187.054 125.455 188.781 130.58 186.685 134.806C184.589 139.031 179.465 140.758 175.239 138.662Z" fill="url(#paint1_radial)"/>
<path d="M76.6599 58.2831C77.6243 48.3462 79.9442 38.5882 83.555 29.2805C91.9526 7.62924 117.736 -4.98055 140.326 1.86988C151.469 5.25038 160.546 14.4886 167.638 23.3334C169.89 26.2196 172.334 28.9505 174.954 31.5074C179.846 36.1131 186.267 39.7082 192.965 39.1448C198.68 38.6619 203.813 35.1741 207.498 30.774C208.58 29.4683 209.626 28.0285 211.164 27.3041C212.703 26.5797 214.912 26.9285 215.555 28.4935C217.559 33.3049 208.276 39.905 205.11 42.0692C193.484 50.0375 179.488 50.118 166.261 46.4066C163.791 45.8644 161.373 45.1073 159.035 44.144C160.564 45.2082 162.693 47.3993 162.898 49.3489C163.56 55.466 151.183 54.2766 147.588 54.4733L119.524 55.9936L76.6777 58.3099L76.6599 58.2831Z" fill="#E21E26"/>
<path d="M103.829 11.4121C99.4016 13.5484 95.7503 17.0122 93.3836 21.321C92.7665 22.4479 90.9869 21.5536 91.595 20.4267C94.1049 15.804 97.9895 12.0757 102.711 9.75759C103.847 9.20312 104.965 10.8665 103.82 11.421L103.829 11.4121Z" fill="#F2F2F2"/>
<path d="M166.1 46.5577C163.786 38.1678 159.111 30.6188 152.632 24.808C152.46 24.6261 152.362 24.3863 152.358 24.1358C152.354 23.8854 152.443 23.6424 152.61 23.455C152.776 23.2675 153.006 23.1491 153.255 23.1231C153.504 23.0971 153.754 23.1654 153.955 23.3145C160.699 29.3599 165.574 37.2073 168.005 45.9316C168.345 47.1658 166.449 47.8008 166.1 46.5577V46.5577Z" fill="#C2171E"/>
<path d="M155.967 40.6383C161.467 41.0854 165.286 40.5846 168.488 45.1098C170.824 48.6978 172.206 52.8225 172.503 57.0936C172.637 58.596 172.441 60.4204 170.974 61.2343C169.659 61.9676 168.041 61.5115 166.655 61.0554C138.993 52.0497 106.396 54.3838 79.2266 67.3156C77.9243 68.0798 76.4519 68.5071 74.9429 68.5587C74.0379 68.4671 73.1808 68.1075 72.4814 67.526C71.782 66.9445 71.2721 66.1675 71.0168 65.2945C70.6072 63.5775 70.6317 61.7856 71.0883 60.0806C71.6875 57.0042 72.6981 53.722 75.3989 51.6651C77.0012 50.5802 78.7764 49.7758 80.6485 49.2862C104.964 41.5819 130.539 38.6455 155.967 40.6383V40.6383Z" fill="white"/>
<path d="M86.265 47.5867C84.3869 48.1144 82.5088 48.6778 80.6487 49.2681C78.7766 49.7576 77.0014 50.562 75.3991 51.6469C72.7161 53.7038 71.6877 57.0128 71.0885 60.0624C70.6319 61.7674 70.6073 63.5593 71.017 65.2762C71.2722 66.1493 71.7822 66.9263 72.4816 67.5078C73.181 68.0893 74.0381 68.4489 74.943 68.5405C75.5474 68.5634 76.1515 68.4878 76.7316 68.3169C77.587 68.046 78.4185 67.7051 79.2178 67.2974C85.1931 64.4541 91.3978 62.1206 97.7658 60.3217C120.446 53.8738 145.048 53.999 166.628 61.0283C167.792 61.5244 169.074 61.6765 170.321 61.4665C170.539 61.4048 170.75 61.3178 170.947 61.2071C172.414 60.3933 172.611 58.5242 172.477 57.0665C172.158 52.8067 170.761 48.698 168.416 45.1274C165.26 40.5843 161.441 41.0851 155.896 40.6558C132.433 38.8035 108.829 41.1567 86.1934 47.6047L86.265 47.5867ZM85.8715 46.4957C97.2787 43.2578 108.95 41.0372 120.75 39.8599C132.463 38.6823 144.259 38.5625 155.994 39.5022C156.764 39.5648 157.506 39.6095 158.23 39.6542C162.559 39.9136 166.279 40.1371 169.32 44.4835C171.783 48.2265 173.251 52.5356 173.586 57.0039C173.809 59.5079 173.058 61.3681 171.466 62.2624C171.182 62.4146 170.882 62.5346 170.572 62.6201C169.102 62.9061 167.58 62.7505 166.199 62.173C155.309 58.6747 143.948 56.8651 132.51 56.8071C120.84 56.7082 109.216 58.2772 97.9894 61.4665C91.6886 63.2553 85.5475 65.5646 79.6292 68.3705C78.7669 68.806 77.8694 69.168 76.9463 69.4527C76.2365 69.6658 75.4951 69.7535 74.7552 69.712C73.6156 69.6087 72.5332 69.1656 71.6482 68.4401C70.7633 67.7146 70.1166 66.7401 69.7918 65.6429C69.3268 63.7433 69.3422 61.7578 69.8365 59.8657C70.9544 54.1421 72.9576 51.9868 74.5853 50.7526C76.2913 49.5861 78.185 48.7209 80.1837 48.1949C82.0438 47.6046 83.9487 47.0323 85.8268 46.5046L85.8715 46.4957Z" fill="#E8E8E8"/>
<path d="M217.764 31.7491C221.27 31.0873 224.481 28.5296 225.241 24.9613C226.734 17.8873 218.525 11.6539 211.978 13.7287C200.692 17.3149 207.578 33.6898 217.764 31.7491Z" fill="white"/>
<path d="M211.862 13.7643C200.737 17.431 207.614 33.6806 217.764 31.7489C218.197 31.6679 218.624 31.5604 219.043 31.4269C220.548 30.9787 221.911 30.147 222.997 29.0135C224.084 27.8799 224.857 26.4835 225.241 24.9611C226.734 17.8871 218.525 11.6537 211.978 13.7285H211.862V13.7643ZM211.504 12.6375L211.629 12.5927C215.278 11.4391 219.678 12.548 222.871 15.4277C224.26 16.599 225.315 18.1166 225.929 19.8269C226.544 21.5371 226.695 23.3793 226.368 25.1668C225.943 26.8867 225.077 28.4661 223.855 29.749C222.633 31.0319 221.098 31.974 219.401 32.4822C218.936 32.6359 218.461 32.7584 217.979 32.8489C211.817 34.0205 206.729 29.2717 205.369 24.0042C204.01 18.7367 206.425 14.3098 211.504 12.6375V12.6375Z" fill="#E8E8E8"/>
<path d="M160.403 40.9424C163.65 41.2286 166.207 41.9172 168.452 45.1278C170.798 48.707 172.192 52.8254 172.503 57.0937C172.637 58.5961 172.441 60.4205 170.974 61.2343C169.659 61.9677 168.041 61.5115 166.655 61.0554C165.483 60.6798 164.302 60.3132 163.077 59.9733C164.011 56.7935 164.255 53.4511 163.794 50.1693C163.333 46.8875 162.177 43.7418 160.403 40.9424Z" fill="#F2F2F2"/>
<defs>
<radialGradient id="paint0_radial" cx="0" cy="0" r="1" gradientUnits="userSpaceOnUse" gradientTransform="translate(64.4344 134.861) rotate(169.23) scale(8.54069)">
<stop stop-color="#DB786B"/>
<stop offset="0.62" stop-color="#D9776A"/>
<stop offset="0.93" stop-color="#D17367"/>
<stop offset="1" stop-color="#CE7266"/>
</radialGradient>
<radialGradient id="paint1_radial" cx="0" cy="0" r="1" gradientUnits="userSpaceOnUse" gradientTransform="translate(-7990.92 8882.3) rotate(169.23) scale(163.127)">
<stop stop-color="#DB786B"/>
<stop offset="0.62" stop-color="#D9776A"/>
<stop offset="0.93" stop-color="#D17367"/>
<stop offset="1" stop-color="#CE7266"/>
</radialGradient>
</defs>
</svg>
