<svg width="93" height="114" viewBox="0 0 93 114" fill="none" xmlns="http://www.w3.org/2000/svg">
<path d="M67.8438 79.789L69.7189 81.4338C70.0676 81.7365 70.5413 81.2035 70.1959 80.9009L68.3208 79.256C67.9918 78.9534 67.4983 79.4863 67.8438 79.789Z" fill="white"/>
<path d="M69.0708 79.2495C69.6828 79.9699 70.3926 80.6011 71.1795 81.1247C71.5644 81.3813 71.8835 80.743 71.5085 80.4897C70.8217 80.0287 70.2018 79.4752 69.6663 78.8449C69.3735 78.4995 68.7747 78.8909 69.0741 79.2429L69.0708 79.2495Z" fill="white"/>
<path d="M70.1038 78.917L72.1467 80.5191C72.5052 80.802 72.9855 80.2691 72.6204 79.9829L70.5808 78.3841C70.2189 78.1012 69.7419 78.6341 70.1038 78.917Z" fill="white"/>
<path d="M71.4131 78.4732C72.2063 79.0888 73.0394 79.6515 73.9067 80.1575C74.3047 80.3911 74.6271 79.7529 74.2357 79.5226C73.4197 79.0475 72.6361 78.5189 71.8901 77.9402C71.5282 77.6573 71.0512 78.1903 71.4164 78.4732H71.4131Z" fill="white"/>
<path d="M72.7914 78.2133C73.5006 78.7561 74.2507 79.2434 75.035 79.6706C75.1196 79.7143 75.2181 79.7225 75.3088 79.6935C75.3995 79.6645 75.4749 79.6007 75.5186 79.516C75.5622 79.4314 75.5704 79.3329 75.5414 79.2422C75.5124 79.1515 75.4486 79.0761 75.364 79.0324C74.6316 78.6365 73.931 78.1845 73.2684 77.6804C72.9065 77.4007 72.4295 77.9337 72.7947 78.2133H72.7914Z" fill="white"/>
<path d="M73.7817 77.7399C74.6058 78.3635 75.5335 78.8368 76.5221 79.138C76.9629 79.2729 77.1076 78.5722 76.6701 78.4373C75.7993 78.1719 74.982 77.7555 74.2554 77.2069C73.8903 76.9306 73.4133 77.4603 73.7817 77.7399Z" fill="white"/>
<path d="M74.8311 77.4273L77.1174 78.3517C77.5418 78.5228 77.8675 77.8879 77.4464 77.7135L75.1436 76.7891C74.7192 76.618 74.3935 77.2562 74.8146 77.4273H74.8311Z" fill="white"/>
<path d="M58.376 66.3602C58.8296 68.9716 59.825 71.4591 61.2982 73.6626C62.7713 75.8661 64.6895 77.7366 66.9293 79.1539C67.2332 79.3718 67.5814 79.5201 67.9491 79.5882C68.3322 79.6037 68.7144 79.5387 69.0709 79.3974C71.1851 78.7131 73.2762 77.9642 75.3444 77.1505C75.3872 77.1347 75.4244 77.1068 75.4518 77.0703C75.4791 77.0338 75.4953 76.9901 75.4985 76.9446C75.5016 76.8991 75.4915 76.8536 75.4694 76.8137C75.4473 76.7738 75.4142 76.7411 75.374 76.7195C70.6515 74.0451 66.9857 69.836 64.985 64.791L58.376 66.3602Z" fill="#D61921"/>
<path d="M62.84 75.6735C65.4205 75.0575 67.9013 74.0807 70.209 72.7719C69.8669 72.4254 69.5379 72.0701 69.2221 71.7061C66.9127 72.9713 64.4298 73.8902 61.8531 74.4332C62.1623 74.8609 62.4913 75.2743 62.84 75.6735Z" fill="white"/>
<path d="M72.7685 75.0059C70.3251 76.2463 67.7433 77.1927 65.0771 77.8252C65.5559 78.2166 66.0544 78.5833 66.5706 78.9239C69.1793 78.2146 71.6997 77.2137 74.0844 75.9401C73.6337 75.6441 73.1961 75.3315 72.7685 75.0059Z" fill="white"/>
<path d="M59.4781 70.2356C59.6667 70.6961 59.8718 71.1479 60.0933 71.5909C62.6324 71.2907 65.0849 70.4818 67.3043 69.2125C67.0411 68.821 66.7944 68.4196 66.5543 68.0117C64.3832 69.2539 61.9694 70.0124 59.4781 70.2356Z" fill="white"/>
<path d="M60.0143 74.1603C67.0773 71.6799 72.9001 67.4394 76.3609 62.2548C76.4494 62.1462 76.5022 62.013 76.5122 61.8732C76.4738 61.7004 76.3789 61.5453 76.2424 61.4324C75.3805 60.5069 74.5164 59.5836 73.6501 58.6625C73.5481 58.5676 73.4186 58.5075 73.2803 58.491C73.1419 58.4744 73.0019 58.5022 72.8804 58.5704C68.968 60.9461 64.6087 62.4914 60.0735 63.1102L60.0143 74.1603Z" fill="#B09074"/>
<path d="M32.7754 73.8019C32.4881 73.8115 32.2005 73.7927 31.9168 73.746C25.8538 72.6999 19.3139 68.0844 15.5998 63.3176C15.5017 63.2172 15.4383 63.0881 15.4188 62.9491C15.4441 62.7742 15.5262 62.6123 15.6524 62.4886L18.0375 59.5278C18.1308 59.4238 18.2557 59.3533 18.393 59.3272C18.5303 59.301 18.6723 59.3207 18.7974 59.3831C22.1161 61.0934 25.7053 62.2175 29.4067 62.7057C32.2556 63.1037 36.0947 62.2978 38.289 64.6795C41.5392 68.2456 36.8349 73.6835 32.7754 73.8019Z" fill="#B09074"/>
<path d="M58.4812 92.3134C61.113 90.9975 63.9553 92.2213 66.0114 94.0306C68.7781 96.465 70.719 99.8205 74.841 99.8238C78.7887 99.8238 83.0653 98.3007 84.8154 94.5241C86.5195 90.8264 85.8024 86.6485 85.0852 82.7995C84.9503 82.0527 86.1116 81.8126 86.2498 82.5791C86.934 86.3261 87.6051 90.3165 86.2991 94.0109C85.0951 97.4091 82.5357 99.4488 79.1111 100.373C75.6865 101.298 72.2027 101.36 69.3406 98.9882C66.5608 96.6854 63.304 91.2245 59.0043 93.3759C58.3233 93.7049 57.8003 92.6555 58.4812 92.3134Z" fill="#A18977"/>
<path d="M86.3188 77.4172C87.1544 77.9403 87.8781 78.6015 88.0426 79.5918C88.2795 81.0162 87.934 82.467 86.5359 83.0854C85.8356 83.4216 85.0366 83.4904 84.2891 83.279C83.5415 83.0676 82.897 82.5905 82.4764 81.9373C81.8415 80.9504 82.0125 79.6345 82.2856 78.4996C82.5586 77.3646 82.9041 76.1441 82.5488 75.019C83.278 75.6678 84.0873 76.2206 84.9569 76.6639C85.3944 76.9008 85.8681 77.1409 86.3188 77.4172Z" fill="#825532"/>
<path d="M50.2899 95.3498C50.1122 96.5933 49.9609 97.8533 49.6879 99.0705L48.372 104.699C47.7732 107.221 47.1767 109.743 46.5824 112.266C46.5695 112.319 46.5769 112.375 46.603 112.423C46.6292 112.471 46.6722 112.507 46.7238 112.525L51.3097 113.976C51.3461 113.989 51.3857 113.991 51.4229 113.98C51.4601 113.969 51.493 113.947 51.5169 113.917C54.004 110.983 56.1587 107.614 58.1753 104.318C60.3169 100.811 65.0837 94.2905 61.7578 90.1718C59.7314 87.6585 55.2771 87.9776 53.0039 89.5961C51.9063 90.3503 51.1197 91.4771 50.7899 92.7674C50.5729 93.6177 50.4059 94.48 50.2899 95.3498Z" fill="#B09074"/>
<path d="M51.5005 113.93C51.4765 113.961 51.4436 113.983 51.4064 113.993C51.3692 114.004 51.3296 114.003 51.2932 113.989L46.7205 112.539C46.6687 112.521 46.6254 112.484 46.5987 112.436C46.572 112.388 46.5638 112.332 46.5758 112.279L47.0923 110.098L52.9216 112.183C52.2143 113.078 51.6979 113.7 51.5005 113.93Z" fill="black"/>
<path d="M25.3867 86.3651C24.3998 87.0658 23.4128 87.7994 22.3733 88.3982L17.5177 91.1714L10.9843 94.9053C10.9382 94.9315 10.9041 94.9748 10.8894 95.0257C10.8747 95.0767 10.8804 95.1314 10.9053 95.1783L13.1654 99.4121C13.183 99.4463 13.21 99.4747 13.2432 99.4939C13.2764 99.5132 13.3145 99.5225 13.3529 99.5207C17.1558 99.3529 21.0212 98.6654 24.7452 97.9219C28.6928 97.1324 36.6079 96.2211 37.1145 91.1254C37.4237 88.0166 34.0419 85.046 31.3049 84.4933C30.0256 84.2048 28.6852 84.3894 27.5316 85.0131C26.7892 85.4188 26.0729 85.8704 25.3867 86.3651Z" fill="#B09074"/>
<path d="M13.3396 99.5208C13.3012 99.5225 13.2632 99.5132 13.2299 99.494C13.1967 99.4748 13.1697 99.4464 13.1521 99.4122L10.9052 95.1784C10.8803 95.1315 10.8745 95.0768 10.8893 95.0258C10.904 94.9748 10.9381 94.9316 10.9842 94.9053L12.8692 93.8296L15.5503 99.3695C14.4351 99.4682 13.639 99.5076 13.3396 99.5208Z" fill="black"/>
<path d="M34.7065 58.2712C32.4267 58.416 32.6208 60.1891 32.5484 62.8012C32.5374 64.1069 32.4042 65.4087 32.1504 66.6896C31.5747 69.4332 30.1042 71.4794 28.331 73.5585C24.8176 77.6773 23.2221 83.1678 25.0972 88.405C29.1732 99.794 46.7469 102.048 56.6358 98.4979C67.2945 94.6687 67.7221 83.6086 65.0344 74.2033C64.0935 70.9136 62.8928 67.7127 61.7973 64.4756C60.942 61.9392 59.8498 57.8732 56.5338 57.8271C53.4711 57.781 50.3886 57.9817 47.3226 58.0574C43.5098 58.1528 39.4667 58.6462 35.6704 58.2942C35.3501 58.2626 35.0279 58.2549 34.7065 58.2712Z" fill="#B89779"/>
<path d="M45.7862 74.6964C30.7094 71.6205 27.6105 85.0064 27.0085 91.9773C32.93 99.9713 46.9508 101.544 55.7804 98.7838L55.8363 98.7541C58.1753 91.6944 60.7183 77.7361 45.7862 74.6964Z" fill="#C7AA93"/>
<path opacity="0.7" d="M65.0343 74.2031C64.0935 70.9133 62.8927 67.7124 61.7973 64.4753C61.0373 62.2153 60.0833 58.7447 57.5206 57.9814C58.5075 59.3894 59.0865 61.3205 59.5701 62.7581C60.6656 65.9952 61.8729 69.1961 62.8072 72.4858C65.4949 81.8911 65.0672 92.9512 54.4085 96.7804C47.2764 99.3431 36.1473 98.8825 28.9659 94.1486C35.8743 100.458 48.7042 101.337 56.6225 98.4943C67.2944 94.6684 67.722 83.6084 65.0343 74.2031Z" fill="#AB8D71"/>
<path d="M43.3057 92.0863C42.1588 92.4599 41.0767 93.0093 40.0983 93.7147C39.5851 94.0832 38.9337 93.343 39.4403 92.9712C40.5593 92.1641 41.7982 91.538 43.1117 91.1158C43.7137 90.9217 43.8946 91.8922 43.2959 92.1028L43.3057 92.0863Z" fill="#B89779"/>
<path d="M42.2465 94.1882C41.6676 93.0796 40.9032 92.0783 39.9865 91.2275C39.5227 90.7932 40.2694 90.1485 40.73 90.5695C41.7042 91.4802 42.5172 92.5491 43.1347 93.731C43.4308 94.2935 42.5426 94.7179 42.2465 94.1652V94.1882Z" fill="#B89779"/>
<path d="M61.2841 79.8487L62.8402 81.7929C63.1264 82.1482 63.7251 81.7567 63.4356 81.3981L61.873 79.4539C61.5901 79.0986 60.9914 79.4901 61.2809 79.8487H61.2841Z" fill="white"/>
<path d="M62.6295 79.6047C63.0947 80.3937 63.6671 81.1144 64.3303 81.7463C64.6593 82.0752 65.1363 81.5324 64.804 81.2133C64.1882 80.6212 63.6568 79.947 63.2249 79.2099C62.9914 78.8118 62.3959 79.2099 62.6295 79.6047Z" fill="white"/>
<path d="M63.7183 79.4504L65.452 81.3782C65.758 81.7071 66.2317 81.1841 65.9258 80.8452L64.1954 78.9174C63.8861 78.5885 63.4157 79.1116 63.7183 79.4504Z" fill="white"/>
<path d="M65.0836 79.2298C65.7372 79.9525 66.4383 80.6306 67.1825 81.2595C67.5345 81.5589 68.0115 81.0227 67.6595 80.7266C66.9151 80.0968 66.2129 79.4187 65.5573 78.6969C65.2514 78.3679 64.7777 78.8942 65.0836 79.2298Z" fill="white"/>
<path d="M66.4884 79.2298C67.0703 79.8666 67.7029 80.4552 68.38 80.9898C68.7385 81.276 69.2155 80.7431 68.857 80.4569C68.1796 79.9215 67.546 79.3329 66.9621 78.6969C66.6529 78.3679 66.1791 78.8942 66.4884 79.2298Z" fill="white"/>
<path d="M67.5443 78.9275C68.2271 79.6614 69.0346 80.2684 69.9294 80.7204C70.0125 80.7557 70.106 80.7584 70.1911 80.7278C70.2761 80.6972 70.3465 80.6356 70.388 80.5553C70.4296 80.4751 70.4393 80.3821 70.4153 80.295C70.3913 80.2079 70.3352 80.133 70.2583 80.0855C69.4179 79.6582 68.6604 79.0845 68.0213 78.3913C67.6924 78.0623 67.2384 78.5919 67.5476 78.9275H67.5443Z" fill="white"/>
<path d="M68.6399 78.7888L70.7321 80.1047C71.1236 80.3481 71.446 79.7099 71.0611 79.4665L68.9689 78.1506C68.5774 77.9072 68.2583 78.5454 68.6399 78.7888Z" fill="white"/>
<path d="M54.2868 65.0055C54.2819 67.6561 54.8316 70.2784 55.9007 72.7039C56.9698 75.1293 58.5346 77.3042 60.4945 79.0887C60.7582 79.3538 61.0757 79.5591 61.4255 79.6908C61.8007 79.7714 62.1886 79.7714 62.5638 79.6908C64.7569 79.3837 66.9501 79.0098 69.1432 78.569C69.1875 78.5596 69.2283 78.5378 69.2608 78.5063C69.2933 78.4747 69.3162 78.4346 69.3269 78.3905C69.3375 78.3465 69.3355 78.3004 69.3211 78.2574C69.3066 78.2145 69.2803 78.1765 69.2452 78.1479C65.0581 74.6934 62.1781 69.9109 61.0834 64.5942L54.2868 65.0055Z" fill="#E63A41"/>
<path d="M57.0862 74.9532C59.7353 74.7927 62.3487 74.2612 64.85 73.3742C64.5714 72.9772 64.3061 72.5693 64.0539 72.1504C61.5578 72.997 58.9507 73.4714 56.3164 73.5584C56.5533 74.0321 56.8099 74.4971 57.0862 74.9532Z" fill="white"/>
<path d="M66.9786 76.0161C64.3561 76.8132 61.6484 77.2968 58.9122 77.457C59.3169 77.9248 59.7451 78.3716 60.1952 78.7959C62.8873 78.5489 65.5426 77.9971 68.1102 77.1511C67.7188 76.7925 67.3437 76.4076 66.9786 76.0161Z" fill="white"/>
<path d="M54.7178 69.0121C54.8198 69.4957 54.9448 69.976 55.0862 70.453C57.6387 70.596 60.1939 70.2246 62.6 69.3608C62.4092 68.9299 62.2348 68.4923 62.0703 68.0449C59.7177 68.8928 57.2097 69.2228 54.7178 69.0121Z" fill="white"/>
<path d="M30.7982 58.2876C30.1863 60.0279 28.1665 61.4655 28.7126 63.2222C28.9264 63.9163 29.5087 64.4262 30.0877 64.867C35.8644 69.2391 43.6314 70.0187 50.8721 69.5088C55.0204 69.2161 59.4254 68.4101 62.3861 65.4822C62.8534 65.0625 63.2094 64.5335 63.4224 63.9426C63.9685 62.1201 62.1986 60.2154 62.6921 58.3764L30.7982 58.2876Z" fill="#E21E26"/>
<path d="M43.4734 69.4956C43.9089 65.7833 43.9872 62.0378 43.707 58.3105H42.3286C42.6155 61.9922 42.5439 65.693 42.1148 69.3607C42.5589 69.4101 43.0162 69.4561 43.4734 69.4956Z" fill="white"/>
<path d="M32.4399 65.4853C32.4545 64.4433 32.5303 63.403 32.6669 62.3699C32.8501 60.9885 33.1495 59.6251 33.5616 58.2939H32.1273C31.6345 59.9792 31.3105 61.7094 31.1602 63.4588C31.1009 64.1595 31.0746 64.8635 31.0713 65.5675C31.51 65.8636 31.9683 66.1421 32.4464 66.4031C32.4398 66.0939 32.4366 65.7912 32.4399 65.4853Z" fill="white"/>
<path d="M38.5226 58.3105H37.0915C36.1989 61.4547 35.8343 64.7253 36.0125 67.9889C36.4764 68.1501 36.9468 68.2981 37.4205 68.433C37.1646 65.0198 37.5382 61.5887 38.5226 58.3105Z" fill="white"/>
<path d="M49.1812 58.3369H47.7797C48.4782 62.0598 48.663 65.8608 48.3291 69.6338C48.793 69.6338 49.2568 69.6042 49.7174 69.5812C50.038 65.8259 49.8577 62.0446 49.1812 58.3369Z" fill="white"/>
<path d="M59.1358 58.3667H57.6456C58.8459 61.2657 59.4984 64.3621 59.57 67.499C60.0373 67.2603 60.4889 66.9922 60.9221 66.6963C60.7746 63.8423 60.1716 61.0302 59.1358 58.3667Z" fill="white"/>
<path d="M53.9908 58.3501H52.563C53.6166 61.8663 54.0213 65.545 53.7572 69.2062C54.2243 69.1371 54.6915 69.0581 55.1553 68.966C55.3701 65.387 54.9763 61.7975 53.9908 58.3501Z" fill="white"/>
<path d="M37.302 31.0025C32.7452 29.4974 28.8042 26.5462 26.0775 22.5973C25.6085 22.0057 25.3033 21.3011 25.1925 20.5544C25.1849 19.9037 25.3197 19.2592 25.5873 18.6661C26.1493 17.1747 26.8087 15.722 27.5611 14.3171C27.8408 13.7973 28.1368 13.1821 27.8901 12.6492C27.6434 12.1162 26.9558 11.932 26.3966 12.0801C25.8472 12.2699 25.3511 12.5879 24.9491 13.0078C22.995 14.7623 21.0903 16.5661 19.2349 18.4193C18.5046 19.1497 17.7611 19.9162 17.3861 20.88C16.6755 22.6861 17.386 24.7224 18.2841 26.4495C20.3254 30.4156 23.2248 33.877 26.7716 36.5819L37.302 31.0025Z" fill="#C9A047"/>
<path d="M21.3469 16.3535C22.7784 17.0793 24.2854 17.6452 25.8407 18.0411C25.7552 18.255 25.6663 18.4655 25.5874 18.6793C23.939 18.2464 22.3411 17.6399 20.8206 16.87L21.3469 16.3535Z" fill="#B08C3E"/>
<path d="M25.8702 22.2812C25.936 22.3865 26.0084 22.4951 26.0775 22.6102L26.2617 22.8668C23.4326 24.0643 20.3402 24.1827 17.2841 23.9031C17.2275 23.6732 17.1836 23.4404 17.1525 23.2057C20.1231 23.4984 23.1233 23.4129 25.8702 22.2812Z" fill="#B08C3E"/>
<path d="M23.2384 28.8709C25.2953 28.2373 27.2289 27.2571 28.9559 25.9727C29.1204 26.1306 29.2849 26.2852 29.4592 26.4365C27.5595 27.8801 25.4091 28.9597 23.1166 29.621C22.2868 29.8627 21.4445 30.0593 20.5934 30.2098C20.4454 30.0059 20.3039 29.7986 20.1625 29.5913C21.2047 29.4303 22.233 29.1895 23.2384 28.8709Z" fill="#B08C3E"/>
<path d="M53.4611 29.9331C57.78 27.8389 61.2972 24.3921 63.4783 20.1166C63.866 19.4684 64.077 18.73 64.0902 17.9749C64.0087 17.3297 63.7899 16.7094 63.4487 16.1557C62.6928 14.7515 61.8466 13.3977 60.9156 12.1028C60.5867 11.6258 60.1985 11.0567 60.3695 10.4941C60.5406 9.93158 61.2018 9.66182 61.7775 9.7342C62.3472 9.85506 62.8804 10.1087 63.3336 10.4744C65.5004 11.9504 67.6267 13.4856 69.7123 15.08C70.5348 15.7083 71.3572 16.3696 71.8704 17.2742C72.8113 18.9717 72.3638 21.0837 71.7125 22.9128C70.2128 27.1134 67.7968 30.9275 64.6396 34.0781L53.4611 29.9331Z" fill="#C9A047"/>
<path d="M67.347 13.3042C66.0228 14.2086 64.6029 14.9643 63.1132 15.5577C63.225 15.7583 63.3402 15.9557 63.4421 16.1564C65.0174 15.5086 66.5203 14.697 67.926 13.7352L67.347 13.3042Z" fill="#B08C3E"/>
<path d="M63.6461 19.7781C63.5902 19.8932 63.5375 20.0051 63.4783 20.1071C63.4191 20.209 63.3796 20.2946 63.3303 20.3867C66.291 21.1992 69.3669 20.9196 72.3671 20.2288C72.3933 19.9939 72.4065 19.7578 72.4066 19.5215C69.5018 20.2255 66.5147 20.538 63.6461 19.7781Z" fill="#B08C3E"/>
<path d="M67.1167 25.9628C64.9967 25.6045 62.9532 24.8881 61.0735 23.8442C60.9288 24.0219 60.7807 24.1962 60.6327 24.3706C62.7083 25.5492 64.9833 26.3354 67.3437 26.6898C68.1981 26.8206 69.0592 26.903 69.9229 26.9366C70.038 26.7162 70.1531 26.4957 70.2518 26.2786C69.2004 26.2518 68.1524 26.1462 67.1167 25.9628Z" fill="#B08C3E"/>
<path d="M71.1368 59.5737C71.7355 59.2579 72.3167 58.9235 72.8804 58.5704C73.0019 58.5022 73.1419 58.4744 73.2803 58.491C73.4186 58.5075 73.5481 58.5676 73.6501 58.6625C74.5164 59.5836 75.3805 60.5069 76.2424 61.4324C76.3789 61.5453 76.4738 61.7004 76.5122 61.8732C76.5022 62.013 76.4494 62.1462 76.3609 62.2548C75.8042 63.0847 75.1978 63.8801 74.545 64.6366C73.258 63.0556 72.1173 61.361 71.1368 59.5737Z" fill="black"/>
<path d="M20.61 60.2612C19.9893 59.9893 19.3851 59.6987 18.7973 59.3894C18.6723 59.327 18.5302 59.3074 18.393 59.3335C18.2557 59.3597 18.1308 59.4302 18.0374 59.5342L15.6524 62.4949C15.5261 62.6187 15.444 62.7805 15.4188 62.9555C15.4383 63.0944 15.5017 63.2235 15.5997 63.3239C16.2111 64.1115 16.8703 64.8608 17.5736 65.5675C18.7434 63.8938 19.7597 62.1178 20.61 60.2612Z" fill="black"/>
<path opacity="0.71" d="M70.5512 22.9759C71.2092 21.1468 71.65 19.0283 70.7091 17.3373C70.2091 16.4327 69.3735 15.7681 68.5511 15.1398C66.4676 13.5432 64.3413 12.008 62.1723 10.5342C61.7981 10.2516 61.3818 10.0296 60.9387 9.87626C61.1991 9.75027 61.4904 9.70229 61.7775 9.73809C62.3469 9.85799 62.88 10.1104 63.3336 10.475C65.5004 11.951 67.6267 13.4862 69.7123 15.0806C70.5348 15.7089 71.3572 16.3702 71.8704 17.2748C72.8113 18.9723 72.3638 21.0843 71.7125 22.9134C70.2128 27.114 67.7968 30.9281 64.6396 34.0787L63.8336 33.7826C66.8193 30.7018 69.1099 27.0168 70.5512 22.9759Z" fill="#B89241"/>
<path d="M64.9685 27.4923C66.5048 26.9001 68.2155 27.0449 69.8505 27.2357C71.3218 27.4152 72.7612 27.7983 74.1271 28.3739C75.443 28.9299 76.6503 29.7128 77.9794 30.2359C80.7727 31.2982 83.7417 31.8228 86.73 31.7821C88.1479 31.7821 89.5789 31.6768 90.9672 31.9663C91.2914 32.013 91.5989 32.1396 91.862 32.3348C92.043 32.5079 92.1783 32.7232 92.2558 32.9615C92.3333 33.1997 92.3506 33.4534 92.3061 33.7C92.2109 34.1929 92.0197 34.6624 91.7435 35.0817C88.7137 40.2334 82.7922 43.6349 76.8247 43.352C73.4557 43.1508 70.2208 41.9608 67.5246 39.9307C64.835 37.9008 62.6658 35.2613 61.1952 32.2295L64.9685 27.4923Z" fill="#845943"/>
<path d="M63.6921 30.2723C63.7908 30.575 67.097 37.0031 69.1662 41.0166C69.8792 41.4342 70.62 41.8024 71.3835 42.1186C72.4658 39.296 75.4364 34.4075 83.3087 32.789C83.3087 32.789 63.5507 29.8315 63.6921 30.2723Z" fill="#694635"/>
<path d="M92.3027 33.7C92.3027 33.7592 92.283 33.8184 92.2698 33.8743C92.2566 33.9303 92.2698 33.9467 92.2435 33.9829C92.2172 34.0191 92.2435 34.0224 92.227 34.0421C92.2106 34.0619 92.1974 34.1375 92.181 34.1836C92.1645 34.2296 92.181 34.1836 92.181 34.2033L92.1218 34.3579C89.7137 33.3019 86.8582 33.2921 84.187 33.394C82.1315 33.4239 80.0827 33.6364 78.0648 34.029C77.0779 34.2428 76.091 34.5356 75.1041 34.7297C72.8049 35.1548 70.4388 35.047 68.1878 34.4145C65.9368 33.782 63.8608 32.6418 62.1195 31.0814L64.9651 27.4923C66.5014 26.9001 68.2121 27.0449 69.8471 27.2357C71.3185 27.4152 72.7578 27.7983 74.1237 28.3739C75.4396 28.9299 76.6469 29.7128 77.976 30.2359C78.8336 30.5748 79.7128 30.8561 80.6078 31.0781C81.2811 31.2642 81.9672 31.4005 82.6605 31.486H82.7494L82.95 31.5156L83.279 31.5617L83.4797 31.5847L83.8086 31.6242L84.006 31.6439L84.335 31.6735H84.5324L84.8778 31.6965H85.0719L85.4239 31.713H85.6114H85.9864H86.6839C87.5589 31.713 88.9867 31.4959 90.921 31.8972C91.197 31.9413 91.4617 32.0385 91.7007 32.1834C91.7411 32.2078 91.7796 32.2353 91.8158 32.2657C91.8637 32.3053 91.9078 32.3493 91.9474 32.3973C91.9679 32.4199 91.9865 32.4441 92.0033 32.4696C92.1337 32.6439 92.2274 32.8427 92.2789 33.0542C92.3303 33.2656 92.3384 33.4853 92.3027 33.7Z" fill="#B89679"/>
<path opacity="0.71" d="M19.4454 26.361C18.5604 24.6372 17.8367 22.6008 18.544 20.7948C18.9223 19.8309 19.6625 19.0644 20.3928 18.3308C22.2482 16.4754 24.153 14.6726 26.1071 12.9225C26.4427 12.5976 26.8266 12.3268 27.2453 12.1198C26.9706 12.0305 26.6762 12.0214 26.3965 12.0935C25.8469 12.2848 25.35 12.6025 24.9458 13.0212C22.9961 14.7757 21.0924 16.5795 19.2348 18.4327C18.5045 19.1631 17.761 19.9296 17.386 20.8935C16.6754 22.6995 17.386 24.7359 18.2841 26.463C20.3253 30.429 23.2248 33.8904 26.7716 36.5953L27.5282 36.1939C24.1616 33.5321 21.4054 30.179 19.4454 26.361Z" fill="#B89241"/>
<path d="M26.3506 29.7791C24.7485 29.3942 23.0609 29.7626 21.4752 30.1673C20.0415 30.5389 18.6664 31.108 17.3894 31.8582C16.159 32.5786 15.0668 33.503 13.8167 34.2103C11.1887 35.6317 8.31571 36.5436 5.34901 36.898C3.94101 37.0823 2.50669 37.1711 1.17106 37.6415C0.855949 37.7296 0.567682 37.8947 0.332188 38.1218C0.175964 38.3181 0.0705318 38.5498 0.0252018 38.7966C-0.0201283 39.0433 -0.00394821 39.2974 0.0723076 39.5364C0.231861 40.0117 0.483364 40.451 0.812494 40.8292C4.49698 45.5368 10.8132 48.1357 16.6952 47.06C20.0053 46.4184 23.0533 44.8166 25.4591 42.4544C27.8504 40.0861 29.6454 37.1839 30.6963 33.9866L26.3506 29.7791Z" fill="#845943"/>
<path d="M27.2058 32.69C27.1499 33.019 24.7221 39.8123 23.2022 44.0626C22.5482 44.5691 21.8613 45.0318 21.1461 45.4475C19.7019 42.7927 16.1129 38.3417 8.09583 37.7759C8.09583 37.7792 27.288 32.236 27.2058 32.69Z" fill="#694635"/>
<path d="M0.0722542 39.5397C0.0722542 39.5956 0.108437 39.6515 0.128174 39.7074L0.16765 39.8094C0.176741 39.8286 0.184439 39.8484 0.19068 39.8686L0.256479 40.0035V40.02L0.335428 40.168C2.58231 38.7995 5.40489 38.4146 8.07285 38.1613C10.1142 37.9214 12.1728 37.862 14.2246 37.9836C15.2346 38.0659 16.2346 38.2271 17.2446 38.2896C19.5796 38.4068 21.9103 37.9874 24.058 37.0636C26.2056 36.1398 28.113 34.736 29.6337 32.9602L26.3439 29.7791C24.7419 29.3942 23.0542 29.7626 21.4686 30.1673C20.0372 30.5395 18.6643 31.1085 17.3893 31.8582C16.159 32.5786 15.0668 33.503 13.8167 34.2103C13.0073 34.6606 12.1688 35.0562 11.3066 35.3946C10.6655 35.6667 10.0059 35.8931 9.3328 36.0723L9.24729 36.0953L9.05318 36.1513L8.72421 36.2401L8.52684 36.2894L8.19786 36.3717L8.00376 36.4177L7.67479 36.4934L7.48069 36.5362L7.15172 36.6052L6.95763 36.6414L6.61222 36.7072L6.428 36.7401L6.05626 36.7993L5.89833 36.8257L5.37199 36.898C4.5035 37.0132 3.04615 36.9901 1.19404 37.6415C0.926662 37.723 0.676781 37.8535 0.457146 38.0264C0.420959 38.056 0.388063 38.0889 0.355165 38.1218C0.314257 38.1683 0.276861 38.2178 0.243307 38.2698C0.243307 38.2962 0.210424 38.3225 0.197266 38.3488C0.00390434 38.7149 -0.0408707 39.1414 0.0722542 39.5397Z" fill="#B89679"/>
<path d="M73.0842 39.7926C73.5941 43.0306 73.4147 46.3399 72.5578 49.5038C69.5642 60.3599 59.4713 65.9031 48.7699 66.6498C43.2827 67.0577 37.7751 66.2024 32.67 64.1497C17.8662 58.0703 14.9055 38.6083 25.9919 27.1469C34.1537 18.7153 48.2073 16.6856 58.8693 21.0478C66.587 24.2059 71.844 31.6966 73.0842 39.7926Z" fill="#C8A484"/>
<path d="M73.0843 39.7926C72.0677 33.1506 68.3438 26.9166 62.7809 23.1499C67.443 27.0593 70.5173 32.5364 71.4262 38.5524C71.9379 41.7903 71.7585 45.0999 70.8999 48.2636C67.9062 59.1197 57.8134 64.6629 47.1152 65.4129C41.6282 65.8181 36.1211 64.9629 31.0153 62.9127C29.6386 62.347 28.3235 61.6415 27.0907 60.8073C28.7747 62.1968 30.6605 63.3216 32.6832 64.1431C37.7883 66.1958 43.2959 67.0511 48.7831 66.6433C59.4846 65.8965 69.5774 60.35 72.5711 49.4973C73.4226 46.3344 73.5975 43.0276 73.0843 39.7926Z" fill="#AB8D71"/>
<path d="M29.0185 27.1402C29.1136 26.8779 29.2623 26.6384 29.4553 26.4369C29.6483 26.2355 29.8813 26.0765 30.1392 25.9703C30.3972 25.8641 30.6746 25.8129 30.9534 25.8201C31.2323 25.8272 31.5067 25.8925 31.7588 26.0118C32.0615 26.1599 32.2589 25.6829 31.9562 25.5283C31.6405 25.3828 31.2981 25.3042 30.9506 25.2974C30.6031 25.2905 30.2579 25.3555 29.9366 25.4883C29.6154 25.6211 29.3251 25.8189 29.0839 26.0692C28.8427 26.3195 28.6558 26.6169 28.5349 26.9428C28.4231 27.2718 28.9067 27.4593 29.0185 27.1402Z" fill="black"/>
<path d="M57.4943 27.3149C57.6761 27.0981 57.9096 26.9307 58.1733 26.8282C58.437 26.7257 58.7223 26.6913 59.0027 26.7284C59.2832 26.7655 59.5498 26.8727 59.7778 27.0402C60.0058 27.2078 60.1878 27.4301 60.307 27.6867C60.455 27.986 60.965 27.8117 60.8005 27.509C60.6489 27.1675 60.4132 26.87 60.1153 26.6444C59.8174 26.4188 59.4672 26.2726 59.0973 26.2193C58.7275 26.1661 58.3502 26.2076 58.0008 26.3399C57.6514 26.4723 57.3413 26.6912 57.0995 26.9761C56.8758 27.2261 57.2706 27.5682 57.4943 27.305V27.3149Z" fill="black"/>
<path d="M59.2774 41.4805C59.3037 40.1218 58.547 38.5494 57.0798 38.2829C55.787 38.0493 54.425 39.1415 54.5303 40.4771C54.5299 40.6238 54.4741 40.765 54.3741 40.8723C54.2741 40.9796 54.1372 41.0453 53.9909 41.0561C53.8446 41.0669 53.6996 41.0221 53.5849 40.9306C53.4702 40.8391 53.3943 40.7077 53.3723 40.5627C53.2243 38.6283 55.0172 36.9769 56.9186 37.1019C59.057 37.2466 60.4715 39.3784 60.4321 41.3785C60.4321 42.1187 59.2609 42.2141 59.2774 41.4673V41.4805Z" fill="black"/>
<path d="M31.0843 42.7962C30.785 41.4803 31.2094 39.7795 32.5943 39.2236C33.8115 38.7367 35.3676 39.5328 35.5321 40.8684C35.5416 40.944 35.5659 41.017 35.6036 41.0832C35.6413 41.1494 35.6917 41.2076 35.7519 41.2543C35.812 41.301 35.8808 41.3355 35.9543 41.3556C36.0278 41.3758 36.1045 41.3813 36.1801 41.3718C36.2557 41.3623 36.3287 41.3379 36.3949 41.3002C36.4612 41.2625 36.5193 41.2121 36.566 41.152C36.6128 41.0918 36.6472 41.023 36.6673 40.9495C36.6875 40.876 36.693 40.7993 36.6835 40.7237C36.4433 38.7959 34.3807 37.5359 32.5154 38.0458C30.4494 38.615 29.4888 41.0066 29.9329 42.9541C30.0974 43.6746 31.2488 43.5364 31.0843 42.8061V42.7962Z" fill="black"/>
<path d="M58.6062 58.5441C58.1454 58.8491 57.6576 59.1112 57.1489 59.3271C54.4381 60.4785 51.4511 60.564 48.5495 60.587C45.648 60.6101 42.8287 60.8371 39.9634 60.768C37.6606 60.7153 35.2689 60.5114 33.203 59.4718C31.7687 58.7256 30.5569 57.6136 29.6904 56.2486C28.8239 54.8835 28.3333 53.3138 28.2684 51.6982C27.9822 41.5001 41.3813 40.5132 48.7009 40.7764C53.346 40.9507 58.1555 41.9047 60.784 46.1583C63.4125 50.4119 62.623 55.8729 58.6062 58.5441Z" fill="#845943"/>
<path d="M60.7708 46.158C60.0531 44.9844 59.0957 43.9755 57.9614 43.1973C58.614 43.8014 59.1807 44.4921 59.6457 45.25C62.2545 49.474 61.4978 54.9514 57.4811 57.6358C57.0222 57.944 56.534 58.2062 56.0238 58.4188C53.313 59.5702 50.326 59.6557 47.4277 59.682C44.5295 59.7084 41.7036 59.9288 38.8382 59.8597C36.5354 59.8071 34.1438 59.6031 32.0779 58.5635C31.7629 58.4047 31.4585 58.2256 31.1666 58.0273C31.7734 58.5993 32.4592 59.0813 33.203 59.4583C35.2689 60.4979 37.6474 60.7019 39.9633 60.7545C42.8287 60.8236 45.6809 60.5966 48.5495 60.5736C51.4181 60.5505 54.4381 60.465 57.1488 59.3136C57.6575 59.0977 58.1454 58.8356 58.6062 58.5306C62.6229 55.8725 63.3763 50.3787 60.7708 46.158Z" fill="#734D3A"/>
<path d="M30.9767 51.171C30.4588 49.3955 30.9382 47.6938 32.0475 47.3702C33.1568 47.0467 34.4759 48.2238 34.9938 49.9994C35.5117 51.775 35.0323 53.4766 33.923 53.8002C32.8136 54.1237 31.4946 52.9466 30.9767 51.171Z" fill="#593B22"/>
<path d="M57.5404 49.9778C57.093 51.774 55.8199 53.0043 54.6981 52.7247C53.5763 52.4451 53.0302 50.7509 53.4776 48.9679C53.925 47.1848 55.1948 45.9413 56.3166 46.2209C57.4384 46.5006 57.9878 48.1849 57.5404 49.9778Z" fill="#593B22"/>
<path d="M34.7886 44.8029C35.5164 44.1884 36.4417 43.8578 37.3941 43.8719C38.1968 43.8719 38.3086 42.635 37.5026 42.6218C36.2141 42.5892 34.9576 43.0252 33.9662 43.8489C33.3444 44.3654 34.1636 45.3194 34.7886 44.8029Z" fill="white"/>
<path d="M42.6939 61.7351C43.2894 64.9163 47.7667 64.9525 48.4378 61.8009C48.5299 61.3765 47.8785 61.1989 47.7798 61.6233C47.686 62.1498 47.4079 62.6257 46.9954 62.9661C46.5829 63.3064 46.0628 63.4889 45.528 63.481C44.9933 63.4731 44.4788 63.2753 44.0765 62.9229C43.6742 62.5705 43.4104 62.0865 43.3321 61.5575C43.2532 61.1331 42.6051 61.3107 42.6742 61.7351H42.6939Z" fill="black"/>
<path d="M36.779 14.7284C36.7751 14.6689 36.7874 14.6095 36.8147 14.5565C36.842 14.5034 36.8832 14.4588 36.9339 14.4274C36.9846 14.396 37.0428 14.3789 37.1025 14.378C37.1621 14.3772 37.2209 14.3925 37.2724 14.4225C38.7336 15.3289 40.306 16.0421 41.9504 16.5444C41.5118 15.8243 41.2315 15.0191 41.128 14.1823C41.0852 13.8534 41.5918 13.7152 41.7497 13.9915C42.4021 15.1643 43.2904 16.1892 44.3585 17.0016C44.1743 16.0672 44.1201 15.1118 44.1973 14.1626C44.1829 14.0753 44.2037 13.986 44.2552 13.9141C44.3068 13.8422 44.3847 13.7937 44.472 13.7794C44.5592 13.765 44.6486 13.7858 44.7205 13.8373C44.7923 13.8888 44.8408 13.9668 44.8552 14.054C45.2773 15.3955 46.0225 16.6127 47.0251 17.5988C48.0278 18.5848 49.2573 19.3095 50.6056 19.7091C51.0169 19.8341 50.8655 20.492 50.451 20.367C50.2109 20.2946 49.9773 20.2091 49.7437 20.1203L42.0491 20.9065C42.0471 20.9644 42.0313 21.021 42.003 21.0716C41.9748 21.1222 41.9349 21.1654 41.8867 21.1975C41.8385 21.2297 41.7833 21.2499 41.7258 21.2565C41.6682 21.2631 41.6099 21.2559 41.5556 21.2355C40.2293 20.7081 39.078 19.8182 38.2333 18.6676C37.3887 17.5169 36.8847 16.1519 36.779 14.7284Z" fill="#C8A484"/>
<path opacity="0.64" d="M22.8729 52.6538C21.2002 52.1927 20.2179 50.463 20.679 48.7902C21.14 47.1175 22.8698 46.1353 24.5425 46.5963C26.2153 47.0574 27.1975 48.7872 26.7365 50.4599C26.2754 52.1326 24.5456 53.1149 22.8729 52.6538Z" fill="url(#paint0_radial)"/>
<path opacity="0.64" d="M64.4614 51.0066C62.907 50.2356 62.2718 48.3505 63.0428 46.7961C63.8137 45.2417 65.6988 44.6066 67.2532 45.3775C68.8076 46.1485 69.4428 48.0335 68.6718 49.588C67.9009 51.1424 66.0158 51.7775 64.4614 51.0066Z" fill="url(#paint1_radial)"/>
<path d="M28.1993 21.4394C28.554 17.7841 29.4074 14.1946 30.7356 10.7708C33.8247 2.80641 43.309 -1.83209 51.6188 0.687833C55.7178 1.93135 59.0568 5.32963 61.6656 8.58316C62.4939 9.64487 63.3929 10.6494 64.3566 11.59C66.1561 13.2842 68.5181 14.6066 70.9821 14.3994C73.0842 14.2217 74.9725 12.9387 76.3279 11.3202C76.7259 10.8399 77.1108 10.3103 77.6767 10.0438C78.2425 9.77733 79.0551 9.90562 79.2919 10.4813C80.0288 12.2512 76.6141 14.679 75.4495 15.4751C71.1729 18.4063 66.0245 18.4359 61.159 17.0706C60.2504 16.8712 59.361 16.5927 58.5009 16.2383C59.0634 16.6298 59.8464 17.4358 59.922 18.153C60.1655 20.4031 55.6125 19.9656 54.29 20.038L43.9669 20.5972L28.2059 21.4492L28.1993 21.4394Z" fill="#E21E26"/>
<path d="M38.1935 4.19799C36.5649 4.98385 35.2217 6.25798 34.3512 7.843C34.1242 8.2575 33.4695 7.92853 33.6932 7.51402C34.6165 5.81356 36.0454 4.44209 37.7823 3.58939C38.2001 3.38543 38.6113 3.99731 38.1903 4.20127L38.1935 4.19799Z" fill="#F2F2F2"/>
<path d="M61.0999 17.1263C60.2486 14.0401 58.529 11.2632 56.1456 9.12569C56.0822 9.05878 56.0462 8.97056 56.0447 8.87843C56.0432 8.7863 56.0762 8.69694 56.1374 8.62798C56.1985 8.55901 56.2832 8.51546 56.3749 8.5059C56.4665 8.49633 56.5584 8.52146 56.6325 8.57631C59.1132 10.8001 60.9063 13.6868 61.8006 16.896C61.9256 17.35 61.2282 17.5836 61.0999 17.1263Z" fill="#C2171E"/>
<path d="M57.3725 14.9488C59.3957 15.1133 60.8004 14.9291 61.9781 16.5937C62.8375 17.9135 63.3458 19.4308 63.4552 21.0019C63.5046 21.5546 63.4322 22.2257 62.8927 22.5251C62.4091 22.7948 61.8136 22.627 61.3037 22.4593C51.1286 19.1465 39.1376 20.0051 29.1434 24.7621C28.6644 25.0432 28.1228 25.2003 27.5677 25.2193C27.2348 25.1856 26.9195 25.0534 26.6622 24.8394C26.405 24.6255 26.2174 24.3397 26.1235 24.0186C25.9728 23.387 25.9818 22.7279 26.1498 22.1007C26.3702 20.969 26.7419 19.7617 27.7354 19.005C28.3248 18.606 28.9778 18.3101 29.6665 18.13C38.6109 15.296 48.0185 14.2158 57.3725 14.9488Z" fill="white"/>
<path d="M31.7325 17.5047C31.0417 17.6988 30.3508 17.906 29.6666 18.1231C28.9779 18.3032 28.3249 18.5991 27.7355 18.9982C26.7486 19.7548 26.3703 20.972 26.1498 22.0938C25.9819 22.721 25.9729 23.3802 26.1235 24.0117C26.2174 24.3329 26.405 24.6187 26.6623 24.8326C26.9196 25.0465 27.2348 25.1788 27.5677 25.2125C27.7901 25.2209 28.0123 25.1931 28.2257 25.1302C28.5403 25.0306 28.8462 24.9052 29.1402 24.7552C31.3382 23.7093 33.6206 22.8509 35.9631 22.1892C44.3058 19.8173 53.3558 19.8634 61.2939 22.4491C61.7221 22.6316 62.1936 22.6876 62.6526 22.6103C62.7328 22.5876 62.8101 22.5556 62.8829 22.5149C63.4224 22.2156 63.4948 21.528 63.4454 20.9918C63.3284 19.4248 62.8144 17.9134 61.9519 16.6C60.7906 14.9288 59.3859 15.113 57.3463 14.9551C48.7155 14.2738 40.0325 15.1394 31.7062 17.5113L31.7325 17.5047ZM31.5878 17.1033C35.7839 15.9123 40.0773 15.0954 44.4177 14.6624C48.7265 14.2292 53.0657 14.1851 57.3824 14.5308C57.6654 14.5538 57.9384 14.5702 58.2049 14.5867C59.7971 14.6821 61.1656 14.7643 62.2841 16.3631C63.1902 17.74 63.7303 19.3251 63.8533 20.9687C63.9356 21.8899 63.6592 22.5741 63.0737 22.9031C62.9693 22.9591 62.8589 23.0032 62.7447 23.0347C62.204 23.1399 61.6442 23.0827 61.136 22.8702C57.1302 21.5834 52.951 20.9177 48.7437 20.8964C44.4509 20.86 40.1749 21.4372 36.0453 22.6103C33.7276 23.2683 31.4686 24.1178 29.2915 25.15C28.9743 25.3102 28.6442 25.4433 28.3046 25.548C28.0435 25.6264 27.7708 25.6587 27.4986 25.6434C27.0794 25.6054 26.6813 25.4424 26.3558 25.1756C26.0302 24.9087 25.7923 24.5502 25.6729 24.1466C25.5018 23.4479 25.5075 22.7175 25.6893 22.0215C26.1005 19.916 26.8374 19.1232 27.4361 18.6692C28.0637 18.2401 28.7603 17.9219 29.4955 17.7284C30.1798 17.5112 30.8805 17.3007 31.5713 17.1066L31.5878 17.1033Z" fill="#E8E8E8"/>
<path d="M80.1045 11.679C81.3941 11.4355 82.5751 10.4947 82.8547 9.18206C83.4041 6.5799 80.3841 4.28696 77.976 5.05017C73.8244 6.36935 76.3575 12.3928 80.1045 11.679Z" fill="white"/>
<path d="M77.9333 5.06316C73.8409 6.41195 76.3707 12.3894 80.1046 11.6788C80.2636 11.649 80.4208 11.6094 80.575 11.5604C81.1285 11.3955 81.6297 11.0895 82.0294 10.6726C82.429 10.2556 82.7134 9.74192 82.8548 9.18189C83.4041 6.57973 80.3842 4.28679 77.9761 5.05H77.9333V5.06316ZM77.8018 4.64866L77.8478 4.63221C79.19 4.20784 80.8086 4.61576 81.983 5.67505C82.494 6.1059 82.8822 6.66416 83.108 7.29327C83.3339 7.92239 83.3895 8.60002 83.2693 9.25755C83.113 9.89022 82.7944 10.4712 82.345 10.9431C81.8956 11.415 81.3309 11.7616 80.7066 11.9485C80.5354 12.0051 80.3607 12.0501 80.1835 12.0834C77.9169 12.5144 76.045 10.7675 75.545 8.82989C75.045 6.89225 75.9332 5.26383 77.8018 4.64866Z" fill="#E8E8E8"/>
<path d="M59.0042 15.0605C60.1984 15.1658 61.1393 15.4191 61.965 16.6001C62.8279 17.9168 63.3408 19.4317 63.4552 21.0018C63.5046 21.5545 63.4322 22.2256 62.8927 22.5249C62.4091 22.7947 61.8136 22.6269 61.3037 22.4591C60.8728 22.321 60.4385 22.1861 59.9879 22.0611C60.3313 20.8914 60.4211 19.6619 60.2515 18.4547C60.0819 17.2474 59.6567 16.0903 59.0042 15.0605Z" fill="#F2F2F2"/>
<defs>
<radialGradient id="paint0_radial" cx="0" cy="0" r="1" gradientUnits="userSpaceOnUse" gradientTransform="translate(23.7021 49.6084) rotate(169.23) scale(3.14169)">
<stop stop-color="#DB786B"/>
<stop offset="0.62" stop-color="#D9776A"/>
<stop offset="0.93" stop-color="#D17367"/>
<stop offset="1" stop-color="#CE7266"/>
</radialGradient>
<radialGradient id="paint1_radial" cx="0" cy="0" r="1" gradientUnits="userSpaceOnUse" gradientTransform="translate(-2939.45 3267.35) rotate(169.23) scale(60.0061)">
<stop stop-color="#DB786B"/>
<stop offset="0.62" stop-color="#D9776A"/>
<stop offset="0.93" stop-color="#D17367"/>
<stop offset="1" stop-color="#CE7266"/>
</radialGradient>
</defs>
</svg>
