<svg width="76" height="129" viewBox="0 0 76 129" fill="none" xmlns="http://www.w3.org/2000/svg">
<path d="M7.33835 96.4415C7.33621 97.9841 8.785 99.1877 10.2786 99.5683C11.7114 99.9339 13.2987 99.7367 14.5492 98.9489C15.8008 98.1611 16.6771 96.7699 16.7539 95.2933C16.7795 94.8136 16.7176 94.3136 16.4714 93.9011C16.013 93.1346 15.0418 92.851 14.1527 92.7657C11.7124 92.5322 7.34261 93.2476 7.33728 96.4404L7.33835 96.4415Z" fill="#252422"/>
<path d="M10.7051 71.7949C7.2201 73.0827 3.99524 75.0678 1.27356 77.5965C0.829007 78.009 0.386588 78.4547 0.16911 79.0207C-0.0238492 79.5239 -0.0217171 80.0804 0.0294543 80.6167C0.406843 84.5942 3.18715 87.8713 5.86193 90.8392C6.30967 91.336 6.76915 91.8402 7.35122 92.1686C8.93541 93.0609 10.9076 92.4244 12.6048 91.7752C10.2787 88.4661 8.23287 84.9588 6.4973 81.3053C8.79255 80.8 11.0878 80.2947 13.382 79.7894L10.704 71.7949H10.7051Z" fill="#E21E26"/>
<path d="M13.5632 89.0608C12.1325 89.5171 10.7008 89.9744 9.27011 90.4307C8.26161 90.7527 6.90983 90.8475 6.17318 91.6524C6.00474 91.8368 5.85442 92.0533 5.81924 92.3016C5.78406 92.5554 5.87361 92.8091 5.96103 93.05C6.20623 93.7195 6.54204 94.4764 7.22965 94.6641C8.25202 94.9423 9.53876 93.8922 10.4151 93.4647C11.8074 92.7867 13.2711 92.2707 14.6506 91.5543C14.771 91.4914 14.8979 91.4221 14.9704 91.307C15.0461 91.1855 15.0493 91.0352 15.044 90.8923C15.029 90.516 14.9651 90.1429 14.8563 89.7825C14.7518 89.4393 14.561 89.0693 14.2145 88.9808C14.0003 88.9265 13.7753 88.9936 13.5642 89.0608H13.5632Z" fill="#FEFEFE"/>
<path d="M15.5952 91.6027C15.7328 91.3415 15.7402 91.0718 15.7328 90.865C15.7146 90.43 15.6421 89.9982 15.5153 89.5825C15.2477 88.703 14.752 88.4066 14.3831 88.3128C13.9705 88.2072 13.5995 88.3256 13.3533 88.4045L11.2073 89.0899L9.06022 89.7744C8.81715 89.8522 8.54424 89.9172 8.25427 89.9854C7.3609 90.1987 6.34813 90.4396 5.66372 91.188C5.51127 91.3543 5.39507 91.5152 5.30872 91.6794C5.21917 91.8511 5.16053 92.028 5.13495 92.2061C5.07418 92.6368 5.2117 93.0131 5.31298 93.2871C5.5198 93.8531 5.95156 95.0301 7.04854 95.3296C8.10289 95.6175 9.18815 94.9736 10.0602 94.4555C10.3011 94.3126 10.5282 94.1772 10.718 94.0855C11.3267 93.7892 11.9685 93.5163 12.5889 93.2529C13.3735 92.9203 14.1848 92.5749 14.9684 92.1677C15.1219 92.0877 15.3799 91.9534 15.5547 91.673L15.5942 91.6037L15.5952 91.6027ZM14.9854 91.2818L14.9705 91.3074C14.8991 91.4236 14.7722 91.4918 14.6507 91.5547C13.2712 92.2711 11.8085 92.786 10.4152 93.4651C9.53888 93.8926 8.25214 94.9427 7.22977 94.6644C6.54216 94.4768 6.20528 93.7199 5.96115 93.0504C5.87267 92.8095 5.78312 92.5568 5.81936 92.302C5.83429 92.1965 5.87054 92.0952 5.91957 92.0014C5.98674 91.8756 6.07629 91.7594 6.1733 91.6538C6.90995 90.8479 8.26173 90.753 9.27023 90.4321C10.7009 89.9758 12.1326 89.5185 13.5633 89.0622C13.7744 88.9951 13.9983 88.9268 14.2136 88.9823C14.5611 89.0708 14.752 89.4417 14.8554 89.784C14.9652 90.1443 15.0281 90.5174 15.043 90.8937C15.0483 91.0259 15.0451 91.1666 14.9844 91.2828L14.9854 91.2818Z" fill="#EEEDEC"/>
<path d="M68.663 95.4059C68.6662 96.9474 67.2174 98.1521 65.7228 98.5326C64.289 98.8983 62.7026 98.7011 61.4521 97.9133C60.1995 97.1254 59.3232 95.7342 59.2454 94.2577C59.2219 93.778 59.2827 93.278 59.53 92.8654C59.9874 92.0989 60.9586 91.8153 61.8487 91.73C64.2858 91.4966 68.6566 92.2119 68.662 95.4048L68.663 95.4059Z" fill="#252422"/>
<path d="M65.2942 70.7588C68.7803 72.0466 72.0041 74.0316 74.7258 76.5603C75.1714 76.9729 75.6138 77.4185 75.8291 77.9846C76.0242 78.4878 76.0221 79.0443 75.9699 79.5816C75.5935 83.5591 72.8111 86.8362 70.1385 89.8041C69.6907 90.3009 69.2302 90.8052 68.647 91.1335C67.0639 92.0248 65.0917 91.3894 63.3934 90.7401C65.7207 87.4311 67.7643 83.9237 69.4999 80.2703C67.2036 79.765 64.9105 79.2596 62.6141 78.7543L65.2921 70.7599L65.2942 70.7588Z" fill="#E21E26"/>
<path d="M62.4382 88.0261C63.8689 88.4824 65.3006 88.9397 66.7313 89.396C67.7398 89.7179 69.0937 89.8128 69.8293 90.6177C69.9956 90.8021 70.1481 91.0185 70.1832 91.2669C70.2173 91.5207 70.1289 91.7744 70.0425 92.0153C69.7952 92.6848 69.4594 93.4417 68.7728 93.6294C67.7494 93.9087 66.4626 92.8575 65.5863 92.43C64.1951 91.752 62.7325 91.236 61.353 90.5196C61.2325 90.4567 61.1056 90.3874 61.031 90.2723C60.9564 90.1508 60.9532 90.0005 60.9596 89.8576C60.9734 89.4813 61.0374 89.1071 61.1462 88.7478C61.2528 88.4045 61.4425 88.0346 61.7901 87.9461C62.0054 87.8907 62.2293 87.9589 62.4393 88.0261H62.4382Z" fill="#FEFEFE"/>
<path d="M60.4063 90.5675L60.4468 90.6368C60.6216 90.9172 60.8775 91.0515 61.0331 91.1315C61.8178 91.5387 62.628 91.883 63.4126 92.2167C64.0331 92.48 64.6738 92.753 65.2836 93.0493C65.4733 93.141 65.7004 93.2764 65.9413 93.4193C66.8123 93.9363 67.8986 94.5813 68.953 94.2934C70.051 93.9939 70.4817 92.8169 70.6885 92.2519C70.7888 91.9779 70.9273 91.6016 70.8666 91.1709C70.841 90.9929 70.7834 90.8159 70.6917 90.6443C70.6054 90.4801 70.4903 90.3191 70.3378 90.1528C69.6534 89.4044 68.6396 89.1624 67.7462 88.9503C67.4583 88.881 67.1833 88.816 66.9413 88.7392L64.7942 88.0548L62.6472 87.3693C62.3998 87.2904 62.0289 87.1721 61.6184 87.2776C61.2474 87.3714 60.7538 87.6678 60.4863 88.5473C60.3594 88.9641 60.2848 89.3959 60.2677 89.8298C60.2592 90.0366 60.2677 90.3063 60.4052 90.5675H60.4063ZM61.015 90.2466C60.9543 90.1304 60.9521 89.9908 60.9575 89.8575C60.9713 89.4812 61.0353 89.107 61.144 88.7477C61.2506 88.4045 61.4404 88.0345 61.7879 87.9461C62.0033 87.8906 62.2271 87.9588 62.4372 88.026C63.8678 88.4823 65.2996 88.9396 66.7302 89.3959C67.7387 89.7179 69.0926 89.8127 69.8282 90.6176C69.9231 90.7232 70.0148 90.8394 70.0809 90.9652C70.1299 91.06 70.1672 91.1602 70.1811 91.2658C70.2152 91.5195 70.1267 91.7732 70.0404 92.0142C69.793 92.6837 69.4572 93.4406 68.7707 93.6282C67.7473 93.9075 66.4605 92.8564 65.5842 92.4289C64.193 91.7509 62.7303 91.2349 61.3508 90.5185C61.2304 90.4556 61.1035 90.3863 61.0289 90.2712L61.014 90.2456L61.015 90.2466Z" fill="#EEEDEC"/>
<path d="M8.2019 77.7221C6.8981 84.7102 8.93429 92.2463 13.5802 97.6267C15.9213 100.338 18.8541 102.492 21.9873 104.23C27.5244 107.3 33.8153 109.122 40.1467 108.996C46.4749 108.872 52.8233 106.729 57.642 102.622C61.2805 99.5222 63.9617 95.4072 65.8326 91.0096C67.1918 87.8146 68.1545 84.3946 68.114 80.9225C68.0362 74.2542 64.1365 67.9676 58.7049 64.0967C53.2764 60.2258 46.4856 58.584 39.8184 58.4966C33.487 58.4134 24.855 59.0062 19.0865 61.8739C13.3873 64.7065 9.3298 71.6775 8.2019 77.7221Z" fill="#E21E26"/>
<path d="M10.6358 93.302C17.4118 94.6783 24.3914 94.9629 31.3155 94.7337C36.164 94.5738 40.9975 94.1975 45.8311 93.7817C50.4067 93.3883 54.9897 93.0109 59.5216 92.253C61.6622 91.8948 63.7944 91.446 65.8903 90.8735C66.3849 89.6965 66.8274 88.4908 67.1834 87.2627C60.8062 89.3127 54.0249 89.9748 47.363 90.5579C37.9859 91.3788 28.5405 92.2114 19.1292 91.4108C15.7541 91.1229 12.4109 90.6123 9.13269 89.8138C9.54313 91.0142 10.0452 92.1826 10.6369 93.3041L10.6358 93.302Z" fill="#252422"/>
<path d="M56.1442 96.7432C55.1005 99.6216 54.0547 102.5 53.0121 105.379C52.2136 107.576 51.656 109.781 50.6955 111.931C50.4887 112.391 50.2616 112.866 49.8565 113.165C49.3416 113.542 48.6582 113.56 48.0229 113.563C47.4227 113.565 46.8214 113.568 46.2212 113.57C45.7841 113.572 45.3332 113.57 44.9398 113.382C44.1584 113.007 43.8854 112.052 43.6925 111.208C42.8045 107.295 42.7639 103.113 42.1893 99.0939L56.1442 96.7432Z" fill="#E21E26"/>
<path d="M50.4493 113.057C49.6273 115.55 49.1444 118.154 49.0154 120.776C49.0016 121.038 48.992 121.306 49.0677 121.556C49.1625 121.87 49.3779 122.13 49.5911 122.381C50.654 123.647 51.7179 124.913 52.7808 126.18C53.1059 126.567 53.4503 127.011 53.4044 127.515C53.3554 128.072 52.8181 128.487 52.2669 128.581C51.7179 128.674 51.155 128.522 50.6199 128.362C48.1945 127.64 45.8183 126.749 43.5134 125.699C43.0508 125.487 42.5593 125.238 42.329 124.784C42.1542 124.437 42.1649 124.03 42.1851 123.64C42.3717 119.694 42.8578 115.762 43.6392 111.889L50.4503 113.057H50.4493Z" fill="#252422"/>
<path d="M20.3338 95.9087C21.2848 98.8201 22.2346 101.73 23.1845 104.642C23.9094 106.864 24.3966 109.085 25.2868 111.265C25.4766 111.731 25.6898 112.214 26.0842 112.527C26.5842 112.92 27.2686 112.96 27.9029 112.984C28.5031 113.006 29.1044 113.029 29.7046 113.05C30.1385 113.066 30.5926 113.079 30.9892 112.904C31.7824 112.554 32.0894 111.609 32.3079 110.77C33.3228 106.888 33.5009 102.71 34.2045 98.7125L20.3328 95.9087H20.3338Z" fill="#E21E26"/>
<path d="M25.4979 112.398C26.2377 114.917 26.6343 117.535 26.6801 120.16C26.6833 120.422 26.6833 120.69 26.6002 120.938C26.4968 121.248 26.2729 121.502 26.0544 121.745C24.9499 122.976 23.8455 124.207 22.7421 125.437C22.4052 125.813 22.0459 126.246 22.0737 126.75C22.1046 127.309 22.628 127.741 23.176 127.853C23.7239 127.965 24.2889 127.83 24.8305 127.688C27.2782 127.046 29.6843 126.233 32.0201 125.257C32.4881 125.061 32.9881 124.828 33.2333 124.382C33.4198 124.039 33.4198 123.632 33.4145 123.243C33.3569 119.293 32.9977 115.347 32.342 111.451L25.4989 112.397L25.4979 112.398Z" fill="#252422"/>
<path d="M16.6494 31.6767C15.8936 28.6662 16.3509 25.485 17.0652 22.4648C18.8231 15.0301 22.3955 7.65071 28.6832 3.31287C34.9709 -1.02603 44.3598 -1.39489 49.8106 3.95571C51.6645 5.77443 52.9779 8.03663 55.5269 8.94599C58.0705 9.85215 60.9723 9.72209 63.3923 8.50997C63.8603 8.2765 64.3145 8.00358 64.8177 7.87246C65.323 7.74133 65.904 7.77331 66.3059 8.10486C66.711 8.43747 66.8549 9.01315 66.7771 9.53126C66.6993 10.0494 66.4296 10.5184 66.1279 10.9459C62.3838 16.2166 55.6239 15.0194 50.4598 13.0397C49.3127 12.5994 48.1635 12.1591 47.0143 11.7188C47.0719 13.5599 48.4887 15.0173 49.5398 16.5289C52.0515 20.1397 52.6613 24.9989 51.1208 29.1182L16.6494 31.6789V31.6767Z" fill="#E21E26"/>
<path d="M19.0577 22.3187C20.8157 14.8839 24.3881 7.5046 30.6768 3.16676C33.1341 1.47064 36.068 0.384314 39.054 0.00585938C35.4017 0.0751539 31.6885 1.2393 28.6822 3.31281C22.3945 7.65172 18.8221 15.0311 17.0642 22.4648C16.3499 25.4849 15.8926 28.6661 16.6484 31.6767L18.6409 31.5285C17.8861 28.519 18.3424 25.3389 19.0567 22.3187H19.0577Z" fill="#CF2527"/>
<path d="M24.4585 102.365C22.7719 102.25 19.6025 102.187 18.2422 101.077C17.4043 100.392 17.1676 98.8906 18.0684 98.2893C18.4085 98.0622 18.8307 98.0079 19.2305 97.9183C23.7346 96.9034 24.3551 91.9963 22.7954 88.3407C20.1228 82.0808 13.5302 78.8165 11.1177 72.3038C7.58151 62.7583 9.02177 51.943 12.8607 42.5146C14.7295 37.9241 18.7774 34.7878 23.4606 33.2867C27.1045 32.1194 30.9604 31.8294 34.777 31.548C39.7257 31.1823 44.9409 31.0928 49.6369 32.9424C54.1805 34.7323 57.7433 39.471 60.3275 43.4901C66.661 53.347 68.0096 65.9852 65.0256 77.3154C64.08 80.9113 62.7037 84.4347 60.5513 87.4676C58.3702 90.5432 55.4449 93.0346 52.2893 95.0986C44.1253 100.44 34.1928 103.032 24.4606 102.366L24.4585 102.365Z" fill="#FEFEFE"/>
<path d="M42.1094 30.7106L42.0689 31.3992L42.1094 30.7106C39.4453 30.5549 36.7641 30.7084 34.7237 30.8587C30.9221 31.1391 26.9904 31.4302 23.2485 32.6295C20.7422 33.4322 18.5258 34.639 16.6591 36.2147C14.6581 37.9044 13.1645 39.9363 12.2211 42.254C7.84163 53.0106 7.22011 63.7673 10.4706 72.5432C11.769 76.0484 14.2263 78.6411 16.6026 81.1496C18.8232 83.4938 20.9213 85.707 22.1611 88.612C23.0864 90.7772 23.1216 93.177 22.2538 94.872C21.6174 96.115 20.5492 96.9135 19.0791 97.2451C19.013 97.26 18.9458 97.2739 18.8787 97.2877C18.5034 97.3655 18.078 97.454 17.6868 97.7163C17.1538 98.0723 16.8425 98.6502 16.8094 99.3452C16.7689 100.193 17.1612 101.083 17.8083 101.612C19.1932 102.743 21.9777 102.908 23.821 103.017C24.0331 103.03 24.2325 103.041 24.4137 103.053C24.5629 103.064 24.7111 103.072 24.8614 103.082C34.6192 103.65 44.4931 101.02 52.6667 95.6748C56.3159 93.2878 59.0812 90.7335 61.1153 87.8658C63.0929 85.0791 64.5896 81.6858 65.693 77.4897C67.2132 71.7223 67.613 65.5913 66.854 59.7599C66.064 53.6982 64.0086 47.9425 60.9053 43.1164C59.239 40.5216 57.7497 38.5494 56.221 36.9098C54.1517 34.6923 52.0228 33.1412 49.8875 32.3001C47.6114 31.4035 45.0677 30.8833 42.1115 30.7116L42.1094 30.7106ZM42.0689 31.3992C44.6584 31.5506 47.2159 31.9877 49.6359 32.9408C54.1795 34.7307 57.7423 39.4694 60.3264 43.4885C66.6599 53.3454 68.0085 65.9836 65.0246 77.3138C64.079 80.9097 62.7027 84.433 60.5503 87.466C58.3691 90.5416 55.4438 93.033 52.2882 95.0969C44.2479 100.357 34.4913 102.952 24.8998 102.392C24.7527 102.384 24.6067 102.375 24.4595 102.364C22.773 102.249 19.6036 102.186 18.2433 101.077C17.4054 100.391 17.1687 98.89 18.0695 98.2888C18.4096 98.0617 18.8318 98.0073 19.2315 97.9178C23.7357 96.9029 24.3561 91.9957 22.7965 88.3402C20.1238 82.0802 13.5313 78.8159 11.1187 72.3033C7.58258 62.7577 9.02284 51.9424 12.8618 42.5141C14.7306 37.9236 18.7785 34.7872 23.4617 33.2862C27.1055 32.1188 30.9615 31.8289 34.778 31.5474C37.1778 31.3705 39.6372 31.2575 42.0721 31.3992H42.0689Z" fill="#EEEDEC"/>
<path d="M27.3721 101.916C25.6845 101.801 22.5151 101.738 21.1548 100.627C20.3168 99.9428 20.0802 98.4408 20.981 97.8395C21.3211 97.6124 21.7432 97.558 22.143 97.4685C26.6482 96.4536 27.2687 91.5465 25.708 87.892C23.0353 81.632 16.4427 78.3677 14.0302 71.8551C10.4941 62.3095 11.9343 51.4942 15.7722 42.0659C17.6421 37.4754 21.6889 34.3401 26.3721 32.838C27.4616 32.4894 28.5672 32.2197 29.6855 32.0054C27.5736 32.2612 25.483 32.6386 23.4585 33.2879C18.7753 34.7889 14.7285 37.9242 12.8586 42.5158C9.01969 51.9441 7.57943 62.7594 11.1156 72.305C13.5292 78.8176 20.1207 82.0819 22.7933 88.3419C24.354 91.9963 23.7325 96.9035 19.2284 97.9184C18.8286 98.0079 18.4064 98.0623 18.0664 98.2894C17.1655 98.8906 17.4022 100.393 18.2401 101.077C19.6004 102.188 22.7699 102.25 24.4564 102.365C28.2463 102.624 32.0628 102.387 35.7962 101.689C33.0031 102.027 30.178 102.108 27.37 101.916H27.3721Z" fill="#F6F8F9"/>
<path d="M19.9437 62.8284C17.6464 62.2719 15.6251 61.2847 14.4663 59.482C12.1444 55.8701 13.1976 50.4001 15.2701 46.9194C21.626 36.247 36.6096 33.9805 47.3887 38.0529C52.3779 39.9388 57.3436 44.1977 58.2455 49.7989C60.6133 64.5021 39.0371 64.194 29.6802 63.6866C26.9819 63.5394 23.1867 63.6141 19.9437 62.8294V62.8284Z" fill="#F1CFB9"/>
<path d="M31.3731 62.1597C28.6749 62.0126 24.8786 62.0872 21.6345 61.3015C19.3371 60.745 17.3159 59.7578 16.1571 57.9551C13.8352 54.3433 14.8884 48.8733 16.9609 45.3925C17.7988 43.9843 18.7913 42.7274 19.9011 41.6069C18.092 43.0674 16.5142 44.8297 15.2701 46.9181C13.1976 50.3988 12.1444 55.8688 14.4663 59.4807C15.6251 61.2834 17.6464 62.2706 19.9437 62.8271C23.1878 63.6128 26.9819 63.5381 29.6802 63.6842C36.7237 64.0669 50.6871 64.3345 56.1528 58.1747C49.8939 62.7588 37.7727 62.5062 31.372 62.1586L31.3731 62.1597Z" fill="#E9C7B1"/>
<path d="M38.8419 54.0703C39.635 54.662 40.3098 55.4871 40.4793 56.4615C40.6744 57.5862 40.1542 58.7557 39.3184 59.5318C38.4794 60.3079 37.3675 60.73 36.246 60.9369C34.8548 61.1938 33.3633 61.133 32.099 60.4976C30.8378 59.8623 29.8485 58.5819 29.8112 57.1683C29.6939 52.6748 36.0072 51.9542 38.8408 54.0692L38.8419 54.0703Z" fill="#C5574B"/>
<path d="M35.9304 54.4126C36.7182 54.3944 37.393 54.7366 37.8504 55.3752C38.1094 55.7366 38.6233 55.275 38.3653 54.9168C37.8163 54.1471 36.9165 53.7026 35.9709 53.7239C35.5317 53.7335 35.488 54.4222 35.9304 54.4126Z" fill="#FEFEFE"/>
<path d="M27.3581 52.4381C26.7664 51.307 26.1737 49.3711 27.6736 48.6205C29.4092 47.7538 30.019 50.3593 30.1885 51.4872C30.2546 51.9264 30.9273 51.7814 30.8644 51.3433C30.6288 49.7708 29.7407 47.144 27.5884 47.9105C25.4871 48.66 25.9477 51.2292 26.743 52.7505C26.9498 53.1428 27.5649 52.8326 27.3581 52.4381Z" fill="#252422"/>
<path d="M38.6978 51.451C39.0486 50.4233 39.9366 48.0684 41.3705 48.4543C42.9803 48.8882 42.6583 51.0885 42.4248 52.2783C42.3417 52.7079 42.9941 52.9339 43.0773 52.5C43.3907 50.8999 43.6146 48.4031 41.5912 47.8019C39.6285 47.2187 38.5422 49.773 38.0454 51.2303C37.9015 51.6514 38.5571 51.8721 38.6978 51.4521V51.451Z" fill="#252422"/>
<path d="M25.6013 56.2333C25.5938 58.3911 23.6056 60.1341 21.1622 60.1245C18.7188 60.116 16.7433 58.3591 16.7519 56.2003C16.7593 54.0426 18.7475 52.2995 21.191 52.3091C23.6344 52.3177 25.6098 54.0745 25.6013 56.2333Z" fill="#E0A49C"/>
<path d="M52.495 56.3319C52.4865 58.4896 50.5004 60.2326 48.0548 60.223C45.6125 60.2145 43.6381 58.4576 43.6434 56.2999C43.652 54.1411 45.6402 52.3991 48.0836 52.4087C50.5292 52.4173 52.5036 54.1741 52.495 56.3329V56.3319Z" fill="#E0A49C"/>
<path d="M45.0091 42.1959C45.0751 42.2268 45.1412 42.2599 45.2041 42.294C45.8971 42.6596 46.8192 43.2321 46.7041 44.1351C46.6465 44.5892 46.3214 44.9741 45.928 45.2086C45.3214 45.569 44.5773 45.7363 43.8844 45.7971C42.7117 45.9005 41.6285 45.8536 40.5337 45.408C39.8152 45.1137 38.812 44.553 38.8728 43.6383C38.9069 43.1564 39.2032 42.73 39.5508 42.3963C40.361 41.6224 41.571 41.5275 42.6317 41.6394C43.4334 41.7236 44.2671 41.8537 45.008 42.1959H45.0091Z" fill="#FEFEFE"/>
<path d="M23.8061 43.382C23.739 43.4119 23.6729 43.4439 23.6079 43.478C22.9138 43.8383 21.9864 44.4044 22.094 45.3084C22.1484 45.7626 22.4725 46.1506 22.8637 46.3873C23.4661 46.7519 24.2113 46.9246 24.9031 46.9907C26.0726 47.1026 27.1589 47.0632 28.2538 46.6261C28.9777 46.3372 29.984 45.7828 29.9297 44.8692C29.8977 44.3873 29.6045 43.9588 29.2602 43.6219C28.4553 42.8415 27.2453 42.7381 26.1856 42.8426C25.3829 42.9215 24.5492 43.0451 23.8061 43.382Z" fill="#FEFEFE"/>
<path d="M13.6047 66.2844C13.6058 66.9006 13.6826 67.505 13.8467 68.0999C13.964 68.5253 14.6399 68.3845 14.5216 67.956C14.3734 67.4208 14.2945 66.8803 14.2934 66.3249C14.2934 65.8835 13.6047 65.8398 13.6047 66.2844Z" fill="#EEEDEC"/>
<path d="M18.3264 65.6128C18.287 66.2994 18.3253 66.9816 18.4415 67.6597C18.5162 68.0968 19.1899 67.9528 19.1164 67.5158C19.0108 66.8964 18.9788 66.2802 19.0161 65.6533C19.0417 65.2109 18.353 65.1693 18.3275 65.6139L18.3264 65.6128Z" fill="#EEEDEC"/>
<path d="M19.546 70.7726C19.626 71.1937 19.7048 71.6148 19.7848 72.0348C19.8669 72.4708 20.5417 72.3269 20.4596 71.8898C20.3807 71.4687 20.3008 71.0487 20.2219 70.6276C20.1398 70.1916 19.465 70.3355 19.5471 70.7715L19.546 70.7726Z" fill="#EEEDEC"/>
<path d="M26.418 66.4176C26.4809 66.8409 26.5416 67.2652 26.6045 67.6884C26.6674 68.1276 27.3433 67.9826 27.2793 67.5434C27.2164 67.1202 27.1557 66.6969 27.0928 66.2727C27.0299 65.8334 26.354 65.9784 26.418 66.4166V66.4176Z" fill="#EEEDEC"/>
<path d="M27.1193 74.9709C27.2312 75.134 27.2654 75.3365 27.2515 75.5295C27.2195 75.9719 27.9093 76.0124 27.9412 75.569C27.9668 75.1798 27.8517 74.8291 27.6342 74.5114C27.5276 74.3579 27.275 74.3696 27.146 74.4826C26.9935 74.6191 27.0138 74.8152 27.1204 74.9698L27.1193 74.9709Z" fill="#EEEDEC"/>
<path d="M41.0743 68.1099C41.0711 68.6461 41.069 69.1824 41.069 69.7186C41.0658 70.161 41.7555 70.2037 41.7555 69.758C41.7587 69.2218 41.7609 68.6856 41.7609 68.1493C41.7641 67.7069 41.0743 67.6643 41.0743 68.1099Z" fill="#EEEDEC"/>
<path d="M39.554 74.7706C39.554 75.0766 39.5508 75.3836 39.5508 75.6896C39.5508 76.132 40.2373 76.1746 40.2405 75.7301C40.2405 75.423 40.2405 75.1171 40.2437 74.8111C40.2437 74.3687 39.5572 74.3261 39.554 74.7706Z" fill="#EEEDEC"/>
<path d="M49.1274 67.5417C49.1701 68.0779 49.217 68.6142 49.2596 69.1493C49.2937 69.5896 49.9696 69.4425 49.9344 69.0054C49.8886 68.4692 49.8449 67.934 49.8023 67.3978C49.7649 66.9575 49.0923 67.1046 49.1274 67.5417Z" fill="#EEEDEC"/>
<path d="M55.8136 66.5304C55.8914 67.0282 55.9661 67.5261 56.0439 68.0239C56.11 68.4621 56.7848 68.3182 56.7187 67.88C56.6409 67.3822 56.5631 66.8843 56.4884 66.3865C56.4191 65.9483 55.7465 66.0922 55.8125 66.5304H55.8136Z" fill="#EEEDEC"/>
<path d="M49.7851 75.7041C49.8342 76.2702 49.7532 76.8256 49.5698 77.3619C49.4259 77.7819 50.0783 78.0036 50.2254 77.5836C50.4493 76.9237 50.5218 76.2542 50.461 75.5602C50.4205 75.1199 49.7478 75.266 49.7862 75.7041H49.7851Z" fill="#EEEDEC"/>
<path d="M58.2337 74.3496C58.3371 75.2451 58.3051 76.132 58.1558 77.0211C58.0844 77.4582 58.771 77.4945 58.8456 77.0616C59.0034 76.1096 59.0183 75.1651 58.9085 74.2067C58.8562 73.7664 58.1846 73.9125 58.2326 74.3506L58.2337 74.3496Z" fill="#EEEDEC"/>
<path d="M26.9296 81.679C27.1226 82.1406 27.1705 82.6203 27.1044 83.1139C27.0437 83.5542 27.7334 83.5915 27.791 83.1533C27.8741 82.5382 27.7825 81.9369 27.5437 81.3655C27.3742 80.9562 26.759 81.2696 26.9285 81.6779L26.9296 81.679Z" fill="#EEEDEC"/>
<path d="M33.8036 80.816C33.8441 81.2755 33.8868 81.735 33.9273 82.1944C33.9443 82.381 34.1714 82.4929 34.3377 82.4599C34.536 82.4194 34.6192 82.2349 34.6021 82.0505C34.5595 81.591 34.519 81.1316 34.4784 80.6721C34.4614 80.4855 34.2343 80.3736 34.068 80.4066C33.8665 80.4471 33.7866 80.6316 33.8036 80.816Z" fill="#EEEDEC"/>
<path d="M28.7004 92.6576C28.7463 93.4209 28.4563 94.1 27.855 94.5776C27.5075 94.8548 27.967 95.3686 28.3145 95.0925C29.0384 94.5158 29.4435 93.6235 29.387 92.6971C29.3614 92.26 28.6716 92.2141 28.7004 92.6565V92.6576Z" fill="#EEEDEC"/>
<path d="M38.2353 88.9963C38.3153 89.5101 38.2214 90.0123 37.9571 90.4611C37.7332 90.8427 38.3046 91.2254 38.5317 90.8427C38.8941 90.2287 39.0199 89.556 38.9112 88.8513C38.8398 88.4132 38.1671 88.5571 38.2364 88.9952L38.2353 88.9963Z" fill="#EEEDEC"/>
<path d="M44.8216 81.57C44.8333 82.166 44.7555 82.7427 44.5828 83.3131C44.4559 83.7374 45.1084 83.9602 45.2384 83.5348C45.4282 82.9069 45.5199 82.2662 45.5113 81.6105C45.5028 81.1692 44.8131 81.1255 44.8216 81.57Z" fill="#EEEDEC"/>
<path d="M39.6317 94.9127C39.5571 95.1931 39.4303 95.45 39.232 95.6654C39.1051 95.8018 39.071 96.0033 39.2032 96.1515C39.3183 96.2805 39.5657 96.3168 39.6914 96.1803C39.9697 95.8786 40.1776 95.5332 40.2863 95.1345C40.4015 94.7081 39.749 94.4842 39.6307 94.9127H39.6317Z" fill="#EEEDEC"/>
<path d="M28.5905 100.465C28.9753 100.202 29.3634 99.9373 29.7482 99.674C29.9007 99.5695 29.9924 99.3904 29.9007 99.2103C29.8229 99.061 29.5905 98.9533 29.4348 99.0589C29.05 99.3222 28.6619 99.5866 28.2771 99.8499C28.1246 99.9544 28.0329 100.133 28.1278 100.314C28.2024 100.463 28.4348 100.571 28.5905 100.465Z" fill="#EEEDEC"/>
<path d="M50.88 89.9161C51.3715 89.4737 51.7222 88.9129 51.897 88.2754C52.0122 87.8479 51.3597 87.6251 51.2446 88.0537C51.0986 88.5824 50.8278 89.0334 50.4195 89.4012C50.0922 89.6986 50.5485 90.2146 50.8789 89.9161H50.88Z" fill="#EEEDEC"/>
<path d="M60.4756 58.4595C60.708 58.8294 60.8381 59.2175 60.8722 59.6545C60.8871 59.8411 61.1163 59.953 61.2826 59.9189C61.4841 59.8784 61.5609 59.694 61.547 59.5096C61.5065 59.0234 61.3487 58.5576 61.0897 58.1461C60.8541 57.774 60.2357 58.0832 60.4745 58.4595H60.4756Z" fill="#EEEDEC"/>
<path d="M17.6857 74.906C17.8115 75.4784 17.9373 76.0499 18.0631 76.6223C18.158 77.0552 18.8328 76.9123 18.7379 76.4784C18.6122 75.9059 18.4864 75.3335 18.3606 74.762C18.2657 74.3292 17.5909 74.471 17.6868 74.907L17.6857 74.906Z" fill="#EEEDEC"/>
<path d="M63.4383 67.001C63.7198 67.9604 63.6601 68.9039 63.2571 69.8197C63.079 70.2258 63.7336 70.4444 63.9095 70.0414C64.3573 69.0254 64.4266 67.921 64.1131 66.857C63.9863 66.4349 63.3115 66.5745 63.4372 67.001H63.4383Z" fill="#EEEDEC"/>
<path d="M52.6442 34.1287C52.5952 34.1606 52.5493 34.1926 52.5035 34.2235C50.9492 35.2694 49.5547 35.3557 47.6699 35.5359C45.6636 35.7278 43.653 35.9058 41.6434 36.0689C37.683 36.3909 33.7204 36.6574 29.7514 36.8685C26.2942 37.0529 22.8198 37.1947 19.3658 36.9015C18.0076 36.7864 16.8157 36.7469 15.7752 35.8951C14.8243 35.1158 14.4693 34.0626 14.352 32.9304C14.222 31.665 14.6047 30.2876 15.6761 29.4635C16.7475 28.6395 18.5758 28.6032 19.4606 29.5925C20.1504 28.3698 21.499 27.4679 22.9957 27.2301C24.4925 26.9913 26.1012 27.421 27.2163 28.357C27.8719 26.8538 29.6757 25.9103 31.4667 25.8688C33.2545 25.8282 34.9869 26.5777 36.3237 27.6544C37.2693 26.5937 38.781 25.9636 40.2895 26.0009C41.798 26.0372 43.2692 26.7408 44.1551 27.8452C44.7468 26.9338 45.928 26.3645 47.0974 26.4252C48.2669 26.486 49.3682 27.1758 49.8447 28.1427C50.5888 27.2323 51.8532 26.2728 52.948 26.8261C53.77 27.2408 53.8936 28.245 53.8904 29.0947C53.8851 30.4337 54.255 32.3835 53.3244 33.5434C53.1399 33.7737 52.8937 33.957 52.6431 34.1297L52.6442 34.1287Z" fill="#FEFEFE"/>
<path d="M52.3938 25.9778C51.4023 25.9202 50.526 26.5044 49.928 27.0524C49.2499 26.2944 48.2382 25.8019 47.1572 25.739L47.1338 25.7379C46.0272 25.6803 44.91 26.0982 44.1275 26.8189C43.168 25.9479 41.8631 25.401 40.5039 25.3221C40.4378 25.3179 40.3717 25.3158 40.3056 25.3136C38.828 25.2774 37.3345 25.8179 36.262 26.7496C34.9486 25.8253 33.4604 25.2774 32.0063 25.1921C31.8218 25.1814 31.6331 25.1782 31.4487 25.1825C29.6033 25.2251 27.9136 26.0705 26.9968 27.3562C26.1695 26.8509 25.1951 26.5481 24.1792 26.4884C23.7431 26.4628 23.3071 26.4842 22.886 26.5513C21.4703 26.7773 20.1601 27.5374 19.3072 28.5971C18.8776 28.3487 18.368 28.1995 17.8115 28.1675C16.8787 28.1131 15.947 28.3871 15.2551 28.9191C14.0888 29.8167 13.4939 31.3422 13.6656 33.0032C13.8212 34.5159 14.3692 35.6364 15.3382 36.4306C16.4715 37.3591 17.7124 37.4604 19.0258 37.5681L19.3072 37.5915C19.6867 37.6235 20.0801 37.6523 20.4735 37.6747C23.6259 37.8581 26.8017 37.7184 29.7846 37.5596C33.7418 37.3485 37.7481 37.0798 41.6958 36.7589C43.7021 36.5958 45.733 36.4157 47.734 36.2248L48.0016 36.1993C49.8203 36.0276 51.2606 35.8912 52.8874 34.7974C52.9364 34.7654 52.9823 34.7323 53.0313 34.6993C53.3213 34.5021 53.6208 34.2771 53.8618 33.9754C54.7583 32.8593 54.6784 31.2687 54.6123 29.9905C54.5952 29.6696 54.5803 29.3658 54.5803 29.0971C54.5835 28.5491 54.5888 26.8818 53.2584 26.2112C52.9887 26.0737 52.6955 25.9959 52.3938 25.9778ZM52.3533 26.6665C52.5548 26.6782 52.7531 26.7283 52.9481 26.8264C53.7701 27.2411 53.8937 28.2453 53.8905 29.095C53.8852 30.434 54.2551 32.3838 53.3245 33.5437C53.14 33.774 52.8938 33.9573 52.6432 34.13C52.5942 34.162 52.5484 34.194 52.5025 34.2249C50.9482 35.2707 49.5538 35.3571 47.669 35.5372C45.6626 35.7291 43.652 35.9072 41.6425 36.0703C37.682 36.3922 33.7194 36.6587 29.7505 36.8698C26.678 37.0329 23.5886 37.1641 20.514 36.985C20.1313 36.9626 19.7486 36.9359 19.3659 36.9029C18.0077 36.7877 16.8158 36.7483 15.7753 35.8965C14.8244 35.1172 14.4694 34.0639 14.3521 32.9318C14.2221 31.6663 14.6048 30.289 15.6762 29.4649C16.2465 29.0267 17.0301 28.8114 17.7721 28.854C18.4256 28.8924 19.046 29.1301 19.4597 29.5928C20.1494 28.37 21.498 27.4681 22.9948 27.2304C23.3722 27.1696 23.757 27.1526 24.1397 27.175C25.2719 27.2411 26.3827 27.6579 27.2153 28.3572C27.871 26.8541 29.6748 25.9106 31.4658 25.869C31.6321 25.8648 31.7994 25.868 31.9657 25.8786C33.5755 25.9724 35.1096 26.6793 36.3228 27.6547C37.2684 26.594 38.7801 25.9639 40.2886 26.0012C40.3461 26.0023 40.4037 26.0055 40.4634 26.0087C41.909 26.0929 43.3023 26.7837 44.1531 27.8455C44.7447 26.934 45.9259 26.3648 47.0954 26.4255L47.1157 26.4266C48.2766 26.4938 49.3683 27.1814 49.8427 28.143C50.4546 27.3935 51.4205 26.6121 52.3511 26.6654L52.3533 26.6665Z" fill="#EEEDEC"/>
<path d="M49.1669 34.718C47.1606 34.9099 45.1499 35.0879 43.1404 35.251C39.18 35.573 35.2142 35.8395 31.2484 36.0506C27.7911 36.235 24.3168 36.3768 20.8627 36.0836C19.5046 35.9685 18.3127 35.929 17.2722 35.0772C16.3213 34.2979 15.9663 33.2447 15.849 32.1125C15.7317 30.9707 16.0334 29.7405 16.8788 28.9058C16.4375 29.0006 16.0174 29.1819 15.6752 29.4452C14.6038 30.2693 14.2211 31.6466 14.3512 32.9121C14.4674 34.0442 14.8234 35.0975 15.7744 35.8768C16.8149 36.7286 18.0067 36.768 19.3649 36.8842C22.8179 37.1774 26.2933 37.0356 29.7506 36.8512C33.7195 36.6401 37.6821 36.3736 41.6426 36.0516C43.6511 35.8885 45.6627 35.7105 47.6691 35.5186C49.5539 35.3384 50.9483 35.2521 52.5026 34.2063C52.5485 34.1743 52.5943 34.1434 52.6434 34.1114L52.6466 34.1082C51.5773 34.5101 50.4942 34.5922 49.1669 34.719V34.718Z" fill="#F6F8F9"/>
<path d="M23.1055 72.7544C23.7239 72.57 23.4381 71.6095 22.8188 71.7939C22.2004 71.9783 22.4861 72.9389 23.1055 72.7544Z" fill="#FEFEFE"/>
<path d="M69.7463 9.51731C67.8988 10.6111 65.0822 9.2977 64.5364 7.318C64.3616 6.67196 64.3328 5.95343 64.6366 5.35537C65.0567 4.5217 66.0108 4.10273 66.9212 3.90231C67.5651 3.76053 68.2399 3.69443 68.8838 3.84048C70.0789 4.11233 71.0565 5.1688 71.2377 6.38306C71.4222 7.59731 70.8006 8.89152 69.7463 9.51731Z" fill="#FEFEFE"/>
<path d="M69.5884 9.22745C68.5159 9.79673 67.2548 9.62403 66.2494 8.98332C64.9936 8.1827 64.0395 6.24139 65.3273 4.99622C66.4744 3.88751 68.8357 3.74892 70.0063 4.80646C71.4092 6.07402 71.1214 8.20616 69.5894 9.22745C69.2419 9.46092 69.5489 10.043 69.9029 9.80633C71.5521 8.70721 72.1672 6.49405 70.9284 4.83524C69.6321 3.09648 66.9946 3.05704 65.2729 4.20733C63.6152 5.31284 63.8327 7.61022 65.129 8.92042C66.3593 10.1667 68.3251 10.6443 69.9018 9.8074C70.2781 9.60911 69.9647 9.02916 69.5884 9.22852V9.22745Z" fill="#EEEDEC"/>
<path d="M36.6608 67.9976C36.6288 66.5445 34.9849 62.938 33.8272 65.7535C33.3592 66.8931 33.6608 69.1084 34.1608 70.2171C34.3357 70.603 34.632 71.038 35.0542 71.0028C35.2354 70.9879 35.3932 70.8866 35.5339 70.7736C36.3356 70.1222 36.681 69.0316 36.6608 67.9976Z" fill="#252422"/>
<path d="M36.5797 68.8967C35.7578 68.7101 34.6661 68.7666 33.8069 69.1077C33.905 69.5299 34.0254 69.9148 34.1608 70.2175C34.3357 70.6034 34.632 71.0384 35.0542 71.0032C35.2354 70.9883 35.3932 70.887 35.5339 70.774C36.1053 70.3113 36.439 69.6259 36.5797 68.8967Z" fill="#C5574B"/>
</svg>
