<svg width="184" height="312" viewBox="0 0 184 312" fill="none" xmlns="http://www.w3.org/2000/svg">
<path d="M17.7667 233.73C17.7616 237.464 21.2692 240.378 24.8852 241.3C28.3541 242.185 32.1972 241.707 35.2247 239.8C38.2548 237.893 40.3764 234.525 40.5623 230.95C40.6242 229.788 40.4745 228.578 39.8783 227.579C38.7684 225.723 36.4171 225.037 34.2646 224.83C28.3566 224.265 17.7771 225.997 17.7642 233.727L17.7667 233.73Z" fill="#252422"/>
<path d="M25.9176 174.059C17.4803 177.176 9.67268 181.982 3.08335 188.104C2.00707 189.103 0.93595 190.182 0.409423 191.553C-0.0577402 192.771 -0.0525782 194.118 0.0713104 195.416C0.984989 205.046 7.71627 212.98 14.192 220.166C15.2761 221.369 16.3885 222.589 17.7977 223.384C21.6331 225.545 26.408 224.004 30.517 222.432C24.8852 214.42 19.9322 205.929 15.7303 197.084C21.2872 195.86 26.8442 194.637 32.3985 193.414L25.915 174.059H25.9176Z" fill="#E21E26"/>
<path d="M32.8375 215.86C29.3738 216.965 25.9075 218.072 22.4438 219.177C20.0022 219.956 16.7294 220.186 14.946 222.135C14.5382 222.581 14.1742 223.105 14.0891 223.707C14.0039 224.321 14.2207 224.935 14.4323 225.519C15.026 227.139 15.839 228.972 17.5037 229.426C19.9789 230.1 23.0942 227.558 25.2158 226.523C28.5866 224.881 32.1303 223.632 35.4702 221.897C35.7618 221.745 36.069 221.577 36.2445 221.299C36.4277 221.004 36.4355 220.64 36.4226 220.295C36.3864 219.383 36.2316 218.48 35.9683 217.608C35.7154 216.777 35.2534 215.881 34.4145 215.667C33.8958 215.535 33.3512 215.698 32.8401 215.86H32.8375Z" fill="#FEFEFE"/>
<path d="M37.7566 222.014C38.0896 221.382 38.1076 220.729 38.0896 220.228C38.0457 219.175 37.8702 218.13 37.563 217.123C36.9152 214.994 35.715 214.277 34.822 214.049C33.8231 213.794 32.925 214.08 32.3287 214.271L27.1332 215.931L21.935 217.588C21.3465 217.776 20.6858 217.934 19.9838 218.099C17.8209 218.615 15.3689 219.199 13.7119 221.01C13.3428 221.413 13.0615 221.803 12.8524 222.2C12.6356 222.616 12.4937 223.044 12.4317 223.475C12.2846 224.518 12.6175 225.429 12.8627 226.092C13.3635 227.463 14.4088 230.312 17.0646 231.038C19.6172 231.734 22.2447 230.176 24.356 228.921C24.9393 228.575 25.4891 228.248 25.9485 228.026C27.4222 227.308 28.976 226.647 30.4782 226.01C32.3778 225.205 34.3419 224.368 36.239 223.382C36.6106 223.189 37.2352 222.864 37.6585 222.185L37.754 222.017L37.7566 222.014ZM36.2803 221.238L36.2441 221.299C36.0712 221.581 35.7641 221.746 35.4698 221.898C32.13 223.633 28.5889 224.879 25.2155 226.523C23.0939 227.558 19.9786 230.101 17.5034 229.427C15.8386 228.973 15.023 227.14 14.432 225.519C14.2178 224.936 14.001 224.324 14.0887 223.708C14.1249 223.452 14.2126 223.207 14.3313 222.98C14.4939 222.675 14.7107 222.394 14.9456 222.138C16.7291 220.187 20.0018 219.957 22.4435 219.18C25.9072 218.076 29.3735 216.969 32.8372 215.864C33.3482 215.701 33.8903 215.536 34.4116 215.67C35.253 215.884 35.715 216.783 35.9654 217.611C36.2312 218.484 36.3835 219.387 36.4196 220.298C36.4326 220.618 36.4248 220.959 36.2777 221.24L36.2803 221.238Z" fill="#EEEDEC"/>
<path d="M166.237 231.222C166.245 234.954 162.737 237.871 159.119 238.792C155.647 239.678 151.807 239.2 148.779 237.293C145.746 235.385 143.625 232.017 143.436 228.442C143.38 227.281 143.527 226.071 144.125 225.072C145.233 223.216 147.584 222.529 149.739 222.323C155.639 221.758 166.222 223.49 166.234 231.22L166.237 231.222Z" fill="#252422"/>
<path d="M158.081 171.55C166.521 174.668 174.326 179.474 180.915 185.596C181.994 186.595 183.065 187.674 183.586 189.044C184.059 190.263 184.054 191.61 183.927 192.911C183.016 202.541 176.28 210.475 169.809 217.66C168.725 218.863 167.61 220.084 166.198 220.879C162.365 223.036 157.59 221.498 153.479 219.926C159.113 211.915 164.061 203.423 168.263 194.578C162.703 193.355 157.152 192.131 151.592 190.908L158.076 171.553L158.081 171.55Z" fill="#E21E26"/>
<path d="M151.166 213.355C154.63 214.46 158.096 215.567 161.56 216.672C164.002 217.451 167.28 217.681 169.061 219.63C169.463 220.076 169.832 220.6 169.917 221.201C170 221.816 169.786 222.43 169.577 223.013C168.978 224.634 168.165 226.467 166.503 226.921C164.025 227.597 160.91 225.052 158.788 224.017C155.42 222.376 151.879 221.127 148.539 219.392C148.247 219.24 147.94 219.072 147.759 218.793C147.579 218.499 147.571 218.135 147.586 217.789C147.62 216.878 147.775 215.972 148.038 215.102C148.296 214.271 148.756 213.376 149.597 213.162C150.118 213.027 150.66 213.193 151.169 213.355H151.166Z" fill="#FEFEFE"/>
<path d="M146.247 219.508L146.345 219.676C146.768 220.355 147.388 220.68 147.765 220.873C149.664 221.859 151.626 222.693 153.525 223.501C155.028 224.138 156.579 224.799 158.055 225.517C158.514 225.739 159.064 226.066 159.648 226.412C161.756 227.664 164.386 229.226 166.939 228.529C169.597 227.803 170.64 224.954 171.141 223.586C171.383 222.923 171.719 222.012 171.572 220.969C171.51 220.538 171.371 220.109 171.149 219.694C170.939 219.296 170.661 218.907 170.292 218.504C168.635 216.692 166.18 216.106 164.017 215.593C163.32 215.425 162.654 215.267 162.069 215.082L156.87 213.425L151.672 211.765C151.073 211.574 150.175 211.288 149.182 211.543C148.283 211.77 147.088 212.488 146.44 214.617C146.133 215.626 145.953 216.672 145.911 217.722C145.891 218.223 145.911 218.876 146.244 219.508H146.247ZM147.721 218.731C147.574 218.45 147.568 218.112 147.581 217.789C147.615 216.878 147.77 215.972 148.033 215.102C148.291 214.271 148.751 213.376 149.592 213.161C150.113 213.027 150.655 213.192 151.164 213.355C154.627 214.46 158.094 215.567 161.557 216.672C163.999 217.451 167.277 217.681 169.058 219.629C169.288 219.885 169.51 220.166 169.67 220.471C169.788 220.7 169.879 220.943 169.912 221.199C169.995 221.813 169.781 222.427 169.572 223.01C168.973 224.631 168.16 226.464 166.498 226.918C164.02 227.594 160.905 225.05 158.783 224.015C155.415 222.373 151.874 221.124 148.534 219.389C148.242 219.237 147.935 219.069 147.754 218.791L147.718 218.729L147.721 218.731Z" fill="#EEEDEC"/>
<path d="M19.8569 188.409C16.7003 205.327 21.6301 223.572 32.8781 236.599C38.5461 243.162 45.6464 248.378 53.232 252.585C66.6378 260.019 81.8684 264.43 97.197 264.125C112.518 263.823 127.888 258.635 139.554 248.693C148.363 241.188 154.854 231.225 159.384 220.578C162.675 212.843 165.005 204.563 164.907 196.157C164.719 180.012 155.278 164.792 142.127 155.421C128.985 146.049 112.544 142.074 96.4021 141.862C81.0734 141.661 60.1749 143.096 46.2091 150.039C32.411 156.897 22.5876 173.774 19.8569 188.409V188.409Z" fill="#E21E26"/>
<path d="M25.7496 226.128C42.1545 229.46 59.0524 230.15 75.8161 229.595C87.5545 229.207 99.2569 228.296 110.959 227.29C122.037 226.337 133.133 225.424 144.105 223.589C149.287 222.721 154.449 221.635 159.524 220.249C160.721 217.399 161.792 214.48 162.654 211.507C147.215 216.47 130.797 218.073 114.668 219.485C91.9655 221.472 69.0977 223.488 46.3125 221.55C38.141 220.853 30.047 219.616 22.1104 217.683C23.104 220.589 24.3197 223.418 25.7522 226.133L25.7496 226.128Z" fill="#252422"/>
<path d="M135.928 234.459C133.401 241.428 130.869 248.397 128.345 255.368C126.412 260.685 125.062 266.025 122.737 271.231C122.236 272.344 121.686 273.495 120.705 274.217C119.459 275.131 117.804 275.175 116.266 275.18C114.813 275.185 113.357 275.193 111.904 275.198C110.846 275.203 109.754 275.198 108.802 274.744C106.91 273.835 106.249 271.523 105.782 269.479C103.632 260.006 103.534 249.881 102.143 240.151L135.928 234.459V234.459Z" fill="#E21E26"/>
<path d="M122.14 273.955C120.15 279.992 118.981 286.298 118.669 292.644C118.635 293.279 118.612 293.927 118.795 294.534C119.025 295.292 119.546 295.922 120.063 296.531C122.636 299.595 125.212 302.661 127.785 305.727C128.572 306.664 129.406 307.741 129.295 308.959C129.176 310.309 127.875 311.313 126.541 311.54C125.212 311.767 123.849 311.398 122.553 311.011C116.682 309.263 110.928 307.106 105.348 304.563C104.228 304.05 103.038 303.448 102.481 302.349C102.058 301.507 102.083 300.521 102.132 299.579C102.584 290.025 103.761 280.506 105.653 271.129L122.143 273.955H122.14Z" fill="#252422"/>
<path d="M49.2294 232.439C51.5317 239.488 53.8313 246.534 56.131 253.583C57.8861 258.962 59.0656 264.341 61.2208 269.619C61.6802 270.747 62.1964 271.916 63.1514 272.672C64.3619 273.625 66.0189 273.723 67.5546 273.78C69.0077 273.834 70.4634 273.888 71.9165 273.94C72.967 273.978 74.0665 274.009 75.0266 273.586C76.9469 272.739 77.6902 270.45 78.2193 268.419C80.6765 259.021 81.1075 248.906 82.811 239.228L49.2268 232.439H49.2294Z" fill="#E21E26"/>
<path d="M61.7314 272.36C63.5226 278.459 64.4827 284.798 64.5937 291.153C64.6015 291.788 64.6015 292.435 64.4001 293.037C64.1498 293.788 63.6078 294.402 63.0787 294.991C60.4047 297.972 57.7308 300.95 55.0594 303.929C54.2438 304.84 53.374 305.888 53.4412 307.108C53.516 308.461 54.7833 309.506 56.1099 309.777C57.4366 310.048 58.8045 309.723 60.1157 309.38C66.0417 307.823 71.867 305.857 77.522 303.492C78.6551 303.018 79.8656 302.455 80.4592 301.373C80.9109 300.545 80.9109 299.559 80.898 298.617C80.7586 289.054 79.8888 279.499 78.3015 270.068L61.7339 272.358L61.7314 272.36Z" fill="#252422"/>
<path d="M40.3094 76.9304C38.4795 69.6416 39.5867 61.9398 41.316 54.6278C45.5721 36.6278 54.2211 18.762 69.4439 8.2599C84.6667 -2.24482 107.398 -3.13785 120.594 9.81626C125.083 14.2195 128.263 19.6964 134.434 21.898C140.592 24.0918 147.618 23.777 153.477 20.8423C154.61 20.2771 155.709 19.6164 156.927 19.2989C158.151 18.9814 159.557 19.0589 160.53 19.8616C161.511 20.6668 161.86 22.0606 161.671 23.315C161.483 24.5693 160.83 25.705 160.099 26.74C151.035 39.5005 134.669 36.602 122.166 31.8091C119.389 30.7431 116.607 29.6772 113.824 28.6112C113.964 33.0686 117.394 36.5969 119.939 40.2567C126.02 48.9986 127.496 60.7629 123.766 70.7359L40.3094 76.9355V76.9304Z" fill="#E21E26"/>
<path d="M46.14 54.274C50.3961 36.2741 59.0451 18.4083 74.2705 7.90612C80.2198 3.79973 87.3227 1.16968 94.5521 0.253418C85.7096 0.421184 76.7199 3.23965 69.4414 8.25972C54.2186 18.7645 45.5696 36.6302 41.3135 54.6276C39.5843 61.9397 38.477 69.6414 40.307 76.9302L45.1309 76.5714C43.3035 69.2852 44.4082 61.5861 46.1375 54.274H46.14Z" fill="#CF2527"/>
<path d="M59.2149 248.07C55.1318 247.792 47.4584 247.639 44.165 244.953C42.1364 243.293 41.5634 239.659 43.7443 238.203C44.5677 237.653 45.5898 237.522 46.5576 237.305C57.4624 234.848 58.9646 222.967 55.1886 214.117C48.718 198.961 32.757 191.058 26.9161 175.291C18.3549 152.181 21.8419 125.996 31.1361 103.17C35.6606 92.0559 45.4607 84.4625 56.7991 80.8285C65.621 78.0022 74.9565 77.3002 84.1966 76.6188C96.1776 75.7335 108.804 75.5167 120.173 79.9948C131.174 84.3283 139.799 95.8009 146.056 105.531C161.39 129.395 164.655 159.993 157.43 187.424C155.141 196.13 151.809 204.66 146.598 212.003C141.317 219.45 134.235 225.481 126.595 230.478C106.829 243.409 82.7822 249.686 59.2201 248.073L59.2149 248.07Z" fill="#FEFEFE"/>
<path d="M101.949 74.5911L101.851 76.2584L101.949 74.5911C95.4992 74.2143 89.008 74.5859 84.0679 74.9499C74.864 75.6287 65.3453 76.3333 56.2859 79.2369C50.2179 81.1804 44.852 84.1021 40.3326 87.9169C35.4881 92.0078 31.8721 96.9272 29.5879 102.538C18.9851 128.581 17.4804 154.623 25.3499 175.87C28.4935 184.356 34.4428 190.633 40.1959 196.707C45.5721 202.382 50.6515 207.74 53.6533 214.774C55.8936 220.016 55.9788 225.826 53.8778 229.929C52.337 232.939 49.7508 234.872 46.1916 235.675C46.0315 235.711 45.8689 235.744 45.7063 235.778C44.7978 235.966 43.768 236.181 42.8207 236.816C41.5302 237.678 40.7766 239.077 40.6966 240.759C40.5985 242.811 41.5483 244.966 43.115 246.247C46.4677 248.985 53.2093 249.385 57.6719 249.648C58.1855 249.679 58.6682 249.708 59.1069 249.736C59.4683 249.762 59.8271 249.783 60.191 249.806C83.815 251.181 107.72 244.814 127.509 231.873C136.344 226.094 143.039 219.91 147.964 212.967C152.751 206.22 156.375 198.005 159.046 187.846C162.727 173.883 163.695 159.039 161.857 144.921C159.945 130.245 154.968 116.311 147.455 104.626C143.421 98.3442 139.815 93.5693 136.114 89.5997C131.104 84.2312 125.95 80.4758 120.78 78.4394C115.27 76.2687 109.112 75.0092 101.954 74.5937L101.949 74.5911ZM101.851 76.2584C108.12 76.6249 114.312 77.6831 120.171 79.9906C131.171 84.3241 139.797 95.7967 146.054 105.527C161.387 129.391 164.652 159.989 157.428 187.42C155.139 196.126 151.807 204.656 146.596 211.999C141.315 219.445 134.233 225.477 126.593 230.474C107.127 243.209 83.5053 249.491 60.2839 248.136C59.9277 248.115 59.5741 248.095 59.2179 248.069C55.1348 247.79 47.4614 247.638 44.168 244.951C42.1394 243.291 41.5664 239.657 43.7473 238.202C44.5707 237.652 45.5928 237.52 46.5606 237.303C57.4654 234.846 58.9676 222.966 55.1916 214.116C48.7209 198.96 32.76 191.057 26.9191 175.289C18.3579 152.179 21.8448 125.995 31.1391 103.168C35.6636 92.0542 45.4637 84.4609 56.8021 80.8268C65.624 78.0006 74.9595 77.2986 84.1996 76.6172C90.0094 76.1887 95.9638 75.9152 101.859 76.2584H101.851Z" fill="#EEEDEC"/>
<path d="M66.2694 246.984C62.1836 246.705 54.5103 246.553 51.2169 243.863C49.1882 242.206 48.6152 238.57 50.7962 237.114C51.6195 236.564 52.6416 236.433 53.6095 236.216C64.5169 233.759 66.019 221.878 62.2404 213.031C55.7698 197.875 39.8088 189.972 33.968 174.204C25.4068 151.094 28.8937 124.91 38.1854 102.083C42.7125 90.9693 52.51 83.3785 63.8484 79.7418C66.4862 78.8979 69.1627 78.2449 71.8702 77.7261C66.7572 78.3455 61.6958 79.2592 56.7945 80.831C45.4561 84.4651 35.6585 92.0559 31.1314 103.172C21.8372 125.999 18.3503 152.183 26.9115 175.294C32.7549 191.061 48.7133 198.964 55.1839 214.12C58.9625 222.967 57.4578 234.848 46.553 237.305C45.5851 237.522 44.563 237.653 43.7397 238.203C41.5587 239.659 42.1317 243.296 44.1604 244.953C47.4538 247.642 55.1271 247.792 59.2103 248.07C68.3858 248.698 77.6258 248.125 86.6645 246.434C79.9023 247.252 73.0626 247.448 66.2642 246.984H66.2694Z" fill="#F6F8F9"/>
<path d="M48.2847 152.35C42.7226 151.003 37.829 148.613 35.0234 144.249C29.402 135.504 31.952 122.261 36.9695 113.834C52.3575 87.9953 88.6337 82.5081 114.73 92.3676C126.809 96.9334 138.832 107.245 141.015 120.805C146.748 156.403 94.5107 155.657 71.8571 154.428C65.3245 154.072 56.1361 154.253 48.2847 152.353V152.35Z" fill="#F1CFB9"/>
<path d="M75.9557 150.731C69.4232 150.375 60.2322 150.556 52.3782 148.653C46.8161 147.306 41.9225 144.916 39.1169 140.552C33.4955 131.807 36.0455 118.564 41.063 110.137C43.0917 106.727 45.4946 103.684 48.1815 100.972C43.8015 104.508 39.9816 108.774 36.9695 113.83C31.952 122.257 29.402 135.5 35.0234 144.245C37.829 148.609 42.7226 150.999 48.2847 152.347C56.1387 154.249 65.3245 154.068 71.8571 154.422C88.9099 155.348 122.716 155.996 135.949 141.083C120.796 152.182 91.4496 151.57 75.9532 150.728L75.9557 150.731Z" fill="#E9C7B1"/>
<path d="M94.0383 131.146C95.9586 132.579 97.5924 134.577 98.0028 136.936C98.4751 139.659 97.2156 142.49 95.192 144.369C93.1608 146.248 90.4688 147.27 87.7536 147.771C84.3853 148.393 80.7745 148.246 77.7134 146.707C74.6601 145.169 72.2649 142.069 72.1746 138.647C71.8906 127.768 87.1754 126.023 94.0357 131.144L94.0383 131.146Z" fill="#C5574B"/>
<path d="M86.9893 131.975C88.8967 131.931 90.5305 132.759 91.6377 134.305C92.2649 135.18 93.5089 134.063 92.8843 133.196C91.5551 131.332 89.3767 130.256 87.0874 130.307C86.024 130.331 85.9182 131.998 86.9893 131.975V131.975Z" fill="#FEFEFE"/>
<path d="M66.2356 127.195C64.8031 124.456 63.3681 119.769 66.9996 117.952C71.2015 115.854 72.6778 122.162 73.0882 124.893C73.2482 125.956 74.8768 125.605 74.7245 124.544C74.1541 120.737 72.0042 114.378 66.7931 116.233C61.7059 118.048 62.8209 124.268 64.7463 127.951C65.2471 128.901 66.7363 128.15 66.2356 127.195V127.195Z" fill="#252422"/>
<path d="M93.6895 124.805C94.5387 122.317 96.6887 116.615 100.16 117.55C104.057 118.6 103.278 123.927 102.713 126.808C102.511 127.848 104.091 128.395 104.292 127.345C105.051 123.471 105.593 117.426 100.694 115.97C95.9428 114.558 93.3127 120.742 92.11 124.271C91.7615 125.29 93.3489 125.824 93.6895 124.807V124.805Z" fill="#252422"/>
<path d="M61.9824 136.383C61.9644 141.607 57.1508 145.827 51.2351 145.804C45.3194 145.783 40.5368 141.53 40.5574 136.303C40.5755 131.079 45.3891 126.859 51.3048 126.882C57.2205 126.903 62.0031 131.157 61.9824 136.383Z" fill="#E0A49C"/>
<path d="M127.093 136.622C127.073 141.846 122.264 146.066 116.343 146.042C110.43 146.022 105.65 141.768 105.663 136.544C105.684 131.318 110.497 127.1 116.413 127.124C122.334 127.144 127.114 131.398 127.093 136.624V136.622Z" fill="#E0A49C"/>
<path d="M108.969 102.398C109.129 102.473 109.289 102.553 109.442 102.635C111.119 103.521 113.352 104.907 113.073 107.093C112.934 108.192 112.147 109.124 111.194 109.692C109.726 110.564 107.924 110.969 106.246 111.117C103.407 111.367 100.785 111.253 98.1343 110.174C96.3947 109.462 93.966 108.104 94.1131 105.89C94.1957 104.723 94.9132 103.691 95.7546 102.883C97.7162 101.009 100.646 100.78 103.214 101.051C105.155 101.254 107.173 101.569 108.967 102.398H108.969Z" fill="#FEFEFE"/>
<path d="M57.6359 105.27C57.4733 105.342 57.3132 105.419 57.1558 105.502C55.4756 106.374 53.2301 107.745 53.4908 109.934C53.6224 111.033 54.407 111.973 55.3543 112.546C56.8125 113.428 58.6167 113.846 60.2917 114.006C63.1231 114.277 65.7532 114.182 68.4039 113.124C70.1564 112.424 72.5928 111.082 72.4612 108.87C72.3838 107.704 71.674 106.666 70.8403 105.85C68.8917 103.961 65.9622 103.711 63.3967 103.964C61.4532 104.155 59.4348 104.454 57.6359 105.27V105.27Z" fill="#FEFEFE"/>
<path d="M32.9377 160.718C32.9403 162.209 33.1262 163.673 33.5236 165.113C33.8075 166.143 35.4439 165.802 35.1574 164.765C34.7987 163.469 34.6077 162.16 34.6051 160.816C34.6051 159.747 32.9377 159.641 32.9377 160.718V160.718Z" fill="#EEEDEC"/>
<path d="M44.3696 159.092C44.2741 160.754 44.367 162.406 44.6483 164.047C44.829 165.105 46.4602 164.757 46.2821 163.699C46.0266 162.199 45.9491 160.707 46.0395 159.19C46.1014 158.119 44.4341 158.018 44.3721 159.094L44.3696 159.092Z" fill="#EEEDEC"/>
<path d="M47.3215 171.583C47.5151 172.603 47.7061 173.622 47.8997 174.639C48.0984 175.695 49.7322 175.347 49.5334 174.288C49.3425 173.269 49.1489 172.252 48.9579 171.232C48.7591 170.177 47.1254 170.525 47.3241 171.581L47.3215 171.583Z" fill="#EEEDEC"/>
<path d="M63.9591 161.04C64.1113 162.065 64.2585 163.092 64.4107 164.117C64.563 165.18 66.1994 164.829 66.0445 163.766C65.8922 162.741 65.7451 161.716 65.5928 160.689C65.4406 159.626 63.8042 159.977 63.9591 161.037V161.04Z" fill="#EEEDEC"/>
<path d="M65.6577 181.748C65.9287 182.143 66.0113 182.633 65.9778 183.1C65.9003 184.171 67.5703 184.27 67.6477 183.196C67.7096 182.254 67.4309 181.405 66.9043 180.635C66.6462 180.264 66.0346 180.292 65.7222 180.566C65.3532 180.896 65.4022 181.371 65.6603 181.745L65.6577 181.748Z" fill="#EEEDEC"/>
<path d="M99.4431 165.137C99.4354 166.435 99.4302 167.734 99.4302 169.032C99.4225 170.103 101.092 170.206 101.092 169.127C101.1 167.829 101.105 166.531 101.105 165.233C101.113 164.162 99.4431 164.058 99.4431 165.137Z" fill="#EEEDEC"/>
<path d="M95.7624 181.263C95.7624 182.004 95.7546 182.747 95.7546 183.488C95.7546 184.559 97.4168 184.662 97.4246 183.586C97.4246 182.842 97.4246 182.102 97.4323 181.361C97.4323 180.29 95.7701 180.187 95.7624 181.263Z" fill="#EEEDEC"/>
<path d="M118.94 163.761C119.043 165.06 119.157 166.358 119.26 167.654C119.343 168.719 120.979 168.363 120.894 167.305C120.783 166.007 120.677 164.711 120.574 163.413C120.484 162.347 118.855 162.703 118.94 163.761Z" fill="#EEEDEC"/>
<path d="M135.128 161.313C135.316 162.518 135.497 163.723 135.685 164.929C135.845 165.989 137.479 165.641 137.319 164.58C137.131 163.375 136.942 162.17 136.762 160.964C136.594 159.903 134.965 160.252 135.125 161.313H135.128Z" fill="#EEEDEC"/>
<path d="M120.533 183.523C120.651 184.893 120.455 186.238 120.011 187.536C119.663 188.553 121.242 189.09 121.598 188.073C122.14 186.476 122.316 184.855 122.169 183.174C122.071 182.108 120.442 182.462 120.535 183.523H120.533Z" fill="#EEEDEC"/>
<path d="M140.987 180.243C141.237 182.411 141.16 184.559 140.798 186.711C140.626 187.77 142.288 187.857 142.468 186.81C142.85 184.505 142.887 182.218 142.621 179.898C142.494 178.832 140.868 179.185 140.984 180.246L140.987 180.243Z" fill="#EEEDEC"/>
<path d="M65.1977 197.989C65.6648 199.106 65.781 200.268 65.621 201.463C65.4738 202.529 67.1438 202.619 67.2831 201.558C67.4844 200.069 67.2625 198.613 66.6843 197.23C66.274 196.239 64.7847 196.997 65.1951 197.986L65.1977 197.989Z" fill="#EEEDEC"/>
<path d="M81.8404 195.899C81.9384 197.012 82.0417 198.124 82.1398 199.236C82.1811 199.688 82.7308 199.959 83.1335 199.879C83.6135 199.781 83.8148 199.334 83.7736 198.888C83.6703 197.775 83.5722 196.663 83.4742 195.551C83.4329 195.099 82.8831 194.828 82.4805 194.908C81.9926 195.006 81.7991 195.453 81.8404 195.899Z" fill="#EEEDEC"/>
<path d="M69.4849 224.568C69.5959 226.416 68.8938 228.061 67.4382 229.217C66.5967 229.888 67.7092 231.132 68.5506 230.463C70.3031 229.067 71.2839 226.907 71.1471 224.664C71.0851 223.606 69.4152 223.495 69.4849 224.566V224.568Z" fill="#EEEDEC"/>
<path d="M92.5697 215.704C92.7633 216.948 92.5362 218.164 91.8961 219.25C91.354 220.174 92.7375 221.101 93.2872 220.174C94.1648 218.688 94.4693 217.059 94.2061 215.353C94.0331 214.292 92.4045 214.641 92.5723 215.701L92.5697 215.704Z" fill="#EEEDEC"/>
<path d="M108.515 197.725C108.544 199.168 108.355 200.564 107.937 201.945C107.63 202.972 109.21 203.511 109.525 202.482C109.984 200.961 110.206 199.41 110.185 197.823C110.165 196.754 108.495 196.649 108.515 197.725V197.725Z" fill="#EEEDEC"/>
<path d="M95.9506 230.028C95.7699 230.707 95.4628 231.329 94.9827 231.85C94.6756 232.181 94.593 232.668 94.913 233.027C95.1918 233.34 95.7905 233.427 96.0951 233.097C96.7688 232.366 97.2721 231.53 97.5353 230.565C97.8141 229.533 96.2345 228.99 95.948 230.028H95.9506Z" fill="#EEEDEC"/>
<path d="M69.2189 243.471C70.1507 242.833 71.0902 242.193 72.0219 241.555C72.391 241.303 72.613 240.869 72.391 240.433C72.2026 240.071 71.6399 239.811 71.2631 240.066C70.3314 240.704 69.3919 241.344 68.4601 241.981C68.091 242.234 67.8691 242.668 68.0988 243.104C68.2795 243.465 68.8421 243.726 69.2189 243.471Z" fill="#EEEDEC"/>
<path d="M123.183 217.931C124.373 216.86 125.222 215.502 125.645 213.959C125.924 212.924 124.345 212.384 124.066 213.422C123.712 214.702 123.057 215.794 122.068 216.684C121.276 217.404 122.381 218.654 123.181 217.931H123.183Z" fill="#EEEDEC"/>
<path d="M146.415 141.773C146.977 142.669 147.292 143.608 147.375 144.666C147.411 145.118 147.966 145.389 148.369 145.306C148.856 145.208 149.042 144.762 149.009 144.315C148.911 143.138 148.529 142.01 147.901 141.014C147.331 140.113 145.834 140.862 146.412 141.773H146.415Z" fill="#EEEDEC"/>
<path d="M42.8181 181.591C43.1226 182.977 43.4272 184.36 43.7317 185.746C43.9615 186.794 45.5952 186.448 45.3655 185.398C45.061 184.012 44.7564 182.626 44.4518 181.242C44.2221 180.194 42.5884 180.538 42.8206 181.593L42.8181 181.591Z" fill="#EEEDEC"/>
<path d="M153.588 162.452C154.269 164.775 154.124 167.059 153.149 169.276C152.718 170.26 154.303 170.789 154.728 169.813C155.812 167.353 155.98 164.68 155.221 162.104C154.914 161.082 153.28 161.42 153.585 162.452H153.588Z" fill="#EEEDEC"/>
<path d="M127.454 82.8667C127.336 82.9442 127.225 83.0216 127.114 83.0964C123.351 85.6284 119.975 85.8375 115.411 86.2737C110.554 86.7382 105.686 87.1693 100.821 87.5642C91.2325 88.3436 81.6389 88.9889 72.0298 89.4999C63.6596 89.9464 55.248 90.2897 46.8856 89.5799C43.5973 89.3012 40.7118 89.2057 38.1927 87.1435C35.8904 85.2567 35.031 82.7067 34.747 79.9657C34.4322 76.902 35.3587 73.5673 37.9527 71.5722C40.5466 69.5771 44.973 69.4893 47.1153 71.8845C48.7852 68.9241 52.0502 66.7405 55.6739 66.165C59.2977 65.5868 63.1924 66.627 65.8921 68.8931C67.4795 65.2539 71.8465 62.9697 76.1826 62.869C80.511 62.7709 84.7052 64.5854 87.9417 67.1922C90.2311 64.6241 93.891 63.0987 97.5431 63.1891C101.195 63.2768 104.757 64.9803 106.902 67.6542C108.334 65.4475 111.194 64.0692 114.025 64.2163C116.857 64.3634 119.523 66.0333 120.677 68.3743C122.478 66.1701 125.539 63.8472 128.19 65.1868C130.18 66.1908 130.479 68.6221 130.472 70.6792C130.459 73.9209 131.354 78.6416 129.101 81.4497C128.655 82.0072 128.058 82.4512 127.452 82.8693L127.454 82.8667Z" fill="#FEFEFE"/>
<path d="M126.848 63.133C124.448 62.9936 122.326 64.408 120.878 65.7346C119.237 63.8995 116.787 62.7071 114.17 62.5548L114.113 62.5523C111.434 62.4129 108.729 63.4246 106.835 65.1694C104.512 63.0607 101.353 61.7367 98.0621 61.5457C97.9021 61.5353 97.7421 61.5302 97.5821 61.525C94.0048 61.4373 90.3888 62.7458 87.7923 65.0016C84.6125 62.7639 81.0094 61.4373 77.4889 61.2308C77.0424 61.205 76.5855 61.1972 76.139 61.2075C71.6713 61.3108 67.5804 63.3575 65.3607 66.4702C63.3578 65.2468 60.9988 64.5138 58.5391 64.3693C57.4834 64.3073 56.4278 64.359 55.4083 64.5216C51.9807 65.0687 48.8087 66.909 46.7438 69.4745C45.7037 68.8732 44.47 68.5118 43.1227 68.4344C40.8643 68.3028 38.6085 68.9661 36.9334 70.254C34.1098 72.4272 32.6696 76.1206 33.0851 80.1419C33.4619 83.8043 34.7886 86.517 37.1347 88.4398C39.8783 90.6879 42.8826 90.9331 46.0625 91.1938L46.7438 91.2506C47.6627 91.328 48.6151 91.3977 49.5675 91.4519C57.1995 91.8958 64.8884 91.5577 72.1101 91.1731C81.6908 90.6621 91.3902 90.0117 100.948 89.2348C105.805 88.8399 110.722 88.4037 115.567 87.9417L116.214 87.8797C120.618 87.4642 124.105 87.1338 128.043 84.4857C128.162 84.4083 128.273 84.3283 128.392 84.2483C129.094 83.7708 129.819 83.2262 130.402 82.4958C132.573 79.7934 132.379 75.9426 132.219 72.8479C132.178 72.071 132.142 71.3354 132.142 70.685C132.15 69.3584 132.163 65.3217 128.941 63.6982C128.288 63.3653 127.579 63.1769 126.848 63.133V63.133ZM126.75 64.8003C127.238 64.8287 127.718 64.95 128.19 65.1875C130.18 66.1915 130.48 68.6228 130.472 70.6799C130.459 73.9216 131.355 78.6423 129.101 81.4504C128.655 82.0079 128.059 82.4519 127.452 82.87C127.333 82.9474 127.222 83.0249 127.111 83.0997C123.348 85.6317 119.972 85.8407 115.409 86.2769C110.552 86.7415 105.684 87.1726 100.819 87.5674C91.2302 88.3469 81.6366 88.9922 72.0275 89.5032C64.589 89.8981 57.1092 90.2156 49.6656 89.782C48.739 89.7278 47.8124 89.6632 46.8858 89.5832C43.5976 89.3045 40.712 89.209 38.1929 87.1467C35.8907 85.26 35.0312 82.71 34.7473 79.9689C34.4324 76.9053 35.359 73.5706 37.9529 71.5755C39.3337 70.5147 41.2308 69.9933 43.0272 70.0966C44.6093 70.1895 46.1115 70.765 47.1129 71.8852C48.7828 68.9248 52.0478 66.7412 55.6716 66.1657C56.5853 66.0186 57.517 65.9773 58.4436 66.0315C61.1846 66.1915 63.874 67.2007 65.8898 68.8938C67.4771 65.2546 71.8442 62.9704 76.1803 62.8697C76.5829 62.8594 76.9882 62.8671 77.3908 62.893C81.2881 63.1201 85.0022 64.8313 87.9394 67.1929C90.2288 64.6248 93.8887 63.0994 97.5408 63.1898C97.6802 63.1923 97.8195 63.2001 97.9641 63.2078C101.464 63.4117 104.837 65.0842 106.897 67.6549C108.329 65.4482 111.189 64.0699 114.021 64.217L114.07 64.2196C116.88 64.3822 119.523 66.0469 120.672 68.375C122.153 66.5606 124.492 64.6687 126.745 64.7977L126.75 64.8003Z" fill="#EEEDEC"/>
<path d="M119.035 84.2934C114.178 84.758 109.31 85.189 104.445 85.5839C94.8564 86.3633 85.255 87.0086 75.6537 87.5196C67.2834 87.9662 58.8719 88.3094 50.5094 87.5997C47.2212 87.3209 44.3357 87.2254 41.8166 85.1632C39.5143 83.2765 38.6548 80.7264 38.3709 77.9854C38.087 75.2211 38.8174 72.2426 40.8642 70.2217C39.7957 70.4514 38.7787 70.8902 37.9502 71.5277C35.3563 73.5228 34.4297 76.8575 34.7446 79.9211C35.0259 82.6622 35.888 85.2122 38.1903 87.0989C40.7093 89.1612 43.5949 89.2567 46.8831 89.538C55.243 90.2478 63.6571 89.9045 72.0274 89.458C81.6365 88.9469 91.2301 88.3017 100.819 87.5222C105.681 87.1273 110.552 86.6963 115.409 86.2317C119.972 85.7955 123.348 85.5865 127.111 83.0545C127.222 82.9771 127.333 82.9022 127.452 82.8248L127.46 82.817C124.871 83.7901 122.249 83.9888 119.035 84.2959V84.2934Z" fill="#F6F8F9"/>
<path d="M55.9401 176.382C57.4371 175.935 56.7454 173.61 55.2458 174.056C53.7488 174.503 54.4405 176.828 55.9401 176.382Z" fill="#FEFEFE"/>
<path d="M168.86 23.2812C164.387 25.9294 157.568 22.7496 156.246 17.9566C155.823 16.3925 155.753 14.6529 156.489 13.205C157.506 11.1866 159.816 10.1723 162.02 9.68704C163.579 9.34377 165.213 9.18374 166.772 9.53734C169.665 10.1955 172.032 12.7533 172.47 15.6931C172.917 18.6328 171.412 21.7662 168.86 23.2812Z" fill="#FEFEFE"/>
<path d="M168.477 22.5794C165.881 23.9577 162.827 23.5396 160.393 21.9884C157.353 20.05 155.043 15.35 158.161 12.3354C160.938 9.65112 166.655 9.31559 169.489 11.876C172.886 14.9448 172.189 20.1068 168.48 22.5794C167.638 23.1447 168.382 24.5539 169.239 23.9809C173.231 21.3199 174.721 15.9617 171.722 11.9456C168.583 7.73601 162.198 7.64051 158.029 10.4254C154.016 13.1019 154.542 18.664 157.681 21.8361C160.659 24.8533 165.419 26.0096 169.236 23.9835C170.147 23.5034 169.388 22.0993 168.477 22.582V22.5794Z" fill="#EEEDEC"/>
<path d="M88.7578 164.865C88.6804 161.347 84.7004 152.615 81.8975 159.432C80.7644 162.191 81.4948 167.554 82.7053 170.239C83.1286 171.173 83.8461 172.226 84.8682 172.141C85.307 172.105 85.689 171.859 86.0297 171.586C87.9706 170.009 88.8068 167.368 88.7578 164.865V164.865Z" fill="#252422"/>
<path d="M88.5616 167.042C86.5716 166.59 83.9287 166.727 81.8484 167.553C82.0858 168.575 82.3775 169.507 82.7053 170.24C83.1286 171.174 83.8461 172.227 84.8682 172.142C85.307 172.106 85.6889 171.86 86.0296 171.587C87.4131 170.467 88.2209 168.807 88.5616 167.042Z" fill="#C5574B"/>
</svg>
