<svg width="113" height="111" viewBox="0 0 113 111" fill="none" xmlns="http://www.w3.org/2000/svg">
<path d="M111.25 58.6754C108.991 57.521 106.688 56.4673 104.342 55.5144C104.804 53.4166 105.267 51.32 105.732 49.2246C106.144 47.365 103.371 46.8388 102.959 48.6948L101.476 55.39C96.0851 57.7877 90.8314 60.4823 85.7387 63.4612C84.1387 64.3964 85.721 66.8177 87.3103 65.8897C92.2938 62.9739 97.4387 60.3432 102.72 58.0105C105.19 59.0013 107.615 60.1035 109.995 61.3172C111.606 62.1492 112.875 59.4896 111.25 58.6754Z" fill="#603813"/>
<path d="M21.9441 28.0655C20.7068 30.4299 20.2872 33.1962 20.0668 35.9091C19.921 37.7474 19.8641 39.6532 20.4686 41.3741C21.073 43.095 22.4953 44.5955 24.1806 44.6559C25.1975 44.695 26.1824 44.215 27.0251 43.5892C30.6127 40.855 31.6865 35.6709 32.4652 30.9668C32.7603 29.189 34.3781 13.8288 30.6874 15.9764C29.3825 16.7337 28.4367 20.2431 27.3664 21.5125C25.5104 23.6743 23.3095 25.4628 21.9441 28.0655Z" fill="#E21E26"/>
<path d="M30.5948 36.3038C28.9095 37.5483 25.9014 35.5927 24.4116 34.7073C23.0493 33.9039 21.7773 32.9562 20.6178 31.8806C20.696 31.5251 20.7849 31.1695 20.8809 30.814C21.7233 31.6358 22.6345 32.384 23.6045 33.0504C24.8419 33.9002 28.6179 36.574 30.1113 35.4718C30.6268 35.1056 31.0855 35.9411 30.5948 36.3038Z" fill="white"/>
<path d="M23.0676 41.6587C21.9929 41.1983 20.9924 40.5813 20.0987 39.8275C20.0303 39.3563 19.9911 38.8813 19.9813 38.4053C21.5002 39.9415 23.4403 40.9932 25.5565 41.4275C26.6934 41.6806 27.8707 41.6928 29.0126 41.4631C28.7297 41.8642 28.4184 42.2445 28.081 42.6009C26.3613 42.6545 24.6505 42.3329 23.0676 41.6587Z" fill="white"/>
<path d="M22.6694 37.2746C21.735 36.8352 20.8691 36.2627 20.0988 35.575C20.1308 35.1803 20.1699 34.7856 20.2161 34.3945C20.9317 35.1312 21.7628 35.7461 22.6766 36.215C25.0553 37.4239 28.01 38.775 30.7229 38.0888H30.762C30.6269 38.4444 30.4811 38.7999 30.3247 39.1555C27.6722 39.5537 25.0481 38.4088 22.6694 37.2746Z" fill="white"/>
<path d="M29.3006 33.9502L29.4073 33.8435C29.4507 33.7942 29.5038 33.7543 29.5632 33.7263C29.6227 33.6984 29.6873 33.6829 29.7529 33.6809C29.8186 33.6789 29.884 33.6904 29.9451 33.7147C30.0061 33.739 30.0615 33.7756 30.1079 33.8222C30.1542 33.8687 30.1905 33.9243 30.2145 33.9855C30.2384 34.0467 30.2496 34.1122 30.2473 34.1778C30.2449 34.2435 30.2291 34.308 30.2008 34.3673C30.1725 34.4266 30.1324 34.4795 30.0828 34.5226L29.9762 34.6293C29.9327 34.6786 29.8797 34.7185 29.8202 34.7465C29.7607 34.7744 29.6962 34.7899 29.6305 34.7919C29.5648 34.7939 29.4994 34.7824 29.4384 34.7581C29.3773 34.7338 29.3219 34.6972 29.2756 34.6506C29.2292 34.6041 29.1929 34.5485 29.169 34.4873C29.145 34.4261 29.1338 34.3606 29.1362 34.295C29.1385 34.2293 29.1543 34.1648 29.1826 34.1055C29.2109 34.0462 29.2511 33.9933 29.3006 33.9502Z" fill="white"/>
<path d="M26.8899 34.1417C26.7626 34.1417 26.6405 34.0911 26.5505 34.0011C26.4605 33.911 26.4099 33.789 26.4099 33.6616C26.4099 33.5343 26.4605 33.4123 26.5505 33.3222C26.6405 33.2322 26.7626 33.1816 26.8899 33.1816C27.0172 33.1816 27.1393 33.2322 27.2293 33.3222C27.3193 33.4123 27.3699 33.5343 27.3699 33.6616C27.3699 33.789 27.3193 33.911 27.2293 34.0011C27.1393 34.0911 27.0172 34.1417 26.8899 34.1417Z" fill="white"/>
<path d="M25.2011 39.8774H25.3113C25.4377 39.8793 25.5583 39.9306 25.6474 40.0203C25.7364 40.11 25.7868 40.231 25.7878 40.3575C25.7859 40.4842 25.7348 40.6052 25.6451 40.6948C25.5555 40.7845 25.4345 40.8356 25.3077 40.8374H25.2011C25.074 40.8365 24.9525 40.7857 24.8627 40.6958C24.7729 40.606 24.722 40.4845 24.7211 40.3575C24.7238 40.231 24.7752 40.1105 24.8647 40.021C24.9541 39.9316 25.0746 39.8802 25.2011 39.8774Z" fill="white"/>
<path d="M23.0535 38.5685H23.1601C23.2872 38.5694 23.4087 38.6203 23.4985 38.7101C23.5884 38.7999 23.6392 38.9215 23.6401 39.0485C23.6374 39.175 23.586 39.2955 23.4965 39.3849C23.4071 39.4743 23.2866 39.5258 23.1601 39.5285H23.0535C22.9328 39.5181 22.8205 39.4629 22.7386 39.3737C22.6568 39.2845 22.6113 39.1678 22.6113 39.0467C22.6113 38.9257 22.6568 38.809 22.7386 38.7198C22.8205 38.6306 22.9328 38.5753 23.0535 38.5649V38.5685Z" fill="white"/>
<path d="M23.914 35.4116H24.0206C24.1479 35.4116 24.27 35.4622 24.36 35.5522C24.4501 35.6422 24.5006 35.7643 24.5006 35.8916C24.5006 36.0189 24.4501 36.141 24.36 36.231C24.27 36.3211 24.1479 36.3716 24.0206 36.3716H23.914C23.7872 36.3698 23.6662 36.3186 23.5766 36.229C23.487 36.1394 23.4358 36.0184 23.434 35.8916C23.4376 35.7649 23.4898 35.6443 23.5798 35.555C23.6698 35.4656 23.7907 35.4143 23.9175 35.4116H23.914Z" fill="white"/>
<path d="M21.9406 34.1597H22.0473C22.1743 34.1606 22.2958 34.2115 22.3856 34.3013C22.4755 34.3911 22.5263 34.5127 22.5273 34.6397C22.5236 34.7664 22.4714 34.887 22.3814 34.9763C22.2914 35.0657 22.1705 35.117 22.0437 35.1197H21.937C21.8106 35.1178 21.69 35.0666 21.6009 34.9768C21.5119 34.8871 21.4615 34.7661 21.4606 34.6397C21.4624 34.5129 21.5136 34.3919 21.6032 34.3023C21.6928 34.2127 21.8139 34.1615 21.9406 34.1597Z" fill="white"/>
<path d="M21.0266 37.563H21.1333C21.2603 37.5639 21.3819 37.6148 21.4717 37.7046C21.5615 37.7944 21.6124 37.916 21.6133 38.043C21.6106 38.1694 21.5591 38.29 21.4697 38.3794C21.3803 38.4688 21.2597 38.5203 21.1333 38.523H21.0266C20.8993 38.523 20.7772 38.4724 20.6872 38.3824C20.5972 38.2924 20.5466 38.1703 20.5466 38.043C20.5466 37.9157 20.5972 37.7936 20.6872 37.7036C20.7772 37.6136 20.8993 37.563 21.0266 37.563Z" fill="white"/>
<path d="M24.049 31.7275H24.1556C24.2829 31.7275 24.405 31.7781 24.495 31.8681C24.5851 31.9582 24.6357 32.0802 24.6357 32.2075C24.6357 32.3349 24.5851 32.4569 24.495 32.547C24.405 32.637 24.2829 32.6876 24.1556 32.6876H24.049C23.9217 32.6876 23.7996 32.637 23.7096 32.547C23.6195 32.4569 23.569 32.3349 23.569 32.2075C23.569 32.0802 23.6195 31.9582 23.7096 31.8681C23.7996 31.7781 23.9217 31.7275 24.049 31.7275Z" fill="white"/>
<path d="M27.2881 37.5411C27.1608 37.5411 27.0387 37.4905 26.9487 37.4005C26.8587 37.3105 26.8081 37.1884 26.8081 37.0611C26.8081 36.9338 26.8587 36.8117 26.9487 36.7216C27.0387 36.6316 27.1608 36.5811 27.2881 36.5811C27.4154 36.5811 27.5375 36.6316 27.6275 36.7216C27.7175 36.8117 27.7681 36.9338 27.7681 37.0611C27.7681 37.1884 27.7175 37.3105 27.6275 37.4005C27.5375 37.4905 27.4154 37.5411 27.2881 37.5411Z" fill="white"/>
<path d="M27.7824 41.335H27.6757C27.5484 41.335 27.4263 41.2844 27.3363 41.1944C27.2463 41.1044 27.1957 40.9823 27.1957 40.855C27.1957 40.7277 27.2463 40.6056 27.3363 40.5156C27.4263 40.4256 27.5484 40.375 27.6757 40.375H27.7824C27.9097 40.375 28.0318 40.4256 28.1218 40.5156C28.2118 40.6056 28.2624 40.7277 28.2624 40.855C28.2624 40.9823 28.2118 41.1044 28.1218 41.1944C28.0318 41.2844 27.9097 41.335 27.7824 41.335Z" fill="white"/>
<path d="M56.1702 111C63.0041 111 68.9064 110.115 74.2114 108.262C79.3235 106.5 83.9723 103.608 87.8116 99.8001C91.8045 95.7894 94.4214 91.032 95.3814 86.0541C96.2846 81.3394 95.8259 75.9456 94.0161 70.0113C92.1921 64.0236 89.6427 59.5862 86.2293 56.4431C84.3804 54.7435 82.055 53.243 78.9083 51.675C70.3535 47.4768 60.9529 45.2878 51.4235 45.2749C48.281 45.2721 45.1429 45.5098 42.0367 45.986C36.6713 46.8109 32.4366 48.2581 29.0623 50.4092C24.7423 53.1684 21.3858 57.3391 19.0889 62.8041C17.1119 67.5117 16.0026 73.0691 15.8888 78.8718C15.6968 88.2088 17.8622 95.5121 22.3316 100.561C26.6445 105.457 33.1513 108.454 42.7158 109.912V110.026C47.176 110.631 51.6695 110.956 56.1702 111Z" fill="white"/>
<path d="M77.2052 51.23C84.7466 54.5154 92.4943 57.8505 100.694 58.3412C102.795 58.4692 105.447 58.7821 106.073 60.7946C106.222 61.4097 106.241 62.0489 106.13 62.6719C105.723 66.1388 104.763 69.5181 103.286 72.6809C103.019 73.2534 102.692 73.8578 102.119 74.1032C101.255 74.4943 100.281 73.9503 99.4953 73.4276C91.001 67.792 82.1866 62.3732 72.4052 59.5039L77.2052 51.23Z" fill="#E21E26"/>
<path d="M99.5485 58.2525C99.5094 60.7414 98.6418 63.3584 97.9627 65.6553C97.405 67.5283 96.7511 69.3714 96.0036 71.1771C95.7333 70.9993 95.4596 70.8216 95.1858 70.6545C95.8471 69.0402 96.4374 67.4046 96.9423 65.7335C97.6534 63.4295 98.5814 60.6703 98.5921 58.1494C98.9121 58.1885 99.2285 58.2241 99.5485 58.2525Z" fill="white"/>
<path d="M100.398 73.9825C100.112 73.8438 99.8351 73.6858 99.5699 73.5096C102.227 69.0039 103.322 63.7467 102.685 58.5547C103.022 58.6128 103.355 58.69 103.684 58.7858C104.253 64.0729 103.101 69.4026 100.398 73.9825Z" fill="white"/>
<path d="M97.5967 72.2082C99.442 67.7743 100.911 63.1698 100.466 58.3413L100.686 58.3591C100.932 58.3591 101.184 58.3911 101.44 58.416C101.863 63.3938 100.324 68.1797 98.4109 72.7593L97.5967 72.2082Z" fill="white"/>
<path d="M57.4967 58.142C60.1954 58.142 62.9723 58.0104 65.7492 57.7367C68.9493 57.4238 73.152 56.9011 77.0738 55.6389C79.3552 54.9473 81.5146 53.9036 83.4739 52.5455C88.1566 49.1677 89.0633 41.7471 89.1877 37.612C89.2695 34.8564 89.2731 31.923 88.7326 29.0465C87.2606 21.2455 81.4579 13.9601 73.5822 10.024C68.5652 7.53511 62.8158 6.24797 56.4904 6.2373C54.0267 6.23871 51.5664 6.42412 49.1303 6.79198C44.8956 7.43199 41.6636 8.45957 38.9897 10.0347C35.1746 12.2747 32.0136 15.9299 29.8447 20.6055C28.1202 24.3318 27.0002 28.6376 26.3531 34.1595C25.9975 37.0679 25.738 40.5027 26.3887 43.916C27.0678 47.4716 28.7318 50.5366 31.0714 52.5064C34.6697 55.5322 40.4084 56.3855 45.0165 57.0718L46.5276 57.2993C50.157 57.8606 53.8241 58.1423 57.4967 58.142Z" fill="white"/>
<path d="M55.1107 28.0266C54.3463 28.3359 53.6458 28.8195 52.8423 29.0044C50.8938 29.4488 48.7604 28.0977 46.9471 28.9226C46.3071 29.2106 45.788 29.7475 45.1159 29.9501C44.4439 30.1528 43.651 29.9786 42.9292 29.8186C40.1277 29.2072 37.2446 29.0618 34.3958 29.3884C33.5993 29.4808 32.618 29.7973 32.5433 30.5937C35.7249 31.8157 38.9963 32.7893 42.3283 33.5057C43.2884 33.712 44.2768 33.9075 45.1053 34.4373C45.9337 34.9671 46.5275 35.8027 47.324 36.4036C49.5711 38.128 52.2023 37.808 54.7907 38.3058C57.1161 38.7574 59.1393 39.4294 60.4584 36.6062C61.2051 35.0098 61.1055 33.1573 60.9491 31.4008C60.9173 30.5674 60.7454 29.7452 60.4406 28.9688C60.2914 28.6316 60.0663 28.3335 59.7828 28.0977C58.7161 27.223 56.2876 27.5466 55.1107 28.0266Z" fill="#F15A24"/>
<path d="M32.8846 29.3242C35.7656 30.5275 38.7276 31.5267 41.7487 32.3144C42.7017 32.5598 43.683 32.798 44.4865 33.3598C45.2901 33.9216 45.859 34.782 46.6199 35.4185C48.7924 37.2354 51.4342 37.0256 54.0013 37.6336C56.3054 38.1812 58.2965 38.935 59.7365 36.1723C60.5508 34.6078 60.5259 32.7553 60.4477 30.9918C60.4384 30.3109 60.3514 29.6333 60.1881 28.9722C60.3011 29.1378 60.3953 29.3155 60.469 29.502C60.7413 30.2899 60.8783 31.1181 60.8743 31.9518C60.9561 33.7296 60.981 35.5678 60.1632 37.1323C58.741 39.895 56.7356 39.1412 54.428 38.5936C51.8644 37.9856 49.2191 38.1954 47.0466 36.3785C46.2892 35.7456 45.7239 34.8887 44.9132 34.3198C44.1025 33.7509 43.1354 33.5198 42.179 33.2745C38.8808 32.4163 35.6535 31.3061 32.5255 29.9535C32.5599 29.7054 32.6884 29.48 32.8846 29.3242Z" fill="#E05422"/>
<path d="M79.778 38.9468C79.7813 36.2349 77.3468 34.0335 74.3404 34.0298C71.334 34.0262 68.8941 36.2216 68.8908 38.9335C68.8875 41.6453 71.322 43.8467 74.3284 43.8504C77.3348 43.8541 79.7747 41.6586 79.778 38.9468Z" fill="#FFC6BE"/>
<path d="M38.8065 37.1885C38.8098 34.4766 36.3753 32.2752 33.3688 32.2715C30.3624 32.2679 27.9225 34.4633 27.9192 37.1752C27.9159 39.887 30.3504 42.0884 33.3568 42.0921C36.3633 42.0958 38.8032 39.9003 38.8065 37.1885Z" fill="#FFC6BE"/>
<path d="M76.5439 54.0215L95.7655 62.9425C96.3557 63.2163 96.9922 63.5398 97.234 64.1443C97.3791 64.6714 97.3504 65.2312 97.1522 65.7408C96.1047 69.4727 94.5734 73.0515 92.5975 76.3862C92.3166 76.8627 91.9646 77.3747 91.4206 77.4814C90.8766 77.588 90.3112 77.2005 89.8668 76.8236C86.7983 74.2209 84.1778 71.1346 81.1911 68.4359C78.2044 65.7372 74.7519 63.3692 70.8052 62.6083L76.5439 54.0215Z" fill="#CC181F"/>
<path d="M79.2249 62.2317C75.2746 63.3837 71.1146 63.7144 66.983 63.8104C56.1857 64.0606 45.4085 62.7566 34.9825 59.9383C32.0492 59.1454 29.1016 58.2068 26.6269 56.5072C24.1522 54.8076 22.1824 52.2404 21.9477 49.3284C21.7628 47.0919 23.1637 44.4395 25.5033 44.3861C27.8429 44.3328 29.3042 46.7613 30.8829 48.4608C33.2403 50.9995 36.7603 52.2582 40.2342 52.9765C51.4912 55.2947 63.1927 52.852 74.2684 49.8404C77.9235 48.8448 86.713 46.2279 88.409 51.3587C90.233 56.8201 83.7298 60.909 79.2249 62.2317Z" fill="#DF1A22"/>
<path d="M90.2293 60.3785C89.2226 64.7104 87.6981 68.9053 85.6888 72.8729L84.9777 72.1617C86.9134 68.2877 88.3781 64.1957 89.3404 59.9731L90.2293 60.3785Z" fill="white"/>
<path d="M87.1609 74.338L86.4498 73.6482C88.7331 69.7032 90.6026 65.5329 92.0286 61.2036L92.8997 61.609C91.4388 66.0416 89.5153 70.3082 87.1609 74.338Z" fill="white"/>
<path d="M89.3869 76.4109C89.1451 76.1976 88.8998 75.9878 88.6758 75.7673C91.3478 71.6483 93.2959 67.1028 94.4359 62.3271L95.3248 62.7396C94.1292 67.5984 92.1217 72.2205 89.3869 76.4109Z" fill="white"/>
<path d="M80.7609 21.9286C67.393 16.8085 52.8942 15.3778 38.7834 17.7863C35.9709 18.2734 33.1869 18.9099 30.3566 19.2654C30.171 19.3134 29.9773 19.3221 29.7881 19.2909C29.5989 19.2596 29.4183 19.1892 29.2579 19.0841C29.0588 18.8607 28.9476 18.5726 28.9451 18.2734C28.5077 14.0956 31.1851 10.1666 34.4136 7.40038C39.8892 2.71765 47.1746 0.289162 54.4494 0.0260477C61.7242 -0.237067 68.974 1.51229 75.6266 4.40655C77.8548 5.31823 79.9605 6.50429 81.8951 7.93726C84.9671 10.3266 87.1823 13.6085 89.0063 17.0076C89.8525 18.597 93.5433 26.0531 90.649 26.9811C89.433 27.3686 87.6445 25.5588 86.7627 24.9757C84.8803 23.7422 82.8675 22.7203 80.7609 21.9286Z" fill="#E21E26"/>
<path d="M84.4516 13.0824L84.5583 12.9793C84.6017 12.9299 84.6548 12.89 84.7143 12.8621C84.7737 12.8341 84.8383 12.8186 84.904 12.8166C84.9696 12.8146 85.035 12.8261 85.0961 12.8504C85.1571 12.8747 85.2126 12.9113 85.2589 12.9579C85.3052 13.0045 85.3415 13.0601 85.3655 13.1213C85.3895 13.1824 85.4007 13.2479 85.3983 13.3136C85.396 13.3792 85.3802 13.4437 85.3519 13.503C85.3236 13.5623 85.2834 13.6152 85.2339 13.6584L85.1272 13.765C85.0824 13.8094 85.0293 13.8445 84.9709 13.8683C84.9125 13.8921 84.85 13.9042 84.7869 13.9039C84.7238 13.9036 84.6615 13.8908 84.6033 13.8664C84.5452 13.842 84.4924 13.8063 84.4481 13.7615C84.4037 13.7167 84.3686 13.6635 84.3448 13.6051C84.321 13.5467 84.3089 13.4842 84.3092 13.4212C84.3095 13.3581 84.3223 13.2957 84.3467 13.2376C84.3712 13.1795 84.4068 13.1267 84.4516 13.0824Z" fill="white"/>
<path d="M80.2061 8.9898C80.0788 8.9898 79.9567 8.93923 79.8667 8.84921C79.7766 8.75919 79.7261 8.6371 79.7261 8.50979C79.7261 8.38249 79.7766 8.2604 79.8667 8.17038C79.9567 8.08036 80.0788 8.02979 80.2061 8.02979C80.3334 8.02979 80.4555 8.08036 80.5455 8.17038C80.6355 8.2604 80.6861 8.38249 80.6861 8.50979C80.6861 8.6371 80.6355 8.75919 80.5455 8.84921C80.4555 8.93923 80.3334 8.9898 80.2061 8.9898Z" fill="white"/>
<path d="M75.9359 10.9059C75.8153 10.8956 75.7029 10.8403 75.6211 10.7511C75.5392 10.6619 75.4938 10.5452 75.4938 10.4242C75.4938 10.3031 75.5392 10.1864 75.6211 10.0972C75.7029 10.008 75.8153 9.95276 75.9359 9.94238C76.0565 9.95276 76.1689 10.008 76.2508 10.0972C76.3326 10.1864 76.378 10.3031 76.378 10.4242C76.378 10.5452 76.3326 10.6619 76.2508 10.7511C76.1689 10.8403 76.0565 10.8956 75.9359 10.9059Z" fill="white"/>
<path d="M72.3695 5.29934V5.51268C72.3753 5.57943 72.3671 5.64663 72.3455 5.71005C72.3239 5.77346 72.2893 5.8317 72.244 5.88106C72.1987 5.93042 72.1437 5.96983 72.0823 5.99679C72.021 6.02375 71.9547 6.03767 71.8877 6.03767C71.8207 6.03767 71.7545 6.02375 71.6932 5.99679C71.6318 5.96983 71.5767 5.93042 71.5315 5.88106C71.4862 5.8317 71.4516 5.77346 71.43 5.71005C71.4084 5.64663 71.4002 5.57943 71.406 5.51268C71.406 5.44157 71.406 5.37046 71.406 5.29934C71.4078 5.17261 71.459 5.05158 71.5486 4.96196C71.6382 4.87234 71.7592 4.82117 71.8859 4.81934C72.0127 4.82296 72.1333 4.87517 72.2226 4.96518C72.312 5.05519 72.3633 5.17611 72.366 5.3029L72.3695 5.29934Z" fill="white"/>
<path d="M68.5225 9.25269V9.14602C68.5225 9.01872 68.573 8.89662 68.663 8.8066C68.7531 8.71658 68.8752 8.66602 69.0025 8.66602C69.1298 8.66602 69.2519 8.71658 69.3419 8.8066C69.4319 8.89662 69.4825 9.01872 69.4825 9.14602V9.25269C69.4825 9.37999 69.4319 9.50208 69.3419 9.5921C69.2519 9.68212 69.1298 9.7327 69.0025 9.7327C68.8752 9.7327 68.7531 9.68212 68.663 9.5921C68.573 9.50208 68.5225 9.37999 68.5225 9.25269Z" fill="white"/>
<path d="M65.0594 4.70172C64.9321 4.70172 64.8099 4.65114 64.7199 4.56112C64.6299 4.4711 64.5793 4.34901 64.5793 4.22171C64.5793 4.0944 64.6299 3.97231 64.7199 3.88229C64.8099 3.79227 64.9321 3.7417 65.0594 3.7417C65.1867 3.7417 65.3088 3.79227 65.3988 3.88229C65.4888 3.97231 65.5394 4.0944 65.5394 4.22171C65.5394 4.34901 65.4888 4.4711 65.3988 4.56112C65.3088 4.65114 65.1867 4.70172 65.0594 4.70172Z" fill="white"/>
<path d="M60.7856 7.7915H60.8922C61.0195 7.7915 61.1416 7.84207 61.2316 7.93209C61.3217 8.02211 61.3722 8.1442 61.3722 8.2715C61.3722 8.39881 61.3217 8.5209 61.2316 8.61092C61.1416 8.70093 61.0195 8.75151 60.8922 8.75151H60.7856C60.6583 8.75151 60.5362 8.70093 60.4461 8.61092C60.3561 8.5209 60.3055 8.39881 60.3055 8.2715C60.3055 8.1442 60.3561 8.02211 60.4461 7.93209C60.5362 7.84207 60.6583 7.7915 60.7856 7.7915Z" fill="white"/>
<path d="M57.3756 4.90434C57.2483 4.90434 57.1262 4.85378 57.0362 4.76376C56.9462 4.67374 56.8956 4.55165 56.8956 4.42434C56.8956 4.29704 56.9462 4.17494 57.0362 4.08492C57.1262 3.9949 57.2483 3.94434 57.3756 3.94434C57.5029 3.94434 57.625 3.9949 57.715 4.08492C57.8051 4.17494 57.8556 4.29704 57.8556 4.42434C57.8556 4.55165 57.8051 4.67374 57.715 4.76376C57.625 4.85378 57.5029 4.90434 57.3756 4.90434Z" fill="white"/>
<path d="M52.6715 8.63433C52.5442 8.63433 52.4221 8.58376 52.3321 8.49374C52.2421 8.40372 52.1915 8.28163 52.1915 8.15433C52.1915 8.02702 52.2421 7.90493 52.3321 7.81491C52.4221 7.72489 52.5442 7.67432 52.6715 7.67432C52.7988 7.67432 52.9209 7.72489 53.0109 7.81491C53.101 7.90493 53.1515 8.02702 53.1515 8.15433C53.1515 8.28163 53.101 8.40372 53.0109 8.49374C52.9209 8.58376 52.7988 8.63433 52.6715 8.63433Z" fill="white"/>
<path d="M49.9623 3.45364V3.56031C49.9623 3.68761 49.9118 3.8097 49.8218 3.89972C49.7317 3.98974 49.6096 4.04031 49.4823 4.04031C49.355 4.04031 49.2329 3.98974 49.1429 3.89972C49.0529 3.8097 49.0023 3.68761 49.0023 3.56031V3.45364C49.0023 3.32634 49.0529 3.20425 49.1429 3.11423C49.2329 3.02421 49.355 2.97363 49.4823 2.97363C49.6096 2.97363 49.7317 3.02421 49.8218 3.11423C49.9118 3.20425 49.9623 3.32634 49.9623 3.45364Z" fill="white"/>
<path d="M45.2047 8.18609C45.0774 8.18609 44.9553 8.13552 44.8653 8.0455C44.7753 7.95548 44.7247 7.83339 44.7247 7.70608C44.7247 7.57878 44.7753 7.45669 44.8653 7.36667C44.9553 7.27665 45.0774 7.22607 45.2047 7.22607C45.332 7.22607 45.4541 7.27665 45.5441 7.36667C45.6342 7.45669 45.6847 7.57878 45.6847 7.70608C45.6847 7.83339 45.6342 7.95548 45.5441 8.0455C45.4541 8.13552 45.332 8.18609 45.2047 8.18609Z" fill="white"/>
<path d="M42.3853 4.19289V4.29956C42.3853 4.42687 42.3347 4.54896 42.2447 4.63898C42.1547 4.729 42.0326 4.77957 41.9053 4.77957C41.778 4.77957 41.6559 4.729 41.5659 4.63898C41.4759 4.54896 41.4253 4.42687 41.4253 4.29956V4.19289C41.4271 4.06615 41.4783 3.94513 41.5679 3.8555C41.6575 3.76588 41.7786 3.71473 41.9053 3.71289C42.0321 3.71651 42.1526 3.76873 42.2419 3.85874C42.3313 3.94875 42.3826 4.06965 42.3853 4.19645V4.19289Z" fill="white"/>
<path d="M36.4545 8.39947C36.3272 8.39947 36.2051 8.34889 36.1151 8.25888C36.0251 8.16886 35.9745 8.04677 35.9745 7.91946C35.9745 7.79216 36.0251 7.67007 36.1151 7.58005C36.2051 7.49003 36.3272 7.43945 36.4545 7.43945C36.5818 7.43945 36.7039 7.49003 36.7939 7.58005C36.8839 7.67007 36.9345 7.79216 36.9345 7.91946C36.9345 8.04677 36.8839 8.16886 36.7939 8.25888C36.7039 8.34889 36.5818 8.39947 36.4545 8.39947Z" fill="white"/>
<path d="M60.5473 10.1665C66.7341 10.4688 72.6363 11.2332 78.5102 13.2208C81.5005 14.2306 84.4232 15.4182 87.3352 16.6235C87.9574 16.8795 88.5797 17.1355 89.1983 17.4022C89.369 17.7364 89.5859 18.1773 89.8241 18.6858C88.3806 18.0244 86.8837 17.4626 85.4365 16.8724C82.8836 15.8306 80.3165 14.8208 77.696 13.9604C71.8719 12.051 66.0194 11.3897 59.918 11.0981C54.0583 10.8172 48.156 10.323 42.2893 10.387C38.1523 10.4191 34.0514 11.16 30.1647 12.5772C30.3964 12.1379 30.6503 11.7107 30.9256 11.2972C34.398 10.1392 38.0252 9.51107 41.6848 9.43409C47.9605 9.29897 54.2859 9.86431 60.5473 10.1665Z" fill="white"/>
<path d="M29.1761 15.1588C46.243 10.1489 64.7499 10.9987 81.607 16.5561C84.5226 17.5197 87.8364 18.501 90.496 20.2575C90.7094 20.7837 90.9156 21.3242 91.0934 21.8824C89.5716 20.6415 87.712 19.8202 85.8666 19.1019C83.0541 18.0068 80.1777 17.0575 77.2799 16.2575C71.4122 14.6016 65.3954 13.5298 59.3169 13.0574C49.0911 12.2426 38.8027 13.3177 28.9663 16.229C29.0147 15.8684 29.0848 15.511 29.1761 15.1588Z" fill="white"/>
<path d="M81.472 13.1179C80.1868 11.2702 78.7501 9.53265 77.1768 7.92315L74.1048 10.2414C73.9939 10.303 73.8634 10.3193 73.7408 10.2868C73.6181 10.2543 73.5128 10.1756 73.447 10.0672C72.4382 8.40597 70.9932 7.0532 69.2691 6.15601C68.0933 7.47306 66.5891 8.4546 64.91 9.00049C64.8082 9.02764 64.7003 9.0208 64.6027 8.98101C64.5052 8.94121 64.4233 8.87065 64.3695 8.78005C63.7932 7.46447 63.033 6.23739 62.1117 5.13556C61.109 6.52935 59.509 8.29649 57.8983 8.60227C57.1623 8.74094 56.757 8.47427 56.2308 8.01204C55.1214 7.03069 54.0974 5.91422 53.0592 4.84754C51.9166 6.33712 50.4242 7.52178 48.7142 8.29648C48.65 8.33264 48.5784 8.35387 48.5049 8.35858C48.4313 8.36329 48.3576 8.35138 48.2893 8.32371C48.221 8.29604 48.1598 8.25332 48.1102 8.19875C48.0607 8.14418 48.0241 8.07915 48.0031 8.00848C47.7254 6.81362 47.386 5.63395 46.9862 4.47421C45.0739 5.94067 42.989 7.16702 40.7781 8.12581C40.667 8.18655 40.5368 8.20235 40.4144 8.16993C40.292 8.13751 40.1868 8.05936 40.1203 7.95159C39.5473 6.8239 38.8788 5.74737 38.1221 4.73377C38.3959 4.56666 38.6696 4.39954 38.9505 4.2431C39.6196 5.14559 40.2209 6.09635 40.7496 7.08758C42.9427 6.10107 45.0033 4.84323 46.8831 3.34353C46.9434 3.28585 47.0175 3.24463 47.0984 3.22384C47.1792 3.20306 47.264 3.20339 47.3447 3.22481C47.4254 3.24623 47.4992 3.28801 47.559 3.34615C47.6189 3.4043 47.6629 3.47686 47.6866 3.55687C48.1157 4.74617 48.4836 5.95665 48.7889 7.18358C50.3082 6.40253 51.615 5.2641 52.5969 3.8662C52.635 3.804 52.6866 3.75115 52.7478 3.71155C52.8091 3.67194 52.8784 3.64661 52.9508 3.63739C53.0231 3.62818 53.0966 3.63532 53.1658 3.65831C53.2351 3.6813 53.2982 3.71953 53.3507 3.77019L55.3525 5.772C55.9534 6.3729 56.8992 7.74892 57.877 7.56759C59.349 7.29025 60.8957 5.24933 61.6495 4.10798C61.6871 4.04525 61.7385 3.99186 61.7997 3.95186C61.861 3.91185 61.9305 3.88627 62.0031 3.87703C62.0756 3.86779 62.1494 3.87513 62.2187 3.89851C62.288 3.92188 62.3511 3.96068 62.4033 4.01198C63.4661 5.17913 64.3504 6.49712 65.0273 7.92315C66.5079 7.36012 67.8157 6.42002 68.8211 5.196C68.8964 5.12203 68.9937 5.0747 69.0984 5.06122C69.203 5.04774 69.3092 5.06885 69.4007 5.12133C71.2557 6.01748 72.8361 7.39523 73.9768 9.11072L76.9884 6.84224C77.0801 6.78829 77.1871 6.76634 77.2927 6.77986C77.3982 6.79338 77.4963 6.84158 77.5715 6.91691C79.1247 8.49236 80.5513 10.1877 81.8382 11.9872C82.3834 11.0983 82.9677 10.2402 83.5911 9.41295C83.8222 9.6405 84.0427 9.87162 84.2631 10.1241C83.5488 11.0786 82.8899 12.0734 82.2898 13.1037C82.2462 13.1719 82.1864 13.2283 82.1157 13.2679C82.045 13.3074 81.9657 13.3289 81.8847 13.3303C81.8037 13.3317 81.7236 13.313 81.6516 13.276C81.5796 13.2389 81.5179 13.1846 81.472 13.1179Z" fill="white"/>
<path d="M94.7557 35.8774C95.7868 37.7263 97.0917 39.433 97.7779 41.4419C98.4642 43.4508 98.3931 45.8935 96.9033 47.394C96.3787 47.8826 95.7548 48.2521 95.0743 48.4773C94.3937 48.7026 93.6726 48.7781 92.9601 48.6989C91.5335 48.5285 90.1695 48.0149 88.9849 47.202C87.6515 46.3811 86.5142 45.2779 85.6533 43.9699C84.8442 42.5797 84.3107 41.0465 84.0818 39.4543C83.2649 34.7159 83.8584 29.842 85.7885 25.4381C86.9654 22.7679 91.0792 21.5554 91.6872 25.1466C92.3343 28.9404 92.8499 32.4498 94.7557 35.8774Z" fill="#E21E26"/>
<path d="M85.4897 43.6887C85.1205 43.0338 84.8225 42.3413 84.6008 41.6229C88.3129 45.7048 94.8765 45.143 97.4401 40.5918C97.5646 40.8691 97.6783 41.15 97.7957 41.4416C97.8277 41.534 97.8561 41.63 97.8846 41.726C95.1432 45.6479 89.5005 46.4799 85.4897 43.6887Z" fill="white"/>
<path d="M89.0882 37.6087C87.1397 37.4025 85.2161 36.8976 83.7299 35.7242C83.7299 35.2976 83.7299 34.8709 83.7299 34.4478C85.2232 35.998 87.4455 36.5136 89.6144 36.6985C91.3673 36.8478 93.3691 37.054 95.0687 36.446L95.5594 37.2602C93.5611 38.0531 91.2215 37.8362 89.0882 37.6087Z" fill="white"/>
<path d="M90.2899 41.1111C92.6579 41.3386 95.0117 40.4568 96.4162 38.6221C96.5904 38.9173 96.7717 39.2159 96.9175 39.5146C96.2163 40.3065 95.3585 40.9445 94.3983 41.3882C93.4381 41.8319 92.3963 42.0717 91.3388 42.0924C88.5832 42.1813 86.112 41.0008 84.0605 39.287C83.9787 38.8035 83.9111 38.3128 83.8578 37.8257C85.632 39.5537 87.7689 40.8728 90.2899 41.1111Z" fill="white"/>
<path d="M96.9993 44.4537C96.872 44.4537 96.7499 44.4031 96.6599 44.3131C96.5699 44.2231 96.5193 44.101 96.5193 43.9737C96.5193 43.8464 96.5699 43.7243 96.6599 43.6342C96.7499 43.5442 96.872 43.4937 96.9993 43.4937C97.1266 43.4937 97.2487 43.5442 97.3387 43.6342C97.4287 43.7243 97.4793 43.8464 97.4793 43.9737C97.4793 44.101 97.4287 44.2231 97.3387 44.3131C97.2487 44.4031 97.1266 44.4537 96.9993 44.4537Z" fill="white"/>
<path d="M95.609 46.4659H95.5024C95.3751 46.4659 95.253 46.4153 95.1629 46.3253C95.0729 46.2353 95.0223 46.1132 95.0223 45.9859C95.0223 45.8586 95.0729 45.7365 95.1629 45.6465C95.253 45.5564 95.3751 45.5059 95.5024 45.5059H95.609C95.7358 45.5077 95.8568 45.5589 95.9464 45.6485C96.036 45.7381 96.0872 45.8591 96.089 45.9859C96.0854 46.1126 96.0332 46.2332 95.9432 46.3225C95.8532 46.4119 95.7323 46.4632 95.6055 46.4659H95.609Z" fill="white"/>
<path d="M92.8499 47.209H92.7432C92.6159 47.209 92.4938 47.1585 92.4038 47.0684C92.3138 46.9784 92.2632 46.8563 92.2632 46.729C92.2632 46.6017 92.3138 46.4796 92.4038 46.3896C92.4938 46.2996 92.6159 46.249 92.7432 46.249H92.8499C92.9772 46.249 93.0993 46.2996 93.1893 46.3896C93.2793 46.4796 93.3299 46.6017 93.3299 46.729C93.3299 46.8563 93.2793 46.9784 93.1893 47.0684C93.0993 47.1585 92.9772 47.209 92.8499 47.209Z" fill="white"/>
<path d="M89.849 46.8853C89.7217 46.8853 89.5996 46.8347 89.5096 46.7447C89.4196 46.6547 89.369 46.5326 89.369 46.4053C89.369 46.278 89.4196 46.1559 89.5096 46.0659C89.5996 45.9759 89.7217 45.9253 89.849 45.9253C89.9763 45.9253 90.0984 45.9759 90.1884 46.0659C90.2784 46.1559 90.329 46.278 90.329 46.4053C90.329 46.5326 90.2784 46.6547 90.1884 46.7447C90.0984 46.8347 89.9763 46.8853 89.849 46.8853Z" fill="white"/>
<path d="M92.4125 43.6851C92.2852 43.6851 92.1631 43.6345 92.0731 43.5445C91.9831 43.4545 91.9325 43.3324 91.9325 43.2051C91.9325 43.0778 91.9831 42.9557 92.0731 42.8657C92.1631 42.7757 92.2852 42.7251 92.4125 42.7251C92.5398 42.7251 92.6619 42.7757 92.7519 42.8657C92.8419 42.9557 92.8925 43.0778 92.8925 43.2051C92.8925 43.3324 92.8419 43.4545 92.7519 43.5445C92.6619 43.6345 92.5398 43.6851 92.4125 43.6851Z" fill="white"/>
<path d="M89.8526 43.5753C89.7253 43.5753 89.6032 43.5247 89.5132 43.4347C89.4231 43.3446 89.3726 43.2225 89.3726 43.0952C89.3726 42.9679 89.4231 42.8458 89.5132 42.7558C89.6032 42.6658 89.7253 42.6152 89.8526 42.6152C89.9799 42.6152 90.102 42.6658 90.192 42.7558C90.282 42.8458 90.3326 42.9679 90.3326 43.0952C90.3326 43.2225 90.282 43.3446 90.192 43.4347C90.102 43.5247 89.9799 43.5753 89.8526 43.5753Z" fill="white"/>
<path d="M86.6525 42.7183C86.5252 42.7183 86.4031 42.6677 86.3131 42.5777C86.2231 42.4877 86.1725 42.3656 86.1725 42.2383C86.1725 42.111 86.2231 41.9889 86.3131 41.8989C86.4031 41.8089 86.5252 41.7583 86.6525 41.7583C86.7798 41.7583 86.9019 41.8089 86.9919 41.8989C87.0819 41.9889 87.1325 42.111 87.1325 42.2383C87.1325 42.3656 87.0819 42.4877 86.9919 42.5777C86.9019 42.6677 86.7798 42.7183 86.6525 42.7183Z" fill="white"/>
<path d="M93.7174 39.4931L93.6108 39.5998C93.5194 39.6874 93.3978 39.7363 93.2712 39.7363C93.1447 39.7363 93.023 39.6874 92.9316 39.5998C92.8424 39.5093 92.7924 39.3873 92.7924 39.2602C92.7924 39.1331 92.8424 39.0111 92.9316 38.9207L93.0383 38.814C93.1284 38.7239 93.2505 38.6733 93.3779 38.6733C93.5052 38.6733 93.6274 38.7239 93.7174 38.814C93.8075 38.9041 93.8581 39.0262 93.8581 39.1536C93.8581 39.2809 93.8075 39.4031 93.7174 39.4931Z" fill="white"/>
<path d="M90.9229 40.1617H90.8162C90.6892 40.1607 90.5676 40.1099 90.4778 40.0201C90.388 39.9302 90.3371 39.8087 90.3362 39.6817C90.3389 39.5552 90.3903 39.4347 90.4798 39.3453C90.5692 39.2558 90.6897 39.2044 90.8162 39.2017H90.9229C91.0502 39.2017 91.1723 39.2522 91.2623 39.3422C91.3523 39.4323 91.4029 39.5544 91.4029 39.6817C91.4029 39.809 91.3523 39.9311 91.2623 40.0211C91.1723 40.1111 91.0502 40.1617 90.9229 40.1617Z" fill="white"/>
<path d="M88.1493 39.4117H88.0426C87.9156 39.4107 87.7941 39.3599 87.7042 39.2701C87.6144 39.1802 87.5636 39.0587 87.5626 38.9317C87.5653 38.8052 87.6168 38.6847 87.7062 38.5953C87.7957 38.5058 87.9162 38.4544 88.0426 38.4517H88.1493C88.2766 38.4517 88.3987 38.5022 88.4887 38.5923C88.5787 38.6823 88.6293 38.8044 88.6293 38.9317C88.6293 39.059 88.5787 39.1811 88.4887 39.2711C88.3987 39.3611 88.2766 39.4117 88.1493 39.4117Z" fill="white"/>
<path d="M48.1843 70.267C48.1843 71.5648 49.3292 72.6172 50.7444 72.6208C52.1595 72.6243 53.3079 71.5541 53.3079 70.2741C53.3079 68.9941 52.163 67.9274 50.7515 67.9238C49.3399 67.9203 48.1879 68.987 48.1843 70.267Z" fill="black"/>
<path d="M53.9042 84.3436C53.9058 83.0476 52.7609 81.9955 51.347 81.9938C49.9331 81.9921 48.7857 83.0413 48.7841 84.3374C48.7825 85.6334 49.9274 86.6855 51.3413 86.6872C52.7551 86.6889 53.9026 85.6397 53.9042 84.3436Z" fill="black"/>
<path d="M1.09037 53.0861C3.54848 52.4438 6.02437 51.9081 8.51803 51.479C8.51803 49.3314 8.51803 47.1827 8.51803 45.0327C8.51803 43.1305 11.3376 43.2087 11.3412 45.1109C11.3412 47.396 11.3412 49.6823 11.3412 51.9697C16.0991 55.4705 20.6585 59.2334 24.9982 63.241C26.3636 64.4996 24.2871 66.5263 22.9467 65.2748C18.6998 61.3612 14.2351 57.6907 9.57403 54.2808C6.95 54.7265 4.34256 55.2859 1.75171 55.9591C-0.00476211 56.4249 -0.662543 53.5519 1.09037 53.0861Z" fill="#603813"/>
<path d="M60.5436 25.0184C60.5346 25.3503 60.6242 25.6774 60.8011 25.9584C60.978 26.2394 61.2343 26.4615 61.5376 26.5968C61.8408 26.732 62.1773 26.7743 62.5046 26.7182C62.8319 26.6622 63.1351 26.5103 63.3761 26.2818C63.617 26.0533 63.7847 25.7585 63.858 25.4347C63.9313 25.1109 63.907 24.7726 63.788 24.4626C63.669 24.1526 63.4607 23.8849 63.1895 23.6934C62.9183 23.5018 62.5964 23.395 62.2645 23.3864C62.0443 23.3802 61.825 23.4176 61.6192 23.4964C61.4134 23.5751 61.2252 23.6937 61.0654 23.8453C60.9055 23.9969 60.7771 24.1785 60.6876 24.3799C60.598 24.5812 60.5491 24.7982 60.5436 25.0184Z" fill="#231F20"/>
<path d="M63.5434 42.768C64.2636 42.1846 64.3745 41.1278 63.7911 40.4076C63.2077 39.6874 62.1508 39.5765 61.4306 40.1599C60.7104 40.7434 60.5995 41.8002 61.183 42.5204C61.7664 43.2406 62.8232 43.3515 63.5434 42.768Z" fill="#BCBEC0"/>
<path d="M57.0663 44.3716C57.0348 44.7011 57.1018 45.0325 57.2586 45.324C57.4154 45.6156 57.6551 45.854 57.9474 46.0094C58.2397 46.1648 58.5714 46.23 58.9008 46.197C59.2301 46.1639 59.5423 46.0339 59.7979 45.8235C60.0534 45.6131 60.2408 45.3317 60.3366 45.0149C60.4323 44.698 60.4319 44.3599 60.3356 44.0432C60.2392 43.7265 60.0512 43.4455 59.7952 43.2356C59.5393 43.0257 59.2269 42.8964 58.8974 42.864C58.6781 42.8424 58.4567 42.8643 58.2459 42.9285C58.0351 42.9926 57.8391 43.0977 57.669 43.2378C57.4989 43.3778 57.3581 43.5501 57.2547 43.7446C57.1512 43.9392 57.0872 44.1522 57.0663 44.3716Z" fill="#BCBEC0"/>
<path d="M52.2307 45.4238C52.1993 45.7534 52.2662 46.0848 52.423 46.3763C52.5798 46.6678 52.8195 46.9063 53.1118 47.0617C53.4041 47.217 53.7359 47.2823 54.0652 47.2492C54.3946 47.2161 54.7067 47.0862 54.9623 46.8758C55.2178 46.6654 55.4053 46.384 55.501 46.0671C55.5967 45.7502 55.5964 45.4121 55.5 45.0954C55.4037 44.7788 55.2156 44.4977 54.9597 44.2879C54.7037 44.078 54.3913 43.9487 54.0618 43.9163C53.8426 43.8947 53.6212 43.9166 53.4104 43.9807C53.1996 44.0449 53.0035 44.15 52.8334 44.29C52.6633 44.4301 52.5225 44.6023 52.4191 44.7969C52.3156 44.9914 52.2516 45.2045 52.2307 45.4238Z" fill="#BCBEC0"/>
<path d="M47.5159 44.4038C47.4844 44.7333 47.5514 45.0648 47.7082 45.3563C47.865 45.6478 48.1047 45.8863 48.397 46.0416C48.6892 46.197 49.021 46.2623 49.3504 46.2292C49.6797 46.1961 49.9919 46.0661 50.2474 45.8558C50.503 45.6454 50.6904 45.364 50.7861 45.0471C50.8819 44.7302 50.8815 44.3921 50.7852 44.0754C50.6888 43.7587 50.5008 43.4777 50.2448 43.2678C49.9888 43.058 49.6764 42.9287 49.347 42.8962C49.1277 42.8747 48.9063 42.8966 48.6955 42.9607C48.4847 43.0248 48.2887 43.1299 48.1186 43.27C47.9484 43.41 47.8076 43.5823 47.7042 43.7768C47.6008 43.9714 47.5368 44.1845 47.5159 44.4038Z" fill="#BCBEC0"/>
<path d="M43.5337 41.6089C43.5015 41.9392 43.568 42.2716 43.7247 42.5641C43.8814 42.8566 44.1214 43.0961 44.4142 43.2523C44.707 43.4084 45.0395 43.4743 45.3697 43.4415C45.7 43.4088 46.0131 43.2788 46.2695 43.0682C46.5259 42.8575 46.714 42.5755 46.8102 42.2579C46.9064 41.9403 46.9062 41.6013 46.8098 41.2838C46.7134 40.9662 46.525 40.6844 46.2684 40.474C46.0118 40.2635 45.6986 40.1338 45.3684 40.1013C45.1489 40.0797 44.9273 40.1016 44.7163 40.1657C44.5052 40.2298 44.3089 40.3348 44.1385 40.4749C43.9682 40.6149 43.827 40.7871 43.7232 40.9817C43.6194 41.1763 43.555 41.3894 43.5337 41.6089Z" fill="#BCBEC0"/>
<path d="M46.9825 24.3249C46.9728 24.657 47.0618 24.9844 47.2383 25.2658C47.4148 25.5472 47.6708 25.7699 47.974 25.9057C48.2771 26.0415 48.6137 26.0843 48.9412 26.0287C49.2687 25.973 49.5723 25.8214 49.8136 25.5931C50.0548 25.3648 50.2229 25.07 50.2966 24.7461C50.3702 24.4222 50.346 24.0837 50.2272 23.7736C50.1083 23.4634 49.9 23.1955 49.6288 23.0037C49.3575 22.812 49.0355 22.705 48.7035 22.6965C48.4835 22.6903 48.2645 22.7275 48.059 22.8061C47.8534 22.8846 47.6654 23.0029 47.5055 23.1541C47.3457 23.3053 47.2173 23.4866 47.1275 23.6875C47.0378 23.8884 46.9885 24.105 46.9825 24.3249Z" fill="#231F20"/>
</svg>
