<svg width="300" height="298" viewBox="0 0 300 298" fill="none" xmlns="http://www.w3.org/2000/svg">
<path d="M297.977 157.243C291.923 154.149 285.752 151.325 279.463 148.772C280.702 143.15 281.944 137.531 283.189 131.916C284.294 126.932 276.862 125.522 275.757 130.496L271.783 148.438C257.337 154.864 243.257 162.085 229.61 170.068C225.322 172.574 229.562 179.063 233.821 176.576C247.176 168.762 260.964 161.712 275.118 155.461C281.737 158.116 288.236 161.07 294.614 164.322C298.93 166.552 302.332 159.425 297.977 157.243Z" fill="#603813"/>
<path d="M58.648 75.2118C55.3321 81.5483 54.2077 88.9615 53.6169 96.2318C53.2262 101.158 53.0738 106.265 54.6936 110.877C56.3135 115.489 60.1249 119.51 64.6415 119.672C67.3666 119.777 70.006 118.491 72.2643 116.814C81.8787 109.486 84.7563 95.5934 86.843 82.9871C87.6339 78.2228 91.9694 37.0594 82.0787 42.8146C78.5818 44.8442 76.0472 54.2489 73.1791 57.6506C68.2052 63.444 62.307 68.2369 58.648 75.2118Z" fill="#E21E26"/>
<path d="M81.8307 97.2897C77.3142 100.625 69.253 95.384 65.2605 93.0114C61.6096 90.8584 58.2009 88.3187 55.0935 85.4362C55.3031 84.4834 55.5414 83.5305 55.7987 82.5776C58.0562 84.7801 60.498 86.7852 63.0975 88.5711C66.4135 90.8484 76.5328 98.0139 80.5348 95.0601C81.9165 94.0786 83.1456 96.3178 81.8307 97.2897Z" fill="white"/>
<path d="M61.6586 111.64C58.7786 110.406 56.0973 108.753 53.7023 106.733C53.5191 105.47 53.4141 104.197 53.3878 102.921C57.4582 107.038 62.6574 109.857 68.3286 111.021C71.3753 111.699 74.5304 111.731 77.5904 111.116C76.8325 112.191 75.9982 113.21 75.0939 114.165C70.4853 114.309 65.9007 113.447 61.6586 111.64V111.64Z" fill="white"/>
<path d="M60.5917 99.8915C58.0874 98.7139 55.7669 97.1798 53.7025 95.3368C53.7883 94.2792 53.893 93.2215 54.0169 92.1733C55.9347 94.1475 58.162 95.7954 60.6107 97.052C66.9854 100.292 74.9036 103.913 82.1739 102.074H82.2787C81.9166 103.026 81.526 103.979 81.1067 104.932C73.9984 105.999 66.9663 102.931 60.5917 99.8915Z" fill="white"/>
<path d="M78.3624 90.9825L78.6482 90.6967C78.7646 90.5645 78.9068 90.4576 79.0661 90.3826C79.2255 90.3077 79.3986 90.2662 79.5746 90.2609C79.7506 90.2555 79.9258 90.2863 80.0894 90.3514C80.253 90.4165 80.4015 90.5146 80.5257 90.6394C80.6499 90.7643 80.7472 90.9133 80.8114 91.0772C80.8757 91.2412 80.9056 91.4166 80.8993 91.5926C80.893 91.7686 80.8507 91.9414 80.7749 92.1003C80.6991 92.2593 80.5914 92.401 80.4586 92.5166L80.1728 92.8025C80.0564 92.9346 79.9142 93.0415 79.7549 93.1165C79.5955 93.1914 79.4225 93.2329 79.2464 93.2383C79.0704 93.2436 78.8952 93.2128 78.7316 93.1477C78.568 93.0826 78.4195 92.9845 78.2953 92.8597C78.1711 92.7348 78.0739 92.5858 78.0096 92.4219C77.9453 92.2579 77.9154 92.0825 77.9217 91.9065C77.928 91.7306 77.9704 91.5577 78.0462 91.3988C78.122 91.2398 78.2296 91.0982 78.3624 90.9825V90.9825Z" fill="white"/>
<path d="M71.9021 91.4956C71.5609 91.4956 71.2337 91.36 70.9925 91.1188C70.7512 90.8776 70.6157 90.5504 70.6157 90.2092C70.6157 89.8681 70.7512 89.5409 70.9925 89.2996C71.2337 89.0584 71.5609 88.9229 71.9021 88.9229C72.2432 88.9229 72.5704 89.0584 72.8116 89.2996C73.0529 89.5409 73.1885 89.8681 73.1885 90.2092C73.1885 90.5504 73.0529 90.8776 72.8116 91.1188C72.5704 91.36 72.2432 91.4956 71.9021 91.4956V91.4956Z" fill="white"/>
<path d="M67.3762 106.867H67.6716C68.0103 106.872 68.3336 107.009 68.5723 107.25C68.8109 107.49 68.946 107.814 68.9484 108.153C68.9435 108.493 68.8064 108.817 68.5662 109.057C68.326 109.297 68.0017 109.434 67.662 109.439H67.3762C67.0358 109.437 66.71 109.301 66.4693 109.06C66.2286 108.819 66.0923 108.493 66.0898 108.153C66.0971 107.814 66.235 107.491 66.4747 107.252C66.7144 107.012 67.0373 106.874 67.3762 106.867V106.867Z" fill="white"/>
<path d="M61.6208 103.359H61.9067C62.2471 103.361 62.5728 103.497 62.8135 103.738C63.0542 103.979 63.1905 104.305 63.193 104.645C63.1857 104.984 63.0478 105.307 62.8082 105.547C62.5685 105.786 62.2455 105.924 61.9067 105.931H61.6208C61.2975 105.904 60.9965 105.755 60.7771 105.516C60.5577 105.277 60.4359 104.965 60.4359 104.64C60.4359 104.316 60.5577 104.003 60.7771 103.764C60.9965 103.525 61.2975 103.377 61.6208 103.349V103.359Z" fill="white"/>
<path d="M63.9268 94.8989H64.2127C64.5538 94.8989 64.881 95.0344 65.1223 95.2757C65.3635 95.5169 65.4991 95.8441 65.4991 96.1853C65.4991 96.5265 65.3635 96.8536 65.1223 97.0949C64.881 97.3361 64.5538 97.4716 64.2127 97.4716H63.9268C63.5872 97.4667 63.2629 97.3296 63.0227 97.0894C62.7825 96.8492 62.6454 96.5249 62.6405 96.1853C62.6502 95.8456 62.7901 95.5225 63.0313 95.2831C63.2725 95.0436 63.5966 94.9061 63.9364 94.8989H63.9268Z" fill="white"/>
<path d="M58.6384 91.5439H58.9243C59.2647 91.5464 59.5904 91.6828 59.8311 91.9235C60.0718 92.1642 60.2081 92.4899 60.2106 92.8303C60.2009 93.17 60.061 93.493 59.8198 93.7325C59.5786 93.9719 59.2545 94.1095 58.9148 94.1167H58.6289C58.2902 94.1117 57.9669 93.9743 57.7282 93.7338C57.4896 93.4934 57.3545 93.1691 57.3521 92.8303C57.357 92.4907 57.4941 92.1663 57.7343 91.9262C57.9744 91.686 58.2988 91.5489 58.6384 91.5439V91.5439Z" fill="white"/>
<path d="M56.1892 100.664H56.475C56.8154 100.667 57.1412 100.803 57.3819 101.044C57.6226 101.284 57.7589 101.61 57.7614 101.95C57.7541 102.289 57.6163 102.612 57.3766 102.852C57.1369 103.092 56.8139 103.23 56.475 103.237H56.1892C55.848 103.237 55.5208 103.101 55.2796 102.86C55.0383 102.619 54.9028 102.292 54.9028 101.95C54.9028 101.609 55.0383 101.282 55.2796 101.041C55.5208 100.8 55.848 100.664 56.1892 100.664Z" fill="white"/>
<path d="M64.2887 85.0259H64.5745C64.9157 85.0259 65.2428 85.1614 65.4841 85.4027C65.7253 85.6439 65.8609 85.9711 65.8609 86.3122C65.8609 86.6534 65.7253 86.9806 65.4841 87.2218C65.2428 87.4631 64.9157 87.5986 64.5745 87.5986H64.2887C63.9475 87.5986 63.6203 87.4631 63.3791 87.2218C63.1378 86.9806 63.0023 86.6534 63.0023 86.3122C63.0023 85.9711 63.1378 85.6439 63.3791 85.4027C63.6203 85.1614 63.9475 85.0259 64.2887 85.0259Z" fill="white"/>
<path d="M72.9691 100.605C72.6279 100.605 72.3007 100.47 72.0595 100.229C71.8182 99.9874 71.6827 99.6602 71.6827 99.3191C71.6827 98.9779 71.8182 98.6507 72.0595 98.4095C72.3007 98.1683 72.6279 98.0327 72.9691 98.0327C73.3102 98.0327 73.6374 98.1683 73.8787 98.4095C74.1199 98.6507 74.2555 98.9779 74.2555 99.3191C74.2555 99.6602 74.1199 99.9874 73.8787 100.229C73.6374 100.47 73.3102 100.605 72.9691 100.605Z" fill="white"/>
<path d="M74.2937 110.773H74.0078C73.6667 110.773 73.3395 110.637 73.0982 110.396C72.857 110.155 72.7214 109.828 72.7214 109.487C72.7214 109.145 72.857 108.818 73.0982 108.577C73.3395 108.336 73.6667 108.2 74.0078 108.2H74.2937C74.6348 108.2 74.962 108.336 75.2033 108.577C75.4445 108.818 75.58 109.145 75.58 109.487C75.58 109.828 75.4445 110.155 75.2033 110.396C74.962 110.637 74.6348 110.773 74.2937 110.773V110.773Z" fill="white"/>
<path d="M150.37 297.467C168.684 297.467 184.501 295.094 198.718 290.13C212.417 285.408 224.876 277.656 235.164 267.452C245.865 256.704 252.878 243.954 255.451 230.614C257.871 217.98 256.642 203.525 251.792 187.621C246.904 171.575 240.072 159.684 230.924 151.26C225.969 146.706 219.738 142.685 211.305 138.483C188.379 127.232 163.187 121.366 137.649 121.331C129.227 121.323 120.818 121.961 112.494 123.237C98.1149 125.447 86.7664 129.326 77.7237 135.09C66.1465 142.485 57.1515 153.662 50.9961 168.307C45.6982 180.923 42.7253 195.816 42.4204 211.367C41.9058 236.389 47.7087 255.96 59.6861 269.491C71.2443 282.612 88.6816 290.644 114.314 294.551V294.856C126.266 296.477 138.308 297.349 150.37 297.467Z" fill="white"/>
<path d="M206.741 137.29C226.951 146.094 247.714 155.032 269.687 156.347C275.318 156.69 282.426 157.529 284.103 162.922C284.502 164.57 284.554 166.284 284.256 167.953C283.165 177.244 280.591 186.3 276.633 194.776C275.918 196.31 275.042 197.93 273.508 198.587C271.192 199.636 268.581 198.178 266.475 196.777C243.712 181.674 220.09 167.153 193.877 159.463L206.741 137.29Z" fill="#E21E26"/>
<path d="M266.618 156.11C266.513 162.78 264.188 169.793 262.368 175.948C260.874 180.968 259.121 185.907 257.118 190.746C256.394 190.27 255.66 189.793 254.927 189.345C256.699 185.02 258.281 180.636 259.634 176.158C261.539 169.983 264.026 162.589 264.055 155.833C264.912 155.938 265.761 156.034 266.618 156.11Z" fill="white"/>
<path d="M268.896 198.264C268.128 197.892 267.386 197.469 266.676 196.997C273.797 184.922 276.731 170.833 275.023 156.919C275.926 157.075 276.82 157.282 277.7 157.539C279.226 171.708 276.138 185.991 268.896 198.264Z" fill="white"/>
<path d="M261.387 193.509C266.333 181.627 270.268 169.287 269.077 156.348L269.668 156.395C270.325 156.395 271.002 156.481 271.688 156.548C272.822 169.888 268.696 182.713 263.57 194.986L261.387 193.509Z" fill="white"/>
<path d="M153.924 155.814C161.156 155.814 168.598 155.461 176.04 154.727C184.616 153.889 195.879 152.488 206.389 149.105C212.503 147.252 218.289 144.455 223.54 140.816C236.089 131.763 238.519 111.877 238.853 100.796C239.072 93.4109 239.081 85.5498 237.633 77.8412C233.688 56.9355 218.137 37.4114 197.032 26.8633C183.587 20.1933 168.179 16.7439 151.228 16.7153C144.625 16.7191 138.032 17.216 131.503 18.2018C120.155 19.9169 111.494 22.6707 104.328 26.8919C94.1038 32.8949 85.6329 42.6902 79.8205 55.2203C75.1991 65.2063 72.1976 76.7454 70.4634 91.5433C69.5105 99.3376 68.815 108.542 70.5587 117.69C72.3787 127.218 76.838 135.432 83.1078 140.711C92.7508 148.82 108.13 151.106 120.479 152.945L124.529 153.555C134.255 155.059 144.082 155.814 153.924 155.814Z" fill="white"/>
<path d="M147.53 75.1077C145.482 75.9367 143.605 77.2326 141.451 77.7281C136.229 78.9192 130.512 75.2983 125.653 77.509C123.938 78.2808 122.546 79.7196 120.746 80.2627C118.945 80.8058 116.82 80.3389 114.885 79.9101C107.378 78.2716 99.6513 77.8821 92.0168 78.7572C89.8824 79.0049 87.2526 79.853 87.0525 81.9874C95.5786 85.2623 104.346 87.8714 113.275 89.7913C115.848 90.3439 118.497 90.868 120.717 92.2878C122.937 93.7075 124.528 95.9467 126.663 97.5571C132.685 102.178 139.736 101.321 146.673 102.655C152.905 103.865 158.326 105.666 161.861 98.1002C163.862 93.8219 163.596 88.8575 163.176 84.1504C163.091 81.9168 162.631 79.7134 161.814 77.6328C161.414 76.7292 160.811 75.9303 160.051 75.2983C157.192 72.9543 150.684 73.8214 147.53 75.1077Z" fill="#F15A24"/>
<path d="M87.9671 78.5854C95.6877 81.8101 103.626 84.4878 111.722 86.5989C114.276 87.2564 116.905 87.8948 119.059 89.4004C121.212 90.9059 122.737 93.2118 124.776 94.9174C130.598 99.7865 137.678 99.2243 144.557 100.854C150.732 102.321 156.068 104.341 159.927 96.9375C162.109 92.7449 162.042 87.7805 161.833 83.0543C161.808 81.2296 161.575 79.4137 161.137 77.6421C161.44 78.0859 161.692 78.5621 161.89 79.0619C162.62 81.1734 162.987 83.3931 162.976 85.627C163.195 90.3913 163.262 95.3176 161.07 99.5102C157.259 106.914 151.885 104.894 145.701 103.426C138.831 101.797 131.741 102.359 125.919 97.4901C123.89 95.7941 122.375 93.4977 120.202 91.9731C118.03 90.4485 115.438 89.8291 112.875 89.1717C104.036 86.872 95.3875 83.8967 87.0048 80.272C87.0968 79.607 87.4414 79.003 87.9671 78.5854Z" fill="#E05422"/>
<path d="M213.636 104.373C213.645 97.1053 207.12 91.2058 199.064 91.196C191.007 91.1862 184.468 97.0696 184.459 104.337C184.45 111.605 190.974 117.504 199.031 117.514C207.088 117.524 213.627 111.64 213.636 104.373Z" fill="#FFC6BE"/>
<path d="M103.837 99.6604C103.846 92.3929 97.3215 86.4934 89.2647 86.4836C81.2078 86.4738 74.6692 92.3572 74.6604 99.6247C74.6515 106.892 81.1757 112.792 89.2325 112.802C97.2894 112.811 103.828 106.928 103.837 99.6604Z" fill="#FFC6BE"/>
<path d="M204.969 144.771L256.48 168.678C258.062 169.412 259.767 170.279 260.415 171.899C260.804 173.311 260.727 174.812 260.196 176.177C257.389 186.178 253.285 195.769 247.99 204.706C247.237 205.983 246.294 207.355 244.836 207.641C243.378 207.926 241.863 206.888 240.672 205.878C232.449 198.903 225.426 190.632 217.422 183.4C209.418 176.168 200.166 169.822 189.589 167.783L204.969 144.771Z" fill="#CC181F"/>
<path d="M212.153 166.774C201.567 169.861 190.419 170.747 179.346 171.004C150.411 171.675 121.53 168.18 93.5892 160.628C85.7281 158.503 77.8289 155.987 71.197 151.433C64.5651 146.878 59.2863 139.998 58.6574 132.194C58.162 126.201 61.9162 119.093 68.186 118.95C74.4558 118.807 78.372 125.315 82.6027 129.869C88.9202 136.673 98.3535 140.046 107.663 141.971C137.83 148.183 169.189 141.637 198.87 133.566C208.666 130.898 232.22 123.885 236.766 137.635C241.654 152.271 224.226 163.229 212.153 166.774Z" fill="#DF1A22"/>
<path d="M241.644 161.807C238.946 173.416 234.861 184.658 229.476 195.29L227.57 193.385C232.758 183.003 236.683 172.037 239.262 160.721L241.644 161.807Z" fill="white"/>
<path d="M233.421 199.217L231.515 197.368C237.634 186.796 242.644 175.62 246.466 164.018L248.8 165.104C244.885 176.983 239.73 188.417 233.421 199.217V199.217Z" fill="white"/>
<path d="M239.386 204.772C238.738 204.2 238.081 203.638 237.481 203.047C244.641 192.009 249.862 179.827 252.917 167.029L255.299 168.135C252.095 181.156 246.715 193.542 239.386 204.772V204.772Z" fill="white"/>
<path d="M216.27 58.7659C180.445 45.0447 141.59 41.2106 103.775 47.6651C96.2381 48.9705 88.7772 50.6761 81.1924 51.629C80.6949 51.7576 80.176 51.7808 79.6689 51.6971C79.1619 51.6134 78.6779 51.4247 78.2481 51.143C77.7144 50.5445 77.4164 49.7724 77.4096 48.9705C76.2376 37.7744 83.4126 27.2453 92.0646 19.8321C106.739 7.28296 126.263 0.77492 145.758 0.0698047C165.254 -0.63531 184.682 4.05276 202.51 11.809C208.482 14.2522 214.125 17.4307 219.309 21.2709C227.542 27.6741 233.478 36.469 238.366 45.5783C240.634 49.8376 250.525 69.819 242.769 72.306C239.51 73.3446 234.717 68.4945 232.354 66.9319C227.309 63.6263 221.915 60.8877 216.27 58.7659V58.7659Z" fill="#E21E26"/>
<path d="M226.16 35.0589L226.446 34.7826C226.563 34.6504 226.705 34.5435 226.864 34.4686C227.024 34.3936 227.197 34.3522 227.373 34.3468C227.549 34.3414 227.724 34.3723 227.887 34.4374C228.051 34.5025 228.2 34.6005 228.324 34.7253C228.448 34.8502 228.545 34.9992 228.609 35.1632C228.674 35.3271 228.704 35.5025 228.697 35.6785C228.691 35.8545 228.649 36.0273 228.573 36.1862C228.497 36.3452 228.389 36.4869 228.257 36.6026L227.971 36.8884C227.851 37.0073 227.708 37.1013 227.552 37.1652C227.395 37.229 227.228 37.2614 227.059 37.2606C226.89 37.2597 226.723 37.2255 226.567 37.16C226.411 37.0945 226.27 36.999 226.151 36.8789C226.032 36.7587 225.938 36.6164 225.874 36.4599C225.81 36.3034 225.778 36.1359 225.779 35.9669C225.78 35.7979 225.814 35.6308 225.879 35.475C225.945 35.3192 226.04 35.1778 226.16 35.0589V35.0589Z" fill="white"/>
<path d="M214.783 24.0918C214.442 24.0918 214.114 23.9562 213.873 23.715C213.632 23.4738 213.496 23.1466 213.496 22.8054C213.496 22.4642 213.632 22.1371 213.873 21.8958C214.114 21.6546 214.442 21.519 214.783 21.519C215.124 21.519 215.451 21.6546 215.692 21.8958C215.934 22.1371 216.069 22.4642 216.069 22.8054C216.069 23.1466 215.934 23.4738 215.692 23.715C215.451 23.9562 215.124 24.0918 214.783 24.0918V24.0918Z" fill="white"/>
<path d="M203.339 29.2268C203.016 29.199 202.715 29.0509 202.496 28.8118C202.276 28.5728 202.154 28.2601 202.154 27.9357C202.154 27.6112 202.276 27.2985 202.496 27.0595C202.715 26.8204 203.016 26.6723 203.339 26.6445C203.663 26.6723 203.964 26.8204 204.183 27.0595C204.402 27.2985 204.524 27.6112 204.524 27.9357C204.524 28.2601 204.402 28.5728 204.183 28.8118C203.964 29.0509 203.663 29.199 203.339 29.2268Z" fill="white"/>
<path d="M193.782 14.2014V14.7731C193.797 14.952 193.775 15.1321 193.717 15.302C193.659 15.472 193.567 15.628 193.445 15.7603C193.324 15.8926 193.177 15.9982 193.012 16.0705C192.848 16.1427 192.67 16.18 192.491 16.18C192.311 16.18 192.134 16.1427 191.969 16.0705C191.805 15.9982 191.657 15.8926 191.536 15.7603C191.415 15.628 191.322 15.472 191.264 15.302C191.206 15.1321 191.184 14.952 191.2 14.7731C191.2 14.5826 191.2 14.392 191.2 14.2014C191.205 13.8618 191.342 13.5374 191.582 13.2973C191.822 13.0571 192.146 12.92 192.486 12.915C192.826 12.9247 193.149 13.0647 193.388 13.3059C193.628 13.5471 193.765 13.8711 193.772 14.2109L193.782 14.2014Z" fill="white"/>
<path d="M183.472 24.7958V24.51C183.472 24.1688 183.608 23.8416 183.849 23.6004C184.09 23.3591 184.417 23.2236 184.759 23.2236C185.1 23.2236 185.427 23.3591 185.668 23.6004C185.909 23.8416 186.045 24.1688 186.045 24.51V24.7958C186.045 25.137 185.909 25.4642 185.668 25.7054C185.427 25.9467 185.1 26.0822 184.759 26.0822C184.417 26.0822 184.09 25.9467 183.849 25.7054C183.608 25.4642 183.472 25.137 183.472 24.7958Z" fill="white"/>
<path d="M174.191 12.6001C173.85 12.6001 173.523 12.4645 173.282 12.2233C173.041 11.9821 172.905 11.6549 172.905 11.3137C172.905 10.9725 173.041 10.6454 173.282 10.4041C173.523 10.1629 173.85 10.0273 174.191 10.0273C174.533 10.0273 174.86 10.1629 175.101 10.4041C175.342 10.6454 175.478 10.9725 175.478 11.3137C175.478 11.6549 175.342 11.9821 175.101 12.2233C174.86 12.4645 174.533 12.6001 174.191 12.6001V12.6001Z" fill="white"/>
<path d="M162.738 20.8804H163.024C163.365 20.8804 163.692 21.0159 163.934 21.2571C164.175 21.4984 164.31 21.8255 164.31 22.1667C164.31 22.5079 164.175 22.8351 163.934 23.0763C163.692 23.3175 163.365 23.4531 163.024 23.4531H162.738C162.397 23.4531 162.07 23.3175 161.829 23.0763C161.587 22.8351 161.452 22.5079 161.452 22.1667C161.452 21.8255 161.587 21.4984 161.829 21.2571C162.07 21.0159 162.397 20.8804 162.738 20.8804Z" fill="white"/>
<path d="M153.6 13.143C153.259 13.143 152.932 13.0075 152.69 12.7663C152.449 12.525 152.314 12.1978 152.314 11.8567C152.314 11.5155 152.449 11.1883 152.69 10.9471C152.932 10.7058 153.259 10.5703 153.6 10.5703C153.941 10.5703 154.268 10.7058 154.51 10.9471C154.751 11.1883 154.886 11.5155 154.886 11.8567C154.886 12.1978 154.751 12.525 154.51 12.7663C154.268 13.0075 153.941 13.143 153.6 13.143V13.143Z" fill="white"/>
<path d="M140.994 23.1391C140.652 23.1391 140.325 23.0036 140.084 22.7624C139.843 22.5211 139.707 22.1939 139.707 21.8528C139.707 21.5116 139.843 21.1844 140.084 20.9432C140.325 20.7019 140.652 20.5664 140.994 20.5664C141.335 20.5664 141.662 20.7019 141.903 20.9432C142.144 21.1844 142.28 21.5116 142.28 21.8528C142.28 22.1939 142.144 22.5211 141.903 22.7624C141.662 23.0036 141.335 23.1391 140.994 23.1391Z" fill="white"/>
<path d="M133.733 9.25511V9.54096C133.733 9.88212 133.598 10.2093 133.357 10.4505C133.115 10.6918 132.788 10.8273 132.447 10.8273C132.106 10.8273 131.779 10.6918 131.537 10.4505C131.296 10.2093 131.161 9.88212 131.161 9.54096V9.25511C131.161 8.91395 131.296 8.58676 131.537 8.34553C131.779 8.10429 132.106 7.96875 132.447 7.96875C132.788 7.96875 133.115 8.10429 133.357 8.34553C133.598 8.58676 133.733 8.91395 133.733 9.25511V9.25511Z" fill="white"/>
<path d="M120.983 21.938C120.642 21.938 120.315 21.8024 120.074 21.5612C119.833 21.3199 119.697 20.9928 119.697 20.6516C119.697 20.3104 119.833 19.9832 120.074 19.742C120.315 19.5008 120.642 19.3652 120.983 19.3652C121.325 19.3652 121.652 19.5008 121.893 19.742C122.134 19.9832 122.27 20.3104 122.27 20.6516C122.27 20.9928 122.134 21.3199 121.893 21.5612C121.652 21.8024 121.325 21.938 120.983 21.938V21.938Z" fill="white"/>
<path d="M113.428 11.2365V11.5224C113.428 11.8636 113.292 12.1908 113.051 12.432C112.81 12.6732 112.483 12.8088 112.141 12.8088C111.8 12.8088 111.473 12.6732 111.232 12.432C110.991 12.1908 110.855 11.8636 110.855 11.5224V11.2365C110.86 10.8969 110.997 10.5726 111.237 10.3324C111.477 10.0922 111.802 9.95512 112.141 9.9502C112.481 9.9599 112.804 10.0998 113.044 10.341C113.283 10.5823 113.421 10.9063 113.428 11.2461V11.2365Z" fill="white"/>
<path d="M97.534 22.5097C97.1928 22.5097 96.8656 22.3742 96.6244 22.133C96.3831 21.8917 96.2476 21.5645 96.2476 21.2234C96.2476 20.8822 96.3831 20.555 96.6244 20.3138C96.8656 20.0725 97.1928 19.937 97.534 19.937C97.8751 19.937 98.2023 20.0725 98.4435 20.3138C98.6848 20.555 98.8203 20.8822 98.8203 21.2234C98.8203 21.5645 98.6848 21.8917 98.4435 22.133C98.2023 22.3742 97.8751 22.5097 97.534 22.5097V22.5097Z" fill="white"/>
<path d="M162.1 27.2449C178.679 28.0548 194.497 30.1035 210.238 35.4299C218.252 38.1361 226.084 41.3186 233.888 44.5488C235.555 45.2349 237.223 45.9209 238.881 46.6356C239.338 47.5313 239.92 48.7128 240.558 50.0754C236.689 48.3031 232.678 46.7975 228.8 45.2158C221.958 42.4239 215.079 39.7178 208.056 37.4119C192.448 32.295 176.764 30.5227 160.413 29.7414C144.71 28.9886 128.893 27.6642 113.17 27.8357C102.084 27.9219 91.094 29.9071 80.678 33.7053C81.2989 32.5279 81.9795 31.383 82.7171 30.275C92.0228 27.1716 101.743 25.4883 111.551 25.282C128.368 24.9199 145.32 26.435 162.1 27.2449Z" fill="white"/>
<path d="M78.0287 40.6237C123.766 27.1979 173.362 29.4752 218.537 44.3684C226.351 46.9507 235.231 49.5806 242.359 54.2877C242.93 55.6979 243.483 57.1462 243.959 58.6422C239.881 55.3167 234.898 53.1157 229.952 51.1909C222.415 48.2561 214.707 45.7119 206.941 43.568C191.216 39.1307 175.092 36.2581 158.802 34.9923C131.399 32.8087 103.827 35.6898 77.4666 43.4918C77.5963 42.5253 77.784 41.5676 78.0287 40.6237V40.6237Z" fill="white"/>
<path d="M218.175 35.1541C214.731 30.2026 210.881 25.5461 206.665 21.2328L198.432 27.4455C198.135 27.6106 197.785 27.6543 197.457 27.5672C197.128 27.4802 196.846 27.2692 196.669 26.9786C193.966 22.5267 190.093 18.9015 185.473 16.4971C182.322 20.0266 178.291 22.6571 173.791 24.12C173.518 24.1927 173.229 24.1744 172.968 24.0678C172.706 23.9611 172.487 23.772 172.343 23.5292C170.798 20.0036 168.761 16.7152 166.292 13.7624C163.605 17.4976 159.317 22.2333 155.001 23.0528C153.028 23.4244 151.942 22.7098 150.532 21.471C147.559 18.8412 144.815 15.8492 142.032 12.9906C138.971 16.9825 134.971 20.1572 130.388 22.2333C130.216 22.3302 130.025 22.3871 129.827 22.3997C129.63 22.4124 129.433 22.3804 129.25 22.3063C129.067 22.2321 128.903 22.1177 128.77 21.9714C128.637 21.8252 128.539 21.6509 128.483 21.4615C127.738 18.2594 126.829 15.0981 125.758 11.9901C120.633 15.92 115.046 19.2065 109.121 21.7759C108.823 21.9387 108.474 21.981 108.146 21.8942C107.818 21.8073 107.536 21.5979 107.358 21.309C105.822 18.287 104.031 15.402 102.003 12.6857C102.737 12.2379 103.47 11.79 104.223 11.3707C106.016 13.7893 107.627 16.3372 109.044 18.9936C114.922 16.3499 120.444 12.979 125.481 8.96002C125.643 8.80544 125.842 8.69499 126.058 8.63928C126.275 8.58356 126.502 8.58447 126.718 8.64186C126.935 8.69926 127.132 8.81123 127.293 8.96705C127.453 9.12288 127.571 9.31733 127.635 9.53174C128.785 12.7189 129.77 15.9629 130.589 19.2509C134.66 17.1578 138.162 14.1069 140.794 10.3607C140.896 10.194 141.034 10.0524 141.198 9.94626C141.362 9.84013 141.548 9.77222 141.742 9.74753C141.936 9.72284 142.133 9.74199 142.318 9.8036C142.504 9.8652 142.673 9.96765 142.814 10.1034L148.178 15.468C149.789 17.0784 152.323 20.7659 154.944 20.28C158.888 19.5367 163.033 14.0673 165.053 11.0087C165.154 10.8405 165.292 10.6975 165.456 10.5903C165.62 10.4831 165.806 10.4145 166.001 10.3897C166.195 10.365 166.393 10.3846 166.579 10.4473C166.765 10.5099 166.934 10.6139 167.073 10.7514C169.922 13.8792 172.291 17.4113 174.106 21.2328C178.073 19.724 181.578 17.2046 184.273 13.9244C184.474 13.7262 184.735 13.5993 185.016 13.5632C185.296 13.5271 185.58 13.5837 185.826 13.7243C190.797 16.1259 195.032 19.8181 198.089 24.4154L206.16 18.3361C206.406 18.1916 206.692 18.1327 206.975 18.169C207.258 18.2052 207.521 18.3344 207.722 18.5362C211.885 22.7582 215.708 27.3015 219.157 32.124C220.618 29.7418 222.184 27.4423 223.854 25.2253C224.474 25.8351 225.064 26.4545 225.655 27.131C223.741 29.6891 221.975 32.3551 220.367 35.1159C220.25 35.2989 220.09 35.4501 219.9 35.5561C219.711 35.6621 219.498 35.7195 219.281 35.7233C219.064 35.727 218.85 35.677 218.657 35.5777C218.464 35.4784 218.298 35.3329 218.175 35.1541V35.1541Z" fill="white"/>
<path d="M253.774 96.1469C256.537 101.102 260.034 105.675 261.873 111.059C263.712 116.443 263.522 122.989 259.529 127.01C258.124 128.319 256.452 129.31 254.628 129.913C252.804 130.517 250.871 130.719 248.962 130.507C245.139 130.05 241.484 128.674 238.309 126.495C234.736 124.296 231.688 121.339 229.381 117.834C227.213 114.108 225.783 109.999 225.169 105.733C222.98 93.0344 224.57 79.9728 229.743 68.1709C232.897 61.015 243.921 57.7657 245.551 67.3896C247.285 77.5566 248.667 86.9613 253.774 96.1469Z" fill="#E21E26"/>
<path d="M228.942 117.081C227.953 115.326 227.154 113.47 226.56 111.545C236.508 122.483 254.098 120.978 260.968 108.781C261.301 109.524 261.606 110.277 261.921 111.059C262.006 111.306 262.083 111.564 262.159 111.821C254.812 122.331 239.691 124.561 228.942 117.081Z" fill="white"/>
<path d="M238.586 100.787C233.364 100.234 228.209 98.8811 224.226 95.7367C224.226 94.5933 224.226 93.4498 224.226 92.3159C228.228 96.4704 234.183 97.852 239.996 98.3475C244.694 98.7477 250.058 99.3004 254.613 97.671L255.928 99.853C250.573 101.978 244.303 101.397 238.586 100.787Z" fill="white"/>
<path d="M241.806 110.173C248.152 110.782 254.46 108.419 258.224 103.503C258.691 104.293 259.177 105.094 259.567 105.894C257.688 108.017 255.39 109.726 252.816 110.915C250.243 112.104 247.451 112.747 244.617 112.802C237.232 113.041 230.61 109.877 225.112 105.284C224.893 103.989 224.712 102.674 224.569 101.368C229.324 105.999 235.05 109.534 241.806 110.173Z" fill="white"/>
<path d="M259.787 119.13C259.445 119.13 259.118 118.995 258.877 118.754C258.636 118.512 258.5 118.185 258.5 117.844C258.5 117.503 258.636 117.176 258.877 116.934C259.118 116.693 259.445 116.558 259.787 116.558C260.128 116.558 260.455 116.693 260.696 116.934C260.937 117.176 261.073 117.503 261.073 117.844C261.073 118.185 260.937 118.512 260.696 118.754C260.455 118.995 260.128 119.13 259.787 119.13V119.13Z" fill="white"/>
<path d="M256.061 124.523H255.775C255.434 124.523 255.107 124.387 254.865 124.146C254.624 123.905 254.489 123.578 254.489 123.237C254.489 122.895 254.624 122.568 254.865 122.327C255.107 122.086 255.434 121.95 255.775 121.95H256.061C256.4 121.955 256.725 122.092 256.965 122.332C257.205 122.573 257.342 122.897 257.347 123.237C257.337 123.576 257.197 123.899 256.956 124.139C256.715 124.378 256.391 124.516 256.051 124.523H256.061Z" fill="white"/>
<path d="M248.667 126.515H248.381C248.04 126.515 247.712 126.379 247.471 126.138C247.23 125.897 247.094 125.569 247.094 125.228C247.094 124.887 247.23 124.56 247.471 124.319C247.712 124.077 248.04 123.942 248.381 123.942H248.667C249.008 123.942 249.335 124.077 249.576 124.319C249.817 124.56 249.953 124.887 249.953 125.228C249.953 125.569 249.817 125.897 249.576 126.138C249.335 126.379 249.008 126.515 248.667 126.515Z" fill="white"/>
<path d="M240.625 125.647C240.284 125.647 239.956 125.511 239.715 125.27C239.474 125.029 239.338 124.702 239.338 124.361C239.338 124.019 239.474 123.692 239.715 123.451C239.956 123.21 240.284 123.074 240.625 123.074C240.966 123.074 241.293 123.21 241.534 123.451C241.776 123.692 241.911 124.019 241.911 124.361C241.911 124.702 241.776 125.029 241.534 125.27C241.293 125.511 240.966 125.647 240.625 125.647V125.647Z" fill="white"/>
<path d="M247.495 117.071C247.153 117.071 246.826 116.935 246.585 116.694C246.344 116.453 246.208 116.126 246.208 115.784C246.208 115.443 246.344 115.116 246.585 114.875C246.826 114.634 247.153 114.498 247.495 114.498C247.836 114.498 248.163 114.634 248.404 114.875C248.645 115.116 248.781 115.443 248.781 115.784C248.781 116.126 248.645 116.453 248.404 116.694C248.163 116.935 247.836 117.071 247.495 117.071V117.071Z" fill="white"/>
<path d="M240.634 116.776C240.293 116.776 239.966 116.641 239.725 116.4C239.483 116.158 239.348 115.831 239.348 115.49C239.348 115.149 239.483 114.822 239.725 114.58C239.966 114.339 240.293 114.204 240.634 114.204C240.975 114.204 241.303 114.339 241.544 114.58C241.785 114.822 241.921 115.149 241.921 115.49C241.921 115.831 241.785 116.158 241.544 116.4C241.303 116.641 240.975 116.776 240.634 116.776V116.776Z" fill="white"/>
<path d="M232.058 114.48C231.717 114.48 231.39 114.344 231.149 114.103C230.908 113.862 230.772 113.535 230.772 113.194C230.772 112.852 230.908 112.525 231.149 112.284C231.39 112.043 231.717 111.907 232.058 111.907C232.4 111.907 232.727 112.043 232.968 112.284C233.209 112.525 233.345 112.852 233.345 113.194C233.345 113.535 233.209 113.862 232.968 114.103C232.727 114.344 232.4 114.48 232.058 114.48Z" fill="white"/>
<path d="M250.992 105.837L250.706 106.122C250.461 106.357 250.135 106.488 249.796 106.488C249.457 106.488 249.131 106.357 248.886 106.122C248.647 105.88 248.512 105.553 248.512 105.212C248.512 104.872 248.647 104.545 248.886 104.302L249.172 104.017C249.413 103.775 249.74 103.64 250.082 103.64C250.423 103.64 250.75 103.775 250.992 104.017C251.233 104.258 251.368 104.585 251.368 104.927C251.368 105.268 251.233 105.595 250.992 105.837Z" fill="white"/>
<path d="M243.502 107.628H243.217C242.876 107.626 242.55 107.49 242.31 107.249C242.069 107.008 241.933 106.682 241.93 106.342C241.937 106.003 242.075 105.68 242.315 105.44C242.555 105.201 242.878 105.063 243.217 105.056H243.502C243.844 105.056 244.171 105.191 244.412 105.432C244.653 105.674 244.789 106.001 244.789 106.342C244.789 106.683 244.653 107.01 244.412 107.252C244.171 107.493 243.844 107.628 243.502 107.628V107.628Z" fill="white"/>
<path d="M236.07 105.619H235.784C235.443 105.616 235.118 105.48 234.877 105.239C234.636 104.998 234.5 104.673 234.497 104.332C234.505 103.993 234.643 103.67 234.882 103.431C235.122 103.191 235.445 103.053 235.784 103.046H236.07C236.411 103.046 236.738 103.181 236.979 103.423C237.221 103.664 237.356 103.991 237.356 104.332C237.356 104.673 237.221 105.001 236.979 105.242C236.738 105.483 236.411 105.619 236.07 105.619V105.619Z" fill="white"/>
<path d="M128.968 188.307C128.968 191.785 132.037 194.605 135.829 194.615C139.621 194.624 142.699 191.756 142.699 188.326C142.699 184.895 139.631 182.037 135.848 182.027C132.065 182.018 128.978 184.876 128.968 188.307Z" fill="black"/>
<path d="M144.297 226.031C144.301 222.557 141.233 219.738 137.444 219.733C133.655 219.729 130.58 222.541 130.576 226.014C130.572 229.487 133.64 232.306 137.429 232.311C141.218 232.316 144.293 229.504 144.297 226.031Z" fill="black"/>
<path d="M2.76241 142.264C9.34984 140.543 15.9849 139.107 22.6676 137.957C22.6676 132.202 22.6676 126.444 22.6676 120.682C22.6676 115.584 30.2238 115.794 30.2333 120.892C30.2333 127.015 30.2333 133.142 30.2333 139.272C42.9841 148.654 55.2027 158.738 66.8326 169.478C70.4915 172.851 64.9269 178.282 61.3346 174.928C49.9534 164.44 37.9886 154.604 25.4976 145.466C18.4655 146.66 11.4779 148.159 4.53472 149.963C-0.172403 151.212 -1.93518 143.513 2.76241 142.264Z" fill="#603813"/>
<path d="M162.09 67.0463C162.066 67.9357 162.306 68.8124 162.78 69.5653C163.254 70.3182 163.941 70.9136 164.754 71.2761C165.566 71.6385 166.468 71.7518 167.345 71.6016C168.222 71.4513 169.035 71.0443 169.68 70.432C170.326 69.8197 170.776 69.0297 170.972 68.1619C171.169 67.2941 171.103 66.3874 170.784 65.5568C170.465 64.7261 169.907 64.0086 169.181 63.4953C168.454 62.9819 167.591 62.6956 166.702 62.6726C166.111 62.6562 165.524 62.7563 164.972 62.9673C164.421 63.1784 163.917 63.4961 163.488 63.9024C163.06 64.3087 162.716 64.7955 162.476 65.335C162.236 65.8745 162.105 66.456 162.09 67.0463V67.0463Z" fill="#231F20"/>
<path d="M170.129 114.613C172.059 113.05 172.356 110.217 170.793 108.287C169.229 106.357 166.397 106.06 164.467 107.624C162.537 109.187 162.24 112.019 163.803 113.949C165.367 115.879 168.199 116.177 170.129 114.613Z" fill="#BCBEC0"/>
<path d="M152.771 118.91C152.687 119.793 152.866 120.682 153.286 121.463C153.707 122.244 154.349 122.883 155.132 123.299C155.916 123.716 156.805 123.891 157.687 123.802C158.57 123.713 159.406 123.365 160.091 122.801C160.776 122.238 161.278 121.483 161.535 120.634C161.791 119.785 161.791 118.879 161.532 118.03C161.274 117.182 160.77 116.429 160.084 115.866C159.398 115.304 158.561 114.957 157.678 114.87C157.091 114.812 156.497 114.871 155.932 115.043C155.367 115.215 154.842 115.496 154.386 115.872C153.93 116.247 153.553 116.709 153.276 117.23C152.999 117.752 152.827 118.322 152.771 118.91Z" fill="#BCBEC0"/>
<path d="M139.812 121.73C139.728 122.613 139.907 123.501 140.328 124.283C140.748 125.064 141.39 125.703 142.173 126.119C142.957 126.536 143.846 126.711 144.728 126.622C145.611 126.533 146.448 126.185 147.132 125.621C147.817 125.057 148.32 124.303 148.576 123.454C148.833 122.605 148.832 121.699 148.574 120.85C148.315 120.001 147.811 119.248 147.126 118.686C146.44 118.123 145.602 117.777 144.719 117.69C144.132 117.632 143.539 117.691 142.974 117.863C142.409 118.035 141.883 118.316 141.427 118.692C140.972 119.067 140.594 119.529 140.317 120.05C140.04 120.571 139.868 121.142 139.812 121.73V121.73Z" fill="#BCBEC0"/>
<path d="M127.177 118.997C127.093 119.88 127.272 120.768 127.692 121.549C128.113 122.33 128.755 122.97 129.538 123.386C130.322 123.802 131.211 123.977 132.093 123.889C132.976 123.8 133.812 123.452 134.497 122.888C135.182 122.324 135.684 121.57 135.941 120.721C136.197 119.872 136.197 118.965 135.938 118.117C135.68 117.268 135.176 116.515 134.49 115.952C133.804 115.39 132.967 115.044 132.084 114.957C131.497 114.899 130.903 114.958 130.338 115.129C129.773 115.301 129.248 115.583 128.792 115.958C128.336 116.334 127.959 116.795 127.682 117.317C127.405 117.838 127.233 118.409 127.177 118.997V118.997Z" fill="#BCBEC0"/>
<path d="M116.505 111.507C116.419 112.392 116.597 113.283 117.017 114.066C117.437 114.85 118.08 115.492 118.865 115.911C119.65 116.329 120.541 116.506 121.426 116.418C122.311 116.33 123.15 115.982 123.837 115.417C124.524 114.853 125.028 114.097 125.286 113.246C125.544 112.395 125.543 111.486 125.285 110.635C125.026 109.784 124.522 109.029 123.834 108.465C123.146 107.901 122.307 107.554 121.422 107.466C120.834 107.409 120.24 107.467 119.674 107.639C119.109 107.811 118.583 108.092 118.126 108.467C117.67 108.843 117.291 109.304 117.013 109.826C116.735 110.347 116.562 110.918 116.505 111.507V111.507Z" fill="#BCBEC0"/>
<path d="M125.748 65.1876C125.722 66.0774 125.96 66.955 126.433 67.7091C126.906 68.4632 127.592 69.0601 128.405 69.424C129.217 69.7879 130.119 69.9026 130.997 69.7534C131.874 69.6043 132.688 69.1981 133.335 68.5863C133.981 67.9744 134.432 67.1844 134.629 66.3164C134.826 65.4484 134.762 64.5413 134.443 63.7101C134.124 62.8788 133.566 62.1608 132.839 61.647C132.113 61.1331 131.25 60.8465 130.36 60.8235C129.77 60.807 129.183 60.9069 128.632 61.1173C128.082 61.3277 127.578 61.6447 127.149 62.0499C126.721 62.4552 126.377 62.9409 126.136 63.4793C125.896 64.0177 125.764 64.5982 125.748 65.1876V65.1876Z" fill="#231F20"/>
</svg>
